<svg width="90" height="29" viewBox="0 0 90 29" fill="none" xmlns="http://www.w3.org/2000/svg">
<path d="M56.9754 21.0338H55.3458C55.316 20.8229 55.2553 20.6356 55.1635 20.4719C55.0717 20.3057 54.9539 20.1643 54.8101 20.0477C54.6662 19.9311 54.5 19.8418 54.3115 19.7798C54.1255 19.7178 53.9233 19.6868 53.7051 19.6868C53.3107 19.6868 52.9672 19.7848 52.6745 19.9807C52.3818 20.1742 52.1549 20.457 51.9937 20.8291C51.8324 21.1988 51.7518 21.6478 51.7518 22.1762C51.7518 22.7195 51.8324 23.1759 51.9937 23.5456C52.1574 23.9152 52.3855 24.1943 52.6782 24.3828C52.9709 24.5714 53.3095 24.6656 53.6939 24.6656C53.9097 24.6656 54.1094 24.6371 54.2929 24.58C54.4789 24.523 54.6439 24.4399 54.7877 24.3307C54.9316 24.2191 55.0507 24.0839 55.1449 23.9251C55.2416 23.7664 55.3086 23.5853 55.3458 23.3818L56.9754 23.3893C56.9332 23.7391 56.8278 24.0764 56.6591 24.4014C56.493 24.7239 56.2685 25.0129 55.9857 25.2684C55.7055 25.5215 55.3706 25.7224 54.9812 25.8713C54.5943 26.0176 54.1565 26.0908 53.6679 26.0908C52.9883 26.0908 52.3806 25.937 51.8448 25.6294C51.3116 25.3218 50.8899 24.8765 50.5799 24.2935C50.2723 23.7105 50.1185 23.0048 50.1185 22.1762C50.1185 21.3451 50.2748 20.6381 50.5873 20.0552C50.8998 19.4722 51.324 19.0281 51.8597 18.723C52.3955 18.4154 52.9982 18.2616 53.6679 18.2616C54.1094 18.2616 54.5186 18.3236 54.8956 18.4476C55.2751 18.5717 55.6112 18.7528 55.9039 18.9909C56.1966 19.2266 56.4347 19.5156 56.6182 19.8579C56.8042 20.2003 56.9233 20.5922 56.9754 21.0338Z" fill="#09072F"/>
<path d="M60.6828 26.0983C60.1049 26.0983 59.6051 25.9755 59.1835 25.7299C58.7643 25.4818 58.4406 25.137 58.2124 24.6954C57.9843 24.2513 57.8702 23.7366 57.8702 23.1511C57.8702 22.5607 57.9843 22.0447 58.2124 21.6031C58.4406 21.1591 58.7643 20.8143 59.1835 20.5687C59.6051 20.3206 60.1049 20.1966 60.6828 20.1966C61.2608 20.1966 61.7593 20.3206 62.1785 20.5687C62.6001 20.8143 62.9251 21.1591 63.1532 21.6031C63.3814 22.0447 63.4955 22.5607 63.4955 23.1511C63.4955 23.7366 63.3814 24.2513 63.1532 24.6954C62.9251 25.137 62.6001 25.4818 62.1785 25.7299C61.7593 25.9755 61.2608 26.0983 60.6828 26.0983ZM60.6903 24.8703C60.9532 24.8703 61.1727 24.7959 61.3488 24.647C61.5249 24.4957 61.6576 24.2898 61.7469 24.0293C61.8387 23.7688 61.8846 23.4724 61.8846 23.14C61.8846 22.8075 61.8387 22.5111 61.7469 22.2506C61.6576 21.9901 61.5249 21.7842 61.3488 21.6329C61.1727 21.4816 60.9532 21.4059 60.6903 21.4059C60.4249 21.4059 60.2017 21.4816 60.0206 21.6329C59.842 21.7842 59.7068 21.9901 59.6151 22.2506C59.5258 22.5111 59.4811 22.8075 59.4811 23.14C59.4811 23.4724 59.5258 23.7688 59.6151 24.0293C59.7068 24.2898 59.842 24.4957 60.0206 24.647C60.2017 24.7959 60.4249 24.8703 60.6903 24.8703Z" fill="#09072F"/>
<path d="M68.1908 23.553V20.271H69.7757V25.9866H68.254V24.9484H68.1945C68.0655 25.2833 67.851 25.5525 67.5508 25.7559C67.2532 25.9593 66.8898 26.061 66.4607 26.061C66.0788 26.061 65.7427 25.9742 65.4525 25.8006C65.1623 25.6269 64.9354 25.3801 64.7717 25.0601C64.6104 24.74 64.5286 24.3568 64.5261 23.9102V20.271H66.111V23.6274C66.1135 23.9648 66.204 24.2315 66.3826 24.4275C66.5612 24.6235 66.8006 24.7214 67.1007 24.7214C67.2917 24.7214 67.4702 24.678 67.6364 24.5912C67.8026 24.5019 67.9365 24.3704 68.0382 24.1968C68.1424 24.0231 68.1933 23.8085 68.1908 23.553Z" fill="#09072F"/>
<path d="M72.6284 22.6823V25.9866H71.0435V20.271H72.554V21.2794H72.6209C72.7474 20.947 72.9595 20.684 73.2571 20.4905C73.5548 20.2945 73.9157 20.1966 74.3398 20.1966C74.7367 20.1966 75.0827 20.2834 75.3778 20.457C75.673 20.6307 75.9024 20.8788 76.0661 21.2013C76.2298 21.5213 76.3117 21.9033 76.3117 22.3474V25.9866H74.7267V22.6302C74.7292 22.2804 74.6399 22.0075 74.4589 21.8115C74.2778 21.6131 74.0285 21.5138 73.711 21.5138C73.4977 21.5138 73.3092 21.5597 73.1455 21.6515C72.9843 21.7433 72.8578 21.8773 72.766 22.0534C72.6767 22.227 72.6309 22.4367 72.6284 22.6823Z" fill="#09072F"/>
<path d="M80.6004 20.271V21.4617H77.159V20.271H80.6004ZM77.9403 18.9016H79.5252V24.2303C79.5252 24.3766 79.5475 24.4907 79.5922 24.5726C79.6368 24.652 79.6988 24.7078 79.7782 24.74C79.8601 24.7723 79.9543 24.7884 80.061 24.7884C80.1354 24.7884 80.2098 24.7822 80.2842 24.7698C80.3586 24.7549 80.4157 24.7438 80.4553 24.7363L80.7046 25.9159C80.6252 25.9407 80.5136 25.9693 80.3698 26.0015C80.2259 26.0362 80.0511 26.0573 79.8452 26.0648C79.4632 26.0796 79.1284 26.0288 78.8407 25.9122C78.5554 25.7956 78.3334 25.6145 78.1747 25.3689C78.0159 25.1233 77.9378 24.8132 77.9403 24.4386V18.9016Z" fill="#09072F"/>
<path d="M82.6114 28.13C82.4105 28.13 82.222 28.1139 82.0458 28.0816C81.8722 28.0518 81.7284 28.0134 81.6143 27.9663L81.9714 26.7829C82.1575 26.84 82.3249 26.871 82.4737 26.876C82.625 26.8809 82.7552 26.8462 82.8644 26.7718C82.976 26.6974 83.0665 26.5708 83.136 26.3922L83.229 26.1504L81.179 20.271H82.8458L84.0289 24.4684H84.0884L85.2827 20.271H86.9606L84.7395 26.6043C84.6328 26.9119 84.4877 27.1799 84.3042 27.4081C84.1231 27.6388 83.8937 27.8162 83.6159 27.9402C83.3381 28.0667 83.0033 28.13 82.6114 28.13Z" fill="#09072F"/>
<path d="M88.6052 26.1563C88.3339 26.1563 88.1009 26.0599 87.9062 25.8673C87.7143 25.6718 87.6184 25.4378 87.6184 25.1653C87.6184 24.8956 87.7143 24.6643 87.9062 24.4716C88.1009 24.2789 88.3339 24.1826 88.6052 24.1826C88.8684 24.1826 89.0987 24.2789 89.296 24.4716C89.4934 24.6643 89.5921 24.8956 89.5921 25.1653C89.5921 25.347 89.5455 25.5135 89.4523 25.6649C89.3618 25.8136 89.2426 25.9333 89.0946 26.0242C88.9465 26.1122 88.7834 26.1563 88.6052 26.1563Z" fill="white"/>
<g filter="url(#filter0_d_315_2907)">
<path d="M10.9943 7.17765C10.9427 6.64846 10.7214 6.23735 10.3304 5.94433C9.93937 5.65131 9.40869 5.5048 8.73836 5.5048C8.28288 5.5048 7.8983 5.5704 7.58462 5.7016C7.27095 5.82843 7.03031 6.00556 6.86273 6.23298C6.69945 6.4604 6.6178 6.71843 6.6178 7.00708C6.60921 7.24762 6.65863 7.45755 6.76605 7.63686C6.87777 7.81617 7.03031 7.97143 7.22368 8.10264C7.41704 8.22947 7.64049 8.34099 7.89401 8.43721C8.14753 8.52905 8.41824 8.60777 8.70614 8.67337L9.8921 8.96202C10.4679 9.09323 10.9964 9.26816 11.4777 9.48684C11.959 9.70551 12.3758 9.97448 12.7281 10.2937C13.0805 10.613 13.3533 10.9891 13.5467 11.4221C13.7443 11.8551 13.8453 12.3515 13.8496 12.9113C13.8453 13.7335 13.6391 14.4463 13.2309 15.0499C12.8269 15.6491 12.2426 16.1148 11.4777 16.4472C10.7171 16.7752 9.79972 16.9392 8.72547 16.9392C7.65982 16.9392 6.73167 16.773 5.94103 16.4406C5.15468 16.1083 4.54021 15.6162 4.09762 14.9646C3.65933 14.3086 3.42944 13.4973 3.40796 12.5308H6.10861C6.13869 12.9812 6.26545 13.3574 6.48889 13.6591C6.71663 13.9565 7.01957 14.1818 7.39771 14.3348C7.78014 14.4835 8.21198 14.5579 8.69325 14.5579C9.16591 14.5579 9.57628 14.4879 9.92433 14.3479C10.2767 14.208 10.5495 14.0134 10.7429 13.7641C10.9363 13.5148 11.033 13.2283 11.033 12.9047C11.033 12.6029 10.9449 12.3493 10.7687 12.1437C10.5968 11.9382 10.3433 11.7632 10.0081 11.6189C9.67725 11.4746 9.27119 11.3434 8.78993 11.2253L7.35259 10.8579C6.23967 10.5824 5.36094 10.1516 4.71639 9.56556C4.07184 8.97952 3.75172 8.1901 3.75601 7.19733C3.75172 6.38386 3.96442 5.67318 4.39412 5.06526C4.82811 4.45735 5.42324 3.98283 6.17951 3.6417C6.93578 3.30057 7.79518 3.13 8.7577 3.13C9.73741 3.13 10.5925 3.30057 11.323 3.6417C12.0578 3.98283 12.6293 4.45735 13.0375 5.06526C13.4457 5.67318 13.6563 6.3773 13.6691 7.17765H10.9943Z" fill="white"/>
<path d="M20.9413 6.67251V8.77178H14.9792V6.67251H20.9413ZM16.3327 4.25836H19.0785V13.6526C19.0785 13.9106 19.1172 14.1118 19.1945 14.2561C19.2719 14.3961 19.3793 14.4945 19.5168 14.5513C19.6586 14.6082 19.8219 14.6366 20.0067 14.6366C20.1356 14.6366 20.2645 14.6257 20.3934 14.6038C20.5223 14.5776 20.6211 14.5579 20.6899 14.5448L21.1217 16.6243C20.9842 16.6681 20.7909 16.7184 20.5416 16.7752C20.2924 16.8364 19.9895 16.8736 19.6328 16.8867C18.9711 16.913 18.391 16.8233 17.8925 16.6178C17.3984 16.4122 17.0138 16.093 16.7388 15.66C16.4638 15.227 16.3284 14.6803 16.3327 14.0199V4.25836Z" fill="white"/>
<path d="M29.0787 12.4586V6.67251H31.8244V16.749H29.1882V14.9187H29.0851C28.8617 15.5091 28.49 15.9836 27.97 16.3422C27.4544 16.7009 26.8249 16.8802 26.0815 16.8802C25.4198 16.8802 24.8375 16.7271 24.3348 16.421C23.832 16.1148 23.4389 15.6797 23.1553 15.1155C22.876 14.5513 22.7342 13.8756 22.7299 13.0884V6.67251H25.4756V12.5898C25.4799 13.1846 25.6368 13.6548 25.9462 14.0003C26.2555 14.3458 26.6702 14.5185 27.1901 14.5185C27.521 14.5185 27.8304 14.442 28.1183 14.2889C28.4062 14.1315 28.6382 13.8997 28.8144 13.5935C28.9949 13.2874 29.083 12.9091 29.0787 12.4586Z" fill="white"/>
<path d="M37.6689 16.913C36.9169 16.913 36.2358 16.7162 35.6257 16.3226C35.0198 15.9246 34.5385 15.3407 34.1819 14.571C33.8295 13.7969 33.6533 12.8478 33.6533 11.7239C33.6533 10.5693 33.836 9.60929 34.2012 8.84394C34.5664 8.07421 35.052 7.4991 35.6579 7.11861C36.268 6.73374 36.9362 6.54131 37.6624 6.54131C38.2167 6.54131 38.6787 6.63752 39.0482 6.82996C39.422 7.01802 39.7228 7.25418 39.9506 7.53846C40.1826 7.81836 40.3588 8.09389 40.4791 8.36504H40.5629V3.31369H43.3022V16.749H40.5951V15.1352H40.4791C40.3502 15.4151 40.1676 15.6928 39.9312 15.9683C39.6992 16.2395 39.3963 16.4647 39.0224 16.644C38.6529 16.8233 38.2017 16.913 37.6689 16.913ZM38.539 14.6891C38.9816 14.6891 39.3554 14.5666 39.6605 14.3217C39.9699 14.0724 40.2062 13.7247 40.3695 13.2786C40.5371 12.8325 40.6209 12.3099 40.6209 11.7107C40.6209 11.1116 40.5392 10.5911 40.376 10.1494C40.2127 9.7077 39.9763 9.36657 39.667 9.12603C39.3576 8.88549 38.9816 8.76522 38.539 8.76522C38.0878 8.76522 37.7075 8.88986 37.3982 9.13915C37.0888 9.38843 36.8546 9.73394 36.6956 10.1757C36.5366 10.6174 36.4571 11.1291 36.4571 11.7107C36.4571 12.2968 36.5366 12.815 36.6956 13.2655C36.8589 13.7116 37.0931 14.0615 37.3982 14.3151C37.7075 14.5644 38.0878 14.6891 38.539 14.6891Z" fill="white"/>
<path d="M50.0716 16.9458C49.0532 16.9458 48.1766 16.7359 47.4418 16.316C46.7113 15.8918 46.1484 15.2926 45.7531 14.5185C45.3578 13.74 45.1601 12.8194 45.1601 11.7567C45.1601 10.7202 45.3578 9.81047 45.7531 9.02762C46.1484 8.24477 46.7049 7.63467 47.4225 7.19733C48.1444 6.75998 48.9909 6.54131 49.962 6.54131C50.6151 6.54131 51.2232 6.64846 51.7861 6.86276C52.3533 7.07268 52.8474 7.38976 53.2685 7.81399C53.6939 8.23821 54.0248 8.77178 54.2611 9.41468C54.4975 10.0532 54.6156 10.8011 54.6156 11.6583V12.4258H46.2558V10.6939H52.031C52.031 10.2916 51.945 9.93512 51.7732 9.6246C51.6013 9.31409 51.3628 9.07136 51.0577 8.89642C50.7569 8.71711 50.4067 8.62745 50.0071 8.62745C49.5903 8.62745 49.2208 8.72585 48.8985 8.92266C48.5805 9.11509 48.3313 9.37531 48.1508 9.70332C47.9703 10.027 47.878 10.3878 47.8737 10.7858V12.4324C47.8737 12.9309 47.9639 13.3617 48.1444 13.7247C48.3291 14.0877 48.5891 14.3676 48.9243 14.5644C49.2594 14.7612 49.6569 14.8596 50.1167 14.8596C50.4218 14.8596 50.7011 14.8159 50.9546 14.7284C51.2081 14.641 51.4251 14.5098 51.6056 14.3348C51.7861 14.1599 51.9236 13.9456 52.0181 13.6919L54.5576 13.8625C54.4287 14.4835 54.1644 15.0258 53.7648 15.4894C53.3695 15.9486 52.8582 16.3073 52.2308 16.5653C51.6077 16.819 50.888 16.9458 50.0716 16.9458Z" fill="white"/>
<path d="M59.1532 10.9235V16.749H56.4075V6.67251H59.0243V8.45033H59.1403C59.3595 7.86428 59.7269 7.40069 60.2425 7.05956C60.7582 6.71406 61.3834 6.54131 62.1182 6.54131C62.8057 6.54131 63.4051 6.69438 63.9164 7.00052C64.4278 7.30666 64.8252 7.74401 65.1088 8.31256C65.3925 8.87674 65.5343 9.55025 65.5343 10.3331V16.749H62.7885V10.8317C62.7928 10.215 62.6381 9.73394 62.3244 9.38843C62.0107 9.03856 61.5789 8.86362 61.0289 8.86362C60.6593 8.86362 60.3328 8.94453 60.0492 9.10635C59.7698 9.26816 59.5507 9.50433 59.3917 9.81485C59.237 10.121 59.1575 10.4905 59.1532 10.9235Z" fill="white"/>
<path d="M72.9643 6.67251V8.77178H67.0022V6.67251H72.9643ZM68.3558 4.25836H71.1015V13.6526C71.1015 13.9106 71.1402 14.1118 71.2175 14.2561C71.2949 14.3961 71.4023 14.4945 71.5398 14.5513C71.6816 14.6082 71.8449 14.6366 72.0297 14.6366C72.1586 14.6366 72.2875 14.6257 72.4164 14.6038C72.5453 14.5776 72.6441 14.5579 72.7129 14.5448L73.1447 16.6243C73.0072 16.6681 72.8139 16.7184 72.5646 16.7752C72.3154 16.8364 72.0125 16.8736 71.6558 16.8867C70.9941 16.913 70.414 16.8233 69.9156 16.6178C69.4214 16.4122 69.0368 16.093 68.7618 15.66C68.4868 15.227 68.3515 14.6803 68.3558 14.0199V4.25836Z" fill="white"/>
</g>
<defs>
<filter id="filter0_d_315_2907" x="0.407959" y="0.130005" width="75.7368" height="19.8158" filterUnits="userSpaceOnUse" color-interpolation-filters="sRGB">
<feFlood flood-opacity="0" result="BackgroundImageFix"/>
<feColorMatrix in="SourceAlpha" type="matrix" values="0 0 0 0 0 0 0 0 0 0 0 0 0 0 0 0 0 0 127 0" result="hardAlpha"/>
<feOffset/>
<feGaussianBlur stdDeviation="1.5"/>
<feComposite in2="hardAlpha" operator="out"/>
<feColorMatrix type="matrix" values="0 0 0 0 0 0 0 0 0 0 0 0 0 0 0 0 0 0 0.05 0"/>
<feBlend mode="normal" in2="BackgroundImageFix" result="effect1_dropShadow_315_2907"/>
<feBlend mode="normal" in="SourceGraphic" in2="effect1_dropShadow_315_2907" result="shape"/>
</filter>
</defs>
</svg>
