<svg width="45" height="45" viewBox="0 0 45 45" fill="none" xmlns="http://www.w3.org/2000/svg">
<path d="M31.6406 8.6001C31.6406 8.5957 31.6406 8.5957 31.6362 8.5957V8.58691C31.4033 8.09033 31.1309 7.62012 30.8145 7.17187L30.3442 7.26855L29.8652 7.36963L23.3086 8.72754L23.1328 7.86621L29.1973 6.60937L29.707 6.50391L30.2036 6.40283C29.8257 5.97217 29.4082 5.57227 28.9556 5.2207C28.8633 5.15039 28.749 5.11523 28.6304 5.12842L28.27 5.17236C28.2524 5.15918 28.2349 5.1416 28.2173 5.12842C27.791 4.8252 27.3384 4.56152 26.8638 4.3418C25.7036 3.80127 24.4644 3.52441 23.1812 3.52441C21.9155 3.52441 20.6411 3.80566 19.4985 4.3418C18.3823 4.86035 17.4067 5.59863 16.5981 6.52588C16.585 6.54346 16.5674 6.56104 16.5542 6.58301L16.2026 6.62695C16.0884 6.64014 15.9829 6.70166 15.9082 6.79395C14.6294 8.42432 13.9263 10.459 13.9263 12.5288V13.3022C13.9263 13.4385 13.9878 13.5703 14.0977 13.6494C14.1768 13.7109 14.269 13.7417 14.3657 13.7417C14.3965 13.7417 14.4272 13.7373 14.458 13.7329V14.9854C14.458 16.1367 14.6382 17.2749 14.9897 18.3647C15.0557 18.5625 15.1216 18.7559 15.1963 18.9448C15.4116 19.4941 15.6665 20.0259 15.9609 20.5312C15.9741 20.5532 15.9917 20.5796 16.0049 20.6016L16.0093 20.6103C16.5366 21.498 17.187 22.3022 17.9429 23.0098L17.9605 23.0273L18.0791 23.1328C18.0615 23.2031 18.0396 23.2778 18.0132 23.3437C17.8857 23.7085 17.6704 24.0513 17.3892 24.3281C16.8926 24.8291 16.2246 25.1016 15.5215 25.1016H14.5151C12.2212 25.1016 10.0547 26.0024 8.41992 27.6372C6.78516 29.272 5.88428 31.4341 5.88428 33.7324V40.8164C5.88428 41.1811 6.17871 41.4756 6.54346 41.4756H12.208V35.6836H13.0869V41.4756H17.209V33.7632C17.209 33.0513 17.6001 32.4097 18.2329 32.0845L21.375 30.4541L22.043 30.1069L22.2583 29.9971L22.7109 29.7642L22.5044 29.6235L17.165 26.0684C17.5913 25.875 17.9824 25.6025 18.3208 25.2642C18.6812 24.9038 18.9756 24.4687 19.1733 23.9985C19.292 24.082 19.415 24.1611 19.5337 24.2402C19.5688 24.2622 19.6084 24.2886 19.6436 24.3105C19.648 24.3149 19.6567 24.3193 19.6611 24.3237C19.7007 24.3501 19.7402 24.3721 19.7842 24.3984C19.7886 24.3984 19.7886 24.4028 19.793 24.4028L19.9248 24.4819C19.9731 24.5083 20.0215 24.5391 20.0698 24.5654C21.019 25.0972 22.0957 25.3784 23.1812 25.3784C24.271 25.3784 25.3477 25.0972 26.2969 24.5654C26.3452 24.5391 26.3892 24.5127 26.4375 24.4863C26.4814 24.46 26.5254 24.438 26.5693 24.4072C26.6133 24.3809 26.6616 24.3545 26.7056 24.3237C26.7495 24.2974 26.7979 24.2666 26.8418 24.2402C27.312 25.1763 28.1294 25.8838 29.1006 26.2178L31.0913 25.1851C31.1836 25.1367 31.2891 25.1104 31.3945 25.1104H30.3838C29.2983 25.1104 28.3272 24.4468 27.9272 23.4448C28.9248 22.6187 29.7642 21.6343 30.4146 20.5093C30.731 19.9687 31.0034 19.3931 31.2188 18.8042C31.2891 18.6152 31.3594 18.4131 31.4253 18.1934C31.7417 17.1562 31.9043 16.0796 31.9043 14.9897V13.2451C31.9614 13.2363 32.0186 13.2144 32.0713 13.1836C32.1899 13.1089 32.269 12.9858 32.2822 12.8452C32.4756 10.5293 31.7153 8.76709 31.6406 8.6001ZM20.0522 5.53711C21.041 5.07568 22.0913 4.84277 23.1812 4.84277C24.0293 4.84277 24.8555 4.9834 25.6421 5.26465L19.125 6.05127C19.4238 5.85791 19.7314 5.68652 20.0522 5.53711ZM17.2178 8.58252L17.8374 7.96289L18.6372 8.76269L19.437 7.96289L20.0566 8.58252L19.2568 9.38232L20.0566 10.1821L19.437 10.8018L18.6372 10.002L17.8418 10.8062L17.2222 10.1865L18.022 9.38672L17.2178 8.58252ZM30.5859 14.9854C30.5859 15.9434 30.4453 16.8926 30.1641 17.8022C30.1069 17.9956 30.0454 18.1714 29.9839 18.3384C29.7905 18.8613 29.5532 19.3667 29.2764 19.8413C28.7007 20.8301 27.9668 21.6958 27.0879 22.4209C27.0747 22.4341 27.0571 22.4473 27.0439 22.4561L27.0396 22.4604C26.978 22.5088 26.9165 22.5615 26.833 22.623L26.7891 22.6582C26.7803 22.6626 26.7715 22.6714 26.7627 22.6758C26.7319 22.6978 26.7056 22.7197 26.6748 22.7417C26.6177 22.7856 26.5562 22.8296 26.4902 22.8735H26.4858C26.4551 22.8955 26.4243 22.9175 26.3892 22.9395C26.3276 22.9834 26.2661 23.0229 26.2046 23.0625L26.02 23.1812C25.9585 23.2207 25.897 23.2559 25.8355 23.2954L25.6509 23.4009C25.5322 23.4668 25.4136 23.5283 25.2905 23.5811L25.1455 23.647C25.0972 23.6689 25.0444 23.6865 24.9961 23.7085C24.9478 23.7261 24.895 23.7436 24.8467 23.7656C24.772 23.792 24.6929 23.8184 24.6182 23.8403C24.1567 23.9766 23.6733 24.0469 23.1855 24.0469C22.6934 24.0469 22.2012 23.9722 21.731 23.8315L21.5991 23.792C21.4453 23.7437 21.2959 23.6821 21.1465 23.6206L21.0015 23.5547C20.9707 23.5371 20.9355 23.5239 20.9048 23.5063C20.8389 23.4756 20.7773 23.4404 20.7158 23.4053C20.6323 23.3613 20.5532 23.313 20.4741 23.2646C20.439 23.2427 20.4082 23.2251 20.373 23.2031C20.1665 23.0757 19.96 22.9395 19.7666 22.7944C19.7666 22.7944 19.7622 22.7944 19.7622 22.79L19.7095 22.7505C19.6743 22.7241 19.6392 22.7021 19.6084 22.6758C19.5908 22.6626 19.5732 22.6494 19.5601 22.6362C19.5293 22.6143 19.5029 22.5923 19.4722 22.5703C19.4458 22.5483 19.4194 22.5264 19.3931 22.5088C19.3535 22.4736 19.3096 22.4429 19.27 22.4077C19.2568 22.3989 19.2437 22.3857 19.2349 22.377L19.2305 22.3726L19.2173 22.3594C19.0986 22.2583 18.98 22.1528 18.8657 22.0474L18.8569 22.0386C18.189 21.4189 17.6177 20.707 17.1519 19.9248C17.1519 19.9204 17.1475 19.9204 17.1475 19.916L17.1387 19.9028C17.1299 19.8896 17.1255 19.8809 17.1167 19.8677C17.1167 19.8677 17.1123 19.8633 17.1123 19.8589C16.853 19.415 16.6245 18.9448 16.4355 18.4614C16.374 18.2988 16.3125 18.1274 16.2554 17.9517C15.9434 16.9937 15.7852 15.9917 15.7852 14.9766V13.5967L25.6641 10.9468L30.5859 12.999V14.9854Z" fill="#FBBE49"/>
<path d="M37.4853 27.6372C36.29 26.4419 34.8091 25.6377 33.2007 25.2949L32.2163 25.8047L32.0317 25.9014L23.0976 30.5508L22.6626 30.7793L22.2275 31.0078L18.6328 32.8623C18.2944 33.0381 18.0835 33.3809 18.0835 33.7632V41.4756H32.814V35.6836H33.6929V41.4756H39.3574C39.7222 41.4756 40.0166 41.1812 40.0166 40.8164V33.7324C40.0166 31.4385 39.1201 29.272 37.4853 27.6372ZM20.6763 39.4102C20.272 39.4102 19.9424 39.0806 19.9424 38.6763C19.9424 38.272 20.272 37.9424 20.6763 37.9424C21.0806 37.9424 21.4101 38.272 21.4101 38.6763C21.4101 39.0806 21.0806 39.4102 20.6763 39.4102ZM20.6763 36.0835C20.272 36.0835 19.9424 35.7539 19.9424 35.3496C19.9424 34.9453 20.272 34.6157 20.6763 34.6157C21.0806 34.6157 21.4101 34.9453 21.4101 35.3496C21.4101 35.7539 21.0806 36.0835 20.6763 36.0835ZM30.5508 37.8633H25.1894V36.9844H30.5508V37.8633ZM28.8545 14.6646L28.248 15.3018C27.5581 14.6514 26.8154 14.3701 26.0332 14.4668C25.4663 14.5371 25.0884 14.792 25.084 14.792L24.583 14.0669C24.605 14.0537 25.1323 13.6934 25.9233 13.5923C26.6528 13.5044 27.7471 13.6143 28.8545 14.6646ZM21.8496 14.0713L21.5991 14.4317L21.353 14.7964C21.2915 14.7525 19.7974 13.7813 18.189 15.3062L17.5825 14.669C18.6899 13.6187 19.7886 13.5088 20.5093 13.6011C21.3003 13.6934 21.8276 14.0537 21.8496 14.0713ZM25.7651 19.9248L25.2993 20.6719C23.2075 19.3667 21.0893 20.6587 21.0718 20.6719L20.6059 19.9248C20.6323 19.9072 21.2695 19.5161 22.2143 19.3184C23.48 19.0547 24.7104 19.2656 25.7651 19.9248ZM10.2173 22.1968C9.52294 22.8911 8.60887 23.2383 7.69921 23.2383C6.92577 23.2383 6.15233 22.9878 5.51073 22.4868L6.13915 21.8584L9.88329 18.1143L10.1953 17.7979L10.5073 17.4859C11.5972 18.8833 11.5005 20.9136 10.2173 22.1968ZM9.88768 16.8662L9.57567 17.1782L4.88671 21.8672C3.79686 20.4697 3.89354 18.4439 5.17675 17.1563C6.45995 15.8731 8.49022 15.7764 9.88768 16.8662ZM41.2163 13.6802C41.2163 13.8999 41.1899 14.124 41.1372 14.3482L40.6318 16.396L40.2056 16.2905L39.7793 16.1851L36.0879 15.271L35.6616 15.1655L35.2353 15.0601L35.7407 13.0122C36.1099 11.5225 37.6172 10.6128 39.1069 10.9776C40.3682 11.294 41.2163 12.4321 41.2163 13.6802ZM40.4209 17.2485L39.9155 19.2964C39.6035 20.5576 38.4609 21.4102 37.2129 21.4102C37.0063 21.4102 36.7954 21.3882 36.5845 21.3355C36.5713 21.3311 36.5625 21.3311 36.5493 21.3267C35.8286 21.1465 35.2178 20.6983 34.8354 20.0654C34.4531 19.4282 34.3389 18.6812 34.5146 17.9605L35.02 15.9126L35.4463 16.0181L35.8725 16.1235L39.564 17.0376L39.9902 17.1431L40.4209 17.2485Z" fill="#FBBE49"/>
</svg>
