<svg width="42" height="43" viewBox="0 0 42 43" fill="none" xmlns="http://www.w3.org/2000/svg">
<path d="M40.8985 18.8324L40.8957 18.8296L24.1674 2.10195C23.4543 1.38846 22.5063 0.99559 21.498 0.99559C20.4896 0.99559 19.5415 1.38822 18.8282 2.10163L2.10855 18.8208C2.10294 18.8264 2.09734 18.8323 2.09173 18.838C0.627426 20.3107 0.629989 22.7001 2.09894 24.169C2.76998 24.8405 3.65639 25.2293 4.60408 25.27C4.64253 25.2738 4.68137 25.2756 4.72046 25.2756H5.38717V37.5863C5.38717 40.0224 7.36921 42.0044 9.80587 42.0044H16.3505C17.0138 42.0044 17.5519 41.4666 17.5519 40.803V31.1515C17.5519 30.0398 18.4562 29.1357 19.5678 29.1357H23.428C24.5397 29.1357 25.4438 30.0399 25.4438 31.1515V40.803C25.4438 41.4666 25.9817 42.0044 26.6453 42.0044H33.1899C35.6266 42.0044 37.6087 40.0224 37.6087 37.5863V25.2757H38.2269C39.235 25.2757 40.183 24.8831 40.8966 24.1697C42.3672 22.6983 42.3678 20.3048 40.8985 18.8324Z" fill="#FBBE49"/>
</svg>