<svg xmlns="http://www.w3.org/2000/svg" viewBox="0 0 500 500"><g id="freepik--Table--inject-29"><path d="M469.6,483.53c0,.15-98.21.26-219.33.26s-219.35-.11-219.35-.26,98.18-.26,219.35-.26S469.6,483.39,469.6,483.53Z" style="fill:#263238"></path></g><g id="freepik--Book--inject-29"><path d="M46,286.79s17,14.31,19.82,14.1a28.53,28.53,0,0,1,5.74.26L53.29,284.26Z" style="fill:#974DF8"></path><path d="M240.47,308.78,67.34,301.26a4,4,0,0,1-3.83-4.18c2.92-95.36,7.65-208.54,10.38-242a4,4,0,0,1,4.18-3.72l173.25,7.52a4,4,0,0,1,3.84,4.24l-10.5,241.76A4.06,4.06,0,0,1,240.47,308.78Z" style="fill:#974DF8"></path><polygon points="238.22 304.96 65.3 298.72 51.67 288.28 59.88 40.6 239 52.81 247.85 62.73 238.22 304.96" style="fill:#fff"></polygon><polygon points="238.22 304.96 222.13 290.57 236.09 50.27 247.85 62.73 238.22 304.96" style="fill:#e0e0e0"></polygon><path d="M224.38,295.78,48.9,288.16A4.06,4.06,0,0,1,45,284c2.9-95.37,7.63-208.54,10.38-242a4.06,4.06,0,0,1,4.23-3.72l175.61,7.62a4.08,4.08,0,0,1,3.89,4.24L228.62,291.9A4.07,4.07,0,0,1,224.38,295.78Z" style="fill:#974DF8"></path><path d="M60.07,288.65c-.15,0,2.14-55.44,5.11-123.8s5.5-123.79,5.64-123.78S68.67,96.5,65.7,164.88,60.21,288.65,60.07,288.65Z" style="fill:#263238"></path><g style="opacity:0.30000000000000004"><path d="M213.23,282.22l-141.3-6.13L81.7,51.16,223,57.3Zm-137.13-10,133.31,5.79,9.42-216.93L85.52,55.33Z"></path></g><g style="opacity:0.30000000000000004"><rect x="126.93" y="258.79" width="29.53" height="8.28" transform="translate(11.54 -5.9) rotate(2.49)"></rect></g><g style="opacity:0.30000000000000004"><rect x="146.65" y="67.18" width="13.76" height="8.28" transform="translate(3.24 -6.6) rotate(2.49)"></rect></g><g style="opacity:0.30000000000000004"><rect x="97.88" y="104.66" width="103.7" height="36.97" transform="translate(5.48 -6.38) rotate(2.49)"></rect></g><g style="opacity:0.30000000000000004"><rect x="108.01" y="151.63" width="76.37" height="15.57" transform="matrix(1, 0.04, -0.04, 1, 7.05, -6.19)"></rect></g><g style="opacity:0.30000000000000004"><rect x="53.01" y="73.21" width="10.62" height="6.69" transform="translate(3.38 -2.46) rotate(2.49)"></rect></g><g style="opacity:0.30000000000000004"><rect x="52.56" y="83.54" width="10.62" height="6.69" transform="translate(3.82 -2.43) rotate(2.49)"></rect></g><g style="opacity:0.30000000000000004"><rect x="45.59" y="262.22" width="9.83" height="6.69" transform="translate(11.57 -1.94) rotate(2.49)"></rect></g><g style="opacity:0.30000000000000004"><rect x="49.11" y="108.64" width="10.62" height="115.06" transform="translate(7.26 -2.2) rotate(2.49)"></rect></g><path d="M243.44,58.55s0,.36,0,1.08-.06,1.78-.11,3.16c-.11,2.79-.27,6.88-.48,12.16-.44,10.56-1.08,25.84-1.86,44.7-1.62,37.76-3.86,89.91-6.33,147.5-.51,11.83-1,23.42-1.5,34.52v.26h-.26l-124.12-5.48-36.66-1.67-9.87-.47-2.56-.14-.86-.06.87,0,2.55.08,9.88.39,36.66,1.51,124.13,5.31-.27.24c.49-11.1,1-22.7,1.5-34.52,2.53-57.59,4.82-109.73,6.48-147.49.86-18.87,1.55-34.14,2-44.7.25-5.27.44-9.37.57-12.16.07-1.38.13-2.43.17-3.16S243.44,58.55,243.44,58.55Z" style="fill:#263238"></path></g></svg>
