<svg width="400" height="400" viewBox="0 0 400 400" fill="none" xmlns="http://www.w3.org/2000/svg">
<rect width="400" height="400" fill="#FBBE49"/>
<path d="M337.023 226.162C337.023 226.162 337.023 226.005 336.986 225.698C336.948 225.39 336.935 224.931 336.898 224.341C336.898 224.04 336.86 223.713 336.841 223.336C336.822 222.96 336.722 222.57 336.659 222.137C336.596 221.704 336.521 221.239 336.439 220.743C336.343 220.215 336.219 219.693 336.069 219.179C335.398 216.497 334.326 213.931 332.891 211.568C331.005 208.421 328.529 205.669 325.6 203.46L324.344 202.543C323.911 202.254 323.452 201.997 323 201.721C322.548 201.444 322.102 201.137 321.606 200.91L320.124 200.201L319.37 199.843L318.579 199.554L316.971 198.97C316.431 198.788 315.86 198.675 315.295 198.518C314.727 198.356 314.15 198.226 313.568 198.128C312.375 197.907 311.168 197.768 309.957 197.714C309.329 197.714 308.701 197.632 308.073 197.639L306.189 197.739C305.875 197.739 305.561 197.739 305.234 197.796L304.286 197.946C303.658 198.053 303.03 198.122 302.364 198.254C301.075 198.546 299.806 198.919 298.565 199.372L297.616 199.717C297.459 199.78 297.296 199.83 297.139 199.899L296.687 200.119L294.841 201.005C294.213 201.331 293.66 201.714 293.063 202.066C292.775 202.254 292.435 202.411 292.184 202.625L291.343 203.253C290.206 204.098 289.125 205.017 288.108 206.004L286.658 207.599L286.294 208.001L285.967 208.434L285.339 209.307L284.711 210.186L284.133 211.122L283.562 212.07L283.273 212.541C283.185 212.704 283.11 212.874 283.028 213.043C282.708 213.709 282.4 214.381 282.061 215.053L281.288 217.163C279.327 223.002 279.327 229.322 281.288 235.162L282.061 237.272C282.381 237.944 282.689 238.616 283.028 239.281L283.273 239.784L283.562 240.255L284.133 241.203L284.705 242.139L285.333 243.018L285.961 243.891L286.287 244.324L286.652 244.726L288.102 246.321C289.118 247.309 290.198 248.228 291.336 249.072L292.178 249.7C292.454 249.913 292.768 250.07 293.057 250.259C293.654 250.61 294.231 250.993 294.834 251.32L296.681 252.212L297.133 252.432L297.61 252.607L298.558 252.953C299.798 253.411 301.067 253.785 302.358 254.071C302.986 254.203 303.645 254.278 304.279 254.385L305.234 254.529C305.548 254.573 305.862 254.567 306.182 254.592L308.066 254.686C308.694 254.686 309.322 254.636 309.95 254.617C311.162 254.561 312.369 254.42 313.561 254.196C314.145 254.105 314.722 253.975 315.288 253.807C315.854 253.656 316.425 253.537 316.971 253.355L318.579 252.771L319.37 252.482L320.124 252.124L321.606 251.414C322.096 251.188 322.535 250.868 322.994 250.61C323.452 250.353 323.904 250.07 324.338 249.788L325.594 248.865C328.513 246.655 330.978 243.902 332.853 240.757C334.29 238.397 335.362 235.833 336.031 233.152C336.157 232.593 336.345 232.084 336.402 231.588C336.458 231.092 336.552 230.621 336.621 230.188C336.691 229.754 336.766 229.359 336.804 228.988C336.841 228.618 336.841 228.291 336.86 227.99C336.898 227.399 336.929 226.947 336.948 226.627C336.967 226.307 336.986 226.162 336.986 226.162C336.986 226.162 336.986 226.319 336.986 226.627L336.935 227.996C336.935 228.291 336.904 228.624 336.892 229.001C336.879 229.378 336.785 229.767 336.728 230.2C336.672 230.634 336.59 231.105 336.521 231.607C336.427 232.136 336.305 232.66 336.157 233.177C335.512 235.882 334.453 238.471 333.017 240.851C331.146 244.03 328.674 246.814 325.738 249.047L324.482 249.982C324.049 250.271 323.59 250.535 323.132 250.818C322.674 251.1 322.228 251.402 321.732 251.634L320.237 252.356L319.477 252.714L318.68 253.009L317.059 253.606C316.513 253.788 315.935 253.907 315.364 254.064C314.793 254.234 314.212 254.368 313.624 254.466C312.421 254.692 311.204 254.835 309.982 254.893C309.354 254.893 308.726 254.981 308.098 254.975L306.214 254.881C305.893 254.881 305.586 254.881 305.253 254.818L304.292 254.674C303.664 254.567 302.992 254.491 302.352 254.36C301.045 254.069 299.759 253.693 298.502 253.235L297.547 252.89C297.384 252.827 297.227 252.777 297.07 252.708L296.605 252.488L294.721 251.59C294.093 251.263 293.528 250.88 292.925 250.522C292.63 250.334 292.297 250.171 292.033 249.957L291.186 249.329C290.033 248.477 288.938 247.55 287.908 246.553L286.444 244.94L286.074 244.531L285.741 244.098L285.082 243.213L284.416 242.327L283.832 241.379L283.254 240.424L282.965 239.941L282.714 239.438C282.396 238.76 282.069 238.082 281.734 237.404C281.477 236.694 281.213 235.984 280.949 235.268C278.966 229.36 278.966 222.965 280.949 217.056C281.213 216.34 281.471 215.631 281.734 214.921C281.998 214.211 282.362 213.558 282.714 212.886C282.796 212.717 282.871 212.547 282.959 212.384L283.248 211.9L283.832 210.946L284.41 209.998L285.075 209.112L285.735 208.227L286.067 207.793L286.438 207.385L287.901 205.771C288.933 204.776 290.028 203.849 291.179 202.995L292.027 202.367C292.31 202.154 292.624 201.997 292.919 201.808C293.547 201.451 294.106 201.067 294.715 200.735L296.599 199.843L297.064 199.617L297.541 199.441L298.496 199.089C299.753 198.631 301.039 198.256 302.345 197.965C302.973 197.833 303.639 197.764 304.279 197.657L305.247 197.513C305.561 197.469 305.875 197.469 306.207 197.45L308.091 197.356C308.719 197.356 309.347 197.406 309.975 197.431C311.198 197.492 312.415 197.637 313.618 197.865C314.205 197.962 314.786 198.094 315.357 198.26C315.929 198.417 316.5 198.537 317.053 198.719L318.673 199.315L319.471 199.61L320.231 199.975L321.725 200.697C322.221 200.923 322.661 201.243 323.126 201.513C323.59 201.783 324.043 202.06 324.476 202.349L325.732 203.278C328.662 205.505 331.133 208.277 333.01 211.442C334.446 213.823 335.505 216.412 336.15 219.116C336.299 219.633 336.421 220.157 336.515 220.686C336.584 221.189 336.653 221.66 336.722 222.093C336.791 222.526 336.854 222.928 336.885 223.299C336.917 223.669 336.917 224.002 336.929 224.303C336.929 224.894 336.967 225.352 336.979 225.666C336.992 225.98 337.023 226.162 337.023 226.162Z" fill="#E0E0E0"/>
<path d="M111.157 142.463C133.881 142.463 152.303 124.041 152.303 101.316C152.303 78.5914 133.881 60.1694 111.157 60.1694C88.4322 60.1694 70.0103 78.5914 70.0103 101.316C70.0103 124.041 88.4322 142.463 111.157 142.463Z" fill="#F5F5F5"/>
<path d="M320.902 187.032C329.483 187.032 336.439 180.076 336.439 171.495C336.439 162.915 329.483 155.958 320.902 155.958C312.322 155.958 305.366 162.915 305.366 171.495C305.366 180.076 312.322 187.032 320.902 187.032Z" fill="#E0E0E0"/>
<path d="M82.448 158.124C88.7029 155.374 91.5446 148.074 88.7949 141.819C86.0453 135.564 78.7456 132.723 72.4906 135.473C66.2357 138.222 63.3941 145.522 66.1437 151.777C68.8933 158.032 76.193 160.873 82.448 158.124Z" fill="#EBEBEB"/>
<path d="M166.716 72.7043C166.659 72.2335 166.577 71.7661 166.471 71.3039C166.269 70.537 165.91 69.8206 165.415 69.2007C164.921 68.5808 164.302 68.071 163.599 67.7039C162.896 67.3368 162.124 67.1205 161.333 67.0689C160.542 67.0172 159.749 67.1314 159.004 67.404C158.492 67.5861 158.011 67.8467 157.578 68.1764C157.122 68.5114 156.722 68.9162 156.391 69.3759C155.681 70.3404 155.298 71.5067 155.298 72.7043C155.298 73.902 155.681 75.0682 156.391 76.0327C157.049 76.9333 157.958 77.6194 159.004 78.0046C159.952 78.3483 160.975 78.4371 161.968 78.2621C162.837 78.1042 163.656 77.745 164.361 77.2133C165.393 76.4435 166.137 75.3485 166.471 74.1047C166.577 73.6426 166.659 73.1752 166.716 72.7043C166.753 73.1849 166.713 73.6683 166.596 74.1361C166.296 75.4346 165.555 76.5887 164.499 77.4017C163.772 77.9661 162.922 78.3512 162.018 78.5259C160.969 78.729 159.885 78.6466 158.878 78.2872C157.771 77.8885 156.807 77.1693 156.109 76.2211C155.352 75.2046 154.944 73.9714 154.944 72.7043C154.944 71.4373 155.352 70.204 156.109 69.1875C156.458 68.7044 156.882 68.2803 157.365 67.9315C157.824 67.5897 158.332 67.3188 158.872 67.1277C159.878 66.7683 160.963 66.6859 162.012 66.889C162.915 67.065 163.765 67.45 164.493 68.0131C165.549 68.8262 166.29 69.9803 166.59 71.2787C166.708 71.7442 166.75 72.2255 166.716 72.7043Z" fill="#E0E0E0"/>
<path d="M79.8511 322.259V340.665H106.761H136.446V322.259H79.8511Z" fill="#F5F5F5"/>
<path d="M77.4771 317.116V322.259H138.424V317.116H106.761H77.4771Z" fill="#E0E0E0"/>
<path d="M107.948 340.666H136.446V322.259H138.424V317.116H106.761V321.782L107.948 340.666Z" fill="#E0E0E0"/>
<path d="M99.2435 325.229H87.7637V327.999H99.2435V325.229Z" fill="#E0E0E0"/>
<path d="M101.027 331.459H86.2881V337.312H101.027V331.459Z" fill="white"/>
<path d="M88.5552 298.734V317.141H115.471H145.157V298.734H88.5552Z" fill="#F5F5F5"/>
<path d="M86.1812 293.591V298.734H147.135V293.591H115.471H86.1812Z" fill="#E0E0E0"/>
<path d="M116.658 317.141H145.157V298.734H147.135V293.591H115.471V298.257L116.658 317.141Z" fill="#E0E0E0"/>
<path d="M107.954 301.705H96.4741V304.474H107.954V301.705Z" fill="#E0E0E0"/>
<path d="M109.738 307.934H94.9985V313.787H109.738V307.934Z" fill="white"/>
<path d="M317.53 295.104C320.076 293.912 322.937 293.564 325.694 294.112C327.17 294.357 328.715 294.803 329.72 295.914C330.724 297.026 330.919 298.979 329.763 299.933C329.014 300.431 328.115 300.653 327.22 300.561C325.066 300.561 322.673 300.153 320.94 301.453C319.96 302.194 319.307 303.419 318.127 303.783C317.54 303.92 316.924 303.861 316.373 303.617C315.822 303.372 315.366 302.954 315.075 302.427C314.516 301.346 314.392 300.092 314.729 298.922C314.872 298.114 315.199 297.349 315.685 296.687C316.17 296.025 316.802 295.483 317.53 295.104Z" fill="#EBEBEB"/>
<path d="M311.853 284.152C313.367 286.312 316.312 285.597 317.681 284.278C319.05 282.959 319.628 281.037 320.149 279.21C321.355 275.034 322.567 270.656 321.669 266.405C321.455 265.115 320.89 263.909 320.036 262.919C319.603 262.433 319.049 262.068 318.431 261.863C317.813 261.658 317.151 261.62 316.513 261.751C315.025 262.141 314.101 263.598 313.436 264.986C311.467 269.073 310.437 273.549 310.421 278.086C310.421 280.196 310.66 282.406 311.853 284.152Z" fill="#EBEBEB"/>
<path d="M307.683 287.242C309.335 285.289 309.642 282.438 308.939 279.995C308.105 277.562 306.619 275.405 304.643 273.759C302.398 271.762 299.785 270.222 296.95 269.225C295.854 268.778 294.673 268.576 293.49 268.634C292.9 268.668 292.326 268.846 291.821 269.152C291.315 269.459 290.892 269.885 290.589 270.393C289.779 271.937 290.551 273.809 291.393 275.335C292.873 278.028 294.563 280.601 296.448 283.028C297.961 284.981 299.695 286.909 302 287.788C304.304 288.667 306.71 288.567 307.928 286.966" fill="#EBEBEB"/>
<path d="M311.747 316.808C311.83 316.488 311.877 316.159 311.885 315.828C311.954 315.106 312.042 314.208 312.148 313.14C312.291 311.816 312.5 310.499 312.776 309.196C313.131 307.612 313.609 306.058 314.208 304.549C314.798 303.042 315.597 301.625 316.582 300.342C317.382 299.29 318.408 298.432 319.584 297.829C320.375 297.437 321.223 297.17 322.096 297.038C322.426 297.025 322.754 296.978 323.076 296.9C322.744 296.863 322.409 296.863 322.077 296.9C321.164 296.971 320.27 297.205 319.44 297.591C318.214 298.176 317.14 299.036 316.3 300.103C315.273 301.406 314.443 302.853 313.838 304.398C313.227 305.928 312.752 307.508 312.418 309.121C312.16 310.44 311.984 311.774 311.891 313.115C311.809 314.252 311.772 315.175 311.759 315.815C311.722 316.145 311.718 316.477 311.747 316.808Z" fill="#E0E0E0"/>
<path d="M311.935 314.742C311.95 314.589 311.95 314.436 311.935 314.283C311.935 313.944 311.935 313.511 311.935 312.977C311.935 311.846 311.935 310.207 311.998 308.179C312.098 304.128 312.443 299.77 313.115 293.628C313.743 287.844 314.61 281.118 315.514 276.748C315.709 275.755 315.904 274.864 316.086 274.072C316.268 273.281 316.412 272.609 316.557 272.063L316.865 270.807C316.911 270.66 316.937 270.508 316.94 270.354C316.874 270.494 316.822 270.639 316.783 270.788C316.682 271.114 316.557 271.529 316.406 272.044C316.255 272.559 316.067 273.256 315.866 274.041C315.665 274.826 315.445 275.711 315.238 276.704C314.122 281.876 313.284 287.104 312.726 292.366C312.054 298.527 311.746 304.135 311.721 308.198C311.721 310.226 311.721 311.872 311.79 313.002C311.822 313.536 311.853 313.963 311.872 314.308C311.875 314.455 311.896 314.6 311.935 314.742Z" fill="#E0E0E0"/>
<path d="M311.96 303.928C311.999 303.474 311.999 303.018 311.96 302.565C311.885 301.326 311.747 300.091 311.545 298.866C311.245 297.051 310.844 295.255 310.346 293.484C309.758 291.305 309.004 289.174 308.091 287.11C306.528 283.305 304.288 279.815 301.478 276.811C300.991 276.297 300.47 275.814 299.921 275.366C299.682 275.165 299.475 274.964 299.255 274.801L298.627 274.387C298.266 274.109 297.881 273.863 297.478 273.652C298.804 274.691 300.062 275.813 301.246 277.012C303.971 280.044 306.157 283.521 307.708 287.292C308.6 289.333 309.355 291.431 309.969 293.572C310.477 295.327 310.896 297.107 311.225 298.904C311.508 300.442 311.671 301.692 311.765 302.565C311.796 303.023 311.861 303.479 311.96 303.928Z" fill="#E0E0E0"/>
<path d="M301.503 323.006L302.59 337.852H321.662L322.749 323.006H301.503Z" fill="#E0E0E0"/>
<path d="M325.022 317.153H299.664V323.006H325.022V317.153Z" fill="#E0E0E0"/>
<path d="M299.664 337.287V338.907H300.857H324.608V337.287H299.664Z" fill="#EBEBEB"/>
<path d="M302.025 341.765L300.857 338.907H323.697L322.335 341.765H302.025Z" fill="#E0E0E0"/>
<path d="M322.391 327.86C322.368 327.909 322.339 327.953 322.303 327.992L322.02 328.375L320.909 329.795L320.858 329.858L320.808 329.795L318.083 326.027H318.24L315.552 329.82L315.464 329.939L315.37 329.832C314.378 328.652 313.304 327.364 312.186 326.064H312.368L312.192 326.284C311.206 327.54 310.245 328.727 309.341 329.858L309.247 329.977L309.159 329.858L306.471 326.052H306.628L303.318 329.82L303.256 329.883L303.212 329.807L302.175 328.068L301.912 327.603C301.876 327.553 301.849 327.498 301.83 327.44C301.87 327.485 301.906 327.533 301.937 327.584L302.232 328.03L303.325 329.744H303.218L306.477 325.926L306.559 325.832L306.634 325.933C307.457 327.088 308.368 328.357 309.347 329.701H309.165L312.01 326.121L312.186 325.901L312.274 325.788L312.368 325.895C313.479 327.232 314.553 328.514 315.546 329.694H315.37L318.083 325.926L318.158 325.813L318.24 325.926L320.909 329.738H320.815L321.97 328.35L322.278 327.992C322.353 327.9 322.391 327.856 322.391 327.86Z" fill="#F5F5F5"/>
<path d="M323.013 322.906C323.013 322.975 318.234 323.025 312.337 323.025C306.44 323.025 301.661 322.975 301.661 322.906C301.661 322.837 306.44 322.787 312.337 322.787C318.234 322.787 323.013 322.843 323.013 322.906Z" fill="#F5F5F5"/>
<path d="M323.98 339.07C323.98 339.133 318.78 339.19 312.375 339.19C305.969 339.19 300.775 339.133 300.775 339.07C300.775 339.008 305.969 338.951 312.375 338.951C318.78 338.951 323.98 339.001 323.98 339.07Z" fill="#F5F5F5"/>
<path d="M214.475 245.857C259.005 245.857 295.104 209.758 295.104 165.228C295.104 120.697 259.005 84.5986 214.475 84.5986C169.945 84.5986 133.846 120.697 133.846 165.228C133.846 209.758 169.945 245.857 214.475 245.857Z" fill="#EFEFEF"/>
<path d="M108.412 123.057C120.995 123.057 131.196 112.857 131.196 100.274C131.196 87.6904 120.995 77.4897 108.412 77.4897C95.8291 77.4897 85.6284 87.6904 85.6284 100.274C85.6284 112.857 95.8291 123.057 108.412 123.057Z" fill="#EBEBEB"/>
<path d="M160.662 309.687H123.051V314.855H160.662V309.687Z" fill="#263238"/>
<path d="M160.725 314.924H122.988V309.63H160.725V314.924ZM123.12 314.799H160.599V309.775H123.12V314.799Z" fill="#263238"/>
<path d="M126.542 313.134L131.956 339.843H151.983L157.214 314.855L126.542 313.134Z" fill="#263238"/>
<path d="M126.542 337.319L129.425 341.288H153.773L157.214 337.319H126.542Z" fill="#455A64"/>
<path d="M140.447 313.913C140.371 313.913 140.277 301.542 140.233 286.281C140.189 271.021 140.233 258.649 140.29 258.649C140.346 258.649 140.459 271.021 140.503 286.281C140.547 301.542 140.522 313.913 140.447 313.913Z" fill="#263238"/>
<path d="M148.824 282.953C148.801 283.053 148.768 283.15 148.723 283.242L148.384 284.039L148.139 284.617C148.064 284.837 147.982 285.069 147.888 285.32C147.794 285.572 147.7 285.842 147.599 286.124C147.499 286.407 147.423 286.721 147.323 287.047C146.872 288.557 146.52 290.095 146.268 291.651C145.977 293.559 145.784 295.481 145.69 297.409C145.547 300.918 145.645 304.433 145.985 307.928C146.105 309.272 146.23 310.353 146.318 311.106C146.356 311.458 146.387 311.734 146.412 311.967C146.428 312.069 146.428 312.172 146.412 312.274C146.38 312.176 146.357 312.075 146.343 311.973C146.306 311.753 146.262 311.464 146.199 311.119C146.08 310.371 145.929 309.291 145.784 307.947C145.392 304.445 145.266 300.918 145.408 297.397C145.511 295.457 145.721 293.524 146.036 291.607C146.3 290.045 146.672 288.502 147.147 286.991C147.254 286.664 147.336 286.363 147.442 286.068L147.756 285.27C147.851 285.019 147.945 284.787 148.026 284.567C148.108 284.347 148.215 284.171 148.296 284.002L148.679 283.217C148.761 283.041 148.811 282.947 148.824 282.953Z" fill="#263238"/>
<path d="M147.876 272.949C147.876 272.949 147.838 273.087 147.756 273.351C147.675 273.614 147.524 274.023 147.361 274.506C147.273 274.757 147.179 275.034 147.078 275.335C146.984 275.643 146.883 275.963 146.77 276.334C146.551 277.05 146.299 277.86 146.073 278.777C145.948 279.237 145.822 279.714 145.697 280.208C145.571 280.702 145.452 281.224 145.339 281.772C145.081 282.846 144.886 284.02 144.648 285.239C144.233 287.7 143.869 290.413 143.618 293.283C143.367 296.153 143.272 298.891 143.235 301.378C143.197 303.865 143.235 306.12 143.367 308.004C143.367 308.946 143.455 309.8 143.505 310.516C143.555 311.232 143.599 311.904 143.643 312.431C143.687 312.959 143.712 313.342 143.737 313.643C143.752 313.785 143.752 313.928 143.737 314.07C143.705 313.932 143.682 313.791 143.668 313.649C143.637 313.348 143.586 312.946 143.53 312.444C143.473 311.941 143.404 311.276 143.342 310.528C143.279 309.781 143.21 308.927 143.159 307.985C143.034 306.101 142.984 303.846 142.977 301.347C142.971 298.847 143.097 296.103 143.335 293.227C143.574 290.351 143.963 287.631 144.39 285.163C144.641 283.907 144.836 282.771 145.112 281.69C145.238 281.15 145.364 280.629 145.483 280.127C145.602 279.624 145.747 279.153 145.879 278.695C146.117 277.778 146.381 276.968 146.62 276.258L146.94 275.26L147.254 274.437C147.436 273.966 147.581 273.583 147.694 273.3C147.74 273.176 147.801 273.058 147.876 272.949Z" fill="#263238"/>
<path d="M138.067 316.105C138.059 316.057 138.059 316.008 138.067 315.96C138.067 315.847 138.067 315.709 138.029 315.533C138.004 315.135 137.966 314.589 137.916 313.894C137.828 312.45 137.696 310.396 137.539 307.865C137.213 302.779 136.742 295.751 135.887 288.021C135.448 284.158 134.939 280.485 134.412 277.156C134.135 275.498 133.878 273.916 133.589 272.446C133.3 270.977 133.043 269.608 132.779 268.358C132.515 267.108 132.258 265.99 132.032 265.004C131.805 264.018 131.605 263.171 131.404 262.492C131.203 261.814 131.108 261.28 131.014 260.897C130.977 260.721 130.945 260.589 130.92 260.476C130.914 260.428 130.914 260.38 130.92 260.332C130.941 260.377 130.957 260.423 130.97 260.47C130.97 260.577 131.039 260.715 131.09 260.878C131.196 261.261 131.341 261.789 131.529 262.461C131.718 263.133 131.95 263.993 132.157 264.973C132.364 265.953 132.678 267.077 132.936 268.326C133.193 269.576 133.507 270.939 133.784 272.415C134.06 273.891 134.343 275.461 134.631 277.125C135.172 280.453 135.687 284.127 136.126 287.995C136.986 295.739 137.426 302.772 137.702 307.865C137.841 310.409 137.941 312.469 137.998 313.894C137.998 314.591 138.042 315.15 138.06 315.54C138.06 315.709 138.06 315.854 138.06 315.967C138.069 316.012 138.071 316.059 138.067 316.105Z" fill="#263238"/>
<path d="M140.139 264.597C139.976 262.844 138.205 261.519 136.446 261.5C135.564 261.541 134.703 261.781 133.926 262.202C133.15 262.623 132.478 263.214 131.962 263.931C130.953 265.378 130.222 267.001 129.808 268.716C128.526 272.831 128.075 277.161 128.483 281.452C128.992 285.722 130.719 289.918 133.784 292.932C134.28 293.422 134.927 293.918 135.605 293.767C135.974 293.659 136.307 293.455 136.572 293.177C139.568 290.431 141.943 287.077 143.538 283.34C145.133 279.602 145.912 275.567 145.822 271.505C145.873 269.872 145.471 268.257 144.661 266.838C143.763 265.488 141.665 264.056 140.139 264.597Z" fill="#E9052E"/>
<path d="M126.995 250.554L124.514 255.044C124.458 255.151 124.382 255.27 124.263 255.277C124.144 255.283 124.031 255.164 123.962 255.057L117.405 245.009L118.919 244.155L126.995 250.554Z" fill="#E9052E"/>
<g opacity="0.2">
<path d="M126.995 250.554L124.514 255.044C124.458 255.151 124.382 255.27 124.263 255.277C124.144 255.283 124.031 255.164 123.962 255.057L117.405 245.009L118.919 244.155L126.995 250.554Z" fill="black"/>
</g>
<path d="M140.29 258.649L117.927 245.461C117.683 245.352 117.49 245.154 117.386 244.909C117.299 244.582 117.543 244.281 117.782 244.017C119.317 242.423 121.177 241.179 123.236 240.368C125.295 239.558 127.505 239.2 129.714 239.319C131.925 239.479 134.063 240.174 135.945 241.344C137.827 242.515 139.396 244.126 140.516 246.039C142.676 249.895 142.745 254.994 140.271 258.655" fill="#E9052E"/>
<path d="M121.154 241.241L121.443 241.203C121.638 241.203 121.92 241.159 122.291 241.166C123.33 241.152 124.369 241.234 125.393 241.41C128.799 241.989 131.967 243.529 134.527 245.849C137.086 248.169 138.928 251.172 139.837 254.504C140.117 255.506 140.304 256.532 140.396 257.569C140.418 257.778 140.428 257.987 140.428 258.197C140.41 258.371 140.352 258.539 140.258 258.687C140.322 258.313 140.333 257.933 140.289 257.556C140.162 256.534 139.952 255.524 139.661 254.536C138.73 251.25 136.894 248.292 134.362 246C131.83 243.708 128.705 242.174 125.343 241.574C124.33 241.383 123.303 241.271 122.272 241.241C121.556 241.253 121.154 241.266 121.154 241.241Z" fill="#263238"/>
<path d="M137.263 249.543C136.907 249.756 136.528 249.927 136.132 250.052C135.423 250.334 134.424 250.68 133.313 251.05C132.201 251.421 131.178 251.678 130.437 251.867C130.038 251.989 129.627 252.067 129.212 252.099C129.586 251.921 129.977 251.782 130.38 251.684L133.231 250.793L136.07 249.876C136.455 249.724 136.855 249.612 137.263 249.543Z" fill="#263238"/>
<path d="M133.739 240.085C133.943 240.907 134.034 241.752 134.01 242.597C134.07 243.437 134.024 244.281 133.871 245.109C133.757 244.277 133.713 243.437 133.739 242.597C133.671 241.762 133.671 240.921 133.739 240.085Z" fill="#263238"/>
<path d="M117.732 245.216C118.258 244.982 118.802 244.791 119.358 244.645C120.376 244.331 121.789 243.935 123.365 243.552C124.941 243.169 126.386 242.886 127.428 242.698C127.99 242.571 128.561 242.496 129.136 242.472C128.59 242.648 128.032 242.786 127.466 242.886C126.43 243.119 125.004 243.439 123.428 243.816C121.852 244.192 120.439 244.563 119.409 244.827C118.86 244.996 118.299 245.126 117.732 245.216Z" fill="#263238"/>
<path d="M130.857 260.791C128.935 259.334 126.901 259.045 124.489 259.145C122.074 259.306 119.71 259.915 117.518 260.942C113.75 262.593 110.208 265.03 107.954 268.478C105.699 271.925 104.914 276.485 106.604 280.24C106.734 280.631 107.005 280.96 107.364 281.163C107.78 281.281 108.225 281.248 108.62 281.069C112.909 279.669 117.229 278.256 121.18 276.045C125.13 273.834 128.716 270.807 130.826 266.82C131.372 265.881 131.719 264.84 131.843 263.761C131.9 263.222 131.842 262.676 131.672 262.161C131.502 261.645 131.224 261.172 130.857 260.772" fill="#E9052E"/>
<path d="M130.92 260.338C130.825 260.397 130.721 260.44 130.612 260.464L129.714 260.778L129.086 260.992L128.326 261.287C127.786 261.506 127.158 261.726 126.492 262.047L125.444 262.53C125.073 262.693 124.715 262.901 124.326 263.102C123.547 263.478 122.762 263.968 121.927 264.464C120.141 265.59 118.442 266.85 116.846 268.232C115.27 269.641 113.801 271.165 112.45 272.792C111.822 273.558 111.27 274.28 110.792 275.002C110.547 275.36 110.296 275.693 110.083 276.032L109.455 277.018C109.053 277.646 108.758 278.23 108.469 278.739C108.331 278.996 108.192 279.235 108.079 279.455C107.966 279.674 107.872 279.882 107.778 280.083C107.608 280.434 107.47 280.711 107.357 280.937C107.244 281.163 107.206 281.232 107.194 281.226C107.223 281.12 107.261 281.017 107.307 280.918C107.407 280.692 107.533 280.397 107.684 280.039C107.772 279.85 107.866 279.637 107.966 279.411C108.067 279.185 108.205 278.946 108.337 278.682C108.613 278.161 108.896 277.558 109.291 276.93L109.919 275.932C110.127 275.586 110.378 275.247 110.616 274.889C111.087 274.154 111.671 273.426 112.268 272.647C114.932 269.323 118.153 266.489 121.789 264.27C122.636 263.78 123.434 263.296 124.219 262.919C124.608 262.725 124.979 262.524 125.343 262.361L126.411 261.896C127.083 261.582 127.717 261.375 128.295 261.167C128.571 261.067 128.828 260.966 129.067 260.891L129.726 260.696L130.643 260.433C130.733 260.395 130.825 260.363 130.92 260.338Z" fill="#263238"/>
<path d="M115.848 268.452C114.317 269.039 112.755 269.542 111.169 269.959C109.608 270.462 108.021 270.881 106.416 271.215C107.947 270.629 109.508 270.126 111.094 269.708C112.654 269.201 114.241 268.782 115.848 268.452Z" fill="#263238"/>
<path d="M115.678 278.802C115.598 278.318 115.564 277.828 115.578 277.338C115.578 276.44 115.578 275.197 115.578 273.821C115.578 272.446 115.691 271.203 115.766 270.305C115.782 269.817 115.843 269.331 115.948 268.854C115.991 269.339 115.991 269.826 115.948 270.311C115.917 271.297 115.879 272.503 115.841 273.828C115.804 275.153 115.779 276.34 115.754 277.338C115.77 277.827 115.745 278.317 115.678 278.802Z" fill="#263238"/>
<path d="M124.521 274.293C124.445 274.293 124.213 271.781 123.999 268.641C123.786 265.501 123.667 262.989 123.742 262.989C123.817 262.989 124.05 265.501 124.263 268.641C124.477 271.781 124.596 274.286 124.521 274.293Z" fill="#263238"/>
<path d="M113.512 262.725C114.01 262.666 114.512 262.651 115.013 262.681C115.936 262.681 117.217 262.713 118.624 262.757C120.03 262.8 121.311 262.863 122.235 262.92C122.734 262.919 123.233 262.968 123.723 263.064C123.227 263.12 122.727 263.135 122.228 263.108C121.305 263.108 120.024 263.071 118.617 263.027C117.211 262.983 115.93 262.92 115.006 262.87C114.505 262.866 114.005 262.817 113.512 262.725Z" fill="#263238"/>
<path d="M134.738 293.522C134.718 293.423 134.708 293.322 134.707 293.221C134.707 293.001 134.707 292.712 134.669 292.36C134.638 291.619 134.625 290.533 134.669 289.22C134.713 287.908 134.782 286.294 134.945 284.529C135.109 282.764 135.372 280.843 135.73 278.827C136.088 276.811 136.547 274.921 136.986 273.213C137.426 271.504 137.935 269.978 138.381 268.716C138.826 267.454 139.216 266.436 139.511 265.746L139.85 264.954C139.932 264.772 139.976 264.678 139.988 264.684C139.967 264.783 139.938 264.88 139.9 264.973C139.825 265.187 139.724 265.457 139.605 265.783C139.341 266.487 138.977 267.504 138.563 268.773C138.148 270.041 137.683 271.567 137.225 273.269C136.767 274.971 136.346 276.874 135.969 278.877C135.592 280.88 135.341 282.802 135.165 284.529C134.989 286.256 134.883 287.87 134.832 289.201C134.782 290.533 134.757 291.613 134.763 292.342C134.763 292.693 134.763 292.969 134.763 293.202C134.772 293.309 134.764 293.417 134.738 293.522Z" fill="#263238"/>
<path d="M135.944 278.883C135.682 279.24 135.383 279.569 135.052 279.863C134.475 280.441 133.652 281.213 132.716 282.036C131.78 282.859 130.901 283.568 130.254 284.064C129.921 284.356 129.557 284.611 129.168 284.824C129.459 284.491 129.783 284.188 130.135 283.92L132.54 281.835L134.927 279.725C135.24 279.414 135.58 279.132 135.944 278.883Z" fill="#263238"/>
<path d="M142.996 284.586C142.649 284.17 142.332 283.729 142.048 283.267L139.838 280.045L137.583 276.849C137.25 276.423 136.948 275.974 136.679 275.505C137.069 275.89 137.422 276.31 137.734 276.761C138.362 277.552 139.184 278.645 140.057 279.901C140.93 281.157 141.684 282.325 142.205 283.179C142.513 283.622 142.778 284.093 142.996 284.586Z" fill="#263238"/>
<path d="M139.291 266.656C139.329 266.719 136.98 268.301 134.041 270.185C131.102 272.069 128.684 273.558 128.646 273.501C128.609 273.445 130.957 271.856 133.897 269.966C136.836 268.075 139.253 266.568 139.291 266.656Z" fill="#263238"/>
<path d="M145.923 273.809C144.677 272.78 143.488 271.684 142.362 270.525C141.179 269.425 140.056 268.264 138.996 267.045C140.239 268.075 141.426 269.172 142.551 270.33C143.736 271.428 144.862 272.59 145.923 273.809Z" fill="#263238"/>
<path d="M147.587 273.665L149.603 273.502C151.036 273.379 152.425 272.951 153.679 272.246C154.285 271.886 154.914 271.567 155.563 271.291C158.075 270.286 160.838 270.468 163.526 270.33C167.923 270.108 172.232 269.008 176.199 267.096C176.428 266.986 176.62 266.812 176.751 266.594C177.166 265.84 176.393 265.162 175.728 264.754C172.33 262.662 168.87 260.54 165.014 259.497C161.158 258.455 156.8 258.643 153.528 260.916C149.666 263.579 148.259 269.036 147.606 273.677" fill="#E9052E"/>
<path d="M176.814 266.349C176.692 266.312 176.576 266.259 176.469 266.192L175.514 265.689C174.685 265.256 173.492 264.609 171.978 263.887C170.221 263.022 168.391 262.316 166.509 261.777C164.209 261.116 161.8 260.922 159.425 261.205C157.043 261.47 154.794 262.436 152.963 263.981C151.528 265.308 150.382 266.915 149.597 268.704C149.046 269.904 148.558 271.133 148.133 272.384C147.983 272.802 147.863 273.142 147.775 273.401C147.737 273.522 147.688 273.64 147.631 273.753C147.653 273.63 147.682 273.508 147.719 273.389C147.8 273.125 147.901 272.761 148.033 272.352C148.422 271.084 148.887 269.84 149.427 268.628C150.201 266.799 151.35 265.151 152.799 263.793C154.657 262.194 156.952 261.192 159.387 260.916C161.8 260.627 164.246 260.83 166.578 261.513C168.471 262.068 170.308 262.797 172.066 263.692C173.567 264.44 174.748 265.112 175.564 265.576L176.494 266.116C176.606 266.186 176.713 266.263 176.814 266.349Z" fill="#263238"/>
<path d="M171.966 268.955C171.922 269.018 169.284 267.309 166.069 265.143C162.854 262.976 160.285 261.168 160.323 261.105C160.36 261.042 163.004 262.75 166.22 264.917C169.435 267.083 172.01 268.892 171.966 268.955Z" fill="#263238"/>
<path d="M169.153 260.966C168.533 261.177 167.885 261.294 167.231 261.312C166.581 261.407 165.921 261.407 165.271 261.312C165.91 261.198 166.557 261.13 167.206 261.111C167.85 261.015 168.501 260.967 169.153 260.966Z" fill="#263238"/>
<path d="M157.597 259.459C157.38 259.953 157.088 260.411 156.731 260.816C156.426 261.285 156.056 261.708 155.632 262.072C155.849 261.579 156.141 261.124 156.498 260.722C156.8 260.249 157.171 259.823 157.597 259.459Z" fill="#263238"/>
<path d="M159.959 270.512C159.518 270.324 159.097 270.092 158.703 269.821C157.943 269.356 156.907 268.678 155.808 267.881C154.709 267.083 153.735 266.323 153.038 265.771C152.643 265.494 152.277 265.179 151.945 264.829C152.369 265.057 152.773 265.322 153.151 265.62L155.965 267.661C157.064 268.458 158.075 269.162 158.803 269.664C159.215 269.908 159.602 270.192 159.959 270.512Z" fill="#263238"/>
<path d="M150.557 282.268C148.636 281.766 146.337 283.637 145.942 285.584C145.546 287.531 146.274 289.534 147.135 291.33C148.97 295.354 151.69 298.911 155.092 301.736C158.528 304.561 162.82 306.139 167.269 306.214C166.452 302.446 167.482 298.483 167.03 294.646C166.624 291.265 165.086 288.121 162.665 285.726C160.243 283.331 157.083 281.827 153.697 281.458C152.441 281.326 151.047 281.132 150.557 282.262" fill="#E9052E"/>
<path d="M167.269 306.195C167.173 306.162 167.08 306.12 166.992 306.069C166.738 305.929 166.497 305.767 166.27 305.586C165.469 304.881 164.827 304.014 164.386 303.042C164.078 302.446 163.758 301.786 163.4 301.083L162.364 298.797C161.996 297.956 161.577 297.138 161.108 296.348C160.588 295.509 160.002 294.713 159.356 293.968C158.043 292.417 156.624 291.079 155.399 289.798C154.292 288.682 153.283 287.471 152.385 286.181C151.781 285.304 151.285 284.357 150.909 283.361C150.809 283.091 150.723 282.817 150.652 282.538C150.62 282.44 150.599 282.339 150.589 282.237C150.589 282.237 150.727 282.632 151.003 283.323C151.414 284.29 151.928 285.21 152.536 286.068C153.452 287.334 154.469 288.524 155.575 289.628C156.831 290.884 158.232 292.228 159.563 293.792C160.217 294.549 160.81 295.357 161.334 296.21C161.804 297.01 162.224 297.838 162.59 298.69C162.942 299.501 163.281 300.267 163.601 300.989C163.921 301.711 164.229 302.358 164.556 302.955C164.971 303.916 165.578 304.784 166.339 305.504C166.904 305.988 167.281 306.17 167.269 306.195Z" fill="#263238"/>
<path d="M157.296 303.055C157.303 302.619 157.362 302.184 157.472 301.762C157.622 300.964 157.867 299.878 158.2 298.691C158.533 297.504 158.891 296.449 159.18 295.695C159.31 295.278 159.484 294.875 159.701 294.496C159.626 294.924 159.511 295.345 159.356 295.752C159.117 296.518 158.791 297.579 158.458 298.76C158.125 299.94 157.83 301.014 157.654 301.793C157.574 302.224 157.454 302.647 157.296 303.055Z" fill="#263238"/>
<path d="M166.904 293.773C166.444 293.711 165.99 293.608 165.548 293.466C164.719 293.246 163.57 292.951 162.295 292.662C161.02 292.373 159.858 292.153 159.017 291.996C158.557 291.934 158.103 291.833 157.66 291.695C158.126 291.681 158.591 291.719 159.048 291.808C159.902 291.921 161.076 292.115 162.358 292.404C163.639 292.693 164.782 293.032 165.598 293.284C166.048 293.404 166.486 293.568 166.904 293.773Z" fill="#263238"/>
<path d="M150.168 296.474C150.186 295.968 150.256 295.465 150.375 294.973C150.545 294.056 150.815 292.787 151.173 291.412C151.531 290.037 151.92 288.793 152.222 287.908C152.361 287.423 152.544 286.953 152.768 286.501C152.688 286.999 152.564 287.488 152.397 287.964C152.146 288.862 151.769 290.099 151.437 291.475C151.104 292.85 150.809 294.106 150.564 295.01C150.471 295.508 150.339 295.997 150.168 296.474Z" fill="#263238"/>
<path d="M162.483 285.691C160.689 285.637 158.899 285.493 157.12 285.258C155.33 285.114 153.548 284.879 151.782 284.554C153.576 284.608 155.366 284.753 157.145 284.988C158.935 285.131 160.717 285.366 162.483 285.691Z" fill="#263238"/>
<path d="M160.725 314.836C160.725 314.905 152.278 314.968 141.885 314.968C131.492 314.968 123.045 314.905 123.045 314.836C123.045 314.767 131.492 314.698 141.885 314.698C152.278 314.698 160.725 314.761 160.725 314.836Z" fill="#455A64"/>
<path d="M154.847 325.707C154.847 325.776 149.157 325.839 142.136 325.839C135.115 325.839 129.425 325.776 129.425 325.707C129.425 325.638 135.115 325.569 142.136 325.569C149.157 325.569 154.847 325.632 154.847 325.707Z" fill="#455A64"/>
<path d="M154.627 327.258C154.627 327.334 149.031 327.39 142.136 327.39C135.24 327.39 129.645 327.334 129.645 327.258C129.645 327.183 135.234 327.126 142.136 327.126C149.038 327.126 154.627 327.183 154.627 327.258Z" fill="#455A64"/>
<path d="M155.066 324.426C155.066 324.495 149.182 324.558 141.922 324.558C134.663 324.558 128.772 324.495 128.772 324.426C128.772 324.357 134.656 324.288 141.922 324.288C149.188 324.288 155.066 324.344 155.066 324.426Z" fill="#455A64"/>
<path d="M210.89 166.264C212.478 166.264 213.766 164.976 213.766 163.388C213.766 161.799 212.478 160.512 210.89 160.512C209.301 160.512 208.014 161.799 208.014 163.388C208.014 164.976 209.301 166.264 210.89 166.264Z" fill="#E9052E"/>
<path d="M291.06 124.156C291.104 124.238 273.237 133.005 251.169 143.744C229.101 154.482 211.172 163.117 211.134 163.042C211.097 162.967 228.951 154.187 251.025 143.449C273.099 132.71 291.06 124.075 291.06 124.156Z" fill="#E9052E"/>
<path d="M289.647 120.703C289.647 120.703 289.465 120.439 289.132 119.918C288.799 119.396 288.303 118.611 287.65 117.594C287.324 117.079 286.972 116.501 286.564 115.879L285.119 113.895L283.443 111.578C282.815 110.78 282.111 109.951 281.376 109.066C279.97 107.244 278.161 105.43 276.258 103.414C274.236 101.479 272.069 99.338 269.501 97.3158C263.775 92.6145 257.471 88.6657 250.743 85.5659C249.801 85.1452 248.859 84.6679 247.898 84.3099L244.921 83.167C242.93 82.3317 240.801 81.7728 238.641 81.082C237.58 80.7178 236.468 80.498 235.357 80.2217L232.028 79.4241L228.53 78.7961C227.362 78.6014 226.188 78.3691 224.982 78.2811L221.352 77.9232L220.429 77.829L219.506 77.7976L217.622 77.7348C216.366 77.7348 215.11 77.6155 213.854 77.6469L210.023 77.7473C204.733 78.0342 199.478 78.7929 194.323 80.0144C183.234 82.6601 172.776 87.4705 163.551 94.1695C153.626 101.343 145.343 110.549 139.254 121.174C133.124 131.776 129.327 143.564 128.119 155.751C125.912 177.545 132.04 199.366 145.27 216.824C148.079 220.548 151.192 224.033 154.577 227.243C156.172 228.819 157.861 230.226 159.494 231.639L162.006 233.611C162.823 234.27 163.695 234.835 164.518 235.444L165.774 236.336C166.189 236.619 166.622 236.882 167.03 237.159L169.542 238.76C171.25 239.715 172.864 240.732 174.528 241.542C175.357 241.963 176.161 242.39 176.971 242.798L179.389 243.891L180.57 244.431L181.757 244.902L184.074 245.819C189.3 247.803 194.714 249.253 200.232 250.146C201.363 250.378 202.449 250.472 203.454 250.617C204.459 250.761 205.407 250.899 206.293 250.943L208.736 251.138C209.483 251.201 210.155 251.257 210.764 251.264L213.515 251.345L214.457 251.389H213.515L210.758 251.333C210.13 251.333 209.502 251.283 208.729 251.226L206.286 251.05C205.401 251.006 204.459 250.843 203.442 250.73C202.424 250.617 201.344 250.504 200.214 250.278C194.682 249.404 189.253 247.971 184.011 246.001L181.688 245.084L180.532 244.588L179.345 244.054L176.921 242.962C176.111 242.566 175.301 242.139 174.472 241.706C172.801 240.902 171.175 239.884 169.448 238.93L166.936 237.328C166.515 237.052 166.082 236.795 165.68 236.506L164.424 235.614C163.595 234.986 162.716 234.44 161.912 233.78L159.4 231.802C157.761 230.408 156.059 229.001 154.458 227.406C151.049 224.188 147.913 220.692 145.082 216.956C131.79 199.45 125.626 177.558 127.83 155.688C129.04 143.455 132.849 131.621 139.002 120.979C142.104 115.582 145.769 110.53 149.936 105.907C161.741 92.904 177.193 83.7624 194.273 79.6753C199.454 78.4633 204.734 77.7214 210.048 77.4585L213.892 77.3643C215.147 77.3643 216.404 77.4333 217.66 77.4585L219.544 77.5213L220.473 77.5527L221.396 77.6469L225.045 78.0174C226.251 78.1116 227.431 78.3377 228.606 78.5386L232.097 79.1352L235.476 79.9453C236.587 80.2279 237.705 80.4477 238.767 80.8183C240.908 81.5091 243.043 82.0743 245.047 82.9158L248.03 84.065C249.016 84.4544 249.914 84.9317 250.881 85.321C257.619 88.4329 263.931 92.3943 269.664 97.1086C272.233 99.1433 274.393 101.297 276.415 103.238C278.299 105.298 280.114 107.125 281.521 108.953C282.249 109.844 282.946 110.68 283.581 111.465L285.245 113.788L286.67 115.785C287.079 116.413 287.43 116.991 287.751 117.506C288.379 118.53 288.875 119.315 289.201 119.848L289.647 120.703Z" fill="#E9052E"/>
<path d="M160.926 263.183C160.926 263.183 160.926 262.995 160.882 262.618C160.838 262.241 160.825 261.682 160.781 260.96C160.781 260.596 160.737 260.194 160.712 259.742C160.687 259.29 160.568 258.813 160.493 258.285C160.417 257.757 160.323 257.192 160.223 256.589C160.184 256.275 160.119 255.964 160.028 255.66L159.77 254.687C158.965 251.42 157.664 248.297 155.914 245.424C153.631 241.596 150.631 238.244 147.078 235.551L145.578 234.434C145.05 234.088 144.491 233.768 143.945 233.429L143.11 232.926C142.834 232.748 142.547 232.588 142.249 232.449L140.447 231.582C140.139 231.438 139.819 231.287 139.53 231.149L138.563 230.797L136.61 230.088C135.944 229.868 135.247 229.724 134.562 229.535L133.52 229.271C133.344 229.227 133.175 229.177 132.999 229.14L132.459 229.058C131.006 228.791 129.538 228.621 128.063 228.549C127.315 228.549 126.555 228.449 125.796 228.461L123.497 228.581C123.114 228.581 122.725 228.581 122.342 228.656L121.18 228.832C120.407 228.964 119.622 229.052 118.844 229.215C117.272 229.562 115.726 230.015 114.215 230.571L113.06 230.992L112.482 231.206L111.929 231.476L109.687 232.562C108.953 232.958 108.249 233.423 107.521 233.818C107.169 234.044 106.786 234.239 106.447 234.496L105.43 235.263C104.042 236.289 102.724 237.407 101.486 238.61L99.721 240.55L99.2814 241.04L98.8795 241.568L98.0882 242.635L97.2844 243.703L96.5873 244.84L95.8902 245.995L95.5386 246.567C95.4318 246.767 95.3439 246.975 95.2434 247.195L94.0628 249.644L93.1208 252.212C90.7346 259.321 90.7346 267.014 93.1208 274.123L94.0628 276.692C94.4584 277.514 94.8478 278.331 95.2434 279.141L95.5386 279.769L95.8902 280.347L96.5873 281.496L97.2844 282.639L98.082 283.706L98.8921 284.78L99.2877 285.308L99.7336 285.791L101.498 287.738C102.735 288.93 104.048 290.04 105.43 291.06L106.453 291.826C106.792 292.084 107.169 292.279 107.527 292.505C108.256 292.938 108.959 293.396 109.687 293.798L111.936 294.879L112.488 295.149L113.066 295.362L114.222 295.783C115.733 296.338 117.279 296.794 118.85 297.146C119.629 297.303 120.414 297.397 121.186 297.522L122.348 297.698C122.731 297.749 123.12 297.749 123.51 297.774L125.808 297.893C126.568 297.893 127.322 297.83 128.069 297.805C129.544 297.736 131.013 297.566 132.465 297.296L132.999 297.215L133.526 297.083L134.562 296.819C135.253 296.631 135.95 296.493 136.61 296.273L138.569 295.557L139.53 295.205L140.447 294.772L142.249 293.905C142.547 293.767 142.835 293.608 143.11 293.428L143.945 292.925C144.497 292.586 145.05 292.266 145.578 291.921L147.078 290.797C150.634 288.11 153.634 284.759 155.914 280.931C157.664 278.058 158.965 274.934 159.77 271.668L160.028 270.694C160.119 270.391 160.184 270.08 160.223 269.765C160.323 269.137 160.411 268.597 160.493 268.069C160.574 267.542 160.662 267.058 160.712 266.612C160.763 266.166 160.756 265.758 160.781 265.394C160.825 264.672 160.857 264.138 160.882 263.736C160.907 263.334 160.926 263.171 160.926 263.171C160.926 263.171 160.926 263.366 160.926 263.736C160.926 264.107 160.888 264.672 160.857 265.394C160.857 265.764 160.825 266.166 160.807 266.65C160.788 267.134 160.675 267.586 160.599 268.113C160.524 268.641 160.436 269.212 160.348 269.821C160.31 270.136 160.245 270.447 160.153 270.751C160.078 271.071 159.99 271.379 159.909 271.73C159.109 275.002 157.815 278.132 156.071 281.012C153.801 284.878 150.805 288.269 147.248 290.998L145.735 292.128C145.207 292.48 144.648 292.8 144.095 293.145L143.26 293.654C142.982 293.833 142.692 293.995 142.394 294.138L140.579 295.01L139.656 295.45L138.682 295.808L136.716 296.53C136.045 296.756 135.347 296.901 134.657 297.089L133.608 297.359L133.08 297.491L132.534 297.573C131.083 297.851 129.614 298.025 128.138 298.094C127.378 298.125 126.618 298.201 125.852 298.188L123.535 298.075C123.145 298.075 122.756 298.075 122.367 298L121.199 297.824C120.42 297.698 119.622 297.604 118.844 297.447C117.257 297.092 115.694 296.637 114.165 296.084L113.003 295.657C112.809 295.582 112.614 295.519 112.425 295.437L111.86 295.167L109.568 294.081C108.827 293.679 108.117 293.214 107.389 292.781C107.031 292.549 106.648 292.354 106.302 292.097L105.273 291.324C103.874 290.287 102.544 289.161 101.291 287.952L99.5075 285.986L99.0616 285.496L98.6597 284.962L97.8559 283.889L97.0081 282.815L96.3173 281.64L95.6139 280.479L95.2622 279.901L94.9608 279.273L93.7676 276.798C93.4536 275.938 93.1396 275.071 92.8193 274.205C90.4079 267.031 90.4079 259.266 92.8193 252.093C93.1396 251.226 93.4473 250.36 93.7739 249.499L94.9608 247.025C95.0613 246.824 95.1555 246.617 95.2622 246.397L95.6139 245.813L96.3236 244.651L97.0081 243.552L97.8119 242.472L98.6158 241.398L99.024 240.871L99.4698 240.374L101.253 238.415C102.501 237.203 103.829 236.076 105.229 235.043L106.259 234.27C106.604 234.013 106.987 233.818 107.345 233.586C108.08 233.152 108.789 232.688 109.524 232.286L111.791 231.199L112.356 230.929C112.545 230.848 112.739 230.785 112.934 230.71L114.096 230.289C115.621 229.731 117.182 229.276 118.768 228.926C119.553 228.763 120.351 228.675 121.13 228.543L122.298 228.367C122.687 228.317 123.076 228.317 123.466 228.292L125.783 228.179C126.549 228.179 127.309 228.242 128.063 228.273C129.549 228.343 131.028 228.517 132.49 228.794L133.03 228.876C133.212 228.913 133.382 228.964 133.558 229.008L134.606 229.278C135.303 229.466 136.001 229.611 136.673 229.837L138.638 230.559L139.605 230.917C139.919 231.055 140.233 231.212 140.528 231.356L142.343 232.229C142.644 232.369 142.933 232.531 143.21 232.713L144.052 233.222C144.604 233.567 145.163 233.887 145.691 234.239L147.198 235.369C150.765 238.086 153.772 241.469 156.053 245.329C157.801 248.217 159.097 251.356 159.896 254.636C159.978 254.969 160.066 255.296 160.141 255.616C160.232 255.92 160.297 256.231 160.336 256.545C160.423 257.173 160.511 257.726 160.587 258.254C160.662 258.781 160.75 259.271 160.794 259.717C160.838 260.163 160.832 260.577 160.844 260.941L160.913 262.599C160.926 262.995 160.926 263.183 160.926 263.183Z" fill="#E9052E"/>
<path d="M117.104 193.281C117.104 193.281 117.104 193.136 117.066 192.86C117.029 192.583 117.022 192.163 116.991 191.604C116.991 191.336 116.972 191.034 116.934 190.699C116.934 190.367 116.828 190.009 116.771 189.613C116.715 189.217 116.646 188.803 116.57 188.357C116.484 187.88 116.371 187.408 116.231 186.944C115.633 184.508 114.665 182.179 113.361 180.036C111.664 177.199 109.436 174.715 106.799 172.72L105.681 171.885C105.291 171.627 104.877 171.395 104.469 171.144C104.06 170.892 103.659 170.616 103.213 170.415L101.869 169.787L101.191 169.461L100.462 169.228L99.0114 168.701C98.5152 168.537 98.0003 168.431 97.4916 168.292C96.9809 168.14 96.4606 168.023 95.9342 167.941C94.8555 167.741 93.7644 167.615 92.6686 167.564C92.1159 167.564 91.557 167.489 90.9918 167.495L89.2836 167.583C89.001 167.583 88.7122 167.583 88.4233 167.639L87.5881 167.784C87.0166 167.878 86.4325 167.947 85.8548 168.066C84.6882 168.325 83.5405 168.663 82.4196 169.077C81.2678 169.493 80.1454 169.986 79.0598 170.553C78.5135 170.848 77.9922 171.181 77.4521 171.514C77.1796 171.667 76.9155 171.835 76.6609 172.016L75.901 172.582C74.8717 173.354 73.8941 174.193 72.9745 175.094L71.6683 176.532L71.3417 176.896L71.0403 177.285L70.4562 178.077L69.8282 178.868L69.3133 179.716L68.7983 180.532L68.5408 180.959L68.321 181.411C68.0259 182.039 67.737 182.617 67.4418 183.226L66.7447 185.11C64.9695 190.385 64.9695 196.095 66.7447 201.369C66.9771 201.997 67.2095 202.625 67.4418 203.253C67.6742 203.881 68.0259 204.471 68.3147 205.074L68.5345 205.527L68.7983 205.954L69.3133 206.808L69.8345 207.655L70.4248 208.447L71.0151 209.238L71.3103 209.627L71.6431 209.992L72.9494 211.436C73.8698 212.326 74.8474 213.154 75.8759 213.917L76.6295 214.488C76.8807 214.676 77.1633 214.821 77.427 214.99C77.9671 215.311 78.4883 215.65 79.0347 215.945C80.1189 216.516 81.2415 217.012 82.3945 217.427C83.5164 217.837 84.6639 218.172 85.8297 218.432C86.4074 218.551 86.9915 218.62 87.5629 218.715L88.4233 218.846C88.7122 218.884 89.001 218.884 89.2836 218.903L90.9918 218.991C91.557 218.991 92.1159 218.947 92.6748 218.928C93.7686 218.876 94.8575 218.75 95.9342 218.551C96.4602 218.464 96.9803 218.344 97.4916 218.193C98.0066 218.055 98.5215 217.955 99.0114 217.791L100.462 217.258L101.178 217L101.862 216.68L103.2 216.052C103.646 215.851 104.042 215.562 104.456 215.323C104.871 215.085 105.279 214.84 105.668 214.582L106.786 213.753C109.414 211.765 111.638 209.292 113.336 206.469C114.641 204.326 115.609 201.997 116.206 199.561C116.346 199.096 116.459 198.625 116.545 198.148C116.62 197.695 116.683 197.275 116.746 196.892C116.809 196.508 116.878 196.138 116.909 195.811C116.941 195.485 116.947 195.183 116.966 194.901C116.966 194.373 117.022 193.959 117.041 193.676C117.06 193.394 117.079 193.255 117.079 193.255C117.079 193.255 117.079 193.394 117.079 193.676C117.079 193.959 117.079 194.373 117.035 194.932C117.035 195.202 117.035 195.51 116.997 195.843C116.96 196.176 116.903 196.54 116.847 196.929C116.79 197.319 116.727 197.746 116.664 198.185C116.581 198.666 116.472 199.142 116.338 199.611C115.749 202.045 114.792 204.374 113.499 206.519C111.805 209.391 109.57 211.908 106.918 213.929L105.8 214.815C105.404 215.078 104.99 215.317 104.544 215.568C104.098 215.819 103.728 216.102 103.288 216.309L101.938 216.937L101.253 217.264L100.531 217.534L99.0679 218.068C98.5718 218.237 98.0505 218.344 97.5356 218.488C97.0179 218.64 96.4915 218.759 95.9593 218.846C94.8708 219.053 93.7691 219.183 92.6623 219.236C92.1034 219.236 91.5382 219.311 90.9667 219.305L89.2397 219.223C88.9508 219.223 88.6556 219.223 88.3668 219.167L87.5001 219.035C86.9161 218.941 86.3321 218.872 85.748 218.752C84.5668 218.494 83.4044 218.156 82.2689 217.741C81.1021 217.322 79.9649 216.825 78.8651 216.253C78.3125 215.951 77.785 215.625 77.2386 215.279C76.9686 215.11 76.686 214.965 76.4285 214.777L75.6623 214.199C74.6206 213.43 73.6324 212.591 72.7045 211.687L71.3731 210.23L71.0403 209.86L70.7388 209.464L70.1108 208.667L69.5142 207.863L68.9867 207.009L68.4592 206.142L68.1954 205.709L67.9756 205.256L67.0901 203.416C66.8515 202.788 66.6129 202.16 66.3805 201.482C64.5795 196.143 64.5795 190.361 66.3805 185.022C66.6191 184.394 66.8515 183.729 67.0901 183.088L67.9756 181.248L68.2017 180.796L68.4592 180.363L68.9867 179.496L69.5142 178.642L70.1108 177.838L70.7388 177.04L71.034 176.645L71.3668 176.274L72.6982 174.817C73.6261 173.914 74.6143 173.075 75.6561 172.305L76.4285 171.734C76.6797 171.539 76.9623 171.395 77.2323 171.225C77.7787 170.899 78.3062 170.553 78.8589 170.258C79.9574 169.683 81.0948 169.186 82.2626 168.77C83.3971 168.356 84.5571 168.016 85.7355 167.752C86.3195 167.633 86.9098 167.564 87.4939 167.47L88.3605 167.338C88.6494 167.3 88.9445 167.306 89.2334 167.288L90.9604 167.2C91.5256 167.2 92.0971 167.25 92.656 167.269C93.7605 167.324 94.8599 167.454 95.9467 167.658C96.4793 167.746 97.0058 167.868 97.523 168.022C98.038 168.161 98.5592 168.267 99.0616 168.437L100.525 168.977L101.247 169.241L101.932 169.567L103.282 170.195C103.734 170.402 104.13 170.691 104.538 170.936C104.946 171.181 105.367 171.432 105.756 171.69L106.88 172.531C109.533 174.555 111.768 177.074 113.462 179.948C114.756 182.092 115.713 184.422 116.3 186.856C116.433 187.325 116.542 187.801 116.627 188.282C116.69 188.734 116.752 189.155 116.809 189.538C116.865 189.921 116.928 190.291 116.96 190.624C116.991 190.957 116.96 191.252 116.997 191.535C116.997 192.068 117.035 192.483 117.041 192.791C117.048 193.098 117.104 193.281 117.104 193.281Z" fill="#E9052E"/>
<path d="M316.858 83.9268C316.843 83.8354 316.832 83.7432 316.827 83.6505C316.827 83.4538 316.808 83.1837 316.77 82.8404C316.77 82.6646 316.77 82.4636 316.733 82.2501C316.695 82.0366 316.664 81.7979 316.626 81.5404C316.545 80.9471 316.426 80.3597 316.268 79.782C315.869 78.1952 315.234 76.6773 314.384 75.2793C313.15 73.2225 311.494 71.4509 309.525 70.0815C307.556 68.712 305.318 67.776 302.961 67.3351C299.992 66.7883 296.93 67.0441 294.093 68.0761C293.34 68.3499 292.606 68.673 291.895 69.0432C291.537 69.2379 291.198 69.464 290.847 69.6712C290.482 69.88 290.134 70.1151 289.804 70.3746C289.142 70.876 288.513 71.4193 287.92 72.0011C287.328 72.6159 286.776 73.2683 286.269 73.9542C285.221 75.3644 284.407 76.9334 283.857 78.6014C283.302 80.3228 283.01 82.1182 282.99 83.9268C283.007 85.7337 283.299 87.5273 283.857 89.246C284.405 90.9151 285.219 92.4845 286.269 93.8932C286.775 94.5824 287.327 95.237 287.92 95.8526C288.511 96.4359 289.141 96.9793 289.804 97.4791C290.126 97.7376 290.466 97.9726 290.822 98.1825C291.173 98.3897 291.512 98.6158 291.87 98.8105C292.581 99.1807 293.315 99.5037 294.068 99.7776C297.762 101.114 301.805 101.126 305.507 99.8124C309.209 98.4986 312.34 95.9403 314.365 92.5744C315.212 91.1727 315.847 89.6532 316.249 88.0654C316.407 87.4898 316.526 86.9045 316.607 86.3132C316.645 86.0558 316.689 85.8234 316.714 85.6036C316.739 85.3838 316.714 85.1891 316.752 84.9756C316.752 84.6365 316.796 84.3476 316.808 84.1718C316.813 84.0791 316.824 83.9869 316.84 83.8954C316.846 83.9874 316.846 84.0798 316.84 84.1718C316.84 84.3664 316.84 84.6365 316.84 84.9819V85.5785C316.84 85.7983 316.777 86.0369 316.745 86.2944C316.677 86.892 316.566 87.4839 316.412 88.0654C316.033 89.6751 315.408 91.2171 314.56 92.6372C312.534 96.0731 309.37 98.6926 305.617 100.042C301.863 101.392 297.756 101.387 294.005 100.029C293.236 99.7547 292.487 99.4273 291.764 99.0491C291.399 98.8544 291.054 98.6221 290.69 98.4211C290.328 98.21 289.981 97.9728 289.653 97.7115C288.966 97.2026 288.314 96.6487 287.7 96.0535C287.093 95.4305 286.531 94.7653 286.017 94.0628C284.937 92.6357 284.095 91.0429 283.524 89.3465C282.953 87.596 282.654 85.7681 282.639 83.9268C282.658 82.0839 282.957 80.2545 283.524 78.5009C284.087 76.8022 284.921 75.2055 285.992 73.7721C286.509 73.0721 287.071 72.407 287.675 71.7813C288.289 71.1881 288.941 70.6364 289.628 70.1297C289.958 69.8684 290.304 69.6293 290.665 69.4138C291.029 69.2065 291.374 68.9742 291.738 68.7858C292.462 68.4075 293.211 68.0802 293.98 67.8061C296.865 66.7619 299.976 66.5061 302.992 67.065C305.38 67.5231 307.643 68.4841 309.631 69.8841C311.619 71.2842 313.286 73.0911 314.522 75.1851C315.382 76.6006 316.017 78.1407 316.406 79.7506C316.559 80.3344 316.671 80.9283 316.739 81.5279C316.77 81.7854 316.814 82.024 316.833 82.2438C316.852 82.4636 316.833 82.6583 316.833 82.8404C316.833 83.1858 316.833 83.4684 316.833 83.6505C316.848 83.7419 316.857 83.8342 316.858 83.9268Z" fill="#E9052E"/>
<path d="M212.56 170.22C212.56 170.22 212.654 173.624 214.174 173.128C215.518 172.688 215.078 170.899 215.078 170.899C215.078 170.899 213.251 167.551 215.078 167.181C215.329 167.124 216.767 169.379 217.49 170.528C217.752 170.95 217.841 171.455 217.741 171.941L216.667 177.241C216.469 178.223 216.009 179.132 215.336 179.873L214.299 181.009L215.003 183.722L207.919 186.147L207.391 177.141L206.65 171.784C206.688 171.495 206.796 171.22 206.964 170.983C207.133 170.745 207.357 170.552 207.618 170.421L208.246 170.107L208.289 169.385C208.303 169.174 208.374 168.971 208.493 168.796C208.612 168.622 208.776 168.482 208.968 168.393L209.363 168.205L210.349 167.677C210.732 167.47 210.4 162.754 210.814 162.873C210.814 162.873 211.618 162.458 211.825 163.111" fill="#FFBE9D"/>
<path d="M207.737 172.368C207.711 172.25 207.711 172.128 207.737 172.01C207.77 171.871 207.834 171.742 207.926 171.633C208.018 171.524 208.134 171.438 208.264 171.382H208.296V171.219C208.338 170.746 208.338 170.271 208.296 169.799C208.22 170.267 208.182 170.739 208.183 171.212C208.186 171.254 208.186 171.296 208.183 171.338L208.22 171.281C208.071 171.347 207.942 171.451 207.845 171.582C207.748 171.713 207.687 171.867 207.668 172.029C207.624 172.211 207.718 172.368 207.737 172.368Z" fill="#EB996E"/>
<path d="M210.77 167.489C210.533 167.677 210.357 167.933 210.268 168.223C210.082 168.938 210.014 169.678 210.067 170.415C210.095 170.634 210.095 170.856 210.067 171.074C210.015 171.28 209.925 171.473 209.803 171.646C209.597 171.895 209.476 172.203 209.458 172.525C209.467 172.827 209.549 173.122 209.696 173.385C209.573 173.281 209.475 173.149 209.41 173.002C209.345 172.854 209.314 172.693 209.319 172.531C209.317 172.175 209.434 171.828 209.652 171.545C209.757 171.39 209.833 171.218 209.878 171.037C209.901 170.828 209.901 170.617 209.878 170.409C209.821 169.649 209.911 168.886 210.142 168.161C210.349 167.595 210.776 167.457 210.77 167.489Z" fill="#EB996E"/>
<path d="M246.284 321.6L247.119 341.287L257.751 341.049L256.953 321.323L246.284 321.6Z" fill="#E9052E"/>
<path d="M252.338 340.427C252.425 340.427 252.262 336.113 251.973 330.8C251.684 325.487 251.345 321.185 251.282 321.191C251.22 321.198 251.358 325.506 251.653 330.819C251.948 336.132 252.25 340.433 252.338 340.427Z" fill="#263238"/>
<path d="M247.062 339.931L257.695 339.655L257.751 341.049L247.119 341.288L247.062 339.931Z" fill="#263238"/>
<path d="M257.494 334.744C257.494 334.744 257.412 334.58 257.205 334.329C256.902 333.977 256.57 333.651 256.212 333.356C255.676 332.918 255.079 332.558 254.441 332.288C253.329 331.807 252.091 331.696 250.91 331.972C249.73 332.247 248.669 332.896 247.885 333.821C247.587 334.182 247.342 334.584 247.157 335.014C247.079 335.167 247.03 335.333 247.012 335.504C247.317 334.965 247.665 334.452 248.055 333.971C249.065 332.872 250.469 332.217 251.961 332.15C253.448 332.13 254.898 332.62 256.068 333.538C256.991 334.222 257.45 334.781 257.494 334.744Z" fill="#263238"/>
<g opacity="0.3">
<path d="M257.179 326.938L257.267 329.105L246.61 329.299L246.541 327.666L257.179 326.938Z" fill="black"/>
</g>
<path d="M221.264 322.78L221.785 334.763C221.785 334.763 209.778 339.309 209.659 341.539L232.926 341.363L232.882 322.661L221.264 322.78Z" fill="#E9052E"/>
<path d="M228.819 333.764C229.047 333.824 229.245 333.966 229.374 334.163C229.502 334.361 229.553 334.599 229.516 334.832C229.458 335.059 229.315 335.255 229.116 335.38C228.917 335.505 228.678 335.55 228.448 335.504C228.208 335.433 228.003 335.276 227.873 335.062C227.743 334.848 227.697 334.594 227.745 334.348C227.828 334.125 227.991 333.942 228.203 333.833C228.414 333.725 228.659 333.7 228.888 333.764" fill="#E0E0E0"/>
<path d="M232.926 341.363V339.479L210.412 340.327C210.412 340.327 209.37 340.792 209.495 341.526L232.926 341.363Z" fill="#263238"/>
<path d="M221.572 334.838C221.572 334.951 222.15 335.001 222.715 335.366C223.28 335.73 223.588 336.207 223.688 336.163C223.789 336.119 223.619 335.453 222.928 335.026C222.238 334.599 221.547 334.731 221.572 334.838Z" fill="#263238"/>
<path d="M219.123 335.874C219.123 335.987 219.594 336.176 219.989 336.659C220.385 337.143 220.498 337.651 220.617 337.645C220.737 337.639 220.799 337.017 220.297 336.389C219.795 335.761 219.123 335.761 219.123 335.874Z" fill="#263238"/>
<path d="M217.747 338.826C217.854 338.826 218.011 338.273 217.71 337.651C217.408 337.03 216.875 336.778 216.824 336.879C216.774 336.979 217.113 337.306 217.352 337.821C217.59 338.336 217.634 338.788 217.747 338.826Z" fill="#263238"/>
<path d="M221.76 332.075C221.81 332.182 222.331 332.018 222.978 332.075C223.625 332.131 224.134 332.314 224.19 332.219C224.247 332.125 223.763 331.711 222.997 331.679C222.231 331.648 221.703 331.987 221.76 332.075Z" fill="#263238"/>
<path d="M221.352 329.494C221.736 329.604 222.143 329.604 222.526 329.494C222.949 329.419 223.361 329.29 223.751 329.111C223.985 329.008 224.209 328.886 224.423 328.746C224.554 328.673 224.672 328.58 224.775 328.47C224.854 328.387 224.903 328.28 224.912 328.165C224.921 328.05 224.891 327.936 224.825 327.842C224.767 327.763 224.692 327.698 224.604 327.654C224.517 327.609 224.421 327.585 224.322 327.585C224.174 327.583 224.025 327.604 223.883 327.647C223.633 327.708 223.389 327.792 223.154 327.899C222.76 328.08 222.397 328.324 222.081 328.621C221.54 329.129 221.352 329.556 221.396 329.575C221.44 329.594 221.71 329.255 222.256 328.834C222.575 328.581 222.926 328.37 223.299 328.206C223.517 328.117 223.741 328.046 223.971 327.993C224.222 327.924 224.429 327.924 224.498 328.03C224.567 328.137 224.498 328.093 224.498 328.162C224.421 328.243 224.332 328.313 224.235 328.37C224.035 328.505 223.825 328.624 223.607 328.727C223.244 328.909 222.865 329.059 222.476 329.173C222.095 329.256 221.72 329.363 221.352 329.494Z" fill="#263238"/>
<path d="M221.471 329.657C221.515 329.657 221.741 329.267 221.773 328.526C221.791 328.091 221.734 327.655 221.603 327.239C221.528 326.992 221.427 326.754 221.302 326.529C221.238 326.375 221.135 326.239 221.003 326.137C220.871 326.034 220.714 325.968 220.548 325.945C220.444 325.949 220.343 325.981 220.257 326.039C220.17 326.097 220.101 326.177 220.058 326.272C220 326.41 219.962 326.556 219.945 326.705C219.904 326.967 219.904 327.234 219.945 327.496C220.016 327.934 220.193 328.348 220.46 328.702C220.919 329.33 221.402 329.443 221.408 329.399C221.415 329.355 221.044 329.129 220.693 328.545C220.488 328.211 220.357 327.836 220.309 327.446C220.278 327.221 220.278 326.993 220.309 326.768C220.347 326.517 220.435 326.316 220.529 326.341C220.623 326.366 220.843 326.523 220.944 326.724C221.061 326.924 221.16 327.134 221.239 327.352C221.372 327.728 221.451 328.122 221.471 328.52C221.528 329.211 221.408 329.644 221.471 329.657Z" fill="#263238"/>
<g opacity="0.3">
<path d="M232.933 329.845L232.907 332.508H221.685V330.096L232.933 329.845Z" fill="black"/>
</g>
<path d="M231.4 168.851L245.536 168.669L243.96 156.668C243.96 156.668 244.927 156.461 244.99 151.223C245.053 145.986 245.297 137.093 245.297 137.093C242.322 135.809 239.058 135.343 235.843 135.741C232.627 136.14 229.576 137.389 227.004 139.36L226.225 139.957L231.4 168.851Z" fill="#FFBE9D"/>
<path d="M227.889 146.394C227.795 146.356 224.291 145.333 224.404 148.906C224.517 152.479 228.09 151.631 228.09 151.531C228.09 151.431 227.889 146.394 227.889 146.394Z" fill="#FFBE9D"/>
<path d="M244.701 145.647C244.789 145.609 247.979 144.749 247.841 148.328C247.703 151.908 244.155 151.054 244.155 150.953C244.155 150.853 244.701 145.647 244.701 145.647Z" fill="#FFBE9D"/>
<path d="M226.728 145.992C227.261 148.988 227.155 150.564 227.651 152.567C228.436 155.739 230.006 158.169 232.863 159.752C235.72 161.334 239.583 161.309 242.038 159.155C243.74 157.654 244.946 155.965 245.178 153.716C245.411 151.468 245.687 147.474 245.699 145.207C245.731 141.119 246.007 137.213 246.007 137.213L234.326 135.103L227.701 139.084L226.728 145.992Z" fill="#263238"/>
<path d="M238.773 161.566C238.109 161.762 237.413 161.824 236.725 161.748C236.038 161.673 235.372 161.462 234.766 161.127C234.804 161.032 235.664 161.309 236.763 161.422C237.862 161.535 238.76 161.472 238.773 161.566Z" fill="#263238"/>
<path d="M227.293 151.098C226.948 148.02 226.728 144.503 226.244 141.263C226.069 140.051 225.616 138.293 225.742 137.068C225.776 135.832 226.036 134.612 226.508 133.47C226.85 132.771 227.348 132.161 227.963 131.686C228.579 131.212 229.296 130.885 230.058 130.732C230.82 130.579 231.607 130.604 232.359 130.804C233.11 131.004 233.805 131.375 234.39 131.887C234.81 131.235 235.422 130.729 236.141 130.438C236.859 130.147 237.651 130.084 238.406 130.259C239.162 130.435 239.845 130.839 240.363 131.417C240.88 131.995 241.207 132.718 241.298 133.488C241.716 133.088 242.255 132.836 242.831 132.773C243.407 132.71 243.987 132.839 244.483 133.14C244.978 133.44 245.36 133.896 245.57 134.436C245.78 134.976 245.806 135.57 245.643 136.126C246.066 136.194 246.464 136.367 246.803 136.628C247.141 136.89 247.409 137.232 247.581 137.623C247.753 138.015 247.825 138.443 247.789 138.869C247.753 139.296 247.612 139.706 247.377 140.064C246.836 140.892 245.863 141.351 245.266 142.149C244.931 142.613 244.735 143.164 244.703 143.736C244.67 144.308 244.803 144.877 245.084 145.376" fill="#263238"/>
<path d="M243.508 139.988C243.487 140.107 243.442 140.22 243.376 140.321C243.209 140.623 242.977 140.885 242.698 141.087C242.26 141.415 241.725 141.585 241.178 141.571C240.821 141.562 240.469 141.479 240.145 141.327C239.821 141.176 239.531 140.96 239.294 140.692L239.539 140.623C239.455 141.029 239.267 141.408 238.994 141.721C238.722 142.035 238.373 142.273 237.982 142.412C237.549 142.58 237.082 142.637 236.622 142.58C236.162 142.523 235.723 142.353 235.344 142.086C234.66 141.608 234.144 140.927 233.868 140.139L234.151 140.177C233.858 140.612 233.465 140.97 233.005 141.221C232.545 141.473 232.031 141.61 231.507 141.621C231.093 141.63 230.682 141.555 230.299 141.4C229.915 141.244 229.568 141.012 229.278 140.717C228.899 140.335 228.623 139.864 228.474 139.348C228.41 139.164 228.387 138.97 228.405 138.776C228.405 138.776 228.455 138.977 228.58 139.31C228.757 139.79 229.045 140.22 229.422 140.566C229.698 140.829 230.023 141.033 230.379 141.168C230.735 141.303 231.114 141.365 231.494 141.351C231.97 141.33 232.435 141.197 232.85 140.962C233.264 140.728 233.618 140.398 233.881 140.001L234.057 139.737L234.163 140.032C234.423 140.753 234.901 141.375 235.532 141.81C235.864 142.052 236.251 142.207 236.658 142.262C237.064 142.317 237.479 142.269 237.862 142.124C238.207 142.004 238.516 141.799 238.761 141.527C239.006 141.256 239.179 140.928 239.263 140.572L239.313 140.277L239.508 140.51C239.716 140.753 239.972 140.951 240.259 141.094C240.546 141.236 240.858 141.319 241.178 141.339C241.679 141.365 242.175 141.228 242.591 140.949C242.957 140.693 243.269 140.366 243.508 139.988Z" fill="#455A64"/>
<path d="M243.483 138.569C243.415 138.103 243.245 137.657 242.987 137.263C242.682 136.845 242.236 136.552 241.731 136.44C241.427 136.369 241.112 136.362 240.806 136.42C240.5 136.479 240.209 136.601 239.954 136.779L239.671 136.987V136.635C239.699 136.287 239.659 135.937 239.552 135.605C239.438 135.244 239.253 134.91 239.007 134.623C238.761 134.336 238.459 134.102 238.12 133.935C237.549 133.674 236.907 133.617 236.299 133.771C235.732 133.936 235.212 134.231 234.779 134.632C234.779 134.632 234.848 134.462 235.068 134.23C235.485 133.836 236.007 133.572 236.571 133.471C237.136 133.369 237.717 133.435 238.245 133.658C238.629 133.837 238.971 134.093 239.249 134.411C239.528 134.729 239.738 135.101 239.866 135.505C239.984 135.88 240.027 136.275 239.991 136.666L239.74 136.516C240.034 136.314 240.368 136.177 240.719 136.117C241.07 136.056 241.43 136.072 241.775 136.164C242.325 136.314 242.799 136.663 243.106 137.144C243.309 137.452 243.432 137.806 243.464 138.174C243.533 138.456 243.502 138.569 243.483 138.569Z" fill="#455A64"/>
<path d="M236.041 138.676C235.991 138.676 236.041 138.469 236.041 138.18C236.009 137.804 235.884 137.441 235.677 137.125C235.444 136.754 235.162 136.378 235.005 136.177C234.848 135.976 234.653 136.12 234.628 136.101C234.603 136.082 234.628 136.02 234.703 135.957C234.773 135.92 234.851 135.904 234.929 135.911C235.007 135.918 235.081 135.947 235.143 135.995C235.293 136.116 235.43 136.253 235.551 136.403C235.701 136.577 235.837 136.761 235.959 136.955C236.204 137.326 236.315 137.769 236.273 138.211C236.217 138.525 236.072 138.695 236.041 138.676Z" fill="#455A64"/>
<path d="M229.114 134.173C229.076 134.173 229.114 133.897 229.327 133.545C229.464 133.323 229.646 133.133 229.861 132.986C230.142 132.805 230.479 132.731 230.81 132.779C231.378 132.884 231.885 133.2 232.229 133.664C232.493 133.997 232.612 134.223 232.574 134.248C232.537 134.274 232.354 134.098 232.059 133.821C231.714 133.455 231.265 133.203 230.772 133.099C230.53 133.075 230.286 133.116 230.066 133.218C229.845 133.319 229.655 133.478 229.516 133.677C229.271 133.96 229.158 134.192 229.114 134.173Z" fill="#455A64"/>
<path d="M230.929 149.352C230.342 148.698 229.912 147.918 229.673 147.072C229.338 146.261 229.19 145.386 229.24 144.51C229.334 144.51 229.516 145.634 229.981 146.965C230.446 148.297 231.011 149.301 230.929 149.352Z" fill="#455A64"/>
<path d="M232.499 150.212C231.781 149.201 231.336 148.023 231.206 146.79C231.524 147.312 231.77 147.876 231.934 148.466C232.202 149.019 232.392 149.607 232.499 150.212Z" fill="#455A64"/>
<path d="M242.333 150.457C242.448 151.522 242.31 152.6 241.932 153.602C241.553 154.605 240.944 155.504 240.154 156.228C240.713 155.352 241.204 154.435 241.624 153.484C241.941 152.496 242.178 151.483 242.333 150.457Z" fill="#455A64"/>
<path d="M243.903 147.876C244.224 148.785 244.302 149.762 244.129 150.711C243.956 151.659 243.539 152.546 242.917 153.283C243.29 152.433 243.589 151.553 243.809 150.652C243.919 149.731 243.951 148.802 243.903 147.876Z" fill="#455A64"/>
<path d="M239.382 246.516L242.817 279.656L245.285 329.556H258.454L258.812 223.349L221.107 226.037L213.295 281.759L220.065 330.53H234.509L231.13 284.158L239.382 246.516Z" fill="#263238"/>
<path d="M239.382 246.516C238.604 247.428 237.747 248.269 236.82 249.028C235.964 249.871 235.033 250.634 234.038 251.308C235.671 249.547 237.459 247.937 239.382 246.497V246.516Z" fill="#455A64"/>
<path d="M239.344 245.844C239.28 244.425 239.303 243.003 239.413 241.586C239.414 240.167 239.496 238.75 239.658 237.341C239.872 240.178 239.767 243.03 239.344 245.844Z" fill="#455A64"/>
<path d="M243.696 233.485C243.767 233.48 243.839 233.48 243.91 233.485L244.538 233.447L247.05 233.322L255.98 232.951H256.131V233.102C256.131 235.89 256.131 239.043 256.131 242.371V242.66L256.024 242.704L250.215 245.028H250.165H250.108L244.971 243.244L244.896 243.213V243.131C244.519 240.242 244.205 237.831 243.985 236.104C243.885 235.294 243.803 234.647 243.746 234.169C243.712 233.949 243.691 233.727 243.684 233.504C243.703 233.568 243.718 233.633 243.728 233.698C243.728 233.837 243.778 234.012 243.815 234.22C243.891 234.703 243.991 235.356 244.123 236.173C244.381 237.875 244.751 240.249 245.166 243.081L245.078 242.968L250.24 244.714H250.133L255.936 242.371L255.829 242.528V242.346C255.829 239.018 255.829 235.865 255.829 233.077L255.98 233.227L247.15 233.447L244.638 233.491H243.96C243.872 233.499 243.784 233.497 243.696 233.485Z" fill="#455A64"/>
<path d="M224.687 233.648C224.749 233.639 224.813 233.639 224.875 233.648H225.465L227.72 233.579L235.884 233.391H236.035V233.541C235.947 236.292 235.846 239.463 235.74 242.842V242.924L235.67 242.974L234.728 243.602L229.956 246.71L229.868 246.767L229.786 246.717L224.41 243.439L224.341 243.401V243.319C224.442 240.431 224.53 238.025 224.586 236.298C224.624 235.494 224.649 234.848 224.674 234.37C224.677 234.15 224.692 233.93 224.718 233.711C224.723 233.774 224.723 233.837 224.718 233.899V234.427C224.718 234.91 224.718 235.57 224.718 236.386C224.718 238.094 224.655 240.474 224.611 243.326L224.549 243.206L229.949 246.447H229.78L234.546 243.307L235.488 242.679L235.419 242.811C235.539 239.432 235.658 236.267 235.758 233.516L235.903 233.661L227.846 233.705H225.553H224.925C224.844 233.696 224.763 233.677 224.687 233.648Z" fill="#455A64"/>
<path d="M254.743 248.658C254.148 248.696 253.551 248.677 252.959 248.601C251.86 248.519 250.341 248.375 248.676 248.155C247.012 247.935 245.505 247.697 244.425 247.496C243.84 247.419 243.264 247.287 242.704 247.1C243.3 247.107 243.895 247.166 244.481 247.276L248.745 247.841L253.003 248.381C253.59 248.424 254.172 248.516 254.743 248.658Z" fill="#455A64"/>
<path d="M254.435 285.596C254.435 285.596 254.385 285.785 254.127 286.011C253.746 286.319 253.267 286.482 252.777 286.469C252.055 286.452 251.361 286.186 250.812 285.716C250.156 285.17 249.555 284.562 249.016 283.901C248.012 282.731 247.12 281.47 246.353 280.133C246.008 279.597 245.727 279.021 245.518 278.418C245.891 278.93 246.235 279.462 246.547 280.014C247.369 281.293 248.278 282.514 249.267 283.669C249.791 284.313 250.369 284.911 250.994 285.458C251.491 285.901 252.12 286.168 252.784 286.218C253.226 286.247 253.667 286.133 254.04 285.892C254.31 285.735 254.41 285.578 254.435 285.596Z" fill="#455A64"/>
<path d="M228.429 286.758C228.409 286.912 228.348 287.057 228.254 287.179C228.022 287.536 227.711 287.833 227.343 288.046C226.795 288.367 226.169 288.532 225.534 288.523C224.759 288.495 224.005 288.256 223.355 287.832C222.217 287.041 221.314 285.956 220.743 284.692C220.472 284.202 220.261 283.682 220.115 283.141C220.436 283.598 220.722 284.078 220.969 284.579C221.58 285.759 222.468 286.774 223.556 287.537C224.158 287.926 224.85 288.156 225.566 288.203C226.152 288.226 226.734 288.096 227.255 287.826C227.72 287.56 228.12 287.195 228.429 286.758Z" fill="#455A64"/>
<path d="M229.271 281.759C228.953 282.037 228.584 282.251 228.185 282.387C227.249 282.784 226.249 283.008 225.233 283.047C224.218 283.087 223.203 282.947 222.237 282.632C221.83 282.528 221.446 282.347 221.107 282.098C223.77 283.045 226.696 282.923 229.271 281.759Z" fill="#455A64"/>
<path d="M291.946 124.583L293.83 125.073L293.202 127.761C293.202 127.761 291.895 130.97 290.545 130.122C289.352 129.375 290.206 127.755 290.206 127.755C290.206 127.755 292.781 124.954 291.11 124.156C290.884 124.043 288.944 125.871 287.97 126.813C287.616 127.158 287.407 127.625 287.386 128.119L287.148 133.501C287.096 134.497 287.313 135.488 287.776 136.371L288.504 137.715L287.166 140.17L293.446 144.227L296.084 135.643L298.094 130.619C298.124 130.329 298.083 130.037 297.974 129.767C297.864 129.498 297.69 129.259 297.466 129.074L296.926 128.615L297.057 127.906C297.096 127.698 297.077 127.484 297.004 127.287C296.931 127.089 296.807 126.914 296.643 126.781L296.304 126.499L296.593 125.362C296.681 124.835 297.258 122.938 293.603 123.045C293.603 123.045 291.719 122.982 291.5 123.604C291.412 124.062 291.5 124.477 291.946 124.583Z" fill="#FFBE9D"/>
<path d="M295.625 130.845C295.723 130.642 295.805 130.432 295.87 130.217C295.991 129.668 295.929 129.095 295.695 128.584C295.758 128.015 295.887 127.454 296.078 126.914C296.145 126.69 296.246 126.478 296.379 126.286C296.379 126.286 296.285 126.537 296.159 126.951C296.001 127.483 295.887 128.027 295.82 128.578C295.858 128.716 295.921 128.867 295.965 129.024C296.007 129.171 296.032 129.323 296.04 129.476C296.056 129.737 296.026 129.998 295.952 130.248C295.903 130.415 295.833 130.576 295.745 130.726C295.711 130.771 295.671 130.812 295.625 130.845Z" fill="#EB996E"/>
<path d="M296.925 130.92C296.971 130.809 297 130.693 297.013 130.574C297.02 130.43 296.991 130.286 296.93 130.155C296.869 130.023 296.777 129.909 296.662 129.821V129.777V129.658C296.741 129.192 296.859 128.734 297.013 128.289C296.98 128.76 296.902 129.226 296.781 129.683V129.808V129.746C296.91 129.844 297.01 129.975 297.072 130.125C297.134 130.275 297.155 130.439 297.133 130.6C297.064 130.819 296.938 130.92 296.925 130.92Z" fill="#EB996E"/>
<path d="M290.463 122.128L298.188 137.106C298.235 137.196 298.263 137.295 298.272 137.396C298.28 137.497 298.269 137.599 298.238 137.696C298.207 137.793 298.157 137.883 298.092 137.96C298.026 138.038 297.945 138.102 297.855 138.148C297.673 138.241 297.462 138.258 297.268 138.195C297.074 138.133 296.913 137.997 296.819 137.816L289.094 122.831L289.019 121.01L290.463 122.128Z" fill="#E9052E"/>
<path d="M287.223 130.845L287.43 127.12L290.985 123.98C290.985 123.98 291.889 124.608 291.782 125.236C291.676 125.864 290.168 127.748 290.168 127.748C289.977 127.99 289.858 128.281 289.824 128.587C289.789 128.894 289.841 129.203 289.974 129.482" fill="#FFBE9D"/>
<path d="M213.025 180.583L207.869 182.454L202.261 198.757L213.615 189.161L213.025 180.583Z" fill="#E9052E"/>
<path d="M285.998 138.456L275.755 154.608L259.327 163.281C259.327 163.281 256.721 161.78 255.459 162.025C254.535 162.32 253.718 162.877 253.104 163.626L255.616 184.784L261.833 180.18L283.047 168.299L295.5 144.736L285.998 138.456Z" fill="#E9052E"/>
<path d="M219.418 170C217.52 171.359 216.046 173.227 215.166 175.389C214.048 178.077 206.927 190.228 202.901 197.249C201.432 199.805 201.3 204.289 203.334 206.418C205.784 208.98 208.71 207.982 212.283 206.82C213.885 206.299 221.075 195.234 221.075 195.234L219.418 170Z" fill="#E9052E"/>
<path d="M222.759 217.973L218.356 180.099L219.418 170L230.628 165.228L245.141 164.279L258.963 165.799L255.729 204.647L259.264 226.558L220.554 228.31L222.759 217.973Z" fill="#E9052E"/>
<path d="M222.608 217.961C222.514 217.961 221.465 209.533 220.253 199.121C219.041 188.709 218.137 180.281 218.225 180.243C218.313 180.206 219.368 188.665 220.58 199.083C221.792 209.502 222.683 217.948 222.608 217.961Z" fill="#263238"/>
<path d="M258.529 174.447C258.543 174.559 258.543 174.673 258.529 174.786C258.529 175.043 258.473 175.37 258.442 175.759L258.077 179.333C257.77 182.391 257.355 186.536 256.89 191.114C256.426 195.692 256.099 199.906 255.873 202.914C255.766 204.39 255.678 205.602 255.616 206.494C255.584 206.883 255.559 207.21 255.534 207.467C255.53 207.581 255.515 207.695 255.49 207.806C255.474 207.692 255.474 207.575 255.49 207.461C255.49 207.203 255.49 206.883 255.49 206.487C255.49 205.64 255.565 204.415 255.641 202.895C255.81 199.868 256.131 195.692 256.57 191.082C257.01 186.473 257.474 182.29 257.826 179.307C258.015 177.8 258.172 176.582 258.297 175.747C258.354 175.357 258.404 175.037 258.442 174.78C258.454 174.665 258.484 174.553 258.529 174.447Z" fill="#263238"/>
<path d="M251.867 212.152C251.682 212.423 251.472 212.676 251.239 212.906C250.996 213.195 250.734 213.468 250.454 213.722C250.127 214.024 249.775 214.394 249.336 214.733C248.87 215.127 248.383 215.496 247.879 215.838C247.351 216.228 246.736 216.573 246.102 216.95C243.285 218.516 240.16 219.448 236.945 219.682C236.247 219.733 235.547 219.748 234.848 219.726C234.237 219.719 233.627 219.677 233.02 219.6C232.52 219.55 232.024 219.472 231.532 219.368C231.159 219.308 230.789 219.224 230.427 219.117C230.115 219.053 229.81 218.961 229.516 218.84C229.516 218.771 230.854 219.186 233.058 219.387C233.657 219.45 234.258 219.479 234.86 219.475C235.488 219.475 236.204 219.443 236.933 219.399C238.511 219.258 240.072 218.964 241.593 218.52C243.113 218.058 244.585 217.45 245.989 216.705C246.617 216.341 247.245 216.008 247.76 215.631C248.267 215.306 248.756 214.952 249.223 214.57C250.937 213.188 251.816 212.102 251.867 212.152Z" fill="#263238"/>
<g opacity="0.3">
<path d="M231.4 219.223C229.516 218.683 229.409 216.912 230.144 216.146C230.879 215.38 232.059 215.285 233.108 215.436C234.137 215.688 235.189 215.831 236.248 215.863C237.969 215.744 239.388 214.544 240.606 213.301C241.825 212.057 242.936 210.663 244.506 209.954C246.076 209.244 248.274 209.489 249.091 211.002C249.324 211.5 249.429 212.048 249.396 212.596C249.363 213.145 249.193 213.676 248.902 214.142C248.306 215.067 247.51 215.846 246.572 216.422C244.379 217.921 241.895 218.945 239.282 219.427C236.669 219.909 233.984 219.84 231.4 219.223Z" fill="black"/>
</g>
<path d="M254.297 165.592C255.331 165.967 256.213 166.67 256.809 167.595C257.495 168.456 257.884 169.516 257.92 170.616C257.579 169.619 257.117 168.668 256.545 167.784C255.89 166.962 255.135 166.226 254.297 165.592Z" fill="#263238"/>
<path d="M201.419 204.396C201.347 204.164 201.306 203.923 201.3 203.68C201.23 203.019 201.215 202.353 201.256 201.69C201.41 199.487 202.128 197.361 203.341 195.516C204.691 193.356 205.928 191.415 206.839 190.015L207.932 188.363C208.052 188.152 208.2 187.958 208.371 187.786C208.285 188.007 208.173 188.218 208.038 188.414C207.768 188.878 207.41 189.444 207.034 190.116C206.173 191.547 204.967 193.513 203.623 195.667C202.435 197.472 201.702 199.539 201.488 201.69C201.344 203.347 201.488 204.396 201.419 204.396Z" fill="#263238"/>
<path d="M250.906 167.432C250.56 165.793 249.549 164.38 248.569 163.036C247.897 162.106 247.056 161.083 245.913 161.058C244.99 161.058 244.205 161.686 243.457 162.219C239.463 165.077 234.785 164.8 230.32 162.753L230.207 162.125C229.761 161.805 228.084 163.381 227.751 164.223C227.478 165.122 227.465 166.08 227.714 166.986C228.412 170.433 230.316 173.519 233.083 175.69C234.469 176.751 236.065 177.504 237.765 177.9C239.465 178.297 241.23 178.327 242.943 177.988C244.651 177.621 246.241 176.834 247.568 175.698C248.896 174.562 249.92 173.113 250.548 171.482C251.038 170.191 251.162 168.789 250.906 167.432Z" fill="#E9052E"/>
<path d="M250.793 167.771C250.822 167.911 250.837 168.055 250.837 168.198C250.837 168.481 250.881 168.895 250.893 169.454C250.957 170.967 250.881 172.483 250.667 173.982C250.515 175.024 250.232 176.043 249.826 177.015C249.349 178.137 248.646 179.149 247.76 179.986C246.711 180.91 245.48 181.603 244.146 182.019C242.811 182.434 241.404 182.563 240.016 182.397C237.241 182.014 234.676 180.709 232.731 178.692C231.149 177.078 229.917 175.153 229.114 173.04C228.559 171.62 228.153 170.147 227.902 168.644C227.808 168.116 227.758 167.708 227.726 167.426C227.711 167.284 227.711 167.14 227.726 166.999C227.774 167.135 227.805 167.276 227.821 167.419C227.871 167.696 227.946 168.104 228.059 168.625C228.356 170.099 228.792 171.541 229.359 172.933C230.18 175 231.41 176.88 232.976 178.46C234.88 180.414 237.382 181.679 240.085 182.052C241.427 182.213 242.787 182.091 244.079 181.694C245.37 181.297 246.564 180.634 247.584 179.747C248.448 178.942 249.136 177.967 249.606 176.883C250.017 175.937 250.308 174.944 250.472 173.925C250.701 172.44 250.81 170.938 250.799 169.435C250.799 168.926 250.799 168.518 250.799 168.179C250.782 168.044 250.78 167.907 250.793 167.771Z" fill="#263238"/>
<g opacity="0.3">
<path d="M244.783 161.334C245.838 163.727 246.667 165.893 245.612 168.299C244.701 170.39 242.296 171.583 240.01 171.489C237.712 171.293 235.562 170.274 233.956 168.619C232.369 166.975 230.984 165.147 229.83 163.174L230.182 162.295L230.32 162.741C230.32 162.741 235.746 165.322 239.489 163.997C243.558 162.603 244.783 161.334 244.783 161.334Z" fill="black"/>
</g>
<path d="M248.814 171.853C248.683 172.026 248.532 172.182 248.362 172.318C247.92 172.707 247.445 173.058 246.943 173.366C245.282 174.407 243.396 175.035 241.443 175.2C239.49 175.365 237.526 175.062 235.714 174.315C235.167 174.092 234.64 173.823 234.138 173.511C233.946 173.41 233.77 173.281 233.617 173.128C233.648 173.078 234.421 173.586 235.796 174.095C237.588 174.768 239.507 175.034 241.414 174.874C243.322 174.713 245.17 174.129 246.824 173.165C248.098 172.437 248.777 171.803 248.814 171.853Z" fill="#263238"/>
<path d="M244.418 161.127C244.481 161.199 244.534 161.279 244.575 161.366C244.663 161.529 244.789 161.774 244.933 162.094C245.353 163.014 245.63 163.992 245.756 164.995C245.961 166.506 245.637 168.042 244.839 169.341C244.365 170.112 243.699 170.747 242.905 171.181C242.037 171.628 241.056 171.81 240.085 171.702C239.133 171.595 238.204 171.343 237.328 170.955C236.516 170.606 235.741 170.175 235.017 169.668C233.786 168.81 232.711 167.748 231.839 166.528C231.254 165.709 230.771 164.821 230.401 163.884C230.296 163.633 230.208 163.375 230.137 163.111C230.103 163.023 230.082 162.93 230.075 162.835C230.58 164.094 231.236 165.288 232.028 166.39C232.901 167.564 233.962 168.587 235.168 169.417C235.88 169.91 236.639 170.33 237.435 170.673C238.281 171.044 239.179 171.285 240.098 171.388C241.005 171.493 241.922 171.327 242.735 170.911C243.482 170.502 244.113 169.91 244.569 169.19C245.342 167.948 245.672 166.481 245.505 165.027C245.4 164.043 245.164 163.078 244.801 162.157C244.588 161.491 244.393 161.133 244.418 161.127Z" fill="#263238"/>
<path d="M258.561 223.475C258.434 223.491 258.305 223.491 258.178 223.475H257.079L253.022 223.424C249.606 223.424 244.858 223.468 239.664 223.757C234.471 224.046 229.748 224.53 226.351 224.932L222.332 225.434L221.239 225.572C221.109 225.582 220.979 225.582 220.85 225.572C220.971 225.527 221.098 225.495 221.226 225.478L222.313 225.283C223.255 225.12 224.624 224.913 226.326 224.655C229.717 224.191 234.427 223.676 239.646 223.399C244.864 223.123 249.606 223.085 253.028 223.167C254.736 223.205 256.124 223.255 257.079 223.311L258.178 223.387C258.309 223.4 258.438 223.429 258.561 223.475Z" fill="#263238"/>
<path d="M218.495 171.112C218.38 171.356 218.241 171.587 218.08 171.803C217.76 172.287 217.352 172.896 216.874 173.624C215.857 175.163 214.475 177.298 213.031 179.71C211.587 182.121 210.349 184.351 209.47 185.99L208.434 187.911C208.319 188.155 208.181 188.386 208.02 188.602C208.093 188.343 208.194 188.093 208.321 187.855C208.528 187.384 208.855 186.706 209.269 185.883C210.092 184.231 211.298 181.977 212.748 179.559C214.199 177.141 215.612 175.012 216.686 173.505C217.22 172.751 217.659 172.149 217.973 171.74C218.125 171.514 218.3 171.303 218.495 171.112Z" fill="#263238"/>
<path d="M293.44 148.786C292.902 148.54 292.387 148.245 291.902 147.907C290.978 147.323 289.722 146.494 288.36 145.533C286.997 144.573 285.785 143.649 284.931 143.021C284.447 142.682 283.996 142.299 283.581 141.878C284.105 142.15 284.601 142.472 285.063 142.839C286.042 143.524 287.236 144.359 288.548 145.288L292.033 147.731C292.534 148.038 293.005 148.391 293.44 148.786Z" fill="#263238"/>
<path d="M228.015 171.074C227.853 171.174 227.677 171.248 227.494 171.294C227.154 171.414 226.646 171.552 226.018 171.702C224.762 172.01 222.985 172.243 221.094 172.739C219.48 173.133 217.977 173.888 216.698 174.949C216.203 175.429 215.75 175.95 215.342 176.507C215.395 176.324 215.475 176.15 215.58 175.992C215.843 175.547 216.166 175.141 216.541 174.786C217.809 173.634 219.347 172.822 221.013 172.425C222.941 171.922 224.718 171.721 225.974 171.476C227.23 171.231 228.002 171.024 228.015 171.074Z" fill="#FAFAFA"/>
<path d="M227.864 168.726C227.387 168.972 226.887 169.17 226.37 169.316L222.721 170.572L219.085 171.878C218.602 172.091 218.099 172.255 217.584 172.368C218.039 172.081 218.526 171.847 219.035 171.671C219.945 171.282 221.22 170.779 222.646 170.27C224.071 169.762 225.377 169.354 226.332 169.077C226.828 168.904 227.342 168.786 227.864 168.726Z" fill="#FAFAFA"/>
<path d="M229.516 173.385C229.353 172.984 229.251 172.561 229.215 172.129C229.062 171.09 228.997 170.04 229.02 168.989C228.974 167.922 229.25 166.865 229.811 165.956C230.289 165.278 230.797 165.077 230.804 165.115C230.506 165.41 230.239 165.734 230.006 166.082C229.534 166.978 229.307 167.983 229.347 168.996C229.278 171.432 229.604 173.373 229.516 173.385Z" fill="#FAFAFA"/>
<path d="M231.343 171.369C231.312 171.369 231.124 171.175 230.954 170.741C230.737 170.178 230.67 169.569 230.759 168.972C230.848 168.376 231.091 167.812 231.463 167.338C231.745 166.98 231.99 166.823 232.015 166.854C231.576 167.514 231.261 168.248 231.086 169.021C231.025 169.813 231.113 170.609 231.343 171.369Z" fill="#FAFAFA"/>
<path d="M231.155 176.193C230.758 175.546 230.533 174.808 230.501 174.05C230.47 173.291 230.632 172.537 230.973 171.859C231.067 171.891 230.772 172.839 230.828 174.039C230.885 175.238 231.243 176.136 231.155 176.193Z" fill="#FAFAFA"/>
<path d="M256.784 168.041C256.784 168.135 255.528 167.997 254.002 168.091C252.476 168.185 251.251 168.455 251.226 168.361C252.09 167.959 253.03 167.745 253.983 167.733C254.928 167.632 255.884 167.737 256.784 168.041Z" fill="#FAFAFA"/>
<path d="M255.66 166.402C255.66 166.496 254.322 166.339 252.695 166.446C251.069 166.553 249.781 166.879 249.756 166.785C250.671 166.358 251.667 166.131 252.677 166.12C253.68 166.004 254.696 166.1 255.66 166.402Z" fill="#FAFAFA"/>
<path d="M259.616 165.73C259.616 165.78 259.377 165.73 259.026 165.73C258.569 165.725 258.127 165.886 257.78 166.183C257.434 166.48 257.207 166.893 257.142 167.344C257.072 167.689 257.104 167.922 257.054 167.934C257.003 167.947 256.897 167.721 256.909 167.306C256.916 167.043 256.978 166.785 257.09 166.547C257.203 166.31 257.364 166.098 257.564 165.927C257.763 165.755 257.996 165.627 258.248 165.551C258.5 165.475 258.765 165.453 259.026 165.485C259.427 165.548 259.66 165.699 259.616 165.73Z" fill="#FAFAFA"/>
<path d="M259.201 164.242C259.201 164.292 258.944 164.242 258.573 164.242C258.086 164.179 257.592 164.222 257.123 164.367C256.904 164.449 256.705 164.577 256.54 164.743C256.375 164.909 256.249 165.109 256.168 165.328C256.049 165.667 256.13 165.912 256.074 165.956C256.017 166 255.867 165.743 255.942 165.328C256.004 165.053 256.134 164.797 256.321 164.586C256.508 164.374 256.744 164.212 257.01 164.116C257.528 163.951 258.083 163.934 258.611 164.066C258.982 164.104 259.208 164.204 259.201 164.242Z" fill="#FAFAFA"/>
<path d="M284.78 142.463C284.74 142.576 284.69 142.686 284.629 142.789L284.152 143.681C283.7 144.498 283.078 145.603 282.331 146.953C281.583 148.303 280.616 149.967 279.586 151.776C279.065 152.674 278.55 153.66 277.916 154.602C277.272 155.61 276.435 156.481 275.454 157.164C274.469 157.814 273.448 158.407 272.396 158.942L269.513 160.493L264.615 163.099L261.305 164.832L260.401 165.284L260.074 165.429C260.162 165.347 260.261 165.279 260.369 165.228L261.249 164.719L264.514 162.892L269.375 160.216L272.251 158.653C273.288 158.118 274.297 157.529 275.272 156.888C277.281 155.563 278.261 153.39 279.335 151.619L282.136 146.827L284.02 143.612C284.24 143.26 284.416 142.984 284.554 142.745C284.615 142.641 284.691 142.546 284.78 142.463Z" fill="#FAFAFA"/>
<path d="M274.449 155.111C274.286 155.28 274.103 155.427 273.903 155.55C273.545 155.82 273.011 156.178 272.352 156.643C271.021 157.541 269.162 158.734 267.058 159.984C264.954 161.234 263.001 162.283 261.575 163.011C260.86 163.375 260.276 163.639 259.874 163.846C259.674 163.957 259.464 164.045 259.246 164.11C259.42 163.956 259.617 163.829 259.83 163.733L261.481 162.804C262.882 162.025 264.803 160.92 266.907 159.702C269.011 158.483 270.889 157.296 272.245 156.448L273.853 155.45C274.037 155.312 274.237 155.198 274.449 155.111Z" fill="#FAFAFA"/>
<path d="M215.198 176.375C215.279 176.425 213.182 180.243 210.525 184.909C207.869 189.575 205.639 193.325 205.564 193.281C205.489 193.237 207.58 189.412 210.243 184.746C212.905 180.08 215.122 176.331 215.198 176.375Z" fill="#FAFAFA"/>
<path d="M332.684 336.012C332.253 331.755 330.256 327.81 327.082 324.941C323.907 322.071 319.781 320.483 315.502 320.483C311.223 320.483 307.096 322.071 303.922 324.941C300.747 327.81 298.751 331.755 298.32 336.012H295.601V341.363H335.403V336.012H332.684ZM315.502 326.008C318.313 326.009 321.031 327.02 323.16 328.856C325.288 330.692 326.687 333.232 327.101 336.012H303.896C304.31 333.231 305.71 330.69 307.84 328.854C309.97 327.018 312.69 326.008 315.502 326.008Z" fill="#455A64"/>
<path d="M301.61 332.157C301.579 332.245 301.083 332.157 300.505 331.937C299.927 331.717 299.488 331.485 299.519 331.403C299.551 331.321 300.04 331.403 300.618 331.629C301.196 331.855 301.636 332.075 301.61 332.157Z" fill="#263238"/>
<path d="M303.319 328.809C303.262 328.884 302.823 328.646 302.327 328.281C301.83 327.917 301.479 327.559 301.535 327.49C301.592 327.421 302.031 327.653 302.521 328.018C303.011 328.382 303.375 328.74 303.319 328.809Z" fill="#263238"/>
<path d="M305.906 326.102C305.831 326.153 305.479 325.795 305.128 325.292C304.776 324.79 304.537 324.35 304.613 324.294C304.688 324.237 305.033 324.608 305.391 325.104C305.749 325.6 305.975 326.052 305.906 326.102Z" fill="#263238"/>
<path d="M309.837 323.716C309.75 323.716 309.505 323.314 309.279 322.743C309.052 322.171 308.946 321.675 309.034 321.644C309.122 321.612 309.36 322.052 309.586 322.623C309.812 323.195 309.9 323.716 309.837 323.716Z" fill="#263238"/>
<path d="M314.566 322.598C314.479 322.598 314.315 322.14 314.202 321.537C314.089 320.934 314.064 320.431 314.152 320.413C314.24 320.394 314.409 320.871 314.523 321.474C314.636 322.077 314.654 322.579 314.566 322.598Z" fill="#263238"/>
<path d="M329.827 333.927C329.827 333.839 330.266 333.645 330.857 333.488C331.447 333.331 331.949 333.28 331.974 333.368C332 333.456 331.535 333.651 330.938 333.802C330.342 333.952 329.846 334.015 329.827 333.927Z" fill="#263238"/>
<path d="M328.433 330.429C328.389 330.354 328.778 330.034 329.299 329.714C329.82 329.393 330.291 329.205 330.335 329.28C330.379 329.356 329.996 329.682 329.469 329.996C328.941 330.31 328.483 330.505 328.433 330.429Z" fill="#263238"/>
<path d="M326.373 327.17C326.303 327.107 326.574 326.686 327.001 326.222C327.428 325.757 327.786 325.43 327.855 325.487C327.924 325.543 327.654 325.97 327.227 326.435C326.8 326.9 326.442 327.226 326.373 327.17Z" fill="#263238"/>
<path d="M322.919 324.771C322.843 324.733 323 324.256 323.27 323.703C323.54 323.151 323.836 322.742 323.898 322.786C323.961 322.83 323.823 323.301 323.547 323.854C323.27 324.407 323 324.815 322.919 324.771Z" fill="#263238"/>
<path d="M318.435 323.188C318.347 323.188 318.435 322.661 318.586 322.077C318.736 321.493 318.969 321.028 319.057 321.053C319.145 321.078 319.057 321.574 318.9 322.165C318.743 322.755 318.523 323.214 318.435 323.188Z" fill="#263238"/>
<path d="M277.087 271.655H271.95V341.281H277.087V271.655Z" fill="#E9052E"/>
<path d="M277.138 337.143C276.227 337.36 275.278 337.36 274.368 337.143C275.278 336.925 276.227 336.925 277.138 337.143Z" fill="#263238"/>
<path d="M277.138 330.373C276.227 330.59 275.278 330.59 274.368 330.373C275.278 330.155 276.227 330.155 277.138 330.373Z" fill="#263238"/>
<path d="M277.138 323.603C276.227 323.821 275.278 323.821 274.368 323.603C275.278 323.386 276.227 323.386 277.138 323.603Z" fill="#263238"/>
<path d="M277.138 316.808C276.227 317.026 275.278 317.026 274.368 316.808C275.278 316.59 276.227 316.59 277.138 316.808Z" fill="#263238"/>
<path d="M277.138 310.063C276.227 310.281 275.278 310.281 274.368 310.063C275.278 309.845 276.227 309.845 277.138 310.063Z" fill="#263238"/>
<path d="M277.138 303.294C276.227 303.511 275.278 303.511 274.368 303.294C275.278 303.076 276.227 303.076 277.138 303.294Z" fill="#263238"/>
<path d="M277.138 296.524C276.227 296.741 275.278 296.741 274.368 296.524C275.278 296.306 276.227 296.306 277.138 296.524Z" fill="#263238"/>
<path d="M277.138 289.754C276.227 289.971 275.278 289.971 274.368 289.754C275.278 289.536 276.227 289.536 277.138 289.754Z" fill="#263238"/>
<path d="M277.138 282.984C276.227 283.202 275.278 283.202 274.368 282.984C275.278 282.766 276.227 282.766 277.138 282.984Z" fill="#263238"/>
<path d="M277.138 276.208C276.227 276.425 275.278 276.425 274.368 276.208C275.278 275.99 276.227 275.99 277.138 276.208Z" fill="#263238"/>
<path d="M282.03 312.757V341.118H320.903L282.03 312.757ZM288.121 324.532L303.407 335.692H288.121V324.532Z" fill="#E9052E"/>
<path d="M286.602 316.211C286.677 316.261 286.426 316.758 286.043 317.323C285.66 317.888 285.283 318.309 285.207 318.252C285.132 318.196 285.39 317.706 285.773 317.141C286.156 316.575 286.526 316.18 286.602 316.211Z" fill="#263238"/>
<path d="M290.935 319.395C291.01 319.446 290.778 319.929 290.413 320.469C290.049 321.009 289.697 321.411 289.622 321.361C289.547 321.311 289.779 320.834 290.143 320.287C290.508 319.741 290.859 319.32 290.935 319.395Z" fill="#263238"/>
<path d="M295.594 322.918C295.67 322.969 295.437 323.446 295.079 323.986C294.721 324.526 294.363 324.928 294.288 324.878C294.213 324.827 294.445 324.35 294.809 323.81C295.174 323.27 295.525 322.868 295.594 322.918Z" fill="#263238"/>
<path d="M300.26 326.435C300.336 326.486 300.103 326.963 299.745 327.509C299.387 328.056 299.029 328.451 298.954 328.401C298.879 328.351 299.111 327.867 299.469 327.327C299.827 326.787 300.185 326.385 300.26 326.435Z" fill="#263238"/>
<path d="M304.926 329.952C305.002 330.002 304.769 330.486 304.405 331.026C304.041 331.566 303.689 331.968 303.614 331.918C303.538 331.867 303.771 331.39 304.135 330.844C304.499 330.297 304.876 329.902 304.926 329.952Z" fill="#263238"/>
<path d="M309.592 333.475C309.668 333.525 309.435 334.003 309.071 334.543C308.707 335.083 308.355 335.485 308.28 335.434C308.204 335.384 308.437 334.907 308.801 334.361C309.165 333.814 309.517 333.425 309.592 333.475Z" fill="#263238"/>
<path d="M314.252 336.992C314.327 337.042 314.095 337.52 313.737 338.066C313.379 338.612 313.021 339.008 312.946 338.958C312.87 338.907 313.103 338.424 313.461 337.884C313.819 337.344 314.177 336.942 314.252 336.992Z" fill="#263238"/>
<path d="M345.344 341.3C345.344 341.388 281.521 341.463 202.788 341.463C124.056 341.463 60.2324 341.388 60.2324 341.3C60.2324 341.212 124.043 341.137 202.788 341.137C281.533 341.137 345.344 341.193 345.344 341.3Z" fill="#263238"/>
</svg>
