<svg xmlns="http://www.w3.org/2000/svg" enable-background="new 0 0 1364 960" viewBox="0 0 1364 960" width="550" height="550"><path fill="#5cc8d6" d="M1179.48,622.14H610.12c-8.56,0-15.5-6.94-15.5-15.5V237.9c0-8.56,6.94-15.5,15.5-15.5h569.36    c8.56,0,15.5,6.94,15.5,15.5v368.74C1194.98,615.2,1188.04,622.14,1179.48,622.14z" class="color5cc8d6 svgShape"></path><path fill="#ffffff" d="M1160.67,245.65H628.92c-5.41,0-9.81,4.4-9.81,9.81v333.62c0,5.41,4.4,9.81,9.81,9.81h531.75    c5.41,0,9.81-4.4,9.81-9.81V255.46C1170.48,250.05,1166.08,245.65,1160.67,245.65z M1169.08,255.46v29.12h-37.78v-37.53h29.37    C1165.31,247.05,1169.08,250.82,1169.08,255.46z M933.4,421.32h-37.9v-44.18h37.9V421.32z M934.8,377.14h37.9v44.18h-37.9V377.14z     M894.1,421.32h-37.9v-44.18h37.9V421.32z M854.8,421.32h-37.9v-44.18h37.9V421.32z M815.5,421.32h-37.9v-44.18h37.9V421.32z     M815.5,422.72v44.18h-37.9v-44.18H815.5z M816.9,422.72h37.9v44.18h-37.9V422.72z M856.2,422.72h37.9v44.18h-37.9V422.72z     M895.5,422.72h37.9v44.18h-37.9V422.72z M934.8,422.72h37.9v44.18h-37.9V422.72z M974.1,422.72h37.9v44.18h-37.9V422.72z     M974.1,421.32v-44.18h37.9v44.18H974.1z M1013.4,377.14h37.9v44.18h-37.9V377.14z M1013.4,375.74v-44.18h37.9v44.18H1013.4z     M1012,375.74h-37.9v-44.18h37.9V375.74z M972.7,375.74h-37.9v-44.18h37.9V375.74z M933.4,375.74h-37.9v-44.18h37.9V375.74z     M894.1,375.74h-37.9v-44.18h37.9V375.74z M854.8,375.74h-37.9v-44.18h37.9V375.74z M815.5,375.74h-37.9v-44.18h37.9V375.74z     M776.19,375.74h-37.9v-44.18h37.9V375.74z M776.19,377.14v44.18h-37.9v-44.18H776.19z M736.89,421.32h-37.9v-44.18h37.9V421.32z     M736.89,422.72v44.18h-37.9v-44.18H736.89z M738.29,422.72h37.9v44.18h-37.9V422.72z M776.19,468.3v44.18h-37.9V468.3H776.19z     M777.59,468.3h37.9v44.18h-37.9V468.3z M816.9,468.3h37.9v44.18h-37.9V468.3z M856.2,468.3h37.9v44.18h-37.9V468.3z M895.5,468.3    h37.9v44.18h-37.9V468.3z M934.8,468.3h37.9v44.18h-37.9V468.3z M974.1,468.3h37.9v44.18h-37.9V468.3z M1013.4,468.3h37.9v44.18    h-37.9V468.3z M1013.4,466.9v-44.18h37.9v44.18H1013.4z M1052.7,422.72h37.9v44.18h-37.9V422.72z M1052.7,421.32v-44.18h37.9    v44.18H1052.7z M1052.7,375.74v-44.18h37.9v44.18H1052.7z M1052.7,330.15v-44.18h37.9v44.18H1052.7z M1051.3,330.15h-37.9v-44.18    h37.9V330.15z M1012,330.15h-37.9v-44.18h37.9V330.15z M972.7,330.15h-37.9v-44.18h37.9V330.15z M933.4,330.15h-37.9v-44.18h37.9    V330.15z M894.1,330.15h-37.9v-44.18h37.9V330.15z M854.8,330.15h-37.9v-44.18h37.9V330.15z M815.5,330.15h-37.9v-44.18h37.9    V330.15z M776.19,330.15h-37.9v-44.18h37.9V330.15z M736.89,330.15h-37.9v-44.18h37.9V330.15z M736.89,331.55v44.18h-37.9v-44.18    H736.89z M697.59,375.74h-37.9v-44.18h37.9V375.74z M697.59,377.14v44.18h-37.9v-44.18H697.59z M697.59,422.72v44.18h-37.9v-44.18    H697.59z M697.59,468.3v44.18h-37.9V468.3H697.59z M698.99,468.3h37.9v44.18h-37.9V468.3z M736.89,513.88v44.18h-37.9v-44.18    H736.89z M738.29,513.88h37.9v44.18h-37.9V513.88z M777.59,513.88h37.9v44.18h-37.9V513.88z M816.9,513.88h37.9v44.18h-37.9    V513.88z M856.2,513.88h37.9v44.18h-37.9V513.88z M895.5,513.88h37.9v44.18h-37.9V513.88z M934.8,513.88h37.9v44.18h-37.9V513.88z     M974.1,513.88h37.9v44.18h-37.9V513.88z M1013.4,513.88h37.9v44.18h-37.9V513.88z M1052.7,513.88h37.9v44.18h-37.9V513.88z     M1052.7,512.48V468.3h37.9v44.18H1052.7z M1092,468.3h37.9v44.18H1092V468.3z M1092,466.9v-44.18h37.9v44.18H1092z M1092,421.32    v-44.18h37.9v44.18H1092z M1092,375.74v-44.18h37.9v44.18H1092z M1092,330.15v-44.18h37.9v44.18H1092z M1092,284.57v-37.53h37.9    v37.53H1092z M1090.6,284.57h-37.9v-37.53h37.9V284.57z M1051.3,284.57h-37.9v-37.53h37.9V284.57z M1012,284.57h-37.9v-37.53h37.9    V284.57z M972.7,284.57h-37.9v-37.53h37.9V284.57z M933.4,284.57h-37.9v-37.53h37.9V284.57z M894.1,284.57h-37.9v-37.53h37.9    V284.57z M854.8,284.57h-37.9v-37.53h37.9V284.57z M815.5,284.57h-37.9v-37.53h37.9V284.57z M776.19,284.57h-37.9v-37.53h37.9    V284.57z M736.89,284.57h-37.9v-37.53h37.9V284.57z M697.59,284.57h-37.9v-37.53h37.9V284.57z M697.59,285.97v44.18h-37.9v-44.18    H697.59z M658.29,330.15h-37.78v-44.18h37.78V330.15z M658.29,331.55v44.18h-37.78v-44.18H658.29z M658.29,377.14v44.18h-37.78    v-44.18H658.29z M658.29,422.72v44.18h-37.78v-44.18H658.29z M658.29,468.3v44.18h-37.78V468.3H658.29z M658.29,513.88v44.18    h-37.78v-44.18H658.29z M659.69,513.88h37.9v44.18h-37.9V513.88z M697.59,559.46v38.03h-37.9v-38.03H697.59z M698.99,559.46h37.9    v38.03h-37.9V559.46z M738.29,559.46h37.9v38.03h-37.9V559.46z M777.59,559.46h37.9v38.03h-37.9V559.46z M816.9,559.46h37.9v38.03    h-37.9V559.46z M856.2,559.46h37.9v38.03h-37.9V559.46z M895.5,559.46h37.9v38.03h-37.9V559.46z M934.8,559.46h37.9v38.03h-37.9    V559.46z M974.1,559.46h37.9v38.03h-37.9V559.46z M1013.4,559.46h37.9v38.03h-37.9V559.46z M1052.7,559.46h37.9v38.03h-37.9    V559.46z M1092,559.46h37.9v38.03H1092V559.46z M1092,558.06v-44.18h37.9v44.18H1092z M1131.3,513.88h37.78v44.18h-37.78V513.88z     M1131.3,512.48V468.3h37.78v44.18H1131.3z M1131.3,466.9v-44.18h37.78v44.18H1131.3z M1131.3,421.32v-44.18h37.78v44.18H1131.3z     M1131.3,375.74v-44.18h37.78v44.18H1131.3z M1131.3,330.15v-44.18h37.78v44.18H1131.3z M628.92,247.05h29.37v37.53h-37.78v-29.12    C620.52,250.82,624.29,247.05,628.92,247.05z M620.52,589.08v-29.62h37.78v38.03h-29.37    C624.29,597.48,620.52,593.71,620.52,589.08z M1160.67,597.48h-29.37v-38.03h37.78v29.62    C1169.08,593.71,1165.31,597.48,1160.67,597.48z" class="colorfff svgShape"></path><rect width="436.08" height="135.64" x="594.61" y="407.1" fill="#5cc8d6" class="color5cc8d6 svgShape"></rect><rect width="426.78" height="50.03" x="768.2" y="126.95" fill="#ffb757" class="colorffb757 svgShape"></rect><rect width="1.92" height="426.78" x="980.63" y="-45.23" fill="#ffffff" transform="rotate(90 981.591 168.16)" class="colorfff svgShape"></rect><rect width="8.74" height="2.09" x="1179.45" y="130.28" fill="#ffffff" transform="rotate(90 1183.823 131.321)" class="colorfff svgShape"></rect><rect width="8.74" height="2.09" x="1168.66" y="130.28" fill="#ffffff" transform="rotate(90 1173.032 131.321)" class="colorfff svgShape"></rect><rect width="8.74" height="2.09" x="1148.03" y="130.28" fill="#ffffff" transform="rotate(90 1152.397 131.321)" class="colorfff svgShape"></rect><rect width="8.74" height="2.09" x="1137.51" y="130.28" fill="#ffffff" transform="rotate(90 1141.877 131.321)" class="colorfff svgShape"></rect><rect width="17.37" height="2.09" x="1153.56" y="134.59" fill="#ffffff" transform="rotate(90 1162.24 135.634)" class="colorfff svgShape"></rect><rect width="8.74" height="2.09" x="1125.73" y="130.28" fill="#ffffff" transform="rotate(90 1130.1 131.321)" class="colorfff svgShape"></rect><rect width="8.74" height="2.09" x="1114.94" y="130.28" fill="#ffffff" transform="rotate(90 1119.308 131.321)" class="colorfff svgShape"></rect><rect width="8.74" height="2.09" x="1094.3" y="130.28" fill="#ffffff" transform="rotate(90 1098.673 131.321)" class="colorfff svgShape"></rect><rect width="8.74" height="2.09" x="1083.78" y="130.28" fill="#ffffff" transform="rotate(90 1088.153 131.321)" class="colorfff svgShape"></rect><rect width="17.37" height="2.09" x="1099.83" y="134.59" fill="#ffffff" transform="rotate(90 1108.517 135.634)" class="colorfff svgShape"></rect><rect width="8.74" height="2.09" x="1072" y="130.28" fill="#ffffff" transform="rotate(90 1076.375 131.321)" class="colorfff svgShape"></rect><rect width="8.74" height="2.09" x="1061.21" y="130.28" fill="#ffffff" transform="rotate(90 1065.584 131.321)" class="colorfff svgShape"></rect><rect width="8.74" height="2.09" x="1040.58" y="130.28" fill="#ffffff" transform="rotate(90 1044.95 131.321)" class="colorfff svgShape"></rect><rect width="8.74" height="2.09" x="1030.06" y="130.28" fill="#ffffff" transform="rotate(90 1034.43 131.321)" class="colorfff svgShape"></rect><rect width="17.37" height="2.09" x="1046.11" y="134.59" fill="#ffffff" transform="rotate(90 1054.793 135.634)" class="colorfff svgShape"></rect><rect width="8.74" height="2.09" x="1018.28" y="130.28" fill="#ffffff" transform="rotate(90 1022.652 131.321)" class="colorfff svgShape"></rect><rect width="8.74" height="2.09" x="1007.49" y="130.28" fill="#ffffff" transform="rotate(90 1011.86 131.321)" class="colorfff svgShape"></rect><rect width="8.74" height="2.09" x="986.86" y="130.28" fill="#ffffff" transform="rotate(90 991.226 131.321)" class="colorfff svgShape"></rect><rect width="8.74" height="2.09" x="976.33" y="130.28" fill="#ffffff" transform="rotate(90 980.706 131.321)" class="colorfff svgShape"></rect><rect width="17.37" height="2.09" x="992.39" y="134.59" fill="#ffffff" transform="rotate(90 1001.07 135.634)" class="colorfff svgShape"></rect><rect width="8.74" height="2.09" x="964.56" y="130.28" fill="#ffffff" transform="rotate(90 968.928 131.321)" class="colorfff svgShape"></rect><rect width="8.74" height="2.09" x="953.77" y="130.28" fill="#ffffff" transform="rotate(90 958.137 131.321)" class="colorfff svgShape"></rect><rect width="8.74" height="2.09" x="933.13" y="130.28" fill="#ffffff" transform="rotate(90 937.503 131.321)" class="colorfff svgShape"></rect><rect width="8.74" height="2.09" x="922.61" y="130.28" fill="#ffffff" transform="rotate(90 926.982 131.321)" class="colorfff svgShape"></rect><rect width="17.37" height="2.09" x="938.66" y="134.59" fill="#ffffff" transform="rotate(90 947.346 135.634)" class="colorfff svgShape"></rect><rect width="8.74" height="2.09" x="910.83" y="130.28" fill="#ffffff" transform="rotate(90 915.205 131.321)" class="colorfff svgShape"></rect><rect width="8.74" height="2.09" x="900.04" y="130.28" fill="#ffffff" transform="rotate(90 904.414 131.321)" class="colorfff svgShape"></rect><rect width="8.74" height="2.09" x="879.41" y="130.28" fill="#ffffff" transform="rotate(90 883.779 131.321)" class="colorfff svgShape"></rect><rect width="8.74" height="2.09" x="868.89" y="130.28" fill="#ffffff" transform="rotate(90 873.258 131.321)" class="colorfff svgShape"></rect><rect width="17.37" height="2.09" x="884.94" y="134.59" fill="#ffffff" transform="rotate(90 893.622 135.634)" class="colorfff svgShape"></rect><rect width="8.74" height="2.09" x="857.11" y="130.28" fill="#ffffff" transform="rotate(90 861.481 131.321)" class="colorfff svgShape"></rect><rect width="8.74" height="2.09" x="846.32" y="130.28" fill="#ffffff" transform="rotate(90 850.69 131.321)" class="colorfff svgShape"></rect><rect width="8.74" height="2.09" x="825.68" y="130.28" fill="#ffffff" transform="rotate(90 830.055 131.321)" class="colorfff svgShape"></rect><rect width="8.74" height="2.09" x="815.16" y="130.28" fill="#ffffff" transform="rotate(90 819.535 131.321)" class="colorfff svgShape"></rect><rect width="17.37" height="2.09" x="831.22" y="134.59" fill="#ffffff" transform="rotate(90 839.899 135.634)" class="colorfff svgShape"></rect><rect width="8.74" height="2.09" x="803.39" y="130.28" fill="#ffffff" transform="rotate(90 807.758 131.321)" class="colorfff svgShape"></rect><rect width="8.74" height="2.09" x="792.6" y="130.28" fill="#ffffff" transform="rotate(90 796.966 131.321)" class="colorfff svgShape"></rect><rect width="8.74" height="2.09" x="771.96" y="130.28" fill="#ffffff" transform="rotate(90 776.332 131.321)" class="colorfff svgShape"></rect><rect width="17.37" height="2.09" x="777.49" y="134.59" fill="#ffffff" transform="rotate(90 786.175 135.634)" class="colorfff svgShape"></rect><path fill="#d34646" d="M355.38,396.11h196.52V201.77L364.02,387.57l-0.06,0.06l-1.81,1.78l-0.06,0.06L355.38,396.11z       M516.22,361.04h-66.95l66.95-66.95V361.04z" class="colord34646 svgShape"></path><rect width="4.41" height="1.05" x="547.49" y="211.14" fill="#ffffff" transform="rotate(-180 549.7 211.668)" class="colorfff svgShape"></rect><rect width="4.41" height="1.05" x="547.49" y="216.59" fill="#ffffff" transform="rotate(-180 549.7 217.115)" class="colorfff svgShape"></rect><rect width="4.41" height="1.05" x="547.49" y="227" fill="#ffffff" transform="rotate(-180 549.7 227.53)" class="colorfff svgShape"></rect><rect width="4.41" height="1.05" x="547.49" y="232.31" fill="#ffffff" transform="rotate(-180 549.7 232.84)" class="colorfff svgShape"></rect><rect width="8.77" height="1.05" x="543.14" y="222.03" fill="#ffffff" transform="rotate(-180 547.524 222.561)" class="colorfff svgShape"></rect><rect width="4.41" height="1.05" x="547.49" y="238.81" fill="#ffffff" transform="rotate(-180 549.7 239.333)" class="colorfff svgShape"></rect><rect width="4.41" height="1.05" x="547.49" y="244.25" fill="#ffffff" transform="rotate(-180 549.7 244.78)" class="colorfff svgShape"></rect><rect width="4.41" height="1.05" x="547.49" y="254.67" fill="#ffffff" transform="rotate(-180 549.7 255.194)" class="colorfff svgShape"></rect><rect width="4.41" height="1.05" x="547.49" y="259.98" fill="#ffffff" transform="rotate(-180 549.7 260.504)" class="colorfff svgShape"></rect><rect width="8.77" height="1.05" x="543.14" y="249.7" fill="#ffffff" transform="rotate(-180 547.524 250.226)" class="colorfff svgShape"></rect><rect width="4.41" height="1.05" x="547.49" y="266.47" fill="#ffffff" transform="rotate(-180 549.7 266.998)" class="colorfff svgShape"></rect><rect width="4.41" height="1.05" x="547.49" y="271.92" fill="#ffffff" transform="rotate(-180 549.7 272.444)" class="colorfff svgShape"></rect><rect width="4.41" height="1.05" x="547.49" y="282.33" fill="#ffffff" transform="rotate(-180 549.7 282.859)" class="colorfff svgShape"></rect><rect width="4.41" height="1.05" x="547.49" y="287.64" fill="#ffffff" transform="rotate(-180 549.7 288.169)" class="colorfff svgShape"></rect><rect width="8.77" height="1.05" x="543.14" y="277.36" fill="#ffffff" transform="rotate(-180 547.524 277.89)" class="colorfff svgShape"></rect><rect width="4.41" height="1.05" x="547.49" y="294.14" fill="#ffffff" transform="rotate(-180 549.7 294.662)" class="colorfff svgShape"></rect><rect width="4.41" height="1.05" x="547.49" y="299.58" fill="#ffffff" transform="rotate(-180 549.7 300.109)" class="colorfff svgShape"></rect><rect width="4.41" height="1.05" x="547.49" y="310" fill="#ffffff" transform="rotate(-180 549.7 310.524)" class="colorfff svgShape"></rect><rect width="4.41" height="1.05" x="547.49" y="315.31" fill="#ffffff" transform="rotate(-180 549.7 315.833)" class="colorfff svgShape"></rect><rect width="8.77" height="1.05" x="543.14" y="305.03" fill="#ffffff" transform="rotate(-180 547.524 305.555)" class="colorfff svgShape"></rect><rect width="4.41" height="1.05" x="547.49" y="321.8" fill="#ffffff" transform="rotate(-180 549.7 322.327)" class="colorfff svgShape"></rect><rect width="4.41" height="1.05" x="547.49" y="327.25" fill="#ffffff" transform="rotate(-180 549.7 327.774)" class="colorfff svgShape"></rect><rect width="4.41" height="1.05" x="547.49" y="337.66" fill="#ffffff" transform="rotate(-180 549.7 338.188)" class="colorfff svgShape"></rect><rect width="4.41" height="1.05" x="547.49" y="342.97" fill="#ffffff" transform="rotate(-180 549.7 343.498)" class="colorfff svgShape"></rect><rect width="8.77" height="1.05" x="543.14" y="332.69" fill="#ffffff" transform="rotate(-180 547.524 333.22)" class="colorfff svgShape"></rect><rect width="4.41" height="1.05" x="547.49" y="349.46" fill="#ffffff" transform="rotate(-180 549.7 349.992)" class="colorfff svgShape"></rect><rect width="4.41" height="1.05" x="547.49" y="354.91" fill="#ffffff" transform="rotate(-180 549.7 355.438)" class="colorfff svgShape"></rect><rect width="4.41" height="1.05" x="547.49" y="365.33" fill="#ffffff" transform="rotate(-180 549.7 365.853)" class="colorfff svgShape"></rect><rect width="4.41" height="1.05" x="547.49" y="370.64" fill="#ffffff" transform="rotate(-180 549.7 371.163)" class="colorfff svgShape"></rect><rect width="8.77" height="1.05" x="543.14" y="360.36" fill="#ffffff" transform="rotate(-180 547.524 360.885)" class="colorfff svgShape"></rect><g fill="#000000" class="color000 svgShape"><rect width="4.41" height="1.05" x="547.49" y="377.13" fill="#ffffff" transform="rotate(-180 549.7 377.657)" class="colorfff svgShape"></rect><rect width="4.41" height="1.05" x="547.49" y="382.58" fill="#ffffff" transform="rotate(-180 549.7 383.103)" class="colorfff svgShape"></rect><rect width="8.77" height="1.05" x="543.14" y="388.02" fill="#ffffff" transform="rotate(-180 547.524 388.55)" class="colorfff svgShape"></rect></g><polygon fill="#ffffff" points="362.15 389.41 552.02 389.41 552.02 387.57 364.02 387.57" class="colorfff svgShape"></polygon><g fill="#000000" class="color000 svgShape"><path fill="#ffb757" d="M404.55,166.57c6.54-3.45,14.67-0.92,18.12,5.62l17.59,33.42c3.04,5.78,0.82,12.96-4.96,16     c-5.78,3.04-12.96,0.82-16-4.96l-10.62-20.18c-0.2-0.38-0.05-0.85,0.32-1.05c0.38-0.2,0.85-0.05,1.05,0.32l10.62,20.18     c2.64,5.02,8.88,6.96,13.91,4.31c5.02-2.64,6.96-8.88,4.31-13.91l-17.59-33.42c-3.05-5.79-10.24-8.02-16.02-4.97     c-5.79,3.05-8.02,10.24-4.97,16.02l24.12,45.81c3.46,6.58,11.63,9.11,18.21,5.65c6.58-3.46,9.11-11.63,5.65-18.21l-16.72-31.76     c-0.2-0.38-0.05-0.85,0.32-1.05s0.85-0.05,1.05,0.32l16.72,31.76c3.86,7.33,1.04,16.44-6.3,20.3c-7.33,3.86-16.44,1.04-20.3-6.3     l-24.12-45.81C395.48,178.14,398,170.02,404.55,166.57z" class="colorffb757 svgShape"></path></g><g fill="#000000" class="color000 svgShape"><path fill="#d34646" d="M706.49,139.79c5.26,5.2,5.31,13.71,0.12,18.97l-26.54,26.87c-4.59,4.65-12.1,4.69-16.75,0.1     c-4.65-4.59-4.69-12.1-0.1-16.75l16.02-16.22c0.3-0.3,0.79-0.31,1.1-0.01c0.3,0.3,0.31,0.79,0.01,1.1l-16.02,16.22     c-3.99,4.04-3.95,10.57,0.09,14.56c4.04,3.99,10.57,3.95,14.56-0.09l26.54-26.87c4.6-4.65,4.55-12.18-0.1-16.78     c-4.65-4.6-12.18-4.55-16.78,0.1l-36.38,36.83c-5.22,5.29-5.17,13.84,0.12,19.06c5.29,5.22,13.84,5.17,19.07-0.12l25.22-25.54     c0.3-0.3,0.79-0.31,1.1-0.01s0.31,0.79,0.01,1.1l-25.22,25.54c-5.82,5.9-15.36,5.96-21.26,0.13s-5.96-15.36-0.13-21.26     l36.38-36.83C692.72,134.64,701.23,134.59,706.49,139.79z" class="colord34646 svgShape"></path></g><g fill="#000000" class="color000 svgShape"><path fill="#304c84" d="M569.42,162.35c-2.02,7.11-9.45,11.26-16.57,9.24l-36.33-10.31c-6.28-1.78-9.94-8.35-8.16-14.63    c1.78-6.28,8.35-9.94,14.63-8.16l21.93,6.23c0.41,0.12,0.65,0.55,0.53,0.96s-0.55,0.65-0.96,0.53l-21.93-6.23    c-5.46-1.55-11.17,1.63-12.72,7.09c-1.55,5.46,1.63,11.17,7.09,12.72l36.33,10.31c6.29,1.79,12.87-1.88,14.65-8.17    c1.79-6.29-1.88-12.87-8.17-14.65l-49.8-14.14c-7.15-2.03-14.62,2.14-16.65,9.29c-2.03,7.15,2.14,14.62,9.29,16.65l34.53,9.8    c0.41,0.12,0.65,0.54,0.53,0.96c-0.12,0.41-0.55,0.65-0.96,0.53l-34.53-9.8c-7.97-2.26-12.62-10.59-10.35-18.56    c2.26-7.97,10.59-12.62,18.56-10.35l49.8,14.14C567.29,147.81,571.44,155.24,569.42,162.35z" class="color304c84 svgShape"></path></g><g fill="#000000" class="color000 svgShape"><path fill="#ffb757" d="M480.45,598.86c-0.06,5.46,5.57,11.51-11.84,13.54c-20.82,2.43-12.09,23.76-26.52,24.72l-9.33,22.86     c11.56-14.33,25.46-13.66,27.2-32.13c1.47-15.62,29.21,0.84,28.37-28.99H480.45z" class="colorffb757 svgShape"></path><path fill="#ede5da" d="M441.76,641.71c14.43-0.97,5.7-22.29,26.52-24.72c12.94-1.51,13.15-5.25,12.43-9.31      c-1.15,2.1-4.32,3.81-12.09,4.72c-20.82,2.43-12.09,23.76-26.52,24.72l-9.33,22.86c0.93-1.16,1.88-2.22,2.84-3.2L441.76,641.71z      " class="colorede5da svgShape"></path><path fill="#ffb757" d="M372.67,551.12c-39.22,0-71.02,31.79-71.02,71.02c0,39.22,31.8,71.02,71.02,71.02     c39.22,0,71.02-31.79,71.02-71.02C443.69,582.91,411.88,551.12,372.67,551.12z M372.67,665.69c-24.05,0-43.56-19.5-43.56-43.56     c0-24.05,19.5-43.56,43.56-43.56c24.05,0,43.55,19.5,43.55,43.56C416.22,646.19,396.72,665.69,372.67,665.69z" class="colorffb757 svgShape"></path><path fill="#ede5da" d="M375.23,689.79c-39.22,0-71.02-31.8-71.02-71.02c0-15.33,4.86-29.53,13.12-41.14     c-9.81,12.18-15.68,27.66-15.68,44.51c0,39.22,31.8,71.02,71.02,71.02c23.89,0,45.02-11.8,57.9-29.88     C417.54,679.44,397.59,689.79,375.23,689.79z" class="colorede5da svgShape"></path><path fill="#e29437" d="M372.67,571.94c-27.73,0-50.21,22.47-50.21,50.2c0,27.73,22.48,50.2,50.21,50.2     c27.72,0,50.2-22.47,50.2-50.2C422.87,594.41,400.39,571.94,372.67,571.94z M372.67,665.69c-24.05,0-43.56-19.5-43.56-43.56     c0-24.05,19.5-43.56,43.56-43.56c24.05,0,43.55,19.5,43.55,43.56C416.22,646.19,396.72,665.69,372.67,665.69z" class="colore29437 svgShape"></path><path fill="#ede5da" d="M372.66,681.5c-32.73,0-59.36-26.63-59.36-59.36c0-32.73,26.63-59.36,59.36-59.36       c32.73,0,59.36,26.63,59.36,59.36C432.03,654.87,405.4,681.5,372.66,681.5z M372.66,563.64c-32.26,0-58.5,26.24-58.5,58.5       c0,32.26,26.24,58.5,58.5,58.5s58.5-26.24,58.5-58.5C431.17,589.88,404.92,563.64,372.66,563.64z" class="colorede5da svgShape"></path><path fill="#ede5da" d="M372.66,677.64c-30.6,0-55.5-24.9-55.5-55.5c0-30.6,24.9-55.5,55.5-55.5c30.6,0,55.5,24.9,55.5,55.5       C428.16,652.74,403.27,677.64,372.66,677.64z M372.66,567.5c-30.13,0-54.64,24.51-54.64,54.64c0,30.13,24.51,54.64,54.64,54.64       c30.13,0,54.64-24.51,54.64-54.64C427.31,592.01,402.79,567.5,372.66,567.5z" class="colorede5da svgShape"></path><path fill="#ede5da" d="M372.66,685.42c-34.89,0-63.28-28.39-63.28-63.28c0-34.89,28.39-63.28,63.28-63.28       c34.89,0,63.28,28.39,63.28,63.28C435.94,657.03,407.56,685.42,372.66,685.42z M372.66,559.72c-34.42,0-62.42,28-62.42,62.42       c0,34.42,28,62.42,62.42,62.42c34.42,0,62.42-28,62.42-62.42C435.08,587.72,407.08,559.72,372.66,559.72z" class="colorede5da svgShape"></path><path fill="#ede5da" d="M372.66,688.72c-36.71,0-66.58-29.87-66.58-66.58s29.87-66.58,66.58-66.58       c36.71,0,66.58,29.87,66.58,66.58C439.24,658.85,409.38,688.72,372.66,688.72z M372.66,556.42       c-36.24,0-65.72,29.48-65.72,65.72s29.48,65.72,65.72,65.72c36.24,0,65.72-29.48,65.72-65.72       C438.39,585.9,408.9,556.42,372.66,556.42z" class="colorede5da svgShape"></path></g><g fill="#000000" class="color000 svgShape"><polygon fill="#ffd999" points="236.65 488.22 228.62 509.94 222.28 527.11 216.05 510.25 207.92 488.22" class="colorffd999 svgShape"></polygon><path fill="#ffb757" d="M236.69,455.26l0,32.73c0,1.78-1.62,3.23-3.61,3.23c-1.99,0-3.61-1.44-3.61-3.23c0,1.78-1.61,3.23-3.6,3.23    c-1.99,0-3.61-1.44-3.61-3.23c0,1.78-1.61,3.23-3.6,3.23c-1.99,0-3.61-1.44-3.61-3.23c0,1.78-1.61,3.23-3.6,3.23    c-1.99,0-3.61-1.44-3.61-3.23v-32.73c0-0.15,0.02-0.29,0.05-0.43l0-313.24h28.73l0,313.24    C236.66,454.97,236.69,455.11,236.69,455.26z" class="colorffb757 svgShape"></path><rect width="28.73" height="14.87" x="207.92" y="149.59" fill="#ffffff" class="colorfff svgShape"></rect><path fill="#d34646" d="M227.04,125.57l-9.53,0c-5.3,0-9.6,4.3-9.6,9.6l0,16.71l28.73,0l0-16.71    C236.64,129.86,232.35,125.57,227.04,125.57z" class="colord34646 svgShape"></path><path fill="#304c84" d="M228.62,509.94l-6.34,17.17l-6.23-16.86c2.02-0.93,4.29-1.44,6.65-1.44    C224.8,508.81,226.8,509.21,228.62,509.94z" class="color304c84 svgShape"></path></g><g fill="#000000" class="color000 svgShape"><path fill="#304c84" d="M168.5,136.78l0,347.71h-33.65l0-347.71c0-6.19,5.02-11.22,11.22-11.22h11.22    C163.48,125.57,168.5,130.59,168.5,136.78z" class="color304c84 svgShape"></path><polygon fill="#304c84" points="151.67 527.11 134.85 484.49 168.5 484.49" class="color304c84 svgShape"></polygon><path fill="#5cc8d6" d="M168.5,170.43v-6.73l-38.14,0l-6.73,0l0,93.1c0,1.86,1.51,3.36,3.36,3.36c1.47,0,2.71-0.95,3.17-2.27    c0.07,0.01,0.13,0.03,0.2,0.03c1.24,0,2.24-1.51,2.24-3.36c0-1.86-1-3.36-2.24-3.36l0-80.76L168.5,170.43z" class="color5cc8d6 svgShape"></path><rect width="33.65" height="112.16" x="134.85" y="372.33" fill="#5cc8d6" class="color5cc8d6 svgShape"></rect><rect width="33.65" height="8.97" x="134.85" y="352.14" fill="#5cc8d6" class="color5cc8d6 svgShape"></rect><rect width="33.65" height="8.97" x="134.85" y="145.76" fill="#5cc8d6" class="color5cc8d6 svgShape"></rect></g><g fill="#000000" class="color000 svgShape"><path fill="#304c84" d="M1189.7,659.81H966.51c-2.91,0-5.28,2.36-5.28,5.28V853.5c0,2.91,2.36,5.28,5.28,5.28h223.19    c2.91,0,5.28-2.36,5.28-5.28V665.09C1194.98,662.18,1192.62,659.81,1189.7,659.81z" class="color304c84 svgShape"></path><path fill="#ffd999" d="M1184.4,665.12H971.82c-2.91,0-5.28,2.36-5.28,5.28v177.79c0,2.91,2.36,5.28,5.28,5.28h212.58    c2.91,0,5.28-2.36,5.28-5.28V670.4C1189.67,667.48,1187.31,665.12,1184.4,665.12z" class="colorffd999 svgShape"></path><path fill="#e6e7e8" d="M1184.4,665.12H971.82c-2.91,0-5.28,2.36-5.28,5.28v5.95c49.75-6.29,221.38-21.13,190.91,177.12h26.95    c2.91,0,5.28-2.36,5.28-5.28V670.4C1189.67,667.48,1187.31,665.12,1184.4,665.12z" class="colore6e7e8 svgShape"></path><path fill="#ffb757" d="M1003.06,710.76l-9.92-28.7c-0.43-1.25-1.76-2-3.11-1.65c-0.86,0.22-1.52,0.93-1.81,1.77l-9.88,28.58      c-0.99,2.87-1.5,5.88-1.5,8.91v129.31h27.71V719.68C1004.55,716.64,1004.05,713.63,1003.06,710.76z" class="colorffb757 svgShape"></path><rect width="27.71" height="129.23" x="976.84" y="719.75" fill="#ffffff" class="colorfff svgShape"></rect><rect width="27.72" height="2.29" x="976.84" y="826.72" fill="#ffb757" class="colorffb757 svgShape"></rect><rect width="27.72" height="2.29" x="976.84" y="833.93" fill="#ffb757" class="colorffb757 svgShape"></rect><rect width="27.72" height="2.29" x="976.84" y="725.41" fill="#ffb757" class="colorffb757 svgShape"></rect><rect width="27.72" height="2.29" x="976.84" y="732.63" fill="#ffb757" class="colorffb757 svgShape"></rect><ellipse cx="990.7" cy="783.38" fill="#ffb757" rx="5.57" ry="32.72" class="colorffb757 svgShape"></ellipse><path fill="#e6e6e6" d="M993.14,682.07c-0.33-0.95-1.17-1.61-2.15-1.72c5.48,59.19,6.95,115.67,3.23,168.64h10.34V719.68      c0-3.03-0.51-6.05-1.5-8.91L993.14,682.07z" class="colore6e6e6 svgShape"></path><path fill="#d34646" d="M1038.02,710.76l-9.92-28.7c-0.43-1.25-1.76-2-3.11-1.65c-0.86,0.22-1.52,0.93-1.81,1.77l-9.88,28.58      c-0.99,2.87-1.5,5.88-1.5,8.91v129.31h27.71V719.68C1039.52,716.64,1039.01,713.63,1038.02,710.76z" class="colord34646 svgShape"></path><rect width="27.71" height="129.23" x="1011.8" y="719.75" fill="#ffffff" class="colorfff svgShape"></rect><rect width="27.72" height="2.29" x="1011.8" y="826.72" fill="#d34646" class="colord34646 svgShape"></rect><rect width="27.72" height="2.29" x="1011.8" y="833.93" fill="#d34646" class="colord34646 svgShape"></rect><rect width="27.72" height="2.29" x="1011.8" y="725.41" fill="#d34646" class="colord34646 svgShape"></rect><rect width="27.72" height="2.29" x="1011.8" y="732.63" fill="#d34646" class="colord34646 svgShape"></rect><ellipse cx="1025.66" cy="783.38" fill="#d34646" rx="5.57" ry="32.72" class="colord34646 svgShape"></ellipse><path fill="#e6e6e6" d="M1028.1,682.07c-0.33-0.95-1.17-1.61-2.15-1.72c5.48,59.19,6.95,115.67,3.23,168.64h10.34V719.68      c0-3.03-0.51-6.05-1.5-8.91L1028.1,682.07z" class="colore6e6e6 svgShape"></path><g fill="#000000" class="color000 svgShape"><path fill="#d34646" d="M1142.91,710.76l-9.92-28.7c-0.43-1.25-1.76-2-3.11-1.65c-0.86,0.22-1.52,0.93-1.81,1.77l-9.88,28.58      c-0.99,2.87-1.5,5.88-1.5,8.91v129.31h27.71V719.68C1144.41,716.64,1143.91,713.63,1142.91,710.76z" class="colord34646 svgShape"></path><rect width="27.71" height="129.23" x="1116.7" y="719.75" fill="#ffffff" class="colorfff svgShape"></rect><rect width="27.72" height="2.29" x="1116.7" y="826.72" fill="#d34646" class="colord34646 svgShape"></rect><rect width="27.72" height="2.29" x="1116.7" y="833.93" fill="#d34646" class="colord34646 svgShape"></rect><rect width="27.72" height="2.29" x="1116.7" y="725.41" fill="#d34646" class="colord34646 svgShape"></rect><rect width="27.72" height="2.29" x="1116.7" y="732.63" fill="#d34646" class="colord34646 svgShape"></rect><ellipse cx="1130.56" cy="783.38" fill="#d34646" rx="5.57" ry="32.72" class="colord34646 svgShape"></ellipse><path fill="#e6e6e6" d="M1132.99,682.07c-0.33-0.95-1.17-1.61-2.15-1.72c5.48,59.19,6.95,115.67,3.23,168.64h10.34V719.68      c0-3.03-0.51-6.05-1.5-8.91L1132.99,682.07z" class="colore6e6e6 svgShape"></path></g><g fill="#000000" class="color000 svgShape"><path fill="#5cc8d6" d="M1072.98,710.76l-9.92-28.7c-0.43-1.25-1.76-2-3.11-1.65c-0.86,0.22-1.52,0.93-1.81,1.77l-9.88,28.58      c-0.99,2.87-1.5,5.88-1.5,8.91v129.31h27.71V719.68C1074.48,716.64,1073.97,713.63,1072.98,710.76z" class="color5cc8d6 svgShape"></path><rect width="27.71" height="129.23" x="1046.77" y="719.75" fill="#ffffff" class="colorfff svgShape"></rect><rect width="27.72" height="2.29" x="1046.77" y="826.72" fill="#5cc8d6" class="color5cc8d6 svgShape"></rect><rect width="27.72" height="2.29" x="1046.77" y="833.93" fill="#5cc8d6" class="color5cc8d6 svgShape"></rect><rect width="27.72" height="2.29" x="1046.77" y="725.41" fill="#5cc8d6" class="color5cc8d6 svgShape"></rect><rect width="27.72" height="2.29" x="1046.77" y="732.63" fill="#5cc8d6" class="color5cc8d6 svgShape"></rect><ellipse cx="1060.62" cy="783.38" fill="#5cc8d6" rx="5.57" ry="32.72" class="color5cc8d6 svgShape"></ellipse><path fill="#e6e6e6" d="M1063.06,682.07c-0.33-0.95-1.17-1.61-2.15-1.72c5.48,59.19,6.95,115.67,3.23,168.64h10.34V719.68      c0-3.03-0.51-6.05-1.5-8.91L1063.06,682.07z" class="colore6e6e6 svgShape"></path></g><g fill="#000000" class="color000 svgShape"><path fill="#ffb757" d="M1107.95,710.76l-9.92-28.7c-0.43-1.25-1.76-2-3.11-1.65c-0.86,0.22-1.52,0.93-1.81,1.77l-9.88,28.58      c-0.99,2.87-1.5,5.88-1.5,8.91v129.31h27.71V719.68C1109.44,716.64,1108.94,713.63,1107.95,710.76z" class="colorffb757 svgShape"></path><rect width="27.71" height="129.23" x="1081.73" y="719.75" fill="#ffffff" class="colorfff svgShape"></rect><rect width="27.72" height="2.29" x="1081.73" y="725.41" fill="#ffb757" class="colorffb757 svgShape"></rect><rect width="27.72" height="2.29" x="1081.73" y="732.63" fill="#ffb757" class="colorffb757 svgShape"></rect><ellipse cx="1095.59" cy="783.38" fill="#ffb757" rx="5.57" ry="32.72" class="colorffb757 svgShape"></ellipse><path fill="#e6e6e6" d="M1098.03,682.07c-0.33-0.95-1.17-1.61-2.15-1.72c5.48,59.19,6.95,115.67,3.23,168.64h10.34V719.68      c0-3.03-0.51-6.05-1.5-8.91L1098.03,682.07z" class="colore6e6e6 svgShape"></path><rect width="27.72" height="2.29" x="1081.73" y="826.72" fill="#ffb757" class="colorffb757 svgShape"></rect><rect width="27.72" height="2.29" x="1081.73" y="833.93" fill="#ffb757" class="colorffb757 svgShape"></rect></g><g fill="#000000" class="color000 svgShape"><path fill="#5cc8d6" d="M1177.87,710.76l-9.92-28.7c-0.43-1.25-1.76-2-3.11-1.65c-0.86,0.22-1.52,0.93-1.81,1.77l-9.88,28.58      c-0.99,2.87-1.5,5.88-1.5,8.91v129.31h27.71V719.68C1179.37,716.64,1178.87,713.63,1177.87,710.76z" class="color5cc8d6 svgShape"></path><rect width="27.71" height="129.23" x="1151.66" y="719.75" fill="#ffffff" class="colorfff svgShape"></rect><ellipse cx="1165.52" cy="783.38" fill="#5cc8d6" rx="5.57" ry="32.72" class="color5cc8d6 svgShape"></ellipse><rect width="27.72" height="2.29" x="1151.66" y="826.72" fill="#5cc8d6" class="color5cc8d6 svgShape"></rect><rect width="27.72" height="2.29" x="1151.66" y="833.93" fill="#5cc8d6" class="color5cc8d6 svgShape"></rect><rect width="27.72" height="2.29" x="1151.66" y="725.41" fill="#5cc8d6" class="color5cc8d6 svgShape"></rect><rect width="27.72" height="2.29" x="1151.66" y="732.63" fill="#5cc8d6" class="color5cc8d6 svgShape"></rect><path fill="#e6e6e6" d="M1167.95,682.07c-0.33-0.95-1.17-1.61-2.15-1.72c5.48,59.19,6.95,115.67,3.23,168.64h10.34V719.68      c0-3.03-0.51-6.05-1.5-8.91L1167.95,682.07z" class="colore6e6e6 svgShape"></path></g><g fill="#000000" class="color000 svgShape"><path fill="#304c84" d="M961.23,778.4v75.09c0,2.91,2.36,5.28,5.28,5.28h223.19c2.91,0,5.28-2.36,5.28-5.28V778.4     c0-2.91-2.36-5.28-5.28-5.28H966.51C963.6,773.12,961.23,775.49,961.23,778.4z" class="color304c84 svgShape"></path></g></g><g fill="#000000" class="color000 svgShape"><path fill="#304c84" d="M498.06,768.2c-2.68-1.16-5.37-2.33-8.05-3.49c1.6-2.01,6.02-8.13,6.07-16.91c0.03-5.36-1.59-9.53-2.71-11.86    c13.26-38.56,26.52-77.12,39.78-115.68c0.63-1.61,2.93-6.89,8.78-10.14c4.22-2.35,8.22-2.5,10.1-2.45    C534.04,661.18,516.05,714.69,498.06,768.2z" class="color304c84 svgShape"></path><path fill="#d34646" d="M487.56,763.51c-4.51,8.25-11.93,21.71-19.53,35.02c-8.14,14.27-14.86,21.32-14.02,38.01     c1.51,15.59,22.37,27.34,38.45,19.98c14.21-6.51,22.08-21.74,16.83-38.87c-6.78-22.11-20.03-24.58-8.52-48.66     C500.76,768.99,491.96,765.33,487.56,763.51z M484.39,805.76c7.9,0.58,15.4,10.48,15.44,22.51c0.06,13.4-11.89,20.27-20.85,18.75     c-8.96-1.52-17.26-11.57-13.44-23.65C468.44,814.22,475.33,805.09,484.39,805.76z" class="colord34646 svgShape"></path><rect width="5.19" height="14.32" x="492.5" y="756.88" fill="#ffffff" transform="rotate(-67.02 495.094 764.064)" class="colorfff svgShape"></rect><path fill="#4a6da5" d="M463.77,740.34c1.72,2.37,3.44,4.74,5.15,7.11c1.62-2,6.63-7.64,15.19-9.58c5.23-1.19,9.65-0.51,12.17,0.08    c34.78-21.29,69.55-42.57,104.33-63.86c1.44-0.96,6.09-4.35,8-10.77c1.38-4.62,0.66-8.56,0.2-10.39    C560.46,682.07,512.11,711.21,463.77,740.34z" class="color4a6da5 svgShape"></path><path fill="#d34646" d="M462.37,737.88c-21.02,16.45-26.31,4.05-49.36,2.21c-17.86-1.42-31.03,9.56-34.3,24.84     c-3.71,17.3,12.29,35.12,27.83,33.22c16.47-2.8,21.91-10.88,34.08-21.92c11.35-10.3,22.88-20.46,29.97-26.65     C467.85,745.68,462.37,737.88,462.37,737.88z M416.91,784.03c-10.97,6.35-22.58,0.42-26-8c-3.42-8.42,0.69-21.57,13.79-24.42     c11.76-2.56,23.04,2.62,25.32,10.21C432.63,770.53,425.21,779.22,416.91,784.03z" class="colord34646 svgShape"></path><rect width="5.19" height="14.32" x="465.87" y="735.18" fill="#ffffff" transform="rotate(-35.48 468.444 742.332)" class="colorfff svgShape"></rect><path fill="#ffffff" d="M509.19,722.68c-0.17,0.78-0.58,1.45-1.14,1.93c-0.81,0.71-1.93,1.03-3.06,0.79    c-1.92-0.41-3.13-2.29-2.73-4.2c0.12-0.57,0.37-1.07,0.71-1.49c0.81-1,2.14-1.52,3.49-1.23    C508.38,718.89,509.6,720.77,509.19,722.68z" class="colorfff svgShape"></path></g><g fill="#000000" class="color000 svgShape"><path fill="#d34646" d="M681.54,733.89L915.61,728c1.21-0.03,2.17-1.02,2.17-2.23l0,0c0-1.21-0.96-2.2-2.17-2.23l-234.08-5.89V733.89    z" class="colord34646 svgShape"></path><path fill="#ffffff" d="M709.63,718.36l6.64,0.17c0.44,4.69,0.45,9.52-0.02,14.49l-6.6,0.17    C709.16,728.08,709.17,723.15,709.63,718.36z" class="colorfff svgShape"></path><path fill="#e6e6e6" d="M689.85,728.02c79.2-3.73,155.24-4.26,227.54-0.98c0.25-0.36,0.41-0.8,0.41-1.27v0c0-1.21-0.96-2.2-2.17-2.23    l-225.77-5.68V728.02z" class="colore6e6e6 svgShape"></path><path fill="#ffffff" d="M903.46,723.23l4.16,0.11c0.08,1.59,0.08,3.21-0.01,4.86l-4.14,0.11    C903.37,726.59,903.37,724.9,903.46,723.23z" class="colorfff svgShape"></path><path fill="#ffd999" d="M618.69,738.01c0-0.01,0.01-0.02,0.01-0.03c0.25-0.91,0.51-1.84,1.11-2.62c0.84-1.09,2.27-1.79,2.95-2.92     c0.98-1.6,0.22-3.56,0.65-5.32c0.52-2.12,2.67-3.63,3.2-5.69c0.28-1.09,0.11-2.29,0.63-3.29c0.91-1.73,3.57-2.18,4.18-3.97     c0.03-0.1,0.06-0.21,0.08-0.31c0.2-1,1.23-1.59,2.3-1.44l43.34,5.79v15.3l-55.73,7.18C619.65,740.92,618.26,739.58,618.69,738.01     z" class="colorffd999 svgShape"></path><path fill="#f7c884" d="M635.18,714.89c-1.07-0.14-2.09,0.45-2.29,1.45c-0.02,0.11-0.05,0.21-0.08,0.31     c-0.61,1.78-3.26,2.25-4.16,3.98c-0.52,0.99-0.35,2.19-0.63,3.28c-0.53,2.06-2.67,3.58-3.18,5.69c-0.43,1.75,0.33,3.7-0.65,5.31     c-0.68,1.13-2.1,1.83-2.93,2.92c-0.59,0.79-0.85,1.72-1.1,2.62c0,0.01-0.01,0.02-0.01,0.03c-0.01,0.03-0.01,0.05-0.02,0.08     c-1.09-0.37-1.76-1.4-1.44-2.55c0-0.01,0.01-0.02,0.01-0.03c0.25-0.91,0.51-1.84,1.11-2.62c0.84-1.09,2.27-1.79,2.95-2.92     c0.98-1.6,0.22-3.56,0.65-5.32c0.52-2.12,2.67-3.63,3.2-5.69c0.28-1.09,0.11-2.29,0.63-3.29c0.91-1.73,3.57-2.18,4.18-3.97     c0.03-0.1,0.06-0.21,0.08-0.31c0.2-1,1.23-1.59,2.3-1.44l43.34,5.79v2.06L635.18,714.89z" class="colorf7c884 svgShape"></path><path fill="#999999" d="M670.13 730.79c-.86.44-1.65.97-2.57 1.31-.89.33-1.82.56-2.76.75-2.16.42-4.38.66-6.61.97-4.89.67-9.91 1.35-15.05 2.09-2.96.42-5.95.84-8.98 1.44-.35.07-.27.58.08.55 5.5-.45 10.83-1.3 16.02-2.03 2.57-.36 5.12-.72 7.62-1.07 2.25-.32 4.49-.58 6.68-.97 1.1-.2 2.19-.46 3.23-.84.98-.37 2.07-.83 2.78-1.61C670.87 731.05 670.51 730.59 670.13 730.79zM671.93 729.15c-.07.02-.13.06-.18.11-.07.07-.11.15-.14.24-.03.1-.03.19 0 .29.01.03.02.05.03.08.02.04.03.08.05.12.03.06.08.11.13.14.03.03.07.05.11.06.06.03.13.04.2.04.05-.01.09-.01.14-.02.04-.02.08-.03.12-.05.06-.03.11-.08.14-.13.05-.05.08-.11.09-.17.01-.03.02-.06.03-.08.03-.1.03-.19 0-.29-.03-.09-.07-.17-.14-.24-.04-.03-.07-.06-.11-.08-.09-.05-.18-.07-.28-.07C672.06 729.1 671.99 729.12 671.93 729.15z" class="color999 svgShape"></path><path fill="#304c84" d="M676.49,717.42v16.69l19.69,1.33c1.11,0.07,2.05-0.81,2.05-1.92v-15.5c0-1.11-0.94-1.99-2.05-1.92    L676.49,717.42z" class="color304c84 svgShape"></path></g><g fill="#000000" class="color000 svgShape"><path fill="#d34646" d="M704.05,680.21l210.29-3.83c1.92-0.03,3.45-1.6,3.45-3.52v0c0-1.92-1.54-3.48-3.45-3.52l-210.29-3.83V680.21z    " class="colord34646 svgShape"></path><path fill="#ffffff" d="M720.73 665.82l4.37.08c.91 5.01 1.01 9.67.13 13.92l-4.53.08C719.79 675.19 719.86 670.5 720.73 665.82zM903.21 669.15l3.14.06c.4 2.6.45 5.04.09 7.32l-3.26.06C902.8 674.1 902.82 671.62 903.21 669.15z" class="colorfff svgShape"></path><path fill="#e6e6e6" d="M712.43,672.81c64-2.27,134.45-2.49,205.14-1.13c-0.48-1.34-1.73-2.3-3.23-2.33l-201.9-3.68V672.81z" class="colore6e6e6 svgShape"></path><path fill="#ffd999" d="M696.51,668.7c-8.08-5.87-42.64-27.67-66.2,9.47c0,0,7.27-4.47,21.6,3.77c14.19,8.16,24.62,9.2,44.6-3.83    V668.7z" class="colorffd999 svgShape"></path><path fill="#f7c884" d="M630.3,678.16c0,0,1.69-1.04,5.05-1.19c21.44-29.19,50.4-14.54,61.16-7.49v-0.78    C688.43,662.83,653.87,641.03,630.3,678.16z" class="colorf7c884 svgShape"></path><path fill="#304c84" d="M694.44,665.57v14.6l17.22,1.16c0.97,0.07,1.8-0.71,1.8-1.68v-13.56c0-0.97-0.82-1.75-1.8-1.68L694.44,665.57    z" class="color304c84 svgShape"></path><path fill="#999999" d="M656.33 682.42c1.46 1.36 3.91 2.01 5.79 2.54 2.11.6 4.3.96 6.49 1.1 2.14.14 4.29.04 6.41-.26 1.11-.16 2.21-.38 3.29-.66 1.04-.27 2.14-.52 2.91-1.3.43-.43.09-1.1-.47-1.14-.96-.07-1.86.32-2.77.58-.96.27-1.94.5-2.93.67-2.07.37-4.18.48-6.28.39-2.05-.09-4.08-.39-6.06-.91-.97-.25-1.93-.55-2.86-.9-.98-.36-1.94-.9-2.96-1.1C656.36 681.33 655.86 681.99 656.33 682.42zM685.42 678.98c-.24.07-.45.19-.63.37-.02.02-.04.04-.07.07-.13.12-.22.26-.27.43-.08.16-.12.33-.11.51.02.12.03.24.05.35.06.23.18.42.34.59.02.02.04.04.07.07.18.18.39.3.63.37.25.07.5.07.76 0 .02-.01.04-.01.06-.02.11-.05.22-.09.34-.14.16-.09.3-.21.39-.36.09-.09.15-.19.18-.31.09-.17.13-.35.12-.54l-.05-.37c-.05-.11-.09-.22-.14-.34-.09-.16-.21-.29-.36-.39-.14-.12-.29-.21-.48-.25-.02-.01-.04-.01-.06-.02C685.92 678.91 685.67 678.91 685.42 678.98z" class="color999 svgShape"></path></g><g fill="#000000" class="color000 svgShape"><path fill="#5cc8d6" d="M675.7,829.25L570.8,858.72c4.01-20.43,2.78-41.36-5.73-63.01l82.71-23.24    C650.13,793.35,659.44,812.28,675.7,829.25z" class="color5cc8d6 svgShape"></path><path fill="#e6e6e6" d="M647.77,772.47l-5.07,1.42c2.1,13.8,5.83,27.14,14.93,38.98c3.71,4.83,1.45,11.87-4.42,13.51l-80.98,22.75    c-0.36,3.2-0.81,6.4-1.43,9.58l104.89-29.47C659.44,812.28,650.13,793.35,647.77,772.47z" class="colore6e6e6 svgShape"></path><path fill="#304c84" d="M647.99 771.5l-83.61 23.49c-.47.13-.74.62-.61 1.09.13.47.62.74 1.09.61l83.61-23.49c.47-.13.74-.62.61-1.09C648.94 771.64 648.46 771.36 647.99 771.5zM673.45 823.59l-103.68 29.13c-1.61.45-2.55 2.12-2.1 3.73.45 1.61 2.12 2.55 3.73 2.1l103.68-29.13c1.61-.45 2.55-2.12 2.1-3.73C676.73 824.08 675.06 823.14 673.45 823.59z" class="color304c84 svgShape"></path><path fill="#304c84" d="M637.92,835.44l-31.65,8.89l-0.01-0.92c-0.28-28.65-3.27-49.26-9.12-62.98c-4.82-1.37-8.45-4.92-9.75-9.56     c-2.1-7.49,2.55-15.37,10.38-17.57s15.91,2.11,18.01,9.6c1.3,4.64,0.05,9.56-3.35,13.24c2.15,14.76,10.33,33.91,25.01,58.52     L637.92,835.44z M607.67,842.47l28.09-7.89C621.17,810,613.06,790.83,610.99,776l-0.05-0.34l0.24-0.25     c3.23-3.34,4.44-7.87,3.24-12.12c-1.89-6.74-9.19-10.61-16.27-8.62c-7.08,1.99-11.29,9.09-9.4,15.83     c1.2,4.26,4.59,7.49,9.08,8.66l0.33,0.09l0.14,0.32C604.26,793.31,607.33,813.89,607.67,842.47z" class="color304c84 svgShape"></path></g><g fill="#000000" class="color000 svgShape"><path fill="#ffb757" d="M848.24,858.24H739.29c9.38-18.58,13.87-39.07,11.52-62.21h85.91C833.34,816.76,837.19,837.5,848.24,858.24z" class="colorffb757 svgShape"></path><path fill="#e6e6e6" d="M836.72,796.02h-5.27c-1.71,13.85-1.73,27.71,3.83,41.56c2.27,5.65-1.82,11.82-7.91,11.82h-84.11    c-1.22,2.99-2.51,5.94-3.97,8.83h108.96C837.19,837.5,833.34,816.76,836.72,796.02z" class="colore6e6e6 svgShape"></path><path fill="#304c84" d="M837.19 795.14h-86.84c-.49 0-.88.4-.88.88s.4.88.88.88h86.84c.49 0 .88-.4.88-.88S837.68 795.14 837.19 795.14zM847.61 852.18H739.92c-1.67 0-3.03 1.35-3.03 3.03s1.36 3.03 3.03 3.03h107.69c1.67 0 3.03-1.36 3.03-3.03S849.29 852.18 847.61 852.18z" class="color304c84 svgShape"></path><path fill="#304c84" d="M810.2,853.98h-32.87l0.24-0.89c7.48-27.66,10.18-48.31,8.25-63.1c-4.27-2.62-6.8-7.02-6.8-11.84     c0-7.78,6.61-14.11,14.74-14.11s14.74,6.33,14.74,14.11c0,4.82-2.54,9.22-6.8,11.84c-1.92,14.79,0.78,35.44,8.25,63.1     L810.2,853.98z M779.18,852.57h29.18c-7.4-27.61-10.02-48.26-8-63.1l0.05-0.34l0.3-0.17c4.01-2.34,6.4-6.37,6.4-10.79     c0-7-5.98-12.7-13.33-12.7c-7.35,0-13.33,5.7-13.33,12.7c0,4.42,2.39,8.46,6.4,10.79l0.3,0.17l0.05,0.34     C789.2,804.31,786.58,824.96,779.18,852.57z" class="color304c84 svgShape"></path></g><g fill="#000000" class="color000 svgShape"><path fill="#304c84" d="M378.1 335.22c-.02.14-.29 1.61-1.63 2.25-1.09.53-2.47.29-3.43-.61-9.29-26.48-23.17-66.06-46.19-131.71l10.06-3.26L378.1 335.22zM271.52 335.22c.02.14.29 1.61 1.63 2.25 1.09.53 2.47.29 3.43-.61 9.29-26.48 23.17-66.06 46.19-131.71l-10.06-3.26L271.52 335.22z" class="color304c84 svgShape"></path><rect width="4.89" height="17.21" x="322.78" y="142.98" fill="#ffb757" class="colorffb757 svgShape"></rect><path fill="#ffb757" d="M325.49,155.8c-14.76,0-26.73,11.98-26.73,26.75c0,14.76,11.97,26.75,26.73,26.75     c14.78,0,26.75-11.98,26.75-26.75C352.24,167.78,340.27,155.8,325.49,155.8z M325.94,203.03c-11.44,0-20.71-9.28-20.71-20.72     c0-11.43,9.27-20.71,20.71-20.71c11.43,0,20.71,9.28,20.71,20.71C346.65,193.75,337.38,203.03,325.94,203.03z" class="colorffb757 svgShape"></path><polygon fill="#304c84" points="373.46 335.29 379.2 345.27 376.6 334.18" class="color304c84 svgShape"></polygon><circle cx="324.81" cy="206.61" r="9.15" fill="#ffb757" class="colorffb757 svgShape"></circle><circle cx="324.81" cy="206.61" r="6.43" fill="#ffffff" class="colorfff svgShape"></circle><polygon fill="#304c84" points="276.16 335.29 270.42 345.27 273.02 334.18" class="color304c84 svgShape"></polygon><path fill="#304c84" d="M325.86,125.6c-0.25-0.02-0.5-0.03-0.77-0.03c-0.24,0-0.46,0.02-0.69,0.05c-2.98,0.35-5.13,3.04-5.13,6.04    v18.08h11.89v-18.07C331.17,128.59,328.92,125.88,325.86,125.6z" class="color304c84 svgShape"></path><path fill="#ffb757" d="M325.19,246.77c-0.14-0.02-0.29-0.03-0.45-0.03c-0.13,0-0.26,0.02-0.37,0.04c-0.83,0.16-1.39,0.96-1.39,1.8    v22.98c0,0.94,0.7,1.79,1.64,1.85c0.01,0,0.02,0,0.03,0c0.06,0,0.12,0,0.18,0c1.02,0,1.83-0.85,1.83-1.87v-22.96    C326.64,247.72,326.05,246.91,325.19,246.77z" class="colorffb757 svgShape"></path><path fill="#ffb757" d="M366.12,258.02h-81.79c-0.86,0-1.71,0.4-2.11,1.16c-0.05,0.1-0.1,0.21-0.14,0.33c-0.19,0.61,0,1.16,0.29,1.6    c0.44,0.66,1.22,1.02,2.01,1.02h80.88c0.71,0,1.42-0.28,1.86-0.83c0.27-0.33,0.48-0.76,0.47-1.28    C367.57,258.82,366.3,258.12,366.12,258.02z" class="colorffb757 svgShape"></path><circle cx="298.68" cy="260.08" r="2.05" fill="#ffffff" class="colorfff svgShape"></circle><circle cx="350.42" cy="260.08" r="2.05" fill="#ffffff" class="colorfff svgShape"></circle></g><path fill="#ffb757" d="M253.94,574.4H133.09c-5.22,0-9.46,4.24-9.46,9.46v47.62c0,5.22,4.24,9.46,9.46,9.46h120.85   c5.22,0,9.46-4.24,9.46-9.46v-47.62C263.4,578.63,259.17,574.4,253.94,574.4z" class="colorffb757 svgShape"></path><path fill="#d34646" d="M253.94,574.4h-60.43v66.54h60.43c5.22,0,9.46-4.24,9.46-9.46v-47.62C263.4,578.63,259.17,574.4,253.94,574.4z   " class="colord34646 svgShape"></path><g fill="#000000" class="color000 svgShape"><rect width="219.62" height="133" x="123.63" y="725.77" fill="#5cc8d6" class="color5cc8d6 svgShape"></rect><path fill="#e6e6e6" d="M123.63,725.77v2.85h205.12c4.09,0,7.41,3.32,7.41,7.41v122.75h7.09v-133H123.63z" class="colore6e6e6 svgShape"></path><rect width="219.62" height="7.37" x="123.63" y="718.4" fill="#304c84" class="color304c84 svgShape"></rect><circle cx="159.6" cy="713.63" r="10.61" fill="#304c84" class="color304c84 svgShape"></circle><circle cx="306.42" cy="713.63" r="10.61" fill="#304c84" class="color304c84 svgShape"></circle><rect width="18.21" height="16.89" x="143.26" y="769.39" fill="#304c84" class="color304c84 svgShape"></rect><rect width="18.21" height="16.89" x="183.8" y="769.39" fill="#304c84" class="color304c84 svgShape"></rect><rect width="18.21" height="16.89" x="224.34" y="769.39" fill="#304c84" class="color304c84 svgShape"></rect><rect width="18.21" height="16.89" x="264.87" y="769.39" fill="#ffffff" class="colorfff svgShape"></rect><rect width="18.21" height="16.89" x="305.41" y="769.39" fill="#304c84" class="color304c84 svgShape"></rect><rect width="18.21" height="16.89" x="143.26" y="797.8" fill="#304c84" class="color304c84 svgShape"></rect><rect width="18.21" height="16.89" x="183.8" y="797.8" fill="#ffffff" class="colorfff svgShape"></rect><rect width="18.21" height="16.89" x="224.34" y="797.8" fill="#304c84" class="color304c84 svgShape"></rect><rect width="18.21" height="16.89" x="264.87" y="797.8" fill="#304c84" class="color304c84 svgShape"></rect><rect width="18.21" height="16.89" x="305.41" y="797.8" fill="#304c84" class="color304c84 svgShape"></rect><rect width="18.21" height="16.89" x="143.26" y="826.21" fill="#304c84" class="color304c84 svgShape"></rect><rect width="18.21" height="16.89" x="183.8" y="826.21" fill="#304c84" class="color304c84 svgShape"></rect><rect width="18.21" height="16.89" x="224.34" y="826.21" fill="#304c84" class="color304c84 svgShape"></rect><rect width="18.21" height="16.89" x="264.87" y="741.43" fill="#304c84" class="color304c84 svgShape"></rect><rect width="18.21" height="16.89" x="305.41" y="741.43" fill="#304c84" class="color304c84 svgShape"></rect></g><radialGradient id="a" cx="615.214" cy="119.424" r="14.195" gradientUnits="userSpaceOnUse"><stop offset="0" stop-color="#ffd39f" class="stopColorffd39f svgShape"></stop><stop offset="1" stop-color="#ffffff" class="stopColorfff svgShape"></stop></radialGradient><circle cx="615.21" cy="119.42" r="14.19" fill="url(#a)"></circle><radialGradient id="b" cx="278.399" cy="101.227" r="14.195" gradientUnits="userSpaceOnUse"><stop offset="0" stop-color="#ffd39f" class="stopColorffd39f svgShape"></stop><stop offset="1" stop-color="#ffffff" class="stopColorfff svgShape"></stop></radialGradient><circle cx="278.4" cy="101.23" r="14.19" fill="url(#b)"></circle><radialGradient id="c" cx="301.644" cy="372.726" r="14.195" gradientUnits="userSpaceOnUse"><stop offset="0" stop-color="#ffd39f" class="stopColorffd39f svgShape"></stop><stop offset="1" stop-color="#ffffff" class="stopColorfff svgShape"></stop></radialGradient><circle cx="301.64" cy="372.73" r="14.19" fill="url(#c)"></circle><radialGradient id="d" cx="216.054" cy="683.774" r="14.195" gradientUnits="userSpaceOnUse"><stop offset="0" stop-color="#ffd39f" class="stopColorffd39f svgShape"></stop><stop offset="1" stop-color="#ffffff" class="stopColorfff svgShape"></stop></radialGradient><circle cx="216.05" cy="683.77" r="14.19" fill="url(#d)"></circle><radialGradient id="e" cx="403.957" cy="858.773" r="14.195" gradientUnits="userSpaceOnUse"><stop offset="0" stop-color="#ffd39f" class="stopColorffd39f svgShape"></stop><stop offset="1" stop-color="#ffffff" class="stopColorfff svgShape"></stop></radialGradient><circle cx="403.96" cy="858.77" r="14.19" fill="url(#e)"></circle><radialGradient id="f" cx="525.115" cy="566.639" r="14.195" gradientUnits="userSpaceOnUse"><stop offset="0" stop-color="#ffd39f" class="stopColorffd39f svgShape"></stop><stop offset="1" stop-color="#ffffff" class="stopColorfff svgShape"></stop></radialGradient><circle cx="525.11" cy="566.64" r="14.19" fill="url(#f)"></circle><radialGradient id="g" cx="889.516" cy="810.967" r="14.195" gradientUnits="userSpaceOnUse"><stop offset="0" stop-color="#ffd39f" class="stopColorffd39f svgShape"></stop><stop offset="1" stop-color="#ffffff" class="stopColorfff svgShape"></stop></radialGradient><circle cx="889.52" cy="810.97" r="14.19" fill="url(#g)"></circle><radialGradient id="h" cx="985.126" cy="198.555" r="14.195" gradientUnits="userSpaceOnUse"><stop offset="0" stop-color="#ffd39f" class="stopColorffd39f svgShape"></stop><stop offset="1" stop-color="#ffffff" class="stopColorfff svgShape"></stop></radialGradient><circle cx="985.13" cy="198.56" r="14.19" fill="url(#h)"></circle><radialGradient id="i" cx="1226.172" cy="513.178" r="14.195" gradientUnits="userSpaceOnUse"><stop offset="0" stop-color="#ffd39f" class="stopColorffd39f svgShape"></stop><stop offset="1" stop-color="#ffffff" class="stopColorfff svgShape"></stop></radialGradient><circle cx="1226.17" cy="513.18" r="14.19" fill="url(#i)"></circle><path fill="#e6e6e6" d="M257.46,575.08c0.12,0.61,0.19,1.24,0.19,1.89v47.62c0,5.22-4.24,9.46-9.46,9.46H127.34   c-1.24,0-2.43-0.25-3.52-0.68c0.88,4.32,4.69,7.57,9.27,7.57h120.85c5.22,0,9.46-4.24,9.46-9.46v-47.62   C263.4,579.88,260.94,576.48,257.46,575.08z" class="colore6e6e6 svgShape"></path><ellipse cx="174.75" cy="585.14" fill="#999999" rx="41.31" ry="3.52" class="color999 svgShape"></ellipse><g fill="#000000" class="color000 svgShape"><rect width="267.86" height="168.27" x="872.19" y="253.42" fill="#ffffff" transform="rotate(9.25 1005.981 337.821)" class="colorfff svgShape"></rect><path fill="#304c84" d="M939.16 379.98c-28.65-4.67-48.16-31.78-43.48-60.43s31.78-48.16 60.43-43.48 48.16 31.78 43.48 60.43S967.8 384.65 939.16 379.98zM955.71 278.49c-27.31-4.45-53.16 14.14-57.61 41.45s14.14 53.16 41.45 57.61c27.31 4.45 53.16-14.14 57.61-41.45S983.02 282.94 955.71 278.49zM1110.18 395.46l-103.92-16.95 16.95-103.92 103.92 16.95L1110.18 395.46zM1009.08 376.48l99.06 16.16 16.16-99.06-99.06-16.16L1009.08 376.48z" class="color304c84 svgShape"></path><path fill="#304c84" d="M1087.32 418.47l-131.82-21.5 18.56-113.78 131.82 21.5L1087.32 418.47zM956.91 395.95l129.4 21.11 18.16-111.35-129.4-21.11L956.91 395.95zM901.03 321.04l-4.25-.69c-.34-.05-.56-.37-.51-.71.05-.34.37-.56.71-.51l4.25.69c.34.05.56.37.51.71S901.37 321.09 901.03 321.04z" class="color304c84 svgShape"></path><path fill="#304c84" d="M1102.72 353.94l-8.4-1.37c-.34-.05-.56-.37-.51-.71s.37-.56.71-.51l8.4 1.37c.34.05.56.37.51.71S1103.05 353.99 1102.72 353.94zM1085.91 351.2l-8.4-1.37c-.34-.05-.56-.37-.51-.71s.37-.56.71-.51l8.4 1.37c.34.05.56.37.51.71S1086.24 351.25 1085.91 351.2zM1069.1 348.46l-8.4-1.37c-.34-.05-.56-.37-.51-.71s.37-.56.71-.51l8.4 1.37c.34.05.56.37.51.71S1069.44 348.51 1069.1 348.46zM1052.3 345.71l-8.4-1.37c-.34-.05-.56-.37-.51-.71s.37-.56.71-.51l8.4 1.37c.34.05.56.37.51.71S1052.63 345.77 1052.3 345.71zM1035.49 342.97l-8.4-1.37c-.34-.05-.56-.37-.51-.71.05-.34.37-.56.71-.51l8.4 1.37c.34.05.56.37.51.71S1035.82 343.03 1035.49 342.97zM1018.68 340.23l-8.4-1.37c-.34-.05-.56-.37-.51-.71s.37-.56.71-.51l8.4 1.37c.34.05.56.37.51.71S1019.02 340.29 1018.68 340.23zM1001.87 337.49l-8.4-1.37c-.34-.05-.56-.37-.51-.71.05-.34.37-.56.71-.51l8.4 1.37c.34.05.56.37.51.71S1002.21 337.54 1001.87 337.49zM985.07 334.75l-8.4-1.37c-.34-.05-.56-.37-.51-.71.05-.34.37-.56.71-.51l8.4 1.37c.34.05.56.37.51.71S985.4 334.8 985.07 334.75zM968.26 332.01l-8.4-1.37c-.34-.05-.56-.37-.51-.71.05-.34.37-.56.71-.51l8.4 1.37c.34.05.56.37.51.71S968.6 332.06 968.26 332.01zM951.45 329.26l-8.4-1.37c-.34-.05-.56-.37-.51-.71s.37-.56.71-.51l8.4 1.37c.34.05.56.37.51.71C952.1 329.09 951.79 329.32 951.45 329.26zM934.65 326.52l-8.4-1.37c-.34-.05-.56-.37-.51-.71s.37-.56.71-.51l8.4 1.37c.34.05.56.37.51.71C935.3 326.35 934.98 326.58 934.65 326.52zM917.84 323.78l-8.4-1.37c-.34-.05-.56-.37-.51-.71s.37-.56.71-.51l8.4 1.37c.34.05.56.37.51.71C918.49 323.61 918.18 323.84 917.84 323.78zM1115.37 356l-4.25-.69c-.34-.05-.56-.37-.51-.71s.37-.56.71-.51l4.25.69c.34.05.56.37.51.71C1116.02 355.83 1115.7 356.06 1115.37 356zM890.38 386.35l-4.25-.69c-.34-.05-.56-.37-.51-.71.05-.34.37-.56.71-.51l4.25.69c.34.05.56.37.51.71S890.72 386.4 890.38 386.35zM936.9 393.93l-7.75-1.26c-.34-.05-.56-.37-.51-.71s.37-.56.71-.51l7.75 1.26c.34.05.56.37.51.71S937.23 393.99 936.9 393.93zM921.39 391.4l-7.75-1.26c-.34-.05-.56-.37-.51-.71.05-.34.37-.56.71-.51l7.75 1.26c.34.05.56.37.51.71S921.73 391.46 921.39 391.4zM905.89 388.87l-7.75-1.26c-.34-.05-.56-.37-.51-.71s.37-.56.71-.51l7.75 1.26c.34.05.56.37.51.71C906.54 388.7 906.22 388.93 905.89 388.87zM948.9 395.89l-4.25-.69c-.34-.05-.56-.37-.51-.71.05-.34.37-.56.71-.51l4.25.69c.34.05.56.37.51.71C949.55 395.72 949.23 395.95 948.9 395.89z" class="color304c84 svgShape"></path></g></svg>