<svg width="400" height="400" viewBox="0 0 400 400" fill="none" xmlns="http://www.w3.org/2000/svg">
<rect width="400" height="400" fill="#8D37FF"/>
<path d="M200 337.555C273.164 337.555 332.476 303.012 332.476 260.4C332.476 217.789 273.164 183.245 200 183.245C126.836 183.245 67.5249 217.789 67.5249 260.4C67.5249 303.012 126.836 337.555 200 337.555Z" fill="#F5F5F5"/>
<path d="M274.697 293.396C295.953 293.396 313.184 283.448 313.184 271.175C313.184 258.903 295.953 248.954 274.697 248.954C253.441 248.954 236.21 258.903 236.21 271.175C236.21 283.448 253.441 293.396 274.697 293.396Z" fill="#E6E6E6"/>
<path d="M200 300.705C224.004 300.705 243.464 289.471 243.464 275.615C243.464 261.758 224.004 250.524 200 250.524C175.996 250.524 156.536 261.758 156.536 275.615C156.536 289.471 175.996 300.705 200 300.705Z" fill="#E6E6E6"/>
<path d="M123.999 293.396C145.254 293.396 162.485 283.448 162.485 271.175C162.485 258.903 145.254 248.954 123.999 248.954C102.743 248.954 85.5117 258.903 85.5117 271.175C85.5117 283.448 102.743 293.396 123.999 293.396Z" fill="#E6E6E6"/>
<path d="M108.675 241.833C109.141 236.53 106.259 225.205 101.367 217.83C96.4746 210.455 88.2602 204.663 81.9243 206.227C76.0232 207.683 75.987 215.251 82.492 220.838C88.9971 226.425 98.9027 233.594 101.216 242.473L106.7 253.593L108.675 241.833Z" fill="#23202A"/>
<path opacity="0.1" d="M108.675 241.833C109.141 236.53 106.259 225.205 101.367 217.83C96.4746 210.455 88.2602 204.663 81.9243 206.227C76.0232 207.683 75.987 215.251 82.492 220.838C88.9971 226.425 98.9027 233.594 101.216 242.473L106.7 253.593L108.675 241.833Z" fill="black"/>
<path d="M108.428 249.129C108.345 249.114 108.268 249.072 108.211 249.01C108.153 248.948 108.117 248.869 108.108 248.785C106.145 230.363 92.7904 214.357 84.3042 210.334C84.258 210.312 84.2166 210.281 84.1824 210.243C84.1482 210.205 84.1219 210.161 84.1051 210.112C84.0882 210.064 84.0811 210.013 84.0842 209.962C84.0873 209.911 84.1005 209.861 84.123 209.815C84.1464 209.771 84.1784 209.732 84.217 209.7C84.2556 209.669 84.3002 209.645 84.348 209.631C84.3958 209.617 84.4459 209.613 84.4955 209.619C84.545 209.624 84.5929 209.64 84.6364 209.664C93.2857 213.759 106.888 230.031 108.881 248.737C108.887 248.787 108.882 248.838 108.868 248.887C108.854 248.936 108.83 248.981 108.798 249.021C108.766 249.06 108.726 249.093 108.681 249.116C108.637 249.14 108.587 249.155 108.537 249.159C108.499 249.156 108.462 249.146 108.428 249.129Z" fill="white"/>
<path d="M104.713 260.485C104.109 257.428 100.908 252.186 95.3755 247.601C89.2509 242.534 81.1875 239.749 79.593 236.077C77.6783 231.668 81.5741 228.007 88.1939 229.433C94.8138 230.858 105.776 241.012 106.459 254.928L104.713 260.485Z" fill="#23202A"/>
<path d="M106.284 257.471C106.209 257.457 106.14 257.423 106.085 257.371C106.029 257.32 105.989 257.254 105.97 257.181C101.778 241.181 90.4166 234.694 84.9987 233.504C84.9435 233.498 84.8901 233.481 84.8419 233.454C84.7938 233.426 84.7521 233.388 84.7196 233.343C84.687 233.299 84.6644 233.247 84.6532 233.193C84.6419 233.138 84.6423 233.082 84.6544 233.028C84.6664 232.974 84.6898 232.923 84.723 232.878C84.7562 232.834 84.7985 232.797 84.847 232.77C84.8955 232.743 84.9492 232.727 85.0045 232.722C85.0598 232.717 85.1155 232.725 85.1679 232.743C91.1595 234.06 102.442 240.649 106.725 256.987C106.739 257.05 106.738 257.115 106.721 257.177C106.705 257.24 106.674 257.297 106.63 257.344C106.587 257.392 106.533 257.428 106.472 257.45C106.412 257.472 106.347 257.479 106.284 257.471Z" fill="white"/>
<path d="M285.647 248.96C285.158 243.385 288.359 225.447 293.499 217.703C298.639 209.96 307.953 202.138 314.609 203.781C320.806 205.315 320.848 213.264 314.005 219.135C307.162 225.006 296.767 232.544 294.351 241.863L288.311 257.628L285.647 248.96Z" fill="#23202A"/>
<path opacity="0.1" d="M285.647 248.96C285.158 243.385 288.359 225.447 293.499 217.703C298.639 209.96 307.953 202.138 314.609 203.781C320.806 205.315 320.848 213.264 314.005 219.135C307.162 225.006 296.767 232.544 294.351 241.863L288.311 257.628L285.647 248.96Z" fill="black"/>
<path d="M286.771 248.863C286.858 248.847 286.939 248.803 286.999 248.738C287.06 248.673 287.099 248.59 287.109 248.501C289.168 229.143 303.205 212.327 312.114 208.099C312.163 208.077 312.207 208.045 312.243 208.005C312.279 207.965 312.307 207.919 312.325 207.868C312.343 207.818 312.351 207.764 312.348 207.71C312.345 207.657 312.331 207.604 312.308 207.556C312.286 207.507 312.254 207.462 312.214 207.426C312.175 207.389 312.128 207.361 312.077 207.343C312.026 207.325 311.973 207.317 311.919 207.321C311.865 207.324 311.812 207.338 311.764 207.363C302.704 211.669 288.383 228.762 286.293 248.435C286.288 248.488 286.292 248.542 286.307 248.593C286.323 248.644 286.348 248.692 286.381 248.734C286.415 248.775 286.457 248.81 286.504 248.835C286.551 248.86 286.603 248.876 286.656 248.882C286.695 248.882 286.734 248.875 286.771 248.863Z" fill="white"/>
<path d="M290.678 260.792C291.282 257.579 293.88 252.125 299.322 246.9C305.966 240.492 316.614 237.363 318.293 233.51C320.305 228.883 316.518 225.428 309.62 227.192C300.355 229.56 289.549 240.347 288.842 254.976L290.678 260.792Z" fill="#23202A"/>
<path d="M289.024 257.621C289.102 257.609 289.175 257.575 289.233 257.522C289.292 257.47 289.335 257.402 289.356 257.326C293.759 240.51 308.014 232.133 313.709 230.882C313.762 230.871 313.812 230.849 313.856 230.818C313.901 230.788 313.939 230.748 313.968 230.703C313.997 230.657 314.017 230.607 314.026 230.554C314.036 230.5 314.035 230.446 314.023 230.393C314.013 230.34 313.991 230.29 313.961 230.245C313.93 230.2 313.891 230.162 313.845 230.132C313.8 230.103 313.749 230.083 313.695 230.074C313.642 230.065 313.587 230.067 313.534 230.079C307.234 231.468 293.059 239.954 288.565 257.114C288.55 257.166 288.546 257.22 288.553 257.274C288.56 257.328 288.577 257.379 288.604 257.426C288.631 257.473 288.667 257.513 288.71 257.546C288.753 257.579 288.802 257.602 288.855 257.615C288.91 257.629 288.968 257.631 289.024 257.621Z" fill="white"/>
<path d="M293.077 140.234C289.35 136.393 283.159 127.435 283.159 127.435L279.342 114.232C279.251 114.268 281.287 114.274 281.903 114.232C286.028 114.51 287.242 114.836 289.809 117.669C291.845 119.898 299.376 131.609 302.082 135.185L309.487 124.953C311.203 122.356 310.925 119.451 311.819 117.325C312.713 115.198 314.15 114.268 315.304 112.354C316.458 110.439 316.735 109.183 317.684 110.161C318.632 111.14 317.539 113.785 317.394 114.389C317.249 114.993 315.811 116.805 318.221 115.851C320.631 114.896 324.364 110.499 325.33 109.599C326.297 108.699 326.798 110.095 326.581 111.2C326.363 112.305 327.402 114.824 327.022 116.636C326.623 118.575 326.339 119.463 324.473 121.341C322.727 123.099 318.469 125.249 316.802 127.55C315.135 129.851 311.577 137.003 309.403 141.315C306.637 146.794 303.604 149.91 300.029 146.848C297.287 144.462 294.46 141.66 293.077 140.234Z" fill="#FFBDA7"/>
<path d="M283.545 114.129C286.704 114.419 288.377 115.138 291.53 119.269C294.683 123.401 302.004 134.279 302.004 134.279L308.328 126.542C308.328 126.542 312.682 129.858 314.972 133.735C314.972 133.735 308.853 144.003 306.401 146.594C303.949 149.186 302.052 149.391 298.718 146.594C295.384 143.798 285.768 133.192 285.768 133.192L283.545 114.129Z" fill="#F0F0F0"/>
<path d="M302.004 134.279C300.572 136.351 299.648 139.715 299.902 141.412C299.902 141.412 297.908 139.117 301.261 133.18L302.004 134.279Z" fill="#E0E0E0"/>
<path d="M255.677 268.192H262.858L264.29 255.478H255.677V268.192Z" fill="#FFBDA7"/>
<path d="M279.402 255.115L287.054 255.369L286.916 242.208L278.26 242.039L279.402 255.115Z" fill="#FFBDA7"/>
<path d="M255.755 165.995C255.616 172.965 254.137 219.093 254.137 219.093C253.625 222.862 253.321 226.657 253.225 230.46C253.031 239.677 254.964 261.554 254.964 261.554C255.393 263.541 262.816 264.35 263.801 262.556C263.801 262.556 267.859 230.822 269.013 221.702C270.016 213.741 273.332 187.709 273.332 187.709L275.893 213.288C275.795 216.27 275.865 219.254 276.104 222.227C276.4 226.455 278.52 251.334 278.52 251.334C278.556 252.886 286.275 254.167 287.58 251.884C287.58 251.884 289.996 215.547 290.099 211.675C290.183 207.26 289.567 165.494 289.567 165.494L255.755 165.995Z" fill="#37474F"/>
<path d="M263.269 264.537L263.39 263.456C263.789 263.456 263.964 263.903 264.127 264.857C264.465 266.893 265.106 268.865 266.029 270.71C267.237 273.217 267.962 274.262 270.366 277.282C270.934 278 272.22 279.142 272.673 279.939C273.126 280.737 273.277 282.959 272.516 283.473C269.714 285.339 265.456 285.393 262.442 284.512C261.299 284.234 260.269 283.615 259.487 282.736C258.706 281.858 258.211 280.762 258.069 279.595C257.579 276.853 257.32 275.156 255.925 273.084C255.411 272.323 254.584 271.707 254.239 270.861C253.635 269.333 254.113 267.618 254.511 266.096C254.855 264.785 255.23 263.341 255.677 263.462V264.272C256.214 264.876 258.093 265.48 259.784 265.528C260.871 265.57 263.281 265.371 263.269 264.537Z" fill="#263238"/>
<path d="M287.031 253.291C287.218 253.418 287.635 253.895 288.426 254.632C289.214 255.317 290.041 255.956 290.902 256.546C292.654 257.829 294.495 258.986 296.411 260.007C298.688 261.258 300.741 262.019 303.465 263.245C303.751 263.36 304.01 263.532 304.226 263.752C304.391 263.947 304.505 264.179 304.559 264.429C304.638 264.943 304.574 265.469 304.372 265.949C304.171 266.429 303.84 266.843 303.417 267.147C302.563 267.743 301.594 268.155 300.572 268.355C298.261 269.003 295.827 269.076 293.481 268.566C291.455 267.992 289.531 267.103 287.78 265.933C286.321 264.898 284.66 264.184 282.905 263.837C281.377 263.619 279.499 263.692 278.17 262.78C276.702 261.765 277.288 259.597 277.705 257.73C278.158 255.701 278.261 252.596 279.185 252.663L279.257 253.478C279.342 254.354 281.468 254.759 283.111 254.759C284.476 254.759 287.055 254.402 287.043 253.762L287.031 253.291Z" fill="#263238"/>
<path d="M274.117 177.948C277.046 176.814 279.717 175.1 281.969 172.911C281.969 172.911 280.719 176.535 275.591 179.555L275.929 211.385L273.344 187.697L274.117 177.948Z" fill="#263238"/>
<path d="M267.328 113.35C266.03 113.658 261.892 114.776 258.534 115.959C256.841 116.606 255.372 117.731 254.306 119.197C251.89 122.754 254.064 130.673 255.858 145.555C255.725 155.171 255.448 167.13 255.448 167.13C259.869 170.35 280.495 172.536 289.803 165.741C289.803 165.741 290.111 129.652 289.495 124.959C288.287 115.972 284.802 113.574 277.542 113.151L267.328 113.35Z" fill="#23202A"/>
<path opacity="0.6" d="M267.328 113.35C266.03 113.658 261.892 114.776 258.534 115.959C256.841 116.606 255.372 117.731 254.306 119.197C251.89 122.754 254.064 130.673 255.858 145.555C255.725 155.171 255.448 167.13 255.448 167.13C259.869 170.35 280.495 172.536 289.803 165.741C289.803 165.741 290.111 129.652 289.495 124.959C288.287 115.972 284.802 113.574 277.542 113.151L267.328 113.35Z" fill="white"/>
<path d="M280.006 123.896C280.658 126.143 284.518 141.932 283.974 147.488C283.56 150.34 282.789 153.128 281.679 155.787C280.006 159.744 278.889 156.204 277.959 153.867C277.172 151.687 276.645 149.423 276.388 147.12C276.08 144.136 277.282 135.07 276.817 124.44C277.168 123.945 277.701 123.61 278.299 123.508C278.897 123.406 279.511 123.546 280.006 123.896Z" fill="#23202A"/>
<path opacity="0.2" d="M280.006 123.896C280.658 126.143 284.518 141.932 283.974 147.488C283.56 150.34 282.789 153.128 281.679 155.787C280.006 159.744 278.889 156.204 277.959 153.867C277.172 151.687 276.645 149.423 276.388 147.12C276.08 144.136 277.282 135.07 276.817 124.44C277.168 123.945 277.701 123.61 278.299 123.508C278.897 123.406 279.511 123.546 280.006 123.896Z" fill="black"/>
<path d="M280.151 118.822C281.679 120.127 280.006 123.89 280.006 123.89C278.913 123.654 277.77 123.849 276.817 124.433C276.817 124.433 273.797 123.135 273.767 120.876C273.767 118.822 275.947 119.481 277.499 119.209C279.124 118.925 279.97 117.723 280.151 118.822Z" fill="#23202A"/>
<path opacity="0.2" d="M280.151 118.822C281.679 120.127 280.006 123.89 280.006 123.89C278.913 123.654 277.77 123.849 276.817 124.433C276.817 124.433 273.797 123.135 273.767 120.876C273.767 118.822 275.947 119.481 277.499 119.209C279.124 118.925 279.97 117.723 280.151 118.822Z" fill="black"/>
<path opacity="0.2" d="M280.006 123.896C279.758 123.014 278.557 123.099 277.59 122.797C277.048 122.582 276.595 122.19 276.304 121.686C275.808 120.834 276.304 119.421 276.992 119.27C275.512 119.372 273.755 119.034 273.761 120.876C273.761 123.135 276.811 124.434 276.811 124.434C277.767 123.85 278.912 123.657 280.006 123.896Z" fill="black"/>
<path d="M269.502 92.4879C269.555 94.3438 270.157 96.1425 271.231 97.6569C272.305 99.1713 273.804 100.334 275.538 100.997C277.272 101.661 279.164 101.796 280.975 101.385C282.786 100.975 284.434 100.037 285.713 98.6903C286.991 97.3438 287.842 95.6487 288.158 93.8191C288.474 91.9895 288.241 90.1072 287.488 88.4099C286.736 86.7126 285.497 85.2762 283.929 84.282C282.361 83.2879 280.533 82.7805 278.677 82.8239C277.439 82.8528 276.219 83.1261 275.087 83.628C273.955 84.13 272.934 84.8507 272.081 85.7487C271.228 86.6468 270.562 87.7044 270.119 88.861C269.677 90.0175 269.467 91.2501 269.502 92.4879Z" fill="#455A64"/>
<path d="M262.816 99.313C262.816 99.313 264.513 106.428 265.147 107.588C265.568 108.302 266.247 108.828 267.044 109.056L266.82 104.024L262.816 99.313Z" fill="#455A64"/>
<path d="M264.483 89.0148C263.952 88.9684 263.417 89.0433 262.919 89.2337C262.421 89.4241 261.973 89.7252 261.608 90.1141C260.4 91.4248 261.179 95.4172 262.816 99.313L265.691 99.5727L264.483 89.0148Z" fill="#455A64"/>
<path d="M266.555 99.5546C265.987 99.9109 265.142 98.8238 264.411 98.099C263.68 97.3742 261.348 96.4198 260.249 98.8781C259.15 101.336 261.409 104.61 263.269 105.142C266.434 106.054 266.857 104.024 266.857 104.024L267.394 116.853C269.635 119.589 274.908 119.74 277.524 119.209C279.613 118.786 279.644 117.306 277.584 115.035L277.487 111.357C278.888 111.548 280.306 111.589 281.715 111.478C284.017 111.061 285.436 109.207 286.07 106.688C287.037 102.84 287.278 98.5459 286.306 91.5154C285.098 82.8721 274.981 83.0594 269.623 86.5807C264.266 90.102 266.555 99.5546 266.555 99.5546Z" fill="#FFBDA7"/>
<path d="M266.579 100.521C266.289 100.521 265.142 98.7092 264.411 98.1052C263.402 97.2294 264.483 89.0452 264.483 89.0452C264.128 88.3319 263.995 87.5281 264.103 86.7384C264.211 85.9488 264.554 85.2098 265.087 84.6179C266.41 83.0897 268.258 81.2173 274.443 81.7972C278.852 82.2139 283.672 83.4703 287.49 81.4771C287.878 82.7295 287.884 84.0695 287.507 85.3253C287.129 86.5812 286.385 87.6956 285.37 88.5257C285.37 88.5257 283.986 89.4619 280.32 89.9935C276.654 90.525 270.904 90.1324 270.119 90.0478C269.049 89.927 268.844 90.9659 268.337 93.8047C267.866 96.269 267.552 100.479 266.579 100.521Z" fill="#455A64"/>
<path d="M264.507 89.6551L260.98 87.8431C261.085 87.6058 261.238 87.3925 261.429 87.216C261.619 87.0396 261.843 86.9038 262.088 86.8168C262.333 86.7297 262.592 86.6934 262.852 86.7099C263.111 86.7265 263.364 86.7955 263.595 86.9129C264.073 87.1623 264.436 87.5878 264.606 88.0995C264.776 88.6112 264.741 89.169 264.507 89.6551Z" fill="#455A64"/>
<path d="M277.463 111.357C277.463 111.357 272.281 110.445 270.457 109.545C269.382 109.016 268.493 108.174 267.908 107.129C268.205 108.177 268.711 109.155 269.394 110.004C270.753 111.659 277.499 112.843 277.499 112.843L277.463 111.357Z" fill="#F0997A"/>
<path d="M275.729 98.2923C275.71 98.4936 275.633 98.6849 275.506 98.8424C275.379 98.9998 275.209 99.1166 275.016 99.1782C274.823 99.2398 274.617 99.2435 274.422 99.1889C274.227 99.1342 274.053 99.0236 273.921 98.8707C273.788 98.7179 273.704 98.5295 273.677 98.3291C273.651 98.1286 273.684 97.9247 273.772 97.7429C273.861 97.561 274.001 97.4091 274.175 97.306C274.349 97.2029 274.549 97.1531 274.751 97.1628C275.031 97.1829 275.291 97.3132 275.474 97.525C275.658 97.7368 275.749 98.0128 275.729 98.2923Z" fill="#263238"/>
<path d="M275.059 94.4025L272.788 95.5078C272.645 95.1969 272.628 94.8426 272.741 94.5193C272.853 94.196 273.087 93.929 273.392 93.7744C273.542 93.6987 273.705 93.6549 273.873 93.6458C274.04 93.6367 274.207 93.6626 274.364 93.7216C274.521 93.7807 274.664 93.8717 274.783 93.989C274.903 94.1062 274.997 94.247 275.059 94.4025Z" fill="#263238"/>
<path d="M276.321 105.25L279.547 106.132C279.496 106.345 279.403 106.546 279.274 106.723C279.144 106.9 278.98 107.049 278.793 107.161C278.605 107.274 278.396 107.348 278.179 107.378C277.962 107.409 277.741 107.396 277.529 107.34C277.099 107.212 276.734 106.924 276.51 106.536C276.285 106.147 276.218 105.687 276.321 105.25Z" fill="#F0997A"/>
<path d="M285.768 95.3632L283.352 94.5357C283.394 94.3735 283.469 94.2218 283.572 94.0901C283.675 93.9583 283.805 93.8496 283.953 93.7706C284.1 93.6917 284.263 93.6443 284.43 93.6315C284.597 93.6187 284.764 93.6407 284.922 93.6962C285.254 93.808 285.528 94.0453 285.686 94.357C285.844 94.6687 285.873 95.03 285.768 95.3632Z" fill="#263238"/>
<path d="M284.56 98.0023C284.575 98.1395 284.563 98.2784 284.525 98.4109C284.486 98.5435 284.422 98.6671 284.335 98.7748C284.249 98.8825 284.142 98.9721 284.021 99.0386C283.9 99.105 283.767 99.1469 283.63 99.162C283.351 99.1803 283.076 99.0878 282.864 98.9047C282.653 98.7215 282.522 98.4624 282.501 98.1835C282.489 98.0482 282.504 97.912 282.544 97.7825C282.585 97.653 282.651 97.5328 282.738 97.4288C282.825 97.3247 282.932 97.2389 283.053 97.1761C283.173 97.1134 283.305 97.075 283.44 97.0631C283.575 97.0512 283.711 97.066 283.841 97.1068C283.97 97.1475 284.09 97.2134 284.195 97.3006C284.299 97.3878 284.384 97.4947 284.447 97.6151C284.51 97.7355 284.548 97.867 284.56 98.0023Z" fill="#263238"/>
<path d="M278.985 97.4165L279.36 103.632L282.597 102.508L278.985 97.4165Z" fill="#F0997A"/>
<path d="M277.5 119.209C274.631 118.605 267.836 115.953 267.195 112.637L267.111 110.825C265.993 110.825 265.486 112.063 264.936 113.845C264.707 118.532 269.654 122.815 274.6 123.968C274.766 122.881 275.137 121.836 275.694 120.888C276.115 120.161 276.744 119.577 277.5 119.209Z" fill="#23202A"/>
<path d="M277.475 111.816C278.232 112.048 278.921 112.463 279.48 113.024C283.195 116.871 281.075 121.915 281.075 121.915C280.883 121.076 280.405 120.331 279.722 119.807C279.069 119.363 278.287 119.151 277.499 119.203C278.411 118.23 278.055 116.533 277.56 115.029L277.475 111.816Z" fill="#23202A"/>
<path d="M288.275 95.1938L287.773 95.1455C286.096 94.9415 284.397 94.9945 282.736 95.3025C281.117 95.7435 280.531 96.2327 279.643 96.2448C278.755 96.2569 278.109 95.7555 276.418 95.3207C274.643 95.0228 272.835 94.9801 271.048 95.1938L270.505 95.2542L262.816 97.3199C263.477 97.4242 264.084 97.745 264.543 98.2319L270.148 96.7159C270.227 96.8246 270.306 96.9213 270.36 96.9877C270.437 97.1012 270.493 97.2282 270.523 97.3622C270.63 98.2315 270.818 99.0889 271.085 99.9231C271.243 100.267 271.464 100.579 271.737 100.841C271.842 100.942 271.955 101.033 272.075 101.113L272.275 101.234C272.467 101.338 272.669 101.423 272.879 101.488L272.981 101.518L273.138 101.56L273.307 101.596C273.483 101.631 273.66 101.655 273.839 101.669H274.062H274.346C276.557 101.669 277.511 100.726 278.097 99.754C278.683 98.7816 278.592 97.4105 279.607 97.4105H279.704H279.794C280.543 97.5615 280.398 98.8239 280.845 99.7238C281.014 100.103 281.249 100.449 281.54 100.745L281.703 100.896L281.794 100.968L281.89 101.041L281.975 101.095L282.065 101.155L282.138 101.198H282.192C282.466 101.343 282.759 101.449 283.062 101.512H283.141C283.493 101.581 283.851 101.613 284.21 101.608C286.275 101.608 287.03 100.503 287.393 99.7963C287.71 98.9637 287.952 98.1047 288.117 97.2293C288.156 97.1009 288.227 96.9844 288.323 96.8911C288.581 96.6344 288.755 96.3061 288.824 95.9488C288.829 95.7798 288.778 95.6138 288.679 95.4771C288.579 95.3404 288.437 95.2407 288.275 95.1938ZM277.547 98.8541C277.399 99.3742 277.108 99.8426 276.708 100.207C276.033 100.768 275.167 101.047 274.292 100.986C273.862 101.017 273.43 100.945 273.034 100.774C272.638 100.604 272.288 100.341 272.015 100.008L271.942 99.9111C271.92 99.8802 271.9 99.848 271.882 99.8144C271.86 99.787 271.841 99.7565 271.828 99.7238L271.779 99.6453L271.749 99.5789C271.749 99.5789 271.749 99.5366 271.719 99.5185C271.689 99.5003 271.689 99.4581 271.677 99.4218C271.634 99.3252 271.604 99.2285 271.574 99.1379C271.574 99.0775 271.538 99.0232 271.526 98.9688C271.514 98.9145 271.477 98.7755 271.459 98.691C271.441 98.6064 271.459 98.6608 271.459 98.6427V98.5883C271.314 97.9118 271.163 96.583 271.556 96.281C271.948 95.979 272.963 95.677 274.576 95.7978H274.751C275.001 95.8208 275.249 95.8592 275.494 95.9126L275.784 95.973C276.029 96.031 276.271 96.1015 276.509 96.1844L276.726 96.2689L276.968 96.3716H277.016L277.101 96.4199C277.283 96.5016 277.445 96.621 277.578 96.7703C277.916 97.2172 277.759 98.0991 277.547 98.8541ZM287.145 98.5279C287.059 98.9929 286.866 99.4317 286.582 99.8099C286.298 100.188 285.931 100.496 285.508 100.708C285.125 100.868 284.715 100.95 284.3 100.95C283.845 101.001 283.384 100.935 282.962 100.758C282.539 100.582 282.168 100.301 281.884 99.9413C281.868 99.9226 281.854 99.9024 281.842 99.8809C281.824 99.8581 281.808 99.8339 281.794 99.8084V99.7721L281.733 99.6634L281.673 99.5366C281.672 99.5165 281.672 99.4963 281.673 99.4762V99.4218C281.669 99.408 281.669 99.3934 281.673 99.3795C281.609 99.2179 281.562 99.0498 281.534 98.8782C281.389 98.1232 281.335 97.2414 281.661 96.8246C281.987 96.4079 283.213 95.9488 284.385 95.8159C284.657 95.8159 284.91 95.7676 285.14 95.7616H285.81H286.01C286.137 95.7725 286.264 95.7906 286.39 95.8159H286.475H286.535H286.626L286.734 95.8461L286.909 95.9126C287.053 95.966 287.188 96.0414 287.308 96.1361C287.58 96.5226 287.326 97.8575 287.145 98.5279Z" fill="#37474F"/>
<path d="M267.207 112.837C267.207 112.837 269.394 123.812 270.336 131.235C271.278 138.658 271.103 159.623 270.596 172.911C270.233 182.575 268.784 200.501 268.784 200.501C268.784 200.501 266.368 200.985 260.623 200.03C255.707 199.221 253.218 197.765 252.167 197.131C252.167 197.131 253.08 169.909 253.774 160.402C254.408 151.638 254.378 146.818 254.378 146.818L252.312 126.807C252.312 126.807 252.469 114.232 256.371 113.701C260.4 113.151 267.207 112.837 267.207 112.837Z" fill="#FAFAFA"/>
<path d="M263.475 130.836C263.475 130.377 263.426 129.386 263.348 128.13C262.961 121.999 263.523 113.126 265.589 112.686L265.776 113.531C264.26 113.857 264.024 125.098 264.211 128.075C264.296 129.356 264.356 130.365 264.338 130.872L263.475 130.836Z" fill="#23202A"/>
<path d="M255.629 178.177C254.632 176.48 254.578 175.212 253.074 173.696C252.43 173.073 251.961 172.292 251.715 171.431C251.256 170.072 251.28 168.652 251.171 167.167L242.443 167.571C242.517 170.818 242.876 174.052 243.518 177.235C245.173 184.525 246.774 187.594 249.909 188.3C254.91 189.43 256.142 187.274 254.384 183.668C253.63 182.164 253.089 180.562 252.778 178.908C253.319 179.546 253.948 180.106 254.644 180.569C254.999 180.834 255.442 180.955 255.882 180.907C256.323 180.858 256.728 180.645 257.018 180.31C257.235 179.989 256.414 179.512 255.629 178.177Z" fill="#FFBDA7"/>
<path d="M257.984 113.7C257.984 113.7 253.339 113.634 250.736 115.977C248.133 118.321 246.75 124.591 245.065 130.878C243.379 137.166 241.881 143.266 241.441 147.639C241.066 151.263 242.286 170.507 242.286 170.507C242.286 170.507 247.595 171.624 251.678 169.383L251.854 148.032L258.588 126.626C259.818 122.369 259.606 117.824 257.984 113.7Z" fill="#F0F0F0"/>
<path d="M267.044 109.261C266.44 109.134 265.878 109.454 265.383 110.3C264.888 111.146 263.795 112.921 263.795 112.921C263.795 112.921 263.233 118.816 263.795 120.284C264.284 121.553 267.527 127.532 267.527 127.532C267.527 127.532 267.316 133.355 267.262 135.094C267.207 136.834 270.578 144.094 270.958 147.464C270.958 147.464 271.127 133.759 270.626 129.948C269.756 123.304 268.669 115.392 267.201 112.674L267.044 109.261Z" fill="#EBEBEB"/>
<path d="M262.212 151.173H262.139V150.569C262.856 150.513 263.542 150.258 264.121 149.832C263.5 149.419 262.944 148.916 262.472 148.34C261.499 147.078 259.367 138.072 260.019 135.976C260.575 134.219 262.302 130.341 263.837 130.274H263.879C265.413 130.274 267.436 133.941 268.107 135.632C268.94 137.667 267.581 146.818 266.718 148.159C266.297 148.774 265.786 149.321 265.202 149.784C265.812 150.163 266.518 150.36 267.237 150.351L267.316 150.955C266.376 150.969 265.454 150.7 264.67 150.182C263.959 150.735 263.108 151.078 262.212 151.173ZM263.909 130.872C263.003 130.909 261.384 133.79 260.641 136.145C260.037 138.072 262.091 146.788 262.991 147.953C263.477 148.537 264.052 149.04 264.694 149.445C265.304 148.99 265.836 148.439 266.271 147.815C267.068 146.576 268.373 137.722 267.606 135.849C266.675 133.56 264.839 130.872 263.927 130.872H263.909Z" fill="#455A64"/>
<path d="M268.252 150.611C268.258 150.727 268.24 150.843 268.201 150.953C268.161 151.062 268.101 151.163 268.022 151.249C267.943 151.335 267.848 151.404 267.743 151.453C267.637 151.503 267.523 151.53 267.407 151.535C267.29 151.54 267.173 151.522 267.064 151.482C266.954 151.442 266.853 151.381 266.767 151.303C266.681 151.224 266.611 151.129 266.562 151.023C266.513 150.917 266.485 150.803 266.479 150.686C266.474 150.57 266.492 150.453 266.532 150.343C266.572 150.234 266.633 150.133 266.712 150.047C266.79 149.961 266.885 149.891 266.991 149.842C267.097 149.792 267.211 149.764 267.328 149.759C267.445 149.754 267.561 149.772 267.671 149.813C267.78 149.853 267.881 149.914 267.967 149.993C268.052 150.072 268.122 150.168 268.171 150.274C268.22 150.38 268.247 150.494 268.252 150.611Z" fill="#263238"/>
<path d="M263.058 150.828C263.063 150.945 263.045 151.062 263.004 151.171C262.964 151.281 262.903 151.381 262.824 151.467C262.745 151.553 262.649 151.622 262.543 151.671C262.437 151.72 262.323 151.748 262.206 151.753C262.09 151.758 261.974 151.741 261.864 151.701C261.755 151.662 261.654 151.601 261.568 151.522C261.482 151.444 261.413 151.349 261.363 151.243C261.314 151.138 261.287 151.023 261.282 150.907C261.277 150.79 261.295 150.674 261.335 150.564C261.375 150.455 261.436 150.354 261.514 150.268C261.593 150.182 261.688 150.112 261.794 150.062C261.9 150.013 262.014 149.985 262.131 149.98C262.247 149.975 262.364 149.993 262.474 150.032C262.583 150.072 262.684 150.133 262.77 150.212C262.856 150.291 262.926 150.386 262.975 150.492C263.025 150.597 263.053 150.712 263.058 150.828Z" fill="#263238"/>
<path d="M268.319 139.6L267.811 139.564C267.785 139.562 267.759 139.555 267.736 139.544C267.712 139.532 267.691 139.516 267.674 139.497C267.656 139.477 267.643 139.454 267.634 139.429C267.626 139.405 267.622 139.378 267.624 139.352C267.727 137.661 267.672 136.417 267.467 135.922C266.573 133.735 264.719 130.999 263.915 131.035C263.112 131.071 261.499 133.952 260.787 136.205C260.635 137.348 260.68 138.508 260.92 139.636C260.928 139.688 260.916 139.742 260.885 139.785C260.855 139.828 260.808 139.857 260.756 139.866L260.249 139.944C260.223 139.948 260.196 139.946 260.171 139.939C260.145 139.932 260.121 139.92 260.101 139.903C260.08 139.887 260.063 139.867 260.05 139.844C260.037 139.821 260.029 139.795 260.026 139.769C259.748 137.891 259.712 136.598 259.923 135.934C260.297 134.726 262.079 130.202 263.873 130.123C265.667 130.045 267.829 134.405 268.306 135.559C268.572 136.205 268.651 137.492 268.53 139.388C268.532 139.417 268.527 139.445 268.517 139.471C268.507 139.498 268.492 139.522 268.472 139.542C268.452 139.562 268.428 139.577 268.401 139.587C268.375 139.597 268.347 139.602 268.319 139.6Z" fill="#23202A"/>
<path d="M277.463 111.357C278.26 111.429 278.955 112.607 280.791 113.169C284.222 114.184 287.339 115.742 288.299 117.85C289.893 121.341 290.153 122.03 290.715 137.577C291.277 153.124 291.476 197.373 291.476 197.373C289.829 198.117 288.034 198.478 286.227 198.43C286.227 198.43 286.366 149.566 286.04 138.579C285.714 127.592 284.047 122.229 281.667 118.605C280.997 115.585 278.858 113.568 277.439 112.094L277.463 111.357Z" fill="#FAFAFA"/>
<path d="M281.679 118.617C284.059 122.241 285.72 127.599 286.052 138.591C286.088 139.896 286.124 141.732 286.155 143.937C286.155 143.937 288.112 133.983 287.767 131.857C287.423 129.731 285.128 125.358 285.128 125.358C285.424 121.734 284.578 117.59 283.183 115.09C282.858 114.507 282.451 113.974 281.975 113.507C281.511 113.131 281.016 112.796 280.495 112.505C279.602 111.869 278.563 111.469 277.475 111.339V112.088C278.87 113.58 281.009 115.585 281.679 118.617Z" fill="#EBEBEB"/>
<path d="M209.809 113.628C214.369 113.555 216.822 115.603 220.168 120.876C223.025 125.358 229.638 136.091 231.499 139.322C233.601 142.946 233.915 144.456 232.248 147.174C230.683 149.771 215.849 166.901 215.849 166.901L212.026 160.112L221.557 144.178L210.383 127.671L209.809 113.628Z" fill="#B16668"/>
<path d="M209.513 113.404C212.811 113.229 214.865 113.912 216.852 115.82C218.839 117.729 229.077 134.919 229.077 134.919C229.077 134.919 227.603 138.44 218.966 143.043L210.51 131.567L209.513 113.404Z" fill="#23202A"/>
<path opacity="0.2" d="M209.513 113.404C212.811 113.229 214.865 113.912 216.852 115.82C218.839 117.729 229.077 134.919 229.077 134.919C229.077 134.919 227.603 138.44 218.966 143.043L210.51 131.567L209.513 113.404Z" fill="black"/>
<path d="M232.163 271.193C232.32 271.193 232.562 272.969 231.692 273.718C230.683 274.588 227.724 276.019 223.81 275.53C219.896 275.041 217.77 273.815 216.218 272.51C214.665 271.205 212.455 269.351 210.685 268.959C209.042 268.596 207.26 267.853 206.735 267.346C206.209 266.839 206.282 264.58 206.282 264.58L232.163 271.193Z" fill="#455A64"/>
<path d="M207.852 255.864C207.705 255.863 207.562 255.915 207.45 256.012C207.339 256.109 207.267 256.243 207.248 256.389C207.127 256.993 207 258.805 206.741 259.844C206.333 261.644 206.203 263.495 206.354 265.335C206.572 266.488 209.247 267.291 210.963 267.944C212.975 268.828 214.844 270.009 216.507 271.447C218.319 272.963 222.215 274.539 224.764 274.521C227.784 274.521 231.172 273.525 231.952 272.105C232.918 270.372 232.163 269.369 227.687 267.273C226.842 266.881 223.87 265.117 222.855 264.483C220.113 262.755 217.419 260.352 216.133 257.295C216.032 256.921 215.806 256.593 215.493 256.365C215.218 256.248 214.914 256.221 214.623 256.287C213.878 256.392 213.153 256.61 212.473 256.933C211.869 257.223 211.017 257.537 211.029 258.322C211.046 258.589 211.103 258.851 211.198 259.101C211.253 259.258 211.295 259.47 211.156 259.56C211.017 259.651 210.854 259.56 210.739 259.446C210.299 258.995 209.895 258.51 209.531 257.996C209.324 257.73 209.087 257.489 208.824 257.277C208.56 257.126 208.304 256.961 208.057 256.782C207.786 256.558 207.852 256.22 207.852 255.864Z" fill="#23202A"/>
<path opacity="0.9" d="M207.852 255.864C207.705 255.863 207.562 255.915 207.45 256.012C207.339 256.109 207.267 256.243 207.248 256.389C207.127 256.993 207 258.805 206.741 259.844C206.333 261.644 206.203 263.495 206.354 265.335C206.572 266.488 209.247 267.291 210.963 267.944C212.975 268.828 214.844 270.009 216.507 271.447C218.319 272.963 222.215 274.539 224.764 274.521C227.784 274.521 231.172 273.525 231.952 272.105C232.918 270.372 232.163 269.369 227.687 267.273C226.842 266.881 223.87 265.117 222.855 264.483C220.113 262.755 217.419 260.352 216.133 257.295C216.032 256.921 215.806 256.593 215.493 256.365C215.218 256.248 214.914 256.221 214.623 256.287C213.878 256.392 213.153 256.61 212.473 256.933C211.869 257.223 211.017 257.537 211.029 258.322C211.046 258.589 211.103 258.851 211.198 259.101C211.253 259.258 211.295 259.47 211.156 259.56C211.017 259.651 210.854 259.56 210.739 259.446C210.299 258.995 209.895 258.51 209.531 257.996C209.324 257.73 209.087 257.489 208.824 257.277C208.56 257.126 208.304 256.961 208.057 256.782C207.786 256.558 207.852 256.22 207.852 255.864Z" fill="white"/>
<path d="M216.507 271.447C215.728 270.807 214.901 270.185 214.091 269.635C214.091 269.635 219.352 272.836 221.478 271.381C222.849 270.451 222.197 269.309 222.161 268.965C222.125 268.621 225.507 267.05 226.836 266.893C227.21 267.098 227.518 267.262 227.712 267.352C232.187 269.424 232.942 270.426 231.976 272.184C231.197 273.579 228.738 274.673 224.843 274.673C222.263 274.618 218.343 272.963 216.507 271.447Z" fill="#23202A"/>
<path opacity="0.8" d="M216.507 271.447C215.728 270.807 214.901 270.185 214.091 269.635C214.091 269.635 219.352 272.836 221.478 271.381C222.849 270.451 222.197 269.309 222.161 268.965C222.125 268.621 225.507 267.05 226.836 266.893C227.21 267.098 227.518 267.262 227.712 267.352C232.187 269.424 232.942 270.426 231.976 272.184C231.197 273.579 228.738 274.673 224.843 274.673C222.263 274.618 218.343 272.963 216.507 271.447Z" fill="white"/>
<path d="M221.744 267.877C224.528 268.989 223.339 269.508 222.565 269.623C221.792 269.738 217.129 266.996 214.248 264.737C211.271 262.381 209.416 259.808 208.287 258.944C207.876 258.618 207.429 258.225 207.037 257.851C207.109 257.247 207.169 256.685 207.224 256.389C207.243 256.243 207.315 256.109 207.426 256.012C207.538 255.915 207.68 255.863 207.828 255.864C207.828 256.22 207.774 256.558 208.045 256.83C208.292 257.009 208.548 257.175 208.812 257.325C209.075 257.537 209.312 257.778 209.519 258.044C209.883 258.558 210.287 259.043 210.727 259.494C213.167 262.574 218.99 266.766 221.744 267.877Z" fill="#23202A"/>
<path d="M222.391 269.212C222.339 269.213 222.287 269.199 222.243 269.171C222.199 269.143 222.164 269.104 222.141 269.057C222.119 269.01 222.111 268.957 222.118 268.905C222.124 268.854 222.146 268.805 222.179 268.765C222.834 268.085 223.628 267.553 224.507 267.206C225.385 266.859 226.328 266.705 227.271 266.754C227.338 266.768 227.398 266.807 227.438 266.863C227.479 266.919 227.497 266.988 227.49 267.056C227.482 267.125 227.449 267.188 227.398 267.234C227.346 267.279 227.279 267.304 227.211 267.304C226.359 267.269 225.509 267.412 224.715 267.724C223.922 268.036 223.202 268.51 222.602 269.116C222.576 269.146 222.543 269.17 222.507 269.187C222.47 269.204 222.431 269.212 222.391 269.212Z" fill="#FAFAFA"/>
<path d="M219.962 267.72C219.898 267.718 219.836 267.695 219.787 267.654C219.732 267.607 219.697 267.54 219.69 267.468C219.683 267.396 219.705 267.324 219.751 267.267C220.408 266.591 221.203 266.062 222.081 265.716C222.959 265.37 223.9 265.215 224.843 265.262C224.879 265.265 224.914 265.275 224.946 265.292C224.979 265.309 225.007 265.332 225.03 265.361C225.053 265.389 225.071 265.421 225.081 265.456C225.091 265.491 225.094 265.528 225.09 265.564C225.086 265.6 225.076 265.634 225.058 265.666C225.041 265.698 225.018 265.725 224.99 265.748C224.962 265.77 224.929 265.787 224.895 265.797C224.86 265.807 224.824 265.81 224.788 265.806C223.935 265.772 223.085 265.915 222.291 266.227C221.496 266.539 220.775 267.012 220.174 267.618C220.149 267.65 220.117 267.676 220.08 267.694C220.043 267.711 220.003 267.72 219.962 267.72Z" fill="#FAFAFA"/>
<path d="M217.516 266.307C217.453 266.306 217.393 266.283 217.347 266.241C217.318 266.218 217.295 266.191 217.277 266.159C217.259 266.127 217.248 266.092 217.244 266.056C217.24 266.02 217.244 265.984 217.254 265.949C217.264 265.915 217.282 265.882 217.305 265.854C217.961 265.175 218.756 264.644 219.636 264.298C220.515 263.953 221.459 263.799 222.402 263.849C222.474 263.857 222.54 263.893 222.586 263.95C222.631 264.007 222.652 264.079 222.644 264.151C222.636 264.223 222.6 264.289 222.543 264.334C222.486 264.38 222.414 264.401 222.342 264.393C221.49 264.357 220.64 264.5 219.846 264.812C219.053 265.124 218.333 265.598 217.733 266.205C217.707 266.237 217.674 266.263 217.636 266.281C217.599 266.298 217.558 266.308 217.516 266.307Z" fill="#FAFAFA"/>
<path d="M215.287 264.688C215.224 264.689 215.162 264.667 215.112 264.628C215.057 264.581 215.022 264.514 215.015 264.442C215.009 264.37 215.03 264.298 215.076 264.241C215.733 263.564 216.527 263.034 217.405 262.687C218.283 262.34 219.225 262.184 220.168 262.23C220.207 262.23 220.245 262.237 220.281 262.253C220.317 262.268 220.349 262.291 220.376 262.32C220.402 262.349 220.422 262.383 220.434 262.42C220.447 262.457 220.451 262.496 220.447 262.535C220.444 262.574 220.432 262.612 220.412 262.646C220.393 262.679 220.366 262.709 220.335 262.732C220.303 262.755 220.267 262.771 220.229 262.779C220.191 262.788 220.152 262.788 220.113 262.78C219.26 262.743 218.409 262.886 217.615 263.198C216.82 263.51 216.099 263.985 215.499 264.592C215.473 264.623 215.441 264.648 215.405 264.665C215.368 264.682 215.328 264.69 215.287 264.688Z" fill="#FAFAFA"/>
<path d="M213.083 263.076C213.021 263.075 212.962 263.054 212.914 263.015C212.885 262.993 212.861 262.965 212.844 262.933C212.826 262.902 212.815 262.867 212.811 262.831C212.807 262.795 212.811 262.758 212.821 262.724C212.831 262.689 212.848 262.657 212.871 262.629C213.947 261.264 216.387 260.37 218.434 260.593C218.47 260.597 218.505 260.608 218.536 260.626C218.567 260.643 218.595 260.666 218.618 260.694C218.64 260.722 218.657 260.754 218.667 260.789C218.677 260.823 218.68 260.86 218.676 260.895C218.672 260.931 218.661 260.966 218.644 260.997C218.626 261.028 218.603 261.056 218.575 261.079C218.547 261.101 218.515 261.118 218.48 261.128C218.446 261.138 218.41 261.141 218.374 261.137C216.532 260.938 214.261 261.741 213.3 262.949C213.277 262.986 213.245 263.016 213.207 263.038C213.169 263.06 213.127 263.073 213.083 263.076Z" fill="#FAFAFA"/>
<path d="M189.859 278.091C189.974 280.749 189.738 282.543 188.959 284.192C188.18 285.841 186.452 286.499 184.616 286.227C182.78 285.955 180.358 284.971 179.615 282.742C178.872 280.513 178.818 278.937 178.981 276.442L189.859 278.091Z" fill="#455A64"/>
<path d="M180.805 259.657C180.068 259.79 180.201 263.366 180.14 266.96C180.068 270.819 179.089 272.51 178.993 275.675C178.89 279.299 179.234 280.864 180.702 282.923C182.17 284.983 186.809 286.626 188.681 283.316C190.209 280.616 189.998 277.813 189.478 274.256C188.941 270.59 188.536 268.011 188.403 265.196C188.276 262.508 188.204 259.899 187.533 259.663C187.533 260.062 187.533 260.563 187.533 260.956C187.533 261.258 187.594 262.713 187.183 262.768C187.116 262.436 187.08 262.098 187.074 261.759C187.088 261.453 186.984 261.152 186.784 260.92C186.538 260.733 186.236 260.634 185.927 260.636C185.186 260.556 184.443 260.516 183.698 260.515C183.324 260.515 182.955 260.515 182.587 260.581C182.268 260.609 181.956 260.686 181.663 260.811C181.577 260.847 181.5 260.901 181.437 260.97C181.375 261.039 181.328 261.121 181.3 261.21C181.276 261.345 181.276 261.484 181.3 261.62C181.33 261.867 181.33 262.116 181.3 262.363C181.3 262.472 181.228 262.611 181.119 262.593C181.01 262.575 180.986 262.478 180.974 262.387C180.932 261.958 180.974 261.638 180.92 261.137C180.92 260.908 180.92 260.587 180.92 260.352C180.92 260.116 180.811 259.887 180.805 259.657Z" fill="#23202A"/>
<path opacity="0.9" d="M180.805 259.657C180.068 259.79 180.201 263.366 180.14 266.96C180.068 270.819 179.089 272.51 178.993 275.675C178.89 279.299 179.234 280.864 180.702 282.923C182.17 284.983 186.809 286.626 188.681 283.316C190.209 280.616 189.998 277.813 189.478 274.256C188.941 270.59 188.536 268.011 188.403 265.196C188.276 262.508 188.204 259.899 187.533 259.663C187.533 260.062 187.533 260.563 187.533 260.956C187.533 261.258 187.594 262.713 187.183 262.768C187.116 262.436 187.08 262.098 187.074 261.759C187.088 261.453 186.984 261.152 186.784 260.92C186.538 260.733 186.236 260.634 185.927 260.636C185.186 260.556 184.443 260.516 183.698 260.515C183.324 260.515 182.955 260.515 182.587 260.581C182.268 260.609 181.956 260.686 181.663 260.811C181.577 260.847 181.5 260.901 181.437 260.97C181.375 261.039 181.328 261.121 181.3 261.21C181.276 261.345 181.276 261.484 181.3 261.62C181.33 261.867 181.33 262.116 181.3 262.363C181.3 262.472 181.228 262.611 181.119 262.593C181.01 262.575 180.986 262.478 180.974 262.387C180.932 261.958 180.974 261.638 180.92 261.137C180.92 260.908 180.92 260.587 180.92 260.352C180.92 260.116 180.811 259.887 180.805 259.657Z" fill="white"/>
<path d="M179.059 274.642C179.059 275.162 178.945 278.617 179.935 279.136C180.926 279.656 181.288 276.968 181.288 276.968C181.288 276.968 183.577 276.007 187.159 277.161C187.038 277.735 187.763 279.505 188.651 279.027C189.539 278.55 189.521 274.6 189.521 274.552C190.01 277.952 190.161 280.67 188.681 283.292C186.809 286.602 182.17 284.928 180.702 282.899C179.234 280.87 178.89 279.275 178.993 275.651C179.005 275.313 179.029 274.969 179.059 274.642Z" fill="#23202A"/>
<path opacity="0.8" d="M179.059 274.642C179.059 275.162 178.945 278.617 179.935 279.136C180.926 279.656 181.288 276.968 181.288 276.968C181.288 276.968 183.577 276.007 187.159 277.161C187.038 277.735 187.763 279.505 188.651 279.027C189.539 278.55 189.521 274.6 189.521 274.552C190.01 277.952 190.161 280.67 188.681 283.292C186.809 286.602 182.17 284.928 180.702 282.899C179.234 280.87 178.89 279.275 178.993 275.651C179.005 275.313 179.029 274.969 179.059 274.642Z" fill="white"/>
<path d="M181.584 277.167C181.699 278.46 180.376 278.152 180.141 276.334C179.905 274.516 180.467 270.094 180.141 266.96C180.207 263.366 180.068 259.79 180.805 259.657C180.805 259.706 180.805 259.748 180.805 259.79L180.89 261.602C180.89 261.868 180.89 262.097 180.926 262.375C181.173 265.015 181.312 270.137 181.33 272.565C181.33 274.102 181.415 275.639 181.584 277.167Z" fill="#23202A"/>
<path d="M186.754 277.167C186.921 275.641 187.004 274.106 187.002 272.571C187.002 270.155 187.159 265.093 187.401 262.448C187.492 261.954 187.528 261.451 187.509 260.95C187.509 260.587 187.509 260.128 187.509 259.742C187.512 259.716 187.512 259.689 187.509 259.663C187.999 259.838 188.168 261.264 188.276 263.058C188.276 264.096 188.242 265.397 188.174 266.959C187.847 270.094 188.415 274.546 188.174 276.358C187.932 278.17 186.64 278.46 186.754 277.167Z" fill="#23202A"/>
<path d="M187.238 277.258H187.135C185.275 276.612 183.251 276.612 181.391 277.258C181.356 277.277 181.318 277.288 181.278 277.291C181.239 277.294 181.199 277.289 181.162 277.276C181.125 277.262 181.091 277.241 181.063 277.213C181.034 277.185 181.012 277.152 180.998 277.115C180.984 277.078 180.977 277.038 180.979 276.999C180.982 276.959 180.992 276.921 181.011 276.886C181.029 276.851 181.055 276.82 181.086 276.795C181.117 276.771 181.153 276.754 181.192 276.744C183.168 276.028 185.331 276.015 187.316 276.708C187.35 276.721 187.381 276.74 187.408 276.765C187.434 276.79 187.455 276.82 187.47 276.853C187.485 276.886 187.492 276.922 187.493 276.958C187.494 276.995 187.487 277.031 187.473 277.064C187.456 277.116 187.425 277.161 187.384 277.195C187.342 277.23 187.291 277.251 187.238 277.258Z" fill="#FAFAFA"/>
<path d="M187.576 274.401C187.544 274.407 187.511 274.407 187.479 274.401C185.385 273.748 183.141 273.748 181.047 274.401C181.011 274.419 180.972 274.43 180.933 274.432C180.893 274.434 180.853 274.427 180.816 274.412C180.779 274.398 180.746 274.375 180.718 274.346C180.691 274.318 180.67 274.283 180.657 274.246C180.644 274.208 180.639 274.168 180.642 274.128C180.646 274.089 180.658 274.05 180.678 274.016C180.698 273.981 180.725 273.952 180.757 273.928C180.789 273.905 180.826 273.889 180.865 273.882C183.078 273.179 185.454 273.179 187.666 273.882C187.735 273.906 187.791 273.957 187.822 274.022C187.854 274.088 187.859 274.163 187.835 274.232C187.813 274.282 187.777 274.325 187.731 274.355C187.685 274.385 187.631 274.401 187.576 274.401Z" fill="#FAFAFA"/>
<path d="M180.956 271.689C180.895 271.686 180.836 271.664 180.788 271.624C180.741 271.585 180.708 271.531 180.695 271.47C180.682 271.41 180.689 271.348 180.716 271.292C180.742 271.236 180.786 271.191 180.841 271.163C184.042 269.708 187.485 271.061 187.624 271.121C187.658 271.134 187.689 271.153 187.716 271.178C187.742 271.203 187.763 271.233 187.778 271.266C187.793 271.299 187.8 271.335 187.801 271.371C187.801 271.408 187.795 271.444 187.781 271.477C187.752 271.544 187.698 271.598 187.63 271.626C187.563 271.654 187.487 271.655 187.419 271.628C187.419 271.628 184.048 270.306 181.071 271.665C181.034 271.678 180.995 271.687 180.956 271.689Z" fill="#FAFAFA"/>
<path d="M180.895 269.158C180.843 269.159 180.792 269.145 180.748 269.117C180.704 269.089 180.669 269.048 180.648 269.001C180.631 268.968 180.622 268.933 180.619 268.897C180.617 268.861 180.622 268.824 180.633 268.79C180.645 268.756 180.664 268.724 180.688 268.697C180.712 268.67 180.742 268.648 180.775 268.632C181.859 268.138 183.034 267.877 184.225 267.864C185.416 267.852 186.596 268.089 187.69 268.56C187.757 268.591 187.808 268.648 187.833 268.717C187.858 268.786 187.854 268.862 187.823 268.928C187.791 268.994 187.734 269.043 187.665 269.067C187.596 269.091 187.521 269.087 187.455 269.055C186.432 268.628 185.333 268.415 184.224 268.428C183.116 268.442 182.022 268.682 181.01 269.134C180.974 269.15 180.935 269.159 180.895 269.158Z" fill="#FAFAFA"/>
<path d="M180.835 266.319C180.784 266.318 180.733 266.303 180.689 266.276C180.645 266.248 180.61 266.209 180.588 266.162C180.556 266.096 180.552 266.021 180.576 265.952C180.599 265.883 180.649 265.826 180.715 265.793C184 264.175 187.54 265.721 187.685 265.793C187.718 265.808 187.747 265.829 187.772 265.855C187.797 265.881 187.816 265.912 187.829 265.946C187.842 265.98 187.848 266.015 187.847 266.051C187.846 266.087 187.838 266.123 187.824 266.156C187.809 266.189 187.788 266.218 187.762 266.243C187.736 266.268 187.705 266.287 187.671 266.3C187.638 266.313 187.602 266.319 187.566 266.318C187.53 266.317 187.494 266.309 187.461 266.295C187.425 266.295 184.006 264.785 180.956 266.295C180.918 266.312 180.877 266.32 180.835 266.319Z" fill="#EBEBEB"/>
<path d="M185.341 149.802C183.317 154.456 182.002 159.387 181.439 164.431C180.026 182.78 180.787 209.127 180.787 209.127C180.624 211.047 179.41 215.402 178.594 223.84C177.628 233.812 178.842 267.606 178.842 267.606C178.842 267.606 184.803 271.163 189.448 267.117C189.448 267.117 194.842 220.663 196.092 210.745C197.185 202.096 200.236 183.372 200.236 183.372L203.805 211.059C203.805 211.059 203.473 218.845 203.709 223.876C203.974 229.729 205.611 259.549 205.611 259.549C205.611 259.549 213.807 262.321 217.468 258.383C217.468 258.383 218.337 217.021 218.464 209.978C218.706 196.165 218.464 170.99 216.223 156.5L185.341 149.802Z" fill="#23202A"/>
<path opacity="0.2" d="M185.341 149.802C183.317 154.456 182.002 159.387 181.439 164.431C180.026 182.78 180.787 209.127 180.787 209.127C180.624 211.047 179.41 215.402 178.594 223.84C177.628 233.812 178.842 267.606 178.842 267.606C178.842 267.606 184.803 271.163 189.448 267.117C189.448 267.117 194.842 220.663 196.092 210.745C197.185 202.096 200.236 183.372 200.236 183.372L203.805 211.059C203.805 211.059 203.473 218.845 203.709 223.876C203.974 229.729 205.611 259.549 205.611 259.549C205.611 259.549 213.807 262.321 217.468 258.383C217.468 258.383 218.337 217.021 218.464 209.978C218.706 196.165 218.464 170.99 216.223 156.5L185.341 149.802Z" fill="black"/>
<path opacity="0.2" d="M200.236 183.366L201.516 174.56C201.516 174.56 208.958 173.563 212.328 170.398C211.362 171.909 210.076 173.188 208.56 174.145C207.045 175.102 205.337 175.714 203.558 175.937L202.247 183.903L203.377 207.737L200.236 183.366Z" fill="black"/>
<path d="M215.662 136.544C215.336 140.168 215.257 147.241 215.257 147.241C216.568 156.494 217.619 165.53 217.619 165.53C203.799 172.905 182.943 166.937 180.316 163.893C181.615 154.833 184.477 149.192 186.356 144.094L182.895 128.674C182.895 128.674 188.856 123.715 188.331 113.658L196.497 112.807L204.289 113.03L209.827 113.423C212.608 116.119 215.043 119.15 217.075 122.446C219.727 126.783 219.83 132.177 215.662 136.544Z" fill="#23202A"/>
<path opacity="0.1" d="M206.281 135.976C206.281 135.976 202.657 139.165 198.248 137.902C197.009 137.595 195.87 136.973 194.941 136.097C194.012 135.221 193.325 134.12 192.945 132.901C192.945 132.901 192.8 137.878 198.381 139.219C199.872 139.598 201.445 139.488 202.868 138.904C204.29 138.319 205.487 137.293 206.281 135.976Z" fill="black"/>
<path d="M194.776 107.914C194.776 106.531 192.831 103.65 191.055 100.419C189.279 97.1872 187.365 91.9928 191.055 87.1306C194.746 82.2684 203.093 79.3572 208.009 81.6946C212.926 84.0321 214.297 89.6191 214.297 89.6191L194.776 107.914Z" fill="#37474F"/>
<path d="M189.49 96.4078C189.493 96.3959 189.493 96.3835 189.49 96.3716C189.313 96.0794 189.033 95.864 188.705 95.7676C188.336 95.6306 187.945 95.567 187.552 95.5803C187.086 95.5803 186.199 95.9125 186.229 96.5165C186.259 97.2293 187.437 97.3078 187.944 97.2836C188.384 97.2766 188.821 97.2096 189.243 97.0843C189.25 97.927 189.13 98.7659 188.886 99.5728C188.737 99.9417 188.501 100.269 188.198 100.527C187.995 100.686 187.758 100.796 187.506 100.849C187.253 100.903 186.992 100.898 186.742 100.835C186.458 100.787 186.579 101.192 186.742 101.252C187.214 101.383 187.717 101.346 188.165 101.146C188.612 100.947 188.976 100.597 189.194 100.159C189.798 99.0896 189.575 97.8514 189.835 96.6917C189.895 96.5226 189.672 96.3837 189.49 96.4078ZM187.189 96.7823C187.099 96.7823 186.863 96.7219 186.809 96.6313C186.754 96.5407 186.839 96.5045 186.893 96.4441C187.11 96.2743 187.366 96.1629 187.638 96.1206C187.91 96.0783 188.188 96.1065 188.445 96.2025C188.592 96.2339 188.736 96.2784 188.874 96.3353C188.949 96.3686 189.022 96.407 189.092 96.4501L189.182 96.4984H189.237C188.86 96.6825 188.448 96.7795 188.029 96.7823C187.75 96.8214 187.468 96.8214 187.189 96.7823Z" fill="#23202A"/>
<path d="M210.969 85.2823C212.781 86.2246 215.39 88.2359 214.992 97.6281C214.677 104.967 211.972 108.349 210.764 108.989C209.556 109.63 207.961 109.787 205.509 109.527V113.701C205.509 113.701 208.335 121.202 206.62 125.013C204.35 123.786 202.226 122.305 200.29 120.598C196.135 116.606 194.89 114.733 194.89 114.733L194.739 103.626C194.739 103.626 193.109 104.834 190.56 102.853C188.452 101.222 187.6 98.3167 189.062 96.6436C189.445 96.2216 189.93 95.905 190.47 95.7241C191.011 95.5433 191.588 95.5042 192.148 95.6107C192.76 95.746 193.333 96.02 193.822 96.4117C194.311 96.8034 194.703 97.3022 194.969 97.8697C195.084 98.0932 195.259 98.3287 195.506 98.3529C195.601 98.3569 195.695 98.3388 195.781 98.3C195.867 98.2612 195.942 98.2028 196.002 98.1294C196.117 97.9807 196.202 97.8102 196.249 97.6281C196.775 96.0698 196.527 94.439 196.896 92.8505C197.183 91.6253 197.721 90.4734 198.478 89.4681C200.275 87.1611 202.889 85.6323 205.781 85.1978C207.502 84.9299 209.257 84.9585 210.969 85.2823Z" fill="#B16668"/>
<path d="M214.363 89.7941C211.905 88.2786 208.999 87.6598 206.137 88.0425C203.007 88.5448 200.017 89.6926 197.354 91.4128C197.653 90.7247 198.028 90.0724 198.472 89.4679C200.273 87.1606 202.891 85.6322 205.786 85.1976C207.504 84.9277 209.254 84.9542 210.963 85.2761C212.11 85.8439 213.548 86.8647 214.363 89.7941Z" fill="#B16668"/>
<path d="M203.727 95.5081C203.761 95.794 203.68 96.0818 203.503 96.3082C203.325 96.5347 203.064 96.6814 202.779 96.7162C202.642 96.7356 202.504 96.7271 202.371 96.6912C202.238 96.6554 202.114 96.5929 202.006 96.5076C201.898 96.4223 201.809 96.3159 201.743 96.195C201.678 96.0741 201.638 95.9411 201.625 95.8041C201.603 95.5242 201.69 95.2465 201.868 95.0292C202.045 94.8119 202.301 94.6718 202.579 94.6384C202.712 94.6197 202.847 94.6274 202.976 94.661C203.106 94.6947 203.227 94.7536 203.334 94.8344C203.441 94.9153 203.53 95.0164 203.598 95.1321C203.665 95.2477 203.709 95.3755 203.727 95.5081Z" fill="black"/>
<path d="M204.035 102.539L207.731 103.475C207.681 103.723 207.581 103.959 207.437 104.168C207.292 104.376 207.107 104.553 206.893 104.688C206.678 104.823 206.438 104.913 206.188 104.953C205.938 104.992 205.682 104.981 205.436 104.918C204.941 104.778 204.519 104.452 204.258 104.009C203.997 103.566 203.917 103.039 204.035 102.539Z" fill="#9A4A4D"/>
<path d="M213.222 93.0436L211.078 91.9806C211.14 91.8379 211.231 91.7094 211.344 91.6028C211.458 91.4963 211.592 91.414 211.738 91.3608C211.884 91.3077 212.04 91.2849 212.195 91.2939C212.351 91.3028 212.503 91.3433 212.642 91.4128C212.928 91.5596 213.148 91.8101 213.255 92.1132C213.363 92.4163 213.351 92.7491 213.222 93.0436Z" fill="black"/>
<path d="M202.815 92.2285L200.652 93.2432C200.58 93.1056 200.536 92.9546 200.523 92.7995C200.511 92.6444 200.53 92.4884 200.58 92.3409C200.629 92.1935 200.709 92.0577 200.812 91.9418C200.916 91.8259 201.043 91.7323 201.184 91.6668C201.476 91.5331 201.808 91.5168 202.111 91.6214C202.415 91.726 202.667 91.9433 202.815 92.2285Z" fill="black"/>
<path d="M212.267 95.0185C212.291 95.2979 212.206 95.5756 212.029 95.7931C211.852 96.0106 211.597 96.1508 211.319 96.1842C211.184 96.2028 211.046 96.1938 210.915 96.1579C210.783 96.122 210.66 96.0599 210.553 95.9754C210.445 95.8908 210.356 95.7854 210.291 95.6656C210.225 95.5459 210.185 95.4141 210.171 95.2782C210.146 94.9979 210.231 94.7187 210.408 94.4999C210.585 94.281 210.84 94.1399 211.12 94.1065C211.255 94.088 211.394 94.0971 211.526 94.1334C211.658 94.1696 211.781 94.2323 211.888 94.3175C211.995 94.4027 212.084 94.5088 212.15 94.6292C212.215 94.7497 212.255 94.8821 212.267 95.0185Z" fill="black"/>
<path d="M206.886 94.8071L207.411 100.817L210.522 99.6391L206.886 94.8071Z" fill="#9A4A4D"/>
<path d="M205.484 109.527C202.899 109.146 197.421 107.763 196.473 105.734C196.863 106.893 197.596 107.906 198.575 108.639C200.23 109.889 205.484 111.007 205.484 111.007V109.527Z" fill="#9A4A4D"/>
<path d="M214.363 89.7941C214.363 89.7941 213.023 87.656 206.886 88.2177C203.513 88.5767 200.26 89.6694 197.355 91.4189C195.542 92.5234 194.013 94.0377 192.891 95.8402C192.649 95.7348 192.396 95.6578 192.136 95.6106C191.574 95.5021 190.993 95.54 190.449 95.7209C189.905 95.9018 189.417 96.2195 189.032 96.6435L189.002 96.6797C187.884 94.6322 187.057 92.5544 187.522 89.5223C188.174 85.252 192.408 82.2743 197.113 80.3053C202.676 77.9376 208.776 78.5416 211.217 80.8489C213.657 83.1562 214.297 89.5767 214.363 89.7941Z" fill="#23202A"/>
<path d="M188.421 166.611C186.732 165.492 185.21 164.137 183.904 162.588C184.997 162.717 186.102 162.717 187.195 162.588C188.693 162.274 189.007 161.646 188.911 161.102C188.856 160.679 187.817 160.812 186.169 160.299C184.295 159.651 182.36 159.194 180.394 158.934C179.437 158.708 178.597 158.139 178.033 157.333C177.513 156.687 174.445 151.293 171.739 145.567L184.248 130.093C187.37 126.596 191.103 120.32 187.358 113.894C178.763 115.706 178.83 115.494 161.64 140.941C158.674 145.332 158.916 147.397 169.492 160.492C171.625 163.147 173.918 165.668 176.36 168.042C182.466 173.738 186.881 174.149 189.418 172.608C192.891 170.476 191.762 168.809 188.421 166.611Z" fill="#B16668"/>
<path d="M188.307 113.658C183.601 113.87 180.134 114.54 176.831 118.581C173.285 122.899 165.077 134.762 165.077 134.762C165.077 134.762 167.275 141.545 176.118 143.822L187.256 129.525C187.256 129.525 191.32 121.546 188.307 113.658Z" fill="#23202A"/>
<path opacity="0.2" d="M188.307 113.658C183.601 113.87 180.134 114.54 176.831 118.581C173.285 122.899 165.077 134.762 165.077 134.762C165.077 134.762 167.275 141.545 176.118 143.822L187.256 129.525C187.256 129.525 191.32 121.546 188.307 113.658Z" fill="black"/>
<path d="M119.257 118.883C115.029 118.998 113.821 120.695 111.297 124.319C108.772 127.943 100.092 141.726 100.092 141.726L87.8252 146.437L89.4681 153.601C89.4681 153.601 99.8448 151.535 105.172 150.448C105.865 150.352 106.527 150.097 107.105 149.703C107.684 149.309 108.163 148.787 108.506 148.177C109.189 147.144 116.008 136.417 116.008 136.417L119.257 118.883Z" fill="#E6E6E6"/>
<path d="M122.495 118.998C118.502 118.001 116.739 120.206 115.41 122.67C113.284 126.572 112.003 134.545 111.822 149.113C111.707 158.481 108.446 169.806 107.866 178.709C106.984 192.045 106.573 202.416 106.573 202.416C114.471 201.394 122.431 200.926 130.395 201.015L122.495 118.998Z" fill="#E0E0E0"/>
<path d="M145.507 254.855C145.507 254.855 147.923 238.457 146.902 228.847C146.045 220.603 144.831 217.154 144.661 215.275C144.661 215.275 143.272 195.947 143.653 179.525C143.828 171.751 143.435 163.18 137.903 154.018L137.703 153.655C137.214 156.675 132.581 158.608 128.45 159.091C124.472 159.534 119.519 158.747 113.592 156.73C112.269 164.503 110.771 179.319 109.237 195.464C108.494 203.358 108.633 210.002 108.488 215.076C108.313 221.962 108.941 248.936 108.941 248.936V250.078C108.899 251.334 108.597 252.21 107.733 254.203C106.631 256.774 105.094 259.136 103.191 261.185C102.587 261.789 98.5218 265.117 97.9722 265.842C96.2025 267.775 99.6936 269.007 102.327 268.747C105.105 268.47 109.43 267.539 110.705 265.915C111.556 264.821 112.293 260.914 113.163 259.802C116.104 256.063 117.312 254.451 117.391 253.231C117.5 251.014 116.787 250.114 116.539 248.858C116.847 246.255 122.138 232.628 122.489 225.024C122.658 221.4 121.885 214.973 121.885 214.973L126.457 188.524C127.49 195.953 129.477 212.684 130.159 218.03C131.144 225.368 134.768 237.78 137.051 247.529C137.909 251.195 138.331 252.826 138.543 255.218L138.597 256.076C138.597 257.157 138.706 268.711 139.056 271.176C139.781 276.291 144.317 275.802 145.181 271.713C145.912 268.234 145.501 257.38 145.525 256.045L145.507 254.855Z" fill="#FFA8A7"/>
<path d="M145.64 254.783C146.914 254.849 145.912 259.754 146.135 262.943C146.377 266.355 147.41 268.88 147.633 271.677C147.893 274.878 147.567 276.207 146.335 278.786C145.38 280.797 140.82 283.443 139.22 280.471C137.619 277.499 137.365 274.159 137.667 270.988C137.975 267.714 138.271 265.323 138.404 262.828C138.531 260.629 137.009 255.411 138.676 255.151L138.724 256.009C139.28 257.217 144.909 258.219 145.658 255.961L145.64 254.783Z" fill="#37474F"/>
<path d="M117.675 255.828C118.013 257.428 117.463 261.777 117.463 261.777C117.463 261.777 116.726 263.257 114.238 264.193L113.338 258.093L117.675 255.828Z" fill="#263238"/>
<path d="M114.238 264.175L108.887 262.218L107.745 257.374L113.719 260.654L114.238 264.175Z" fill="black"/>
<path d="M109.08 249.987V248.846C108.337 249.178 106.525 255.043 104.2 259.029C102.086 262.653 98.057 264.598 96.7222 266.168C94.9102 268.27 98.1778 271.163 103.578 270.191C106.253 269.714 110.342 268.143 111.49 266.386C112.638 264.628 113.121 261.342 114.057 260.05C114.993 258.757 117.168 257.314 117.681 255.822C118.076 254.472 118.12 253.044 117.808 251.672C117.433 250.289 117.119 248.652 116.648 248.761L116.582 249.8C116.201 250.519 114.878 251.328 112.166 251.382C110.868 251.413 109.63 251.177 109.08 249.987Z" fill="#37474F"/>
<path d="M123.153 227.917C123.466 223.758 123.314 219.576 122.7 215.45L126.602 189.478C126.602 189.478 129.26 214.242 129.707 218.06C130.153 221.877 137.281 263.263 137.281 263.263C140.905 265.425 145.61 264.737 148.654 263.124C148.654 246.393 148.135 229.626 147.531 224.994C146.997 221.828 146.273 218.698 145.362 215.62C145.362 215.62 144.976 191.212 144.994 181.947C145.012 172.681 144.317 166.484 142.578 162.317C141.213 159.289 139.596 156.382 137.746 153.625C137.746 153.625 136.393 158.197 125.666 158.209C114.939 158.221 113.755 155.497 113.755 155.497C113.755 155.497 110.614 166.472 109.569 183.046C108.724 196.4 108.53 202.477 108.277 208.414C108.059 213.487 107.926 219.346 107.812 229.596C107.721 237.327 106.604 254.36 106.604 254.36C106.604 254.36 111.84 257.102 120.496 253.974C120.459 253.949 122.616 234.585 123.153 227.917Z" fill="#455A64"/>
<path d="M126.602 189.454L124.482 173.75C121.369 173.428 118.467 172.032 116.273 169.8C116.273 169.8 117.481 173.605 122.507 175.743L125.352 189.532L123.292 211.639L126.602 189.454Z" fill="#37474F"/>
<path d="M131.621 120.091L136.671 120.628C140.029 121.45 141.539 122.93 141.883 125.901C142.503 129.099 142.443 132.392 141.708 135.565C140.645 139.745 137.818 149.983 137.818 149.983C137.818 149.983 141.485 159.194 143.218 163.875C131.301 171.648 116.588 168.58 111.647 163.875C112.064 159.423 113.64 155.286 113.99 151.318C113.99 151.318 113.731 145.121 113.241 142.433C109.473 138.32 109.95 134.381 111.647 131.204C114.77 125.346 119.499 120.194 121.009 120.2L131.621 120.091Z" fill="#23202A"/>
<path opacity="0.6" d="M131.621 120.091L136.671 120.628C140.029 121.45 141.539 122.93 141.883 125.901C142.503 129.099 142.443 132.392 141.708 135.565C140.645 139.745 137.818 149.983 137.818 149.983C137.818 149.983 141.485 159.194 143.218 163.875C131.301 171.648 116.588 168.58 111.647 163.875C112.064 159.423 113.64 155.286 113.99 151.318C113.99 151.318 113.731 145.121 113.241 142.433C109.473 138.32 109.95 134.381 111.647 131.204C114.77 125.346 119.499 120.194 121.009 120.2L131.621 120.091Z" fill="white"/>
<path d="M122.44 116.539C120.942 116.539 120.773 116.793 119.481 118.514C118.714 119.541 113.87 127.532 113.87 127.532C113.87 127.532 117.729 122.464 120.634 120.93C121.198 120.6 121.809 120.358 122.446 120.211L122.44 116.539Z" fill="#EBEBEB"/>
<path d="M131.905 120.091C131.905 120.091 127.743 131.035 126.795 138.465C125.847 145.894 129.102 168.332 129.604 181.633C129.972 191.297 130.89 205.261 130.89 205.261C133.844 205.55 136.822 205.457 139.751 204.983C144.643 204.059 146.159 203.256 148.956 201.432C148.956 201.432 146.54 177.109 145.332 167.656C144.215 158.759 139.431 149.983 139.431 149.983L145.181 126.179C145.181 126.179 144.897 122.169 141.116 121.045C137.534 119.976 131.905 120.091 131.905 120.091Z" fill="#FAFAFA"/>
<path d="M139.268 142.336C139.268 142.336 138.489 139.503 137.413 134.665C136.338 129.827 136.507 127.025 136.876 124.911L143.127 134.055L139.443 149.977C141.949 154.775 143.8 159.888 144.945 165.179C141.182 154.531 137.057 151.336 137.057 151.336L139.268 142.336Z" fill="#F5F5F5"/>
<path d="M133.475 133.56C133.475 133.101 133.518 132.104 133.596 130.854C133.989 124.718 134.17 119.179 132.098 118.732L131.917 119.578C133.427 119.904 132.926 127.816 132.738 130.8C132.654 132.08 132.587 133.089 132.612 133.596L133.475 133.56Z" fill="#23202A"/>
<path d="M144.837 183.263C145.64 181.735 145.628 180.636 146.878 179.253C147.414 178.684 147.79 177.984 147.966 177.223C148.227 175.995 148.326 174.738 148.262 173.484L155.425 173.593C155.479 175.973 155.799 179.391 155.352 181.928C154.211 188.349 152.936 191.085 150.243 191.834C145.936 193.042 144.776 191.23 146.154 187.98C146.753 186.635 147.159 185.211 147.362 183.752C146.914 184.33 146.39 184.845 145.803 185.28C145.504 185.524 145.125 185.647 144.74 185.623C144.354 185.6 143.992 185.432 143.725 185.154C143.514 184.9 144.215 184.453 144.837 183.263Z" fill="#FFA8A7"/>
<path d="M137.854 120.405C137.854 120.405 142.481 120.115 145.193 122.332C147.905 124.548 149.584 130.746 151.571 136.943C153.558 143.14 155.34 149.168 155.992 153.51C156.542 157.134 155.829 176.36 155.829 176.36C152.988 176.627 150.127 176.122 147.549 174.898L145.64 154.398L137.885 133.349C136.447 129.156 136.436 124.605 137.854 120.405Z" fill="#F0F0F0"/>
<path d="M80.3899 135.227L103.342 143.327L109.66 170.64L109.146 171.183L87.3238 163.035L79.8765 135.771L80.3899 135.227Z" fill="#23202A"/>
<path opacity="0.35" d="M102.829 143.87L109.146 171.183L109.66 170.64L103.342 143.327L102.829 143.87Z" fill="black"/>
<path opacity="0.25" d="M79.8765 135.771L102.828 143.87L109.146 171.183L87.3238 163.035L79.8765 135.771Z" fill="black"/>
<g opacity="0.2">
<path d="M90.7363 157.485C90.5249 158.016 88.7673 159.2 86.2184 158.989L85.7896 157.412L90.7363 157.485Z" fill="black"/>
</g>
<g opacity="0.1">
<path d="M86.786 141.37L86.5988 140.452C86.4961 139.944 87.843 140.21 89.6188 141.056L93.7622 142.312C95.5319 143.146 97.199 143.768 97.3016 144.269L97.4949 145.187L86.786 141.37Z" fill="black"/>
</g>
<path d="M85.4271 137.226C85.3607 136.906 85.8801 136.972 86.6351 137.166L87.9579 137.619C87.9579 137.619 87.4143 136.29 90.543 137.136C93.9858 138.072 94.0583 139.787 94.0583 139.787C94.5976 140.021 95.1502 140.222 95.7132 140.391C96.8548 140.766 96.9816 140.995 97.0783 141.309L97.2474 141.913L85.5298 137.788C85.5298 137.788 85.4935 137.54 85.4271 137.226Z" fill="#37474F"/>
<path d="M86.6534 138.996C87.7406 139.485 88.1875 139.727 88.3506 140.506C88.5318 141.394 88.5741 141.769 88.5741 141.769L94.6684 144.185C94.6684 144.185 94.3362 142.874 94.2577 142.433C94.1792 141.992 94.9825 141.992 96.0335 142.481L95.7858 141.388L86.3091 137.867L86.6534 138.996Z" fill="#37474F"/>
<path d="M86.4481 141.412L86.2609 140.5C86.1582 139.993 87.5051 140.259 89.2809 141.104L93.4243 142.354C95.188 143.188 96.8611 143.81 96.9638 144.317L97.151 145.236L86.4481 141.412Z" fill="#37474F"/>
<path d="M82.4255 145.115C82.4255 145.115 83.2409 148.135 83.4523 148.872C83.6637 149.609 87.4266 151.36 89.3111 151.596C92.9351 152.049 93.3156 152.804 92.4519 155.383C91.6546 157.738 89.3111 158.626 86.0616 158.246C85.0439 158.046 84.097 157.581 83.3165 156.898C82.536 156.215 81.9494 155.338 81.6161 154.356C80.5591 151.336 81.1269 148.129 80.7101 146.365C80.2934 144.601 81.5134 144.07 82.4255 145.115Z" fill="#FFA8A7"/>
<path d="M140.397 93.2914L137.184 95.9309C137.008 95.7303 136.876 95.496 136.794 95.2424C136.713 94.9887 136.684 94.7211 136.709 94.4559C136.735 94.1907 136.814 93.9334 136.942 93.7C137.071 93.4665 137.245 93.2617 137.456 93.0981C137.878 92.7482 138.418 92.5732 138.965 92.6091C139.512 92.6451 140.025 92.8892 140.397 93.2914Z" fill="#455A64"/>
<path d="M131.965 116.938C131.965 114.915 136.682 111.882 139.117 107.618C141.551 103.354 140.325 96.3657 137.003 95.2906C137.003 95.2906 136.936 88.9244 128.347 87.2332C119.758 85.542 117.065 83.6455 115.542 83.3737C114.02 83.1019 113.73 88.5137 115.73 89.9331C114.292 89.3679 112.979 88.5266 111.864 87.4567C110.614 86.2487 110.119 92.5424 112.818 94.753C112.818 94.753 110.584 96.0637 110.855 99.3736C110.909 100.579 111.355 101.734 112.126 102.662C112.897 103.59 113.95 104.241 115.126 104.514L131.965 116.938Z" fill="#455A64"/>
<path d="M117.319 93.0918C115.247 93.9918 113.278 97.1567 113.308 106.017C113.308 113.525 115.633 115.428 116.799 115.983C117.965 116.539 120.23 116.261 122.44 115.917V120.236C122.44 120.236 120.792 121.86 121.365 122.887C121.939 123.914 124.095 124.772 127.405 123.727C131.18 122.519 132.044 120.024 132.044 120.024L132.117 110.578C132.117 110.578 133.391 111.912 135.62 109.974C137.468 108.361 138.132 105.589 136.743 104.066C135.354 102.544 133.578 102.424 131.978 104.127L130.818 103.523C128.77 103.281 125.732 102.919 123.534 101.82C117.856 98.8781 117.252 95.7252 117.319 93.0918Z" fill="#FFA8A7"/>
<path d="M131.965 102.859V107.033C131.697 107.042 131.429 106.996 131.179 106.897C130.929 106.799 130.702 106.65 130.512 106.461C130.322 106.271 130.173 106.044 130.073 105.795C129.974 105.545 129.928 105.278 129.936 105.009C129.937 104.46 130.147 103.931 130.524 103.531C130.901 103.132 131.417 102.891 131.965 102.859Z" fill="#455A64"/>
<path d="M117.119 103.444C117.126 103.577 117.107 103.711 117.063 103.836C117.018 103.962 116.949 104.077 116.86 104.176C116.771 104.275 116.663 104.355 116.542 104.412C116.422 104.469 116.292 104.501 116.159 104.508C115.953 104.522 115.748 104.474 115.57 104.371C115.391 104.268 115.248 104.114 115.158 103.929C115.068 103.744 115.035 103.536 115.064 103.332C115.093 103.128 115.182 102.938 115.32 102.785C115.458 102.632 115.639 102.524 115.839 102.475C116.039 102.425 116.249 102.437 116.442 102.507C116.636 102.578 116.803 102.706 116.924 102.872C117.044 103.039 117.112 103.239 117.119 103.444Z" fill="#263238"/>
<path d="M125.068 103.885C125.077 104.028 125.057 104.172 125.01 104.307C124.963 104.443 124.89 104.567 124.794 104.674C124.699 104.781 124.583 104.868 124.454 104.929C124.324 104.991 124.184 105.026 124.041 105.033C123.82 105.05 123.599 105 123.406 104.89C123.214 104.78 123.058 104.615 122.96 104.416C122.862 104.218 122.826 103.994 122.856 103.774C122.886 103.555 122.981 103.349 123.129 103.184C123.277 103.019 123.471 102.901 123.686 102.847C123.9 102.793 124.127 102.804 124.335 102.88C124.544 102.955 124.725 103.091 124.855 103.271C124.986 103.45 125.06 103.664 125.068 103.885Z" fill="#263238"/>
<path d="M123.443 110.034L120.229 111.037C120.279 111.254 120.373 111.46 120.504 111.64C120.636 111.82 120.803 111.971 120.996 112.084C121.188 112.197 121.401 112.27 121.623 112.297C121.844 112.325 122.069 112.307 122.283 112.245C122.718 112.088 123.078 111.774 123.293 111.365C123.507 110.956 123.561 110.481 123.443 110.034Z" fill="#F28F8F"/>
<path d="M114.48 101.59L117.053 100.57C116.993 100.393 116.897 100.231 116.772 100.094C116.646 99.9566 116.493 99.8472 116.322 99.7727C116.151 99.6982 115.967 99.6602 115.781 99.6612C115.595 99.6621 115.411 99.7021 115.241 99.7784C114.909 99.9285 114.645 100.199 114.504 100.535C114.363 100.871 114.354 101.248 114.48 101.59Z" fill="#263238"/>
<path d="M119.553 102.629L119.68 108.784L116.376 108.047L119.553 102.629Z" fill="#F28F8F"/>
<path d="M122.44 115.893C124.766 115.621 129.561 114.286 130.34 112.341C130.028 113.318 129.431 114.178 128.625 114.812C127.175 116.056 122.434 117.348 122.434 117.348L122.44 115.893Z" fill="#F28F8F"/>
<path d="M132.074 116.569C132.678 116.449 133.228 116.708 133.723 117.554C134.218 118.4 135.311 120.175 135.311 120.175C135.311 120.175 135.873 126.07 135.311 127.532C134.822 128.807 129.435 133.572 129.435 133.572C129.435 133.572 130.842 138.869 130.89 140.603C130.938 142.336 127.55 148.938 127.17 152.314C127.17 152.314 126.106 141.702 126.602 137.891C127.472 131.247 130.582 122.712 132.038 120L132.074 116.569Z" fill="#EBEBEB"/>
<path d="M132.213 153.039C131.429 153.557 130.507 153.826 129.568 153.812L129.646 153.208C130.365 153.217 131.071 153.02 131.682 152.641C131.098 152.178 130.587 151.63 130.166 151.016C129.302 149.675 127.943 140.524 128.777 138.489C129.465 136.798 131.488 133.131 133.005 133.131H133.041C134.581 133.198 136.308 137.075 136.858 138.833C137.516 140.929 135.384 149.935 134.412 151.197C133.938 151.772 133.382 152.274 132.763 152.689C133.341 153.115 134.028 153.37 134.744 153.426V154.03H134.672C133.776 153.935 132.924 153.592 132.213 153.039ZM129.332 138.718C128.571 140.591 129.876 149.445 130.673 150.684C131.107 151.307 131.637 151.857 132.243 152.314C132.889 151.913 133.464 151.409 133.947 150.823C134.853 149.657 136.906 140.941 136.302 139.014C135.559 136.659 133.941 133.778 133.035 133.741C132.105 133.735 130.268 136.447 129.332 138.718Z" fill="#455A64"/>
<path d="M128.728 153.492C128.723 153.609 128.741 153.725 128.781 153.835C128.822 153.944 128.883 154.045 128.962 154.131C129.041 154.217 129.137 154.286 129.242 154.335C129.348 154.384 129.463 154.412 129.58 154.416C129.815 154.424 130.045 154.34 130.219 154.181C130.393 154.021 130.497 153.8 130.51 153.565C130.519 153.324 130.433 153.09 130.27 152.913C130.107 152.737 129.88 152.632 129.64 152.622C129.4 152.613 129.165 152.699 128.989 152.862C128.812 153.025 128.707 153.252 128.698 153.492H128.728Z" fill="#263238"/>
<path d="M133.886 153.691C133.876 153.927 133.959 154.157 134.118 154.331C134.278 154.504 134.499 154.608 134.735 154.618C134.97 154.629 135.2 154.545 135.374 154.386C135.548 154.227 135.651 154.005 135.662 153.77C135.667 153.653 135.649 153.537 135.609 153.427C135.569 153.317 135.508 153.217 135.43 153.13C135.351 153.044 135.256 152.975 135.15 152.925C135.044 152.876 134.93 152.848 134.813 152.843C134.697 152.838 134.58 152.855 134.471 152.895C134.361 152.935 134.26 152.996 134.174 153.075C134.088 153.154 134.018 153.249 133.969 153.354C133.919 153.46 133.891 153.575 133.886 153.691Z" fill="#263238"/>
<path d="M128.626 142.457L129.133 142.421C129.159 142.419 129.185 142.412 129.208 142.401C129.232 142.389 129.253 142.373 129.27 142.354C129.288 142.334 129.301 142.311 129.31 142.286C129.318 142.262 129.322 142.235 129.32 142.209C129.175 141.065 129.228 139.905 129.477 138.778C130.371 136.592 132.219 133.856 133.029 133.892C133.838 133.928 135.445 136.809 136.157 139.062C136.32 139.576 136.266 140.82 136.025 142.493C136.016 142.545 136.028 142.599 136.059 142.642C136.089 142.685 136.136 142.714 136.188 142.723L136.695 142.801C136.721 142.804 136.748 142.803 136.773 142.796C136.799 142.789 136.823 142.777 136.843 142.76C136.864 142.744 136.882 142.724 136.894 142.701C136.907 142.678 136.915 142.652 136.918 142.626C137.196 140.747 137.233 139.455 137.021 138.791C136.647 137.583 134.865 133.059 133.071 132.98C131.277 132.902 129.115 137.262 128.638 138.416C128.372 139.062 128.293 140.349 128.414 142.245C128.412 142.274 128.417 142.302 128.427 142.328C128.437 142.355 128.452 142.379 128.472 142.399C128.492 142.419 128.516 142.434 128.543 142.444C128.569 142.454 128.597 142.459 128.626 142.457Z" fill="#23202A"/>
<path d="M75.7876 101.313V108.814L82.2866 105.063V112.571L88.7857 108.814V101.313L95.2847 97.5618V90.0541L88.7676 93.823L88.7857 86.3032L82.2866 90.0541V97.5618L75.7876 101.313Z" fill="#23202A"/>
<path d="M75.7874 108.814L73.0029 107.208V99.7061L75.7874 101.313V108.814Z" fill="#23202A"/>
<path d="M82.2864 97.5622L79.502 95.9556L73.0029 99.7064L75.7874 101.313L82.2864 97.5622Z" fill="#23202A"/>
<path d="M82.2864 90.0544L79.502 88.4478V95.9555L82.2864 97.5621V90.0544Z" fill="#23202A"/>
<path d="M88.7854 86.3034L86.001 84.6968L79.502 88.4476L82.2864 90.0543L88.7854 86.3034Z" fill="#23202A"/>
<path d="M82.2864 112.571L79.502 110.959V106.67L82.2864 105.063V112.571Z" fill="#23202A"/>
<g opacity="0.2">
<path d="M75.7874 108.815L73.0029 107.208V99.7065L75.7874 101.313V108.815Z" fill="black"/>
<path d="M82.2864 90.0544L79.502 88.4478V95.9555L82.2864 97.5621V90.0544Z" fill="black"/>
<path d="M82.2864 112.572L79.502 110.959V106.671L82.2864 105.064V112.572Z" fill="black"/>
</g>
<path d="M95.2843 90.0544L92.4998 88.4478L88.7731 90.5859L88.7671 93.8234L95.2843 90.0544Z" fill="#23202A"/>
<g opacity="0.5">
<path d="M82.2864 97.5622L79.502 95.9556L73.0029 99.7064L75.7874 101.313L82.2864 97.5622Z" fill="white"/>
<path d="M88.7854 86.3034L86.001 84.6968L79.502 88.4476L82.2864 90.0543L88.7854 86.3034Z" fill="white"/>
<path d="M95.2843 90.0544L92.4998 88.4478L88.7731 90.5859L88.7671 93.8234L95.2843 90.0544Z" fill="white"/>
</g>
<path d="M312.948 89.9332C312.948 90.6701 313.437 91.413 314.416 91.9747C315.513 92.5318 316.725 92.8221 317.955 92.8221C319.185 92.8221 320.398 92.5318 321.495 91.9747C322.473 91.413 322.962 90.6701 322.962 89.9332V83.3496C322.962 82.02 322.434 80.7449 321.494 79.8048C320.554 78.8646 319.279 78.3364 317.949 78.3364C316.62 78.3364 315.345 78.8646 314.404 79.8048C313.464 80.7449 312.936 82.02 312.936 83.3496L312.948 89.9332Z" fill="#F5F5F5"/>
<path d="M312.948 98.6247C312.948 99.9543 313.476 101.229 314.417 102.17C315.357 103.11 316.632 103.638 317.961 103.638C319.291 103.638 320.566 103.11 321.506 102.17C322.446 101.229 322.975 99.9543 322.975 98.6247V89.9331C322.975 90.67 322.485 91.4129 321.507 91.9746C320.41 92.5317 319.198 92.822 317.967 92.822C316.737 92.822 315.525 92.5317 314.428 91.9746C313.444 91.4129 312.948 90.676 312.948 89.9331V98.6247Z" fill="#23202A"/>
<path opacity="0.4" d="M319.876 101.324C319.624 101.325 319.374 101.276 319.141 101.18C318.908 101.085 318.696 100.944 318.518 100.766C318.34 100.588 318.198 100.377 318.101 100.144C318.005 99.9112 317.955 99.6617 317.955 99.4098V89.2082C319.19 89.1816 320.411 89.4728 321.501 90.0538C321.609 90.1142 321.7 90.1746 321.797 90.2411V99.4098C321.795 99.9181 321.592 100.405 321.232 100.764C320.872 101.123 320.384 101.324 319.876 101.324Z" fill="white"/>
<path d="M312.948 89.9332C312.948 90.6701 313.437 91.413 314.416 91.9747C315.513 92.5318 316.725 92.8221 317.955 92.8221C319.185 92.8221 320.398 92.5318 321.495 91.9747C322.473 91.413 322.962 90.6701 322.962 89.9332V83.3496C322.962 82.02 322.434 80.7449 321.494 79.8048C320.554 78.8646 319.279 78.3364 317.949 78.3364C316.62 78.3364 315.345 78.8646 314.404 79.8048C313.464 80.7449 312.936 82.02 312.936 83.3496L312.948 89.9332Z" fill="#F5F5F5"/>
<path opacity="0.1" d="M321.501 91.9746C320.404 92.5317 319.191 92.822 317.961 92.822C316.731 92.822 315.519 92.5317 314.422 91.9746C313.444 91.4129 312.948 90.676 312.948 89.9331V90.676C312.948 91.4189 313.437 92.1558 314.416 92.7236C315.513 93.2806 316.725 93.571 317.955 93.571C319.185 93.571 320.398 93.2806 321.495 92.7236C322.473 92.1558 322.963 91.4189 322.963 90.676V89.9512C322.969 90.676 322.479 91.4129 321.501 91.9746Z" fill="black"/>
<path d="M320.903 79.3027C320.156 78.7589 319.273 78.4323 318.353 78.359C317.432 78.2858 316.508 78.4687 315.685 78.8876C314.862 79.3065 314.17 79.945 313.687 80.7325C313.204 81.52 312.948 82.4257 312.948 83.3495V89.9331C312.948 90.67 313.437 91.4129 314.416 91.9747C314.867 92.238 315.35 92.4411 315.853 92.5787V82.4496C315.86 79.5625 319.471 78.5055 320.903 79.3027Z" fill="#E0E0E0"/>
<path d="M319.876 80.7041C319.366 80.7041 318.878 80.9065 318.518 81.2667C318.157 81.6269 317.955 82.1154 317.955 82.6248V92.8264C319.19 92.8509 320.411 92.5576 321.501 91.9747C321.609 91.9143 321.7 91.8539 321.797 91.7935V82.6248C321.797 82.1154 321.594 81.6269 321.234 81.2667C320.874 80.9065 320.385 80.7041 319.876 80.7041Z" fill="white"/>
<path opacity="0.1" d="M318.584 103.596L318.867 103.547L319.067 103.511L319.29 103.451L319.52 103.384L319.628 103.342C319.958 103.227 320.274 103.077 320.571 102.895C320.678 102.834 320.781 102.765 320.879 102.69C319.447 103.481 315.835 102.43 315.835 99.5427V92.5545C315.332 92.4169 314.849 92.2138 314.398 91.9505C313.444 91.4129 312.948 90.676 312.948 89.9331V98.6247C312.95 99.9538 313.479 101.228 314.418 102.168C315.358 103.108 316.632 103.636 317.961 103.638C318.118 103.638 318.276 103.638 318.427 103.638L318.584 103.596Z" fill="black"/>
</svg>
