<svg width="353" height="328" viewBox="0 0 353 328" fill="none" xmlns="http://www.w3.org/2000/svg">
<path d="M176.5 327.87C79.3411 327.87 0.578308 282.403 0.578308 226.317C0.578308 170.23 79.3411 124.764 176.5 124.764C273.659 124.764 352.422 170.23 352.422 226.317C352.422 282.403 273.659 327.87 176.5 327.87Z" fill="white"></path>
<path d="M60.2153 272.3C35.9255 272.3 16.2348 260.93 16.2348 246.904C16.2348 232.878 35.9255 221.508 60.2153 221.508C84.505 221.508 104.196 232.878 104.196 246.904C104.196 260.93 84.505 272.3 60.2153 272.3Z" fill="#E0E0E0"></path>
<path d="M217.675 301.771L326.789 238.778C328.578 237.746 328.578 236.072 326.789 235.032L169.046 143.967C168.043 143.455 166.932 143.187 165.805 143.187C164.678 143.187 163.567 143.455 162.564 143.967L53.4802 206.945C51.6913 207.977 51.6913 209.651 53.4802 210.683L211.192 301.771C212.197 302.28 213.307 302.545 214.433 302.545C215.56 302.545 216.67 302.28 217.675 301.771V301.771Z" fill="#E0E0E0"></path>
<path d="M38.0148 232.341C38.9551 225.889 36.547 201.311 31.0809 191.954C25.6149 182.596 16.5559 172.78 8.66645 174.248C1.35804 175.609 0.77705 184.859 8.34538 192.145C15.9137 199.43 27.5032 208.887 29.6896 219.895L35.6525 238.633L38.0148 232.341Z" fill="#8D37FF"></path>
<path opacity="0.1" d="M38.0148 232.341C38.9551 225.889 36.547 201.311 31.0809 191.954C25.6149 182.596 16.5559 172.78 8.66645 174.248C1.35804 175.609 0.77705 184.859 8.34538 192.145C15.9137 199.43 27.5032 208.887 29.6896 219.895L35.6525 238.633L38.0148 232.341Z" fill="black"></path>
<path d="M36.2642 230.315C36.1644 230.288 36.0761 230.23 36.0127 230.149C35.9492 230.067 35.914 229.967 35.9125 229.864C35.5761 207.19 21.074 186.182 11.1817 180.333C11.0732 180.27 10.9945 180.165 10.963 180.043C10.9314 179.922 10.9496 179.792 11.0135 179.684C11.0773 179.575 11.1817 179.497 11.3035 179.465C11.4254 179.433 11.5548 179.452 11.6633 179.515C21.7467 185.478 36.5241 206.83 36.8911 229.849C36.8921 229.911 36.8808 229.973 36.8579 230.031C36.835 230.089 36.801 230.141 36.7576 230.186C36.7143 230.231 36.6626 230.267 36.6055 230.291C36.5484 230.316 36.487 230.329 36.4247 230.33C36.3707 230.337 36.3158 230.332 36.2642 230.315V230.315Z" fill="white"></path>
<path d="M32.717 242.149C32.2124 238.373 29.5673 231.859 23.5891 225.407C16.2654 217.502 4.1102 213.175 2.41306 208.589C0.387197 203.069 5.01993 199.3 12.9246 201.815C23.5432 205.194 35.3926 218.45 35.2397 235.506L32.717 242.149Z" fill="#8D37FF"></path>
<path d="M34.8499 238.579C34.7609 238.557 34.68 238.51 34.6164 238.443C34.5529 238.377 34.5093 238.294 34.4906 238.204C30.4847 218.328 14.4613 207.664 7.91732 205.829C7.79587 205.801 7.6898 205.728 7.62138 205.624C7.55296 205.52 7.52751 205.393 7.55036 205.271C7.56617 205.21 7.59416 205.153 7.63267 205.103C7.67118 205.053 7.71941 205.011 7.77442 204.981C7.82944 204.95 7.89009 204.931 7.95276 204.924C8.01542 204.917 8.07878 204.923 8.139 204.942C15.371 206.968 31.3027 217.785 35.385 238.052C35.3972 238.113 35.3972 238.176 35.385 238.237C35.3728 238.298 35.3485 238.357 35.3137 238.408C35.2789 238.46 35.2342 238.505 35.1822 238.539C35.1301 238.574 35.0717 238.598 35.0104 238.61C34.9555 238.61 34.901 238.599 34.8499 238.579V238.579Z" fill="white"></path>
<path d="M255.769 18.2947L261.586 21.6584C261.556 21.4047 261.541 21.1495 261.541 20.894V19.2121C261.541 16.2077 263.651 14.9922 266.25 16.4906C267.365 17.1818 268.321 18.1016 269.055 19.1892C269.476 15.4126 272.442 14.006 276.035 16.0854C279.926 18.333 283.084 23.7913 283.084 28.317V30.8398C283.106 31.8456 282.902 32.8436 282.487 33.7601L287.349 36.5122C288.11 37.0077 288.744 37.6758 289.198 38.4622C289.653 39.2486 289.915 40.1311 289.964 41.038C289.964 42.7045 288.794 43.3773 287.349 42.5669L255.799 24.3494C255.039 23.8547 254.406 23.1878 253.952 22.4028C253.498 21.6178 253.235 20.7369 253.185 19.8313C253.154 18.1418 254.324 17.4615 255.769 18.2947Z" fill="#E6E6E6"></path>
<path d="M329.289 25.8096L326.078 23.325V16.2612C326.078 10.65 321.606 4.1366 316.751 1.33097C311.889 -1.47467 307.952 0.80348 307.952 6.41475V7.43915C306.93 5.77757 305.531 4.37927 303.87 3.35684C300.376 1.33861 297.54 2.9746 297.54 7.01104V7.47737L293.06 4.89344C290.767 3.56324 288.894 4.64116 288.894 7.30154C288.973 8.74709 289.391 10.1537 290.115 11.4074C290.839 12.6612 291.848 13.7269 293.06 14.5182L329.289 35.4343C331.582 36.7645 333.463 35.6866 333.463 33.0262C333.386 31.5791 332.968 30.1707 332.243 28.9163C331.517 27.662 330.505 26.5973 329.289 25.8096V25.8096Z" fill="#E6E6E6"></path>
<path d="M320.054 230.108C319.966 231.295 319.601 232.445 318.988 233.465C318.374 234.485 317.529 235.346 316.522 235.98L217.529 293.132C216.433 293.686 215.222 293.975 213.994 293.975C212.765 293.975 211.554 293.686 210.458 293.132L63.7471 208.436C62.6819 207.87 61.7907 207.025 61.1693 205.991C60.5478 204.958 60.2195 203.774 60.2195 202.568C60.2195 201.362 60.5478 200.179 61.1693 199.145C61.7907 198.111 62.6819 197.266 63.7471 196.701L162.739 139.526C163.834 138.968 165.046 138.677 166.275 138.677C167.504 138.677 168.716 138.968 169.811 139.526L316.522 224.245C317.529 224.877 318.374 225.736 318.988 226.755C319.601 227.774 319.966 228.923 320.054 230.108Z" fill="#37474F"></path>
<path d="M213.959 286.305V293.95C215.189 293.978 216.406 293.688 217.491 293.109L316.522 235.98C317.556 235.434 318.427 234.623 319.047 233.631C319.666 232.639 320.012 231.501 320.048 230.332C320.085 229.163 319.811 228.005 319.255 226.976C318.698 225.947 317.879 225.084 316.881 224.474C318.463 225.606 318.341 227.272 316.522 228.297L217.522 285.457C216.428 286.044 215.2 286.336 213.959 286.305V286.305Z" fill="#263238"></path>
<path d="M323.371 224.383C324.355 223.714 325.167 222.822 325.742 221.781C326.317 220.74 326.639 219.578 326.682 218.389V100.239C326.615 99.0139 326.26 97.8218 325.646 96.7593C325.033 95.6968 324.177 94.7937 323.15 94.1232L176.439 9.42673C175.383 8.86526 174.21 8.56086 173.014 8.53828C171.819 8.5157 170.635 8.77557 169.559 9.29677C168.576 9.96711 167.765 10.8586 167.19 11.8996C166.615 12.9405 166.293 14.1019 166.248 15.2903V133.41C166.315 134.635 166.669 135.827 167.283 136.89C167.897 137.953 168.752 138.856 169.78 139.526L316.522 224.245C317.573 224.803 318.74 225.107 319.93 225.13C321.12 225.154 322.299 224.898 323.371 224.383V224.383Z" fill="#455A64"></path>
<path d="M316.935 224.459C317.95 224.913 319.051 225.14 320.163 225.124C321.275 225.108 322.37 224.85 323.371 224.367C324.355 223.698 325.167 222.807 325.742 221.766C326.317 220.725 326.639 219.563 326.682 218.374V100.239C326.643 99.009 326.284 97.8103 325.642 96.7606L319.022 100.583C319.654 101.634 320.009 102.828 320.054 104.054V222.204C320.054 224.291 318.693 225.231 316.935 224.459Z" fill="#263238"></path>
<path d="M320.054 104.069V222.204C320.054 224.497 318.471 225.369 316.522 224.245L169.811 139.526C168.783 138.855 167.927 137.953 167.314 136.89C166.7 135.827 166.345 134.635 166.279 133.41V15.2902C166.279 13.0426 167.854 12.1253 169.811 13.2567L316.522 97.9456C317.549 98.6177 318.405 99.5222 319.018 100.586C319.632 101.65 319.986 102.843 320.054 104.069Z" fill="#37474F"></path>
<path d="M316.522 228.32L217.529 285.48C216.433 286.034 215.222 286.323 213.994 286.323C212.765 286.323 211.554 286.034 210.458 285.48L63.7471 200.783C61.7977 199.652 61.7977 197.825 63.7471 196.701L162.739 139.526C163.834 138.968 165.046 138.677 166.275 138.677C167.504 138.677 168.716 138.968 169.811 139.526L316.522 224.245C318.471 225.369 318.471 227.196 316.522 228.32Z" fill="#455A64"></path>
<path d="M314.618 102.487L172.769 20.611C171.6 19.9382 170.644 20.4887 170.644 21.8418V130.833C170.685 131.569 170.899 132.285 171.268 132.922C171.637 133.56 172.152 134.101 172.769 134.503L314.618 216.378C315.788 217.051 316.743 216.501 316.743 215.148V106.156C316.703 105.42 316.489 104.705 316.12 104.067C315.75 103.43 315.236 102.888 314.618 102.487Z" fill="#8D37FF"></path>
<path opacity="0.15" d="M314.618 102.487L172.769 20.611C171.6 19.9382 170.644 20.4887 170.644 21.8418V130.833C170.685 131.569 170.899 132.285 171.268 132.922C171.637 133.56 172.152 134.101 172.769 134.503L314.618 216.378C315.788 217.051 316.743 216.501 316.743 215.148V106.156C316.703 105.42 316.489 104.705 316.12 104.067C315.75 103.43 315.236 102.888 314.618 102.487Z" fill="black"></path>
<path d="M305.032 225.262L168.037 146.184C167.49 145.905 166.885 145.759 166.271 145.759C165.657 145.759 165.052 145.905 164.505 146.184L158.076 149.892C157.105 150.458 157.105 151.367 158.076 151.933L295.086 231.003C295.633 231.282 296.238 231.428 296.852 231.428C297.466 231.428 298.071 231.282 298.618 231.003L305.032 227.303C306.002 226.737 306.002 225.827 305.032 225.262Z" fill="#37474F"></path>
<path d="M288.458 234.833L151.471 155.748C150.924 155.469 150.319 155.323 149.705 155.323C149.091 155.323 148.486 155.469 147.939 155.748L108.385 178.583C107.406 179.148 107.406 180.066 108.385 180.624L245.226 259.61C245.775 259.887 246.381 260.031 246.996 260.031C247.611 260.031 248.217 259.887 248.766 259.61L288.45 236.867C289.429 236.308 289.436 235.391 288.458 234.833Z" fill="#263238"></path>
<path d="M168.091 189.377L163.779 186.885C163.595 186.778 163.588 186.61 163.779 186.503L168.305 183.865C168.407 183.816 168.52 183.791 168.633 183.791C168.747 183.791 168.859 183.816 168.962 183.865L173.281 186.357C173.457 186.465 173.465 186.633 173.281 186.732L168.695 189.362C168.6 189.405 168.498 189.429 168.394 189.432C168.29 189.434 168.187 189.416 168.091 189.377ZM175.483 180.127L179.795 182.619C179.833 182.633 179.867 182.658 179.891 182.692C179.914 182.725 179.927 182.765 179.927 182.806C179.927 182.848 179.914 182.888 179.891 182.921C179.867 182.955 179.833 182.98 179.795 182.994L175.208 185.624C175.105 185.672 174.993 185.698 174.879 185.698C174.765 185.698 174.653 185.672 174.55 185.624L170.231 183.131C170.19 183.12 170.153 183.094 170.127 183.06C170.101 183.025 170.087 182.983 170.087 182.94C170.087 182.897 170.101 182.855 170.127 182.821C170.153 182.786 170.19 182.761 170.231 182.749L174.818 180.119C174.92 180.073 175.031 180.049 175.144 180.051C175.256 180.052 175.367 180.078 175.468 180.127H175.483ZM189.42 188.169L196.713 192.382C196.896 192.489 196.904 192.664 196.713 192.764L192.126 195.394C192.023 195.442 191.911 195.468 191.797 195.468C191.683 195.468 191.571 195.442 191.468 195.394L184.168 191.181C183.984 191.074 183.984 190.906 184.168 190.799L188.754 188.177C188.854 188.124 188.965 188.096 189.078 188.095C189.191 188.093 189.303 188.119 189.404 188.169H189.42ZM181.775 183.766L186.094 186.258C186.278 186.365 186.278 186.533 186.094 186.633L181.507 189.262C181.404 189.311 181.292 189.337 181.178 189.337C181.065 189.337 180.952 189.311 180.85 189.262L176.538 186.77C176.355 186.663 176.355 186.495 176.538 186.388L181.125 183.758C181.225 183.71 181.335 183.685 181.447 183.686C181.558 183.688 181.668 183.715 181.767 183.766H181.775ZM198.67 193.536L202.981 196.02C203.165 196.127 203.165 196.303 202.981 196.403L198.394 199.033C198.292 199.081 198.18 199.107 198.066 199.107C197.952 199.107 197.84 199.081 197.737 199.033L193.425 196.548C193.242 196.441 193.242 196.273 193.425 196.166L198.012 193.536C198.115 193.487 198.227 193.462 198.341 193.462C198.455 193.462 198.567 193.487 198.67 193.536V193.536ZM204.969 197.175L209.288 199.667C209.327 199.681 209.36 199.706 209.384 199.74C209.408 199.773 209.421 199.813 209.421 199.854C209.421 199.895 209.408 199.935 209.384 199.969C209.36 200.002 209.327 200.028 209.288 200.042L204.786 202.671C204.684 202.724 204.571 202.752 204.457 202.752C204.342 202.752 204.23 202.724 204.128 202.671L199.816 200.187C199.633 200.08 199.633 199.912 199.816 199.805L204.365 197.175C204.464 197.131 204.57 197.108 204.679 197.108C204.787 197.108 204.893 197.131 204.992 197.175H204.969ZM187.096 207.878L182.784 205.385C182.6 205.278 182.6 205.11 182.784 205.011L187.333 202.381C187.435 202.332 187.547 202.307 187.661 202.307C187.775 202.307 187.887 202.332 187.99 202.381L192.309 204.873C192.351 204.885 192.387 204.91 192.413 204.945C192.439 204.979 192.453 205.021 192.453 205.064C192.453 205.107 192.439 205.149 192.413 205.184C192.387 205.218 192.351 205.244 192.309 205.255L187.761 207.885C187.659 207.931 187.55 207.953 187.439 207.952C187.328 207.951 187.219 207.925 187.118 207.878H187.096ZM193.402 211.516L189.083 209.024C188.9 208.917 188.9 208.749 189.083 208.65L193.655 206.035C193.757 205.986 193.87 205.961 193.983 205.961C194.097 205.961 194.21 205.986 194.312 206.035L198.624 208.527C198.807 208.634 198.807 208.803 198.624 208.91L194.075 211.539C193.972 211.584 193.86 211.604 193.748 211.6C193.635 211.596 193.525 211.568 193.425 211.516H193.402ZM199.702 215.155L195.39 212.663C195.351 212.649 195.318 212.624 195.294 212.59C195.271 212.557 195.258 212.517 195.258 212.476C195.258 212.435 195.271 212.395 195.294 212.361C195.318 212.328 195.351 212.302 195.39 212.289L199.977 209.659C200.078 209.606 200.191 209.578 200.306 209.578C200.42 209.578 200.533 209.606 200.634 209.659L204.931 212.151C205.114 212.258 205.114 212.426 204.931 212.533L200.344 215.163C200.246 215.205 200.14 215.226 200.033 215.225C199.927 215.223 199.822 215.2 199.725 215.155H199.702ZM206.009 218.794L201.697 216.302C201.514 216.203 201.506 216.027 201.697 215.927L206.284 213.298C206.387 213.249 206.499 213.223 206.613 213.223C206.726 213.223 206.839 213.249 206.941 213.298L211.253 215.782C211.436 215.889 211.444 216.057 211.253 216.164L206.704 218.794C206.6 218.846 206.485 218.872 206.368 218.872C206.251 218.872 206.136 218.846 206.032 218.794H206.009ZM174.382 193.039L170.063 190.547C170.021 190.535 169.985 190.51 169.959 190.475C169.933 190.441 169.919 190.399 169.919 190.356C169.919 190.312 169.933 190.27 169.959 190.236C169.985 190.202 170.021 190.176 170.063 190.165L174.65 187.542C174.751 187.489 174.864 187.462 174.979 187.462C175.093 187.462 175.206 187.489 175.307 187.542L179.558 189.981C179.741 190.088 179.741 190.256 179.558 190.356L175.009 192.985C174.914 193.038 174.81 193.07 174.701 193.08C174.593 193.089 174.485 193.075 174.382 193.039V193.039ZM180.812 204.262L171.194 198.704C171.011 198.597 171.011 198.429 171.194 198.329L182.249 191.946C182.351 191.897 182.464 191.872 182.577 191.872C182.691 191.872 182.803 191.897 182.906 191.946L187.883 194.82C188.066 194.927 188.066 195.095 187.883 195.202L182.027 198.581C181.988 198.595 181.955 198.621 181.931 198.654C181.908 198.688 181.895 198.728 181.895 198.769C181.895 198.81 181.908 198.85 181.931 198.883C181.955 198.917 181.988 198.942 182.027 198.956L186.01 201.249C186.193 201.357 186.193 201.525 186.01 201.632L181.423 204.254C181.326 204.297 181.221 204.318 181.116 204.315C181.01 204.313 180.906 204.287 180.812 204.239V204.262ZM211.299 200.837L215.611 203.329C215.649 203.343 215.683 203.368 215.706 203.402C215.73 203.435 215.743 203.475 215.743 203.516C215.743 203.557 215.73 203.597 215.706 203.631C215.683 203.664 215.649 203.69 215.611 203.703L211.062 206.333C210.959 206.382 210.847 206.408 210.733 206.408C210.619 206.408 210.507 206.382 210.404 206.333L206.085 203.841C206.044 203.829 206.007 203.804 205.981 203.77C205.955 203.735 205.941 203.693 205.941 203.65C205.941 203.607 205.955 203.565 205.981 203.53C206.007 203.496 206.044 203.471 206.085 203.459L210.634 200.829C210.736 200.777 210.849 200.748 210.965 200.745C211.08 200.743 211.194 200.766 211.299 200.814V200.837ZM217.598 204.476L221.917 206.968C222.101 207.075 222.101 207.243 221.917 207.342L217.331 209.972C217.228 210.021 217.116 210.046 217.002 210.046C216.888 210.046 216.776 210.021 216.673 209.972L212.362 207.48C212.178 207.373 212.178 207.205 212.362 207.098L216.948 204.468C217.048 204.415 217.159 204.385 217.271 204.383C217.384 204.38 217.496 204.404 217.598 204.453V204.476ZM250.815 244.259C250.712 244.308 250.6 244.333 250.486 244.333C250.372 244.333 250.26 244.308 250.157 244.259L245.846 241.767C245.662 241.66 245.655 241.492 245.846 241.385L250.433 238.762C250.534 238.71 250.647 238.682 250.761 238.682C250.876 238.682 250.988 238.71 251.09 238.762L255.402 241.255C255.585 241.362 255.593 241.53 255.402 241.629L250.815 244.259ZM268.031 233.556L272.342 236.041C272.526 236.148 272.534 236.316 272.342 236.423L267.794 239.053C267.691 239.102 267.579 239.127 267.465 239.127C267.351 239.127 267.239 239.102 267.136 239.053L262.825 236.561C262.641 236.461 262.634 236.286 262.825 236.186L267.412 233.556C267.508 233.51 267.614 233.485 267.721 233.485C267.828 233.485 267.934 233.51 268.031 233.556V233.556ZM258.972 241.461C258.87 241.514 258.757 241.542 258.643 241.542C258.529 241.542 258.416 241.514 258.314 241.461L254.003 238.969C253.819 238.862 253.819 238.694 254.003 238.594L258.589 235.964C258.691 235.912 258.804 235.884 258.918 235.884C259.033 235.884 259.145 235.912 259.247 235.964L263.559 238.457C263.742 238.564 263.742 238.732 263.559 238.839L258.972 241.461ZM240.334 246.094L236.022 243.602C235.983 243.588 235.95 243.562 235.926 243.529C235.903 243.495 235.89 243.455 235.89 243.414C235.89 243.373 235.903 243.333 235.926 243.3C235.95 243.266 235.983 243.241 236.022 243.227L240.609 240.597C240.712 240.548 240.824 240.523 240.938 240.523C241.051 240.523 241.164 240.548 241.266 240.597L245.578 243.082C245.762 243.189 245.762 243.357 245.578 243.464L240.991 246.094C240.89 246.145 240.778 246.173 240.664 246.176C240.55 246.178 240.438 246.156 240.334 246.109V246.094ZM247.298 249.74C247.195 249.789 247.083 249.815 246.969 249.815C246.856 249.815 246.743 249.789 246.641 249.74L242.329 247.248C242.146 247.149 242.138 246.973 242.329 246.874L246.832 244.259C246.935 244.21 247.047 244.185 247.161 244.185C247.274 244.185 247.387 244.21 247.489 244.259L251.801 246.744C251.984 246.851 251.992 247.019 251.801 247.126L247.298 249.74ZM261.724 229.91L266.043 232.402C266.085 232.414 266.121 232.439 266.147 232.473C266.173 232.508 266.187 232.55 266.187 232.593C266.187 232.636 266.173 232.678 266.147 232.713C266.121 232.747 266.085 232.772 266.043 232.784L261.494 235.414C261.392 235.463 261.28 235.488 261.166 235.488C261.052 235.488 260.94 235.463 260.837 235.414L256.525 232.922C256.342 232.815 256.342 232.647 256.525 232.547L261.112 229.917C261.208 229.874 261.313 229.852 261.419 229.853C261.525 229.854 261.629 229.879 261.724 229.925V229.91ZM230.212 211.715L234.524 214.207C234.707 214.314 234.707 214.483 234.524 214.582L229.937 217.212C229.835 217.265 229.723 217.292 229.608 217.292C229.494 217.292 229.381 217.265 229.279 217.212L224.968 214.72C224.784 214.613 224.784 214.444 224.968 214.337L229.555 211.715C229.657 211.665 229.771 211.64 229.885 211.642C230 211.645 230.112 211.675 230.212 211.73V211.715ZM255.44 226.24L259.751 228.732C259.935 228.84 259.935 229.008 259.751 229.115L255.203 231.737C255.101 231.79 254.989 231.817 254.874 231.817C254.76 231.817 254.647 231.79 254.545 231.737L250.226 229.245C250.043 229.138 250.043 228.969 250.226 228.87L254.775 226.24C254.88 226.2 254.992 226.183 255.105 226.191C255.217 226.198 255.326 226.231 255.425 226.286L255.44 226.24ZM223.897 208.092L228.217 210.622C228.4 210.729 228.408 210.897 228.217 210.997L223.668 213.626C223.567 213.679 223.454 213.707 223.339 213.707C223.225 213.707 223.112 213.679 223.011 213.626L218.699 211.134C218.516 211.027 218.508 210.859 218.699 210.752L223.286 208.13C223.379 208.078 223.482 208.048 223.587 208.041C223.693 208.035 223.799 208.052 223.897 208.092V208.092ZM236.504 215.369L240.815 217.862C240.999 217.969 241.007 218.137 240.815 218.244L236.229 220.866C236.127 220.919 236.014 220.947 235.9 220.947C235.785 220.947 235.673 220.919 235.571 220.866L231.259 218.374C231.076 218.267 231.068 218.099 231.259 217.992L235.808 215.369C235.915 215.308 236.036 215.276 236.16 215.276C236.283 215.276 236.404 215.308 236.511 215.369H236.504ZM242.818 219.031L247.13 221.523C247.313 221.63 247.313 221.799 247.13 221.906L242.543 224.528C242.442 224.581 242.329 224.608 242.214 224.608C242.1 224.608 241.987 224.581 241.886 224.528L237.574 222.036C237.391 221.929 237.391 221.76 237.574 221.661L242.161 219.031C242.262 218.978 242.375 218.951 242.49 218.951C242.604 218.951 242.717 218.978 242.818 219.031ZM249.125 222.647L253.429 225.147C253.613 225.254 253.62 225.422 253.429 225.529L248.881 228.151C248.779 228.204 248.666 228.232 248.552 228.232C248.437 228.232 248.325 228.204 248.223 228.151L243.912 225.659C243.728 225.552 243.72 225.384 243.912 225.285L248.46 222.655C248.563 222.604 248.677 222.576 248.792 222.575C248.907 222.574 249.021 222.598 249.125 222.647ZM218.646 226.072L214.334 223.588C214.15 223.481 214.143 223.312 214.334 223.205L218.867 220.56C218.97 220.511 219.082 220.486 219.196 220.486C219.31 220.486 219.422 220.511 219.525 220.56L223.836 223.045C224.02 223.152 224.027 223.32 223.836 223.427L219.249 226.057C219.154 226.101 219.051 226.126 218.945 226.128C218.84 226.131 218.735 226.112 218.638 226.072H218.646ZM161.539 172.085L165.851 174.569C166.034 174.676 166.042 174.844 165.851 174.951L161.302 177.581C161.199 177.63 161.087 177.656 160.973 177.656C160.86 177.656 160.747 177.63 160.645 177.581L156.333 175.089C156.149 174.99 156.142 174.814 156.333 174.714L160.882 172.085C160.982 172.033 161.093 172.006 161.206 172.006C161.319 172.006 161.431 172.033 161.531 172.085H161.539ZM169.184 176.488L173.442 178.98C173.481 178.994 173.514 179.019 173.538 179.053C173.561 179.086 173.574 179.127 173.574 179.168C173.574 179.209 173.561 179.249 173.538 179.282C173.514 179.316 173.481 179.341 173.442 179.355L168.893 181.985C168.791 182.034 168.678 182.059 168.565 182.059C168.451 182.059 168.339 182.034 168.236 181.985L163.924 179.5C163.741 179.393 163.741 179.225 163.924 179.118L168.511 176.488C168.613 176.44 168.724 176.416 168.836 176.416C168.948 176.416 169.059 176.44 169.161 176.488H169.184ZM155.255 168.438L159.567 170.93C159.75 171.037 159.75 171.206 159.567 171.313L154.98 173.942C154.877 173.991 154.765 174.017 154.651 174.017C154.537 174.017 154.425 173.991 154.322 173.942L150.011 171.45C149.827 171.343 149.827 171.175 150.011 171.076L154.598 168.446C154.697 168.399 154.805 168.374 154.914 168.373C155.023 168.372 155.132 168.394 155.232 168.438H155.255ZM188.976 201.448L184.664 198.956C184.626 198.942 184.592 198.917 184.569 198.883C184.545 198.85 184.532 198.81 184.532 198.769C184.532 198.728 184.545 198.688 184.569 198.654C184.592 198.621 184.626 198.595 184.664 198.581L189.251 195.952C189.354 195.903 189.466 195.877 189.58 195.877C189.694 195.877 189.806 195.903 189.909 195.952L194.228 198.444C194.27 198.456 194.306 198.481 194.332 198.515C194.358 198.55 194.372 198.592 194.372 198.635C194.372 198.678 194.358 198.72 194.332 198.755C194.306 198.789 194.27 198.814 194.228 198.826L189.679 201.456C189.57 201.511 189.449 201.539 189.327 201.538C189.204 201.536 189.084 201.506 188.976 201.448ZM148.268 164.807C148.37 164.758 148.483 164.733 148.596 164.733C148.71 164.733 148.822 164.758 148.925 164.807L153.237 167.299C153.42 167.406 153.428 167.574 153.237 167.681L148.688 170.311C148.585 170.36 148.473 170.385 148.359 170.385C148.246 170.385 148.133 170.36 148.031 170.311L143.719 167.819C143.536 167.712 143.528 167.544 143.719 167.444L148.268 164.807ZM212.331 222.441L208.019 219.956C207.836 219.849 207.836 219.673 208.019 219.574L212.606 216.944C212.709 216.895 212.821 216.87 212.935 216.87C213.049 216.87 213.161 216.895 213.264 216.944L217.575 219.429C217.759 219.536 217.759 219.704 217.575 219.811L212.988 222.441C212.885 222.489 212.773 222.513 212.659 222.511C212.545 222.51 212.433 222.483 212.331 222.433V222.441ZM135.035 177.811L130.715 175.318C130.677 175.305 130.643 175.279 130.619 175.246C130.596 175.212 130.583 175.172 130.583 175.131C130.583 175.09 130.596 175.05 130.619 175.016C130.643 174.983 130.677 174.958 130.715 174.944L135.302 172.314C135.405 172.265 135.517 172.24 135.631 172.24C135.745 172.24 135.857 172.265 135.96 172.314L140.271 174.799C140.455 174.906 140.455 175.074 140.271 175.181L135.684 177.811C135.583 177.86 135.471 177.886 135.359 177.884C135.246 177.883 135.135 177.855 135.035 177.803V177.811ZM147.84 177.696L143.52 175.204C143.482 175.19 143.448 175.165 143.424 175.131C143.401 175.098 143.388 175.057 143.388 175.016C143.388 174.975 143.401 174.935 143.424 174.902C143.448 174.868 143.482 174.843 143.52 174.829L148.069 172.199C148.172 172.15 148.284 172.125 148.398 172.125C148.511 172.125 148.624 172.15 148.726 172.199L153.038 174.692C153.221 174.799 153.229 174.967 153.038 175.074L148.489 177.704C148.387 177.749 148.275 177.771 148.163 177.768C148.05 177.766 147.94 177.738 147.84 177.688V177.696ZM141.77 168.576C141.87 168.525 141.982 168.498 142.095 168.498C142.207 168.498 142.319 168.525 142.419 168.576L146.739 171.068C146.78 171.08 146.817 171.105 146.843 171.139C146.869 171.174 146.883 171.216 146.883 171.259C146.883 171.302 146.869 171.344 146.843 171.379C146.817 171.413 146.78 171.438 146.739 171.45L142.19 174.08C142.087 174.129 141.975 174.154 141.861 174.154C141.748 174.154 141.635 174.129 141.533 174.08L137.221 171.588C137.182 171.574 137.149 171.549 137.125 171.515C137.101 171.482 137.089 171.442 137.089 171.4C137.089 171.359 137.101 171.319 137.125 171.286C137.149 171.252 137.182 171.227 137.221 171.213L141.77 168.576ZM140.439 167.811L129.385 174.195C129.282 174.244 129.17 174.269 129.056 174.269C128.943 174.269 128.83 174.244 128.728 174.195L124.416 171.702C124.232 171.603 124.225 171.427 124.416 171.328L135.47 164.944C135.573 164.896 135.685 164.87 135.799 164.87C135.913 164.87 136.025 164.896 136.128 164.944L140.439 167.437C140.615 167.513 140.615 167.681 140.439 167.811ZM155.033 175.838L159.345 178.323C159.528 178.43 159.528 178.598 159.345 178.705L154.758 181.335C154.655 181.384 154.543 181.409 154.429 181.409C154.316 181.409 154.203 181.384 154.101 181.335L149.789 178.85C149.606 178.743 149.606 178.567 149.789 178.468L154.376 175.838C154.479 175.789 154.591 175.764 154.705 175.764C154.818 175.764 154.931 175.789 155.033 175.838V175.838ZM202.492 203.229L206.804 205.714C206.987 205.821 206.987 205.989 206.804 206.096L202.217 208.726C202.114 208.775 202.002 208.8 201.888 208.8C201.774 208.8 201.662 208.775 201.559 208.726L197.248 206.242C197.064 206.135 197.064 205.959 197.248 205.859L201.835 203.229C201.937 203.181 202.05 203.155 202.163 203.155C202.277 203.155 202.389 203.181 202.492 203.229V203.229ZM142.007 181.45C141.904 181.498 141.792 181.524 141.678 181.524C141.564 181.524 141.452 181.498 141.349 181.45L137.038 178.965C136.854 178.858 136.854 178.682 137.038 178.583L141.586 175.953C141.689 175.904 141.801 175.879 141.915 175.879C142.029 175.879 142.141 175.904 142.244 175.953L146.563 178.437C146.604 178.449 146.641 178.474 146.667 178.509C146.693 178.543 146.707 178.585 146.707 178.629C146.707 178.672 146.693 178.714 146.667 178.748C146.641 178.783 146.604 178.808 146.563 178.82L142.007 181.45ZM196.185 199.591L200.497 202.075C200.68 202.182 200.68 202.35 200.497 202.457L195.948 205.087C195.845 205.136 195.733 205.161 195.619 205.161C195.506 205.161 195.393 205.136 195.291 205.087L190.971 202.595C190.933 202.581 190.899 202.556 190.876 202.522C190.852 202.489 190.839 202.449 190.839 202.408C190.839 202.367 190.852 202.327 190.876 202.293C190.899 202.26 190.933 202.234 190.971 202.22L195.558 199.591C195.654 199.545 195.758 199.521 195.864 199.521C195.97 199.521 196.074 199.545 196.17 199.591H196.185ZM244.538 240.635C244.436 240.684 244.323 240.71 244.21 240.71C244.096 240.71 243.984 240.684 243.881 240.635L239.569 238.143C239.386 238.036 239.386 237.868 239.569 237.761L244.156 235.131C244.257 235.08 244.368 235.054 244.481 235.054C244.594 235.054 244.705 235.08 244.806 235.131L249.125 237.623C249.309 237.73 249.309 237.899 249.125 237.998L244.538 240.635ZM252.948 232.341L257.259 234.833C257.443 234.94 257.45 235.108 257.259 235.208L252.672 237.837C252.571 237.89 252.458 237.918 252.344 237.918C252.229 237.918 252.116 237.89 252.015 237.837L247.703 235.345C247.52 235.238 247.512 235.07 247.703 234.963L252.29 232.341C252.386 232.295 252.49 232.272 252.596 232.272C252.702 232.272 252.806 232.295 252.902 232.341H252.948ZM237.597 236.989L233.278 234.504C233.236 234.492 233.2 234.467 233.174 234.433C233.148 234.398 233.133 234.356 233.133 234.313C233.133 234.27 233.148 234.228 233.174 234.193C233.2 234.159 233.236 234.134 233.278 234.122L237.826 231.492C237.929 231.443 238.041 231.418 238.155 231.418C238.269 231.418 238.381 231.443 238.484 231.492L242.795 233.984C242.834 233.998 242.868 234.024 242.891 234.057C242.915 234.091 242.928 234.131 242.928 234.172C242.928 234.213 242.915 234.253 242.891 234.286C242.868 234.32 242.834 234.345 242.795 234.359L238.247 236.989C238.14 237.048 238.021 237.08 237.899 237.08C237.777 237.08 237.657 237.048 237.551 236.989H237.597ZM231.29 233.35L226.978 230.865C226.795 230.758 226.787 230.59 226.978 230.483L231.527 227.853C231.63 227.804 231.742 227.779 231.856 227.779C231.969 227.779 232.082 227.804 232.184 227.853L236.504 230.346C236.542 230.359 236.576 230.385 236.6 230.418C236.623 230.452 236.636 230.492 236.636 230.533C236.636 230.574 236.623 230.614 236.6 230.647C236.576 230.681 236.542 230.706 236.504 230.72L231.955 233.35C231.847 233.412 231.724 233.445 231.6 233.445C231.475 233.445 231.352 233.412 231.244 233.35H231.29ZM224.983 229.711L220.671 227.226C220.488 227.119 220.488 226.951 220.671 226.844L225.258 224.214C225.361 224.166 225.473 224.14 225.587 224.14C225.701 224.14 225.813 224.166 225.916 224.214L230.143 226.676C230.327 226.783 230.327 226.959 230.143 227.058L225.556 229.688C225.462 229.739 225.358 229.769 225.252 229.777C225.145 229.785 225.038 229.77 224.937 229.734L224.983 229.711ZM246.648 228.702L250.96 231.194C251.143 231.301 251.143 231.469 250.96 231.569L246.373 234.198C246.272 234.251 246.159 234.279 246.044 234.279C245.93 234.279 245.817 234.251 245.716 234.198L241.404 231.706C241.221 231.599 241.221 231.431 241.404 231.324L245.991 228.702C246.086 228.656 246.191 228.633 246.297 228.633C246.402 228.633 246.507 228.656 246.602 228.702H246.648ZM240.341 225.063L244.653 227.555C244.837 227.662 244.844 227.83 244.653 227.93L240.104 230.56C240.002 230.608 239.889 230.634 239.776 230.634C239.662 230.634 239.55 230.608 239.447 230.56L235.128 228.067C234.952 227.96 234.944 227.792 235.128 227.685L239.715 225.063C239.806 225.022 239.905 225.001 240.005 225.001C240.105 225.001 240.204 225.022 240.296 225.063H240.341ZM215.114 210.538L219.425 213.022C219.609 213.129 219.609 213.305 219.425 213.405L214.838 216.034C214.736 216.083 214.623 216.109 214.51 216.109C214.396 216.109 214.284 216.083 214.181 216.034L209.869 213.55C209.686 213.443 209.686 213.275 209.869 213.168L214.456 210.538C214.553 210.489 214.658 210.461 214.766 210.455C214.874 210.45 214.982 210.468 215.083 210.507L215.114 210.538ZM221.413 214.177L225.725 216.669C225.908 216.768 225.916 216.944 225.725 217.044L221.138 219.673C221.036 219.726 220.923 219.754 220.809 219.754C220.695 219.754 220.582 219.726 220.48 219.673L216.169 217.189C215.985 217.082 215.977 216.914 216.169 216.807L220.717 214.177C220.819 214.122 220.931 214.091 221.046 214.085C221.161 214.08 221.276 214.101 221.382 214.146L221.413 214.177ZM208.807 206.899L213.118 209.384C213.302 209.491 213.309 209.659 213.118 209.766L208.531 212.396C208.429 212.444 208.316 212.47 208.203 212.47C208.089 212.47 207.977 212.444 207.874 212.396L203.562 209.911C203.379 209.804 203.371 209.636 203.562 209.529L208.149 206.899C208.246 206.85 208.351 206.822 208.459 206.816C208.567 206.811 208.675 206.829 208.776 206.868L208.807 206.899ZM234.034 221.424L238.354 223.916C238.537 224.023 238.537 224.191 238.354 224.291L233.805 226.921C233.702 226.97 233.59 226.995 233.476 226.995C233.363 226.995 233.25 226.97 233.148 226.921L228.836 224.428C228.653 224.321 228.653 224.153 228.836 224.046L233.423 221.416C233.605 221.347 233.808 221.349 233.989 221.424H234.034ZM227.735 217.785L232.047 220.277C232.086 220.291 232.119 220.316 232.143 220.35C232.166 220.384 232.179 220.424 232.179 220.465C232.179 220.506 232.166 220.546 232.143 220.579C232.119 220.613 232.086 220.638 232.047 220.652L227.46 223.282C227.359 223.333 227.248 223.359 227.135 223.359C227.022 223.359 226.911 223.333 226.81 223.282L222.491 220.79C222.307 220.683 222.307 220.514 222.491 220.407L227.078 217.777C227.179 217.732 227.289 217.709 227.4 217.711C227.511 217.712 227.62 217.737 227.72 217.785H227.735ZM234.08 242.47L229.761 239.978C229.722 239.964 229.689 239.939 229.665 239.905C229.642 239.872 229.629 239.832 229.629 239.791C229.629 239.75 229.642 239.71 229.665 239.676C229.689 239.642 229.722 239.617 229.761 239.603L234.31 236.974C234.411 236.921 234.524 236.893 234.638 236.893C234.753 236.893 234.866 236.921 234.967 236.974L239.279 239.458C239.462 239.565 239.462 239.733 239.279 239.84L234.73 242.47C234.622 242.525 234.503 242.554 234.382 242.554C234.261 242.554 234.142 242.525 234.034 242.47H234.08ZM269.17 239.833L273.757 237.203C273.859 237.154 273.972 237.129 274.085 237.129C274.199 237.129 274.311 237.154 274.414 237.203L278.649 239.672C278.833 239.779 278.833 239.947 278.649 240.054L274.063 242.684C273.96 242.733 273.848 242.758 273.734 242.758C273.62 242.758 273.508 242.733 273.405 242.684L269.093 240.192C269.061 240.173 269.034 240.145 269.016 240.112C268.998 240.078 268.991 240.04 268.994 240.003C268.997 239.965 269.011 239.929 269.034 239.899C269.057 239.869 269.088 239.846 269.124 239.833H269.17ZM260.348 242.248L264.896 239.619C264.998 239.566 265.111 239.538 265.225 239.538C265.34 239.538 265.452 239.566 265.554 239.619L272.19 243.441C272.373 243.548 272.381 243.716 272.19 243.823L267.603 246.453C267.5 246.502 267.388 246.527 267.274 246.527C267.16 246.527 267.048 246.502 266.945 246.453L260.31 242.631C260.126 242.516 260.118 242.348 260.302 242.248H260.348ZM276.065 234.703L280.652 232.073C280.755 232.024 280.867 231.999 280.981 231.999C281.095 231.999 281.207 232.024 281.31 232.073L286.615 235.131C286.799 235.238 286.806 235.406 286.615 235.513L282.028 238.143C281.926 238.192 281.813 238.217 281.7 238.217C281.586 238.217 281.474 238.192 281.371 238.143L276.02 235.085C275.844 234.971 275.844 234.802 276.02 234.703H276.065ZM271.998 232.348C271.897 232.401 271.784 232.429 271.67 232.429C271.555 232.429 271.442 232.401 271.341 232.348L267.029 229.856C266.846 229.749 266.846 229.581 267.029 229.474L271.616 226.852C271.716 226.799 271.828 226.771 271.941 226.771C272.054 226.771 272.166 226.799 272.266 226.852L276.585 229.344C276.769 229.451 276.769 229.619 276.585 229.719L271.998 232.348ZM252.137 245.024L256.724 242.401C256.826 242.348 256.938 242.321 257.053 242.321C257.167 242.321 257.28 242.348 257.382 242.401L265.676 247.187C265.86 247.294 265.86 247.47 265.676 247.569L261.089 250.199C260.987 250.248 260.874 250.273 260.761 250.273C260.647 250.273 260.535 250.248 260.432 250.199L252.137 245.413C251.961 245.314 251.961 245.146 252.137 245.024ZM248.621 250.505L253.208 247.875C253.31 247.826 253.423 247.801 253.536 247.801C253.65 247.801 253.762 247.826 253.865 247.875L259.17 250.933C259.209 250.947 259.243 250.972 259.266 251.006C259.29 251.039 259.303 251.079 259.303 251.12C259.303 251.161 259.29 251.201 259.266 251.235C259.243 251.268 259.209 251.294 259.17 251.308L254.584 253.937C254.482 253.99 254.369 254.018 254.255 254.018C254.14 254.018 254.028 253.99 253.926 253.937L248.621 250.879C248.445 250.795 248.445 250.627 248.621 250.52V250.505ZM225.082 205.271C224.98 205.32 224.867 205.345 224.754 205.345C224.64 205.345 224.528 205.32 224.425 205.271L220.113 202.778C220.075 202.765 220.041 202.739 220.017 202.706C219.994 202.672 219.981 202.632 219.981 202.591C219.981 202.55 219.994 202.51 220.017 202.477C220.041 202.443 220.075 202.418 220.113 202.404L224.7 199.774C224.803 199.725 224.915 199.7 225.029 199.7C225.143 199.7 225.255 199.725 225.358 199.774L229.669 202.259C229.853 202.366 229.853 202.534 229.669 202.641L225.082 205.271ZM237.658 212.571C237.557 212.622 237.446 212.649 237.333 212.649C237.22 212.649 237.109 212.622 237.008 212.571L232.689 210.087C232.647 210.075 232.611 210.05 232.585 210.015C232.559 209.981 232.545 209.939 232.545 209.896C232.545 209.853 232.559 209.811 232.585 209.776C232.611 209.742 232.647 209.716 232.689 209.705L237.276 207.075C237.379 207.026 237.491 207.001 237.605 207.001C237.718 207.001 237.831 207.026 237.933 207.075L242.245 209.559C242.428 209.666 242.428 209.835 242.245 209.942L237.658 212.571ZM265.623 228.71C265.521 228.762 265.408 228.79 265.294 228.79C265.179 228.79 265.067 228.762 264.965 228.71L260.646 226.217C260.604 226.205 260.568 226.18 260.542 226.146C260.516 226.111 260.502 226.069 260.502 226.026C260.502 225.983 260.516 225.941 260.542 225.907C260.568 225.872 260.604 225.847 260.646 225.835L265.195 223.213C265.296 223.16 265.409 223.132 265.523 223.132C265.638 223.132 265.751 223.16 265.852 223.213L270.164 225.705C270.347 225.812 270.347 225.98 270.164 226.08L265.623 228.71ZM231.359 208.933C231.256 208.981 231.144 209.007 231.03 209.007C230.916 209.007 230.804 208.981 230.701 208.933L226.39 206.448C226.206 206.341 226.199 206.165 226.39 206.066L230.977 203.436C231.079 203.387 231.192 203.362 231.305 203.362C231.419 203.362 231.531 203.387 231.634 203.436L235.946 205.92C236.129 206.027 236.137 206.196 235.946 206.303L231.359 208.933ZM243.965 216.21C243.862 216.259 243.75 216.285 243.636 216.285C243.523 216.285 243.41 216.259 243.308 216.21L238.996 213.726C238.812 213.619 238.812 213.451 238.996 213.344L243.545 210.714C243.647 210.665 243.76 210.639 243.873 210.639C243.987 210.639 244.099 210.665 244.202 210.714L248.521 213.206C248.56 213.22 248.593 213.245 248.617 213.279C248.641 213.312 248.654 213.352 248.654 213.393C248.654 213.434 248.641 213.474 248.617 213.508C248.593 213.541 248.56 213.567 248.521 213.581L243.965 216.21ZM245.303 250.879C245.406 250.83 245.518 250.805 245.632 250.805C245.745 250.805 245.858 250.83 245.96 250.879L252.596 254.702C252.779 254.809 252.787 254.977 252.596 255.076L248.047 257.706C247.945 257.755 247.832 257.78 247.719 257.78C247.605 257.78 247.493 257.755 247.39 257.706L240.754 253.884C240.716 253.87 240.682 253.845 240.658 253.811C240.635 253.778 240.622 253.738 240.622 253.697C240.622 253.655 240.635 253.615 240.658 253.582C240.682 253.548 240.716 253.523 240.754 253.509L245.303 250.879ZM253.001 221.432C252.898 221.481 252.786 221.506 252.672 221.506C252.559 221.506 252.446 221.481 252.344 221.432L248.032 218.94C247.849 218.832 247.849 218.664 248.032 218.557L252.619 215.927C252.722 215.879 252.834 215.853 252.948 215.853C253.061 215.853 253.174 215.879 253.276 215.927L257.588 218.42C257.772 218.527 257.772 218.695 257.588 218.794L253.001 221.432ZM259.308 225.071C259.207 225.124 259.094 225.151 258.979 225.151C258.865 225.151 258.752 225.124 258.651 225.071L254.339 222.578C254.156 222.471 254.148 222.303 254.339 222.196L258.888 219.574C258.989 219.521 259.102 219.493 259.216 219.493C259.331 219.493 259.444 219.521 259.545 219.574L263.895 222.089C264.071 222.196 264.078 222.364 263.895 222.464L259.308 225.071ZM128.521 183.452C128.624 183.404 128.736 183.378 128.85 183.378C128.964 183.378 129.076 183.404 129.179 183.452L139.797 189.568C139.836 189.582 139.869 189.607 139.893 189.641C139.917 189.674 139.929 189.715 139.929 189.756C139.929 189.797 139.917 189.837 139.893 189.87C139.869 189.904 139.836 189.929 139.797 189.943L135.21 192.573C135.109 192.626 134.996 192.653 134.882 192.653C134.767 192.653 134.654 192.626 134.553 192.573L123.942 186.457C123.759 186.35 123.751 186.182 123.942 186.075L128.521 183.452ZM142.496 191.51C142.597 191.457 142.71 191.429 142.825 191.429C142.939 191.429 143.052 191.457 143.153 191.51L147.45 193.995C147.633 194.102 147.633 194.27 147.45 194.377L142.901 196.999C142.8 197.052 142.687 197.08 142.572 197.08C142.458 197.08 142.345 197.052 142.244 196.999L137.924 194.507C137.883 194.495 137.846 194.47 137.82 194.435C137.794 194.401 137.78 194.359 137.78 194.316C137.78 194.272 137.794 194.23 137.82 194.196C137.846 194.162 137.883 194.136 137.924 194.125L142.496 191.51ZM227.72 238.831L223.408 236.339C223.225 236.232 223.217 236.064 223.408 235.964L227.957 233.335C228.06 233.286 228.172 233.26 228.286 233.26C228.399 233.26 228.512 233.286 228.614 233.335L232.934 235.85C233.109 235.957 233.117 236.125 232.934 236.232L228.385 238.862C228.279 238.907 228.164 238.928 228.049 238.923C227.934 238.917 227.821 238.886 227.72 238.831V238.831ZM155.094 198.78C155.197 198.731 155.309 198.706 155.423 198.706C155.537 198.706 155.649 198.731 155.752 198.78L160.064 201.272C160.247 201.379 160.255 201.548 160.064 201.655L155.515 204.277C155.413 204.33 155.301 204.357 155.186 204.357C155.072 204.357 154.959 204.33 154.857 204.277L150.546 201.785C150.362 201.678 150.355 201.509 150.546 201.41L155.094 198.78ZM122.222 179.814C122.325 179.765 122.437 179.739 122.551 179.739C122.664 179.739 122.777 179.765 122.879 179.814L127.229 182.336C127.268 182.35 127.301 182.375 127.325 182.409C127.349 182.443 127.361 182.483 127.361 182.524C127.361 182.565 127.349 182.605 127.325 182.638C127.301 182.672 127.268 182.697 127.229 182.711L122.642 185.341C122.54 185.39 122.427 185.415 122.314 185.415C122.2 185.415 122.088 185.39 121.985 185.341L117.673 182.856C117.49 182.749 117.49 182.581 117.673 182.474L122.222 179.814ZM111.366 178.804L122.459 172.398C122.562 172.349 122.674 172.324 122.788 172.324C122.901 172.324 123.014 172.349 123.116 172.398L127.428 174.883C127.611 174.99 127.611 175.158 127.428 175.265L116.374 181.648C116.271 181.697 116.159 181.723 116.045 181.723C115.931 181.723 115.819 181.697 115.716 181.648L111.405 179.164C111.229 179.08 111.221 178.911 111.405 178.804H111.366ZM178.64 212.38C178.742 212.327 178.855 212.3 178.969 212.3C179.084 212.3 179.196 212.327 179.298 212.38L184.611 215.438C184.794 215.545 184.794 215.713 184.611 215.82L180.024 218.45C179.921 218.499 179.809 218.525 179.695 218.525C179.582 218.525 179.469 218.499 179.367 218.45L174.061 215.392C173.878 215.285 173.87 215.117 174.061 215.018L178.64 212.38ZM162.716 203.207C162.819 203.158 162.931 203.132 163.045 203.132C163.159 203.132 163.271 203.158 163.374 203.207L170.009 207.029C170.193 207.136 170.201 207.304 170.009 207.404L165.423 210.033C165.32 210.082 165.208 210.108 165.094 210.108C164.98 210.108 164.868 210.082 164.765 210.033L158.129 206.211C157.946 206.112 157.938 205.936 158.129 205.836L162.716 203.207ZM193.242 220.828C193.345 220.779 193.457 220.753 193.571 220.753C193.684 220.753 193.797 220.779 193.899 220.828L229.394 241.323C229.578 241.43 229.585 241.599 229.394 241.698L224.845 244.328C224.744 244.381 224.631 244.408 224.517 244.408C224.402 244.408 224.289 244.381 224.188 244.328L188.731 223.817C188.69 223.805 188.653 223.78 188.627 223.745C188.601 223.711 188.587 223.669 188.587 223.626C188.587 223.583 188.601 223.541 188.627 223.506C188.653 223.472 188.69 223.447 188.731 223.435L193.242 220.828ZM230.701 242.478C230.803 242.425 230.916 242.397 231.03 242.397C231.145 242.397 231.257 242.425 231.359 242.478L236.664 245.536C236.848 245.643 236.855 245.811 236.664 245.918L232.077 248.54C231.976 248.593 231.863 248.621 231.749 248.621C231.634 248.621 231.521 248.593 231.42 248.54L226.069 245.482C226.027 245.47 225.991 245.445 225.965 245.411C225.938 245.376 225.924 245.334 225.924 245.291C225.924 245.248 225.938 245.206 225.965 245.171C225.991 245.137 226.027 245.112 226.069 245.1L230.701 242.478ZM185.911 216.615C186.012 216.563 186.125 216.535 186.239 216.535C186.354 216.535 186.467 216.563 186.568 216.615L191.874 219.673C192.057 219.78 192.065 219.949 191.874 220.056L187.287 222.685C187.184 222.734 187.072 222.76 186.958 222.76C186.844 222.76 186.732 222.734 186.629 222.685L181.324 219.628C181.14 219.528 181.133 219.352 181.324 219.253L185.911 216.615ZM238.002 246.69C238.105 246.641 238.217 246.616 238.331 246.616C238.445 246.616 238.557 246.641 238.66 246.69L243.965 249.748C244.149 249.855 244.149 250.023 243.965 250.13L239.378 252.76C239.277 252.811 239.166 252.838 239.053 252.838C238.94 252.838 238.829 252.811 238.728 252.76L233.415 249.702C233.232 249.595 233.232 249.427 233.415 249.328L238.002 246.69ZM171.317 208.191C171.418 208.138 171.531 208.11 171.645 208.11C171.76 208.11 171.873 208.138 171.974 208.191L177.28 211.249C177.463 211.356 177.463 211.524 177.28 211.631L172.693 214.253C172.591 214.306 172.478 214.334 172.364 214.334C172.25 214.334 172.137 214.306 172.035 214.253L166.73 211.195C166.546 211.088 166.546 210.92 166.73 210.813L171.317 208.191ZM148.757 195.195C148.858 195.142 148.971 195.114 149.086 195.114C149.2 195.114 149.313 195.142 149.414 195.195L153.772 197.626C153.955 197.733 153.955 197.901 153.772 198.008L149.185 200.63C149.084 200.683 148.971 200.711 148.856 200.711C148.742 200.711 148.629 200.683 148.528 200.63L144.216 198.138C144.032 198.031 144.032 197.863 144.216 197.763L148.757 195.195ZM134.79 185.257L130.471 182.772C130.287 182.665 130.287 182.497 130.471 182.39L135.058 179.76C135.16 179.711 135.272 179.686 135.386 179.686C135.5 179.686 135.612 179.711 135.715 179.76L140.027 182.245C140.21 182.352 140.21 182.527 140.027 182.627L135.44 185.257C135.341 185.291 135.235 185.304 135.131 185.293C135.027 185.282 134.926 185.249 134.836 185.195L134.79 185.257ZM161.723 185.792L157.411 183.307C157.227 183.2 157.227 183.032 157.411 182.925L161.998 180.295C162.1 180.246 162.213 180.221 162.326 180.221C162.44 180.221 162.552 180.246 162.655 180.295L166.967 182.787C167.15 182.894 167.15 183.063 166.967 183.162L162.38 185.792C162.28 185.828 162.173 185.841 162.067 185.831C161.961 185.82 161.859 185.786 161.768 185.731L161.723 185.792ZM177.264 209.72L164.658 202.434C164.619 202.421 164.586 202.395 164.562 202.362C164.539 202.328 164.526 202.288 164.526 202.247C164.526 202.206 164.539 202.166 164.562 202.133C164.586 202.099 164.619 202.074 164.658 202.06L169.245 199.43C169.346 199.377 169.459 199.349 169.574 199.349C169.688 199.349 169.801 199.377 169.902 199.43L182.509 206.708C182.547 206.722 182.581 206.747 182.604 206.781C182.628 206.814 182.641 206.854 182.641 206.895C182.641 206.936 182.628 206.976 182.604 207.01C182.581 207.043 182.547 207.069 182.509 207.082L177.922 209.712C177.82 209.762 177.708 209.789 177.594 209.79C177.48 209.792 177.368 209.768 177.264 209.72V209.72ZM141.762 188.842C141.659 188.891 141.547 188.916 141.433 188.916C141.32 188.916 141.207 188.891 141.105 188.842L136.793 186.357C136.609 186.25 136.609 186.082 136.793 185.975L141.38 183.345C141.482 183.297 141.595 183.271 141.708 183.271C141.822 183.271 141.935 183.297 142.037 183.345L146.356 185.838C146.395 185.851 146.429 185.877 146.452 185.91C146.476 185.944 146.489 185.984 146.489 186.025C146.489 186.066 146.476 186.106 146.452 186.14C146.429 186.173 146.395 186.198 146.356 186.212L141.762 188.842ZM147.61 185.081L143.291 182.596C143.115 182.489 143.107 182.321 143.291 182.214L147.84 179.584C147.942 179.535 148.055 179.51 148.168 179.51C148.282 179.51 148.394 179.535 148.497 179.584L152.801 182.076C152.985 182.183 152.992 182.352 152.801 182.459L148.252 185.088C148.155 185.129 148.051 185.15 147.946 185.148C147.841 185.147 147.737 185.124 147.641 185.081H147.61ZM183.541 213.366L179.229 210.874C179.046 210.767 179.046 210.599 179.229 210.492L183.816 207.862C183.919 207.813 184.031 207.788 184.145 207.788C184.258 207.788 184.371 207.813 184.473 207.862L188.793 210.354C188.976 210.461 188.976 210.63 188.793 210.729L184.244 213.359C184.143 213.405 184.034 213.43 183.923 213.43C183.812 213.43 183.702 213.405 183.602 213.359L183.541 213.366ZM155.729 196.861C155.627 196.914 155.515 196.942 155.4 196.942C155.286 196.942 155.173 196.914 155.072 196.861L150.76 194.369C150.576 194.262 150.569 194.094 150.76 193.987L155.309 191.365C155.41 191.312 155.523 191.284 155.637 191.284C155.752 191.284 155.864 191.312 155.966 191.365L160.278 193.857C160.461 193.964 160.469 194.132 160.278 194.239L155.729 196.861ZM215.121 231.53L210.81 229.038C210.626 228.931 210.619 228.763 210.81 228.664L215.358 226.034C215.46 225.981 215.573 225.953 215.687 225.953C215.801 225.953 215.914 225.981 216.016 226.034L220.327 228.526C220.511 228.633 220.518 228.801 220.327 228.908L215.741 231.53C215.646 231.581 215.541 231.609 215.434 231.613C215.326 231.617 215.22 231.597 215.121 231.553V231.53ZM208.814 227.892L204.503 225.399C204.319 225.292 204.319 225.124 204.503 225.025L209.09 222.395C209.191 222.342 209.304 222.314 209.418 222.314C209.533 222.314 209.646 222.342 209.747 222.395L214.059 224.887C214.242 224.994 214.242 225.162 214.059 225.269L209.472 227.892C209.372 227.948 209.26 227.98 209.146 227.984C209.031 227.988 208.918 227.964 208.814 227.914V227.892ZM221.421 235.169L217.109 232.677C216.925 232.57 216.925 232.402 217.109 232.303L221.696 229.673C221.798 229.624 221.911 229.598 222.025 229.598C222.138 229.598 222.251 229.624 222.353 229.673L226.665 232.165C226.848 232.272 226.848 232.44 226.665 232.547L222.078 235.177C221.976 235.228 221.865 235.256 221.751 235.259C221.637 235.262 221.524 235.239 221.421 235.192V235.169ZM196.193 220.644L191.881 218.152C191.698 218.045 191.698 217.877 191.881 217.77L196.468 215.148C196.568 215.095 196.68 215.067 196.793 215.067C196.906 215.067 197.018 215.095 197.118 215.148L201.437 217.64C201.621 217.747 201.621 217.915 201.437 218.015L196.85 220.644C196.75 220.693 196.64 220.718 196.528 220.717C196.417 220.716 196.307 220.688 196.208 220.637L196.193 220.644ZM202.492 224.276L198.18 221.783C197.997 221.676 197.989 221.508 198.18 221.401L202.767 218.779C202.869 218.726 202.982 218.698 203.096 218.698C203.21 218.698 203.323 218.726 203.425 218.779L207.736 221.271C207.92 221.378 207.928 221.546 207.736 221.653L203.15 224.276C203.048 224.328 202.935 224.356 202.821 224.356C202.706 224.356 202.594 224.328 202.492 224.276ZM189.886 216.998L185.567 214.506C185.525 214.494 185.488 214.469 185.462 214.434C185.436 214.4 185.422 214.358 185.422 214.314C185.422 214.271 185.436 214.229 185.462 214.195C185.488 214.16 185.525 214.135 185.567 214.123L190.153 211.501C190.255 211.448 190.368 211.421 190.482 211.421C190.597 211.421 190.709 211.448 190.811 211.501L195.123 213.993C195.306 214.1 195.306 214.269 195.123 214.368L190.574 216.998C190.471 217.052 190.357 217.08 190.241 217.08C190.125 217.08 190.011 217.052 189.909 216.998H189.886ZM158.259 164.753C158.158 164.806 158.045 164.834 157.931 164.834C157.816 164.834 157.703 164.806 157.602 164.753L153.283 162.261C153.099 162.154 153.099 161.986 153.283 161.887L154.491 161.183C154.593 161.134 154.706 161.109 154.819 161.109C154.933 161.109 155.045 161.134 155.148 161.183L159.46 163.675C159.643 163.782 159.643 163.951 159.46 164.058L158.259 164.753ZM189.427 184.706C189.326 184.757 189.215 184.784 189.102 184.784C188.989 184.784 188.878 184.757 188.777 184.706L184.458 182.214C184.275 182.107 184.275 181.939 184.458 181.832L189.045 179.202C189.148 179.153 189.26 179.128 189.374 179.128C189.487 179.128 189.6 179.153 189.702 179.202L194.014 181.694C194.053 181.708 194.086 181.733 194.11 181.767C194.134 181.8 194.146 181.84 194.146 181.881C194.146 181.922 194.134 181.963 194.11 181.996C194.086 182.03 194.053 182.055 194.014 182.069L189.427 184.706ZM176.821 177.428C176.718 177.477 176.606 177.503 176.492 177.503C176.378 177.503 176.266 177.477 176.163 177.428L171.852 174.944C171.668 174.837 171.668 174.669 171.852 174.562L176.439 171.932C176.541 171.883 176.654 171.857 176.767 171.857C176.881 171.857 176.993 171.883 177.096 171.932L181.408 174.424C181.446 174.438 181.48 174.463 181.504 174.497C181.527 174.53 181.54 174.57 181.54 174.611C181.54 174.652 181.527 174.692 181.504 174.726C181.48 174.759 181.446 174.785 181.408 174.799L176.821 177.428ZM197.141 189.148C197.039 189.201 196.926 189.228 196.812 189.228C196.698 189.228 196.585 189.201 196.483 189.148L192.172 186.656C191.988 186.549 191.988 186.38 192.172 186.273L196.759 183.651C196.86 183.598 196.973 183.571 197.087 183.571C197.202 183.571 197.314 183.598 197.416 183.651L201.674 186.159C201.858 186.266 201.858 186.434 201.674 186.541L197.141 189.148ZM183.143 181.067C183.042 181.12 182.929 181.148 182.814 181.148C182.7 181.148 182.587 181.12 182.486 181.067L178.174 178.583C177.991 178.476 177.983 178.308 178.174 178.2L182.761 175.571C182.864 175.522 182.976 175.496 183.09 175.496C183.203 175.496 183.316 175.522 183.418 175.571L187.73 178.063C187.914 178.162 187.921 178.338 187.73 178.437L183.143 181.067ZM209.747 196.426C209.647 196.479 209.535 196.506 209.422 196.506C209.309 196.506 209.197 196.479 209.097 196.426L204.778 193.933C204.594 193.826 204.594 193.658 204.778 193.559L209.365 190.929C209.466 190.876 209.579 190.848 209.693 190.848C209.808 190.848 209.921 190.876 210.022 190.929L214.334 193.421C214.517 193.528 214.517 193.696 214.334 193.803L209.747 196.426ZM203.448 192.787C203.346 192.84 203.233 192.867 203.119 192.867C203.005 192.867 202.892 192.84 202.79 192.787L198.479 190.295C198.295 190.188 198.287 190.019 198.479 189.92L203.027 187.29C203.129 187.237 203.242 187.21 203.356 187.21C203.47 187.21 203.583 187.237 203.685 187.29L207.996 189.782C208.18 189.889 208.187 190.058 207.996 190.165L203.448 192.787ZM170.881 172.054C170.779 172.107 170.667 172.135 170.552 172.135C170.438 172.135 170.325 172.107 170.223 172.054L165.904 169.562C165.728 169.455 165.721 169.287 165.904 169.187L167.112 168.484C167.215 168.435 167.327 168.41 167.441 168.41C167.555 168.41 167.667 168.435 167.77 168.484L172.081 170.969C172.265 171.076 172.272 171.244 172.081 171.351L170.881 172.054ZM151.968 161.137C151.866 161.19 151.754 161.218 151.639 161.218C151.525 161.218 151.412 161.19 151.31 161.137L146.999 158.645C146.815 158.538 146.808 158.37 146.999 158.263L148.214 157.567C148.317 157.518 148.429 157.493 148.543 157.493C148.657 157.493 148.769 157.518 148.872 157.567L153.191 160.059C153.232 160.071 153.269 160.096 153.295 160.131C153.321 160.165 153.335 160.207 153.335 160.251C153.335 160.294 153.321 160.336 153.295 160.37C153.269 160.405 153.232 160.43 153.191 160.442L151.968 161.137ZM142.404 166.657C142.303 166.71 142.19 166.737 142.075 166.737C141.961 166.737 141.848 166.71 141.747 166.657L137.435 164.165C137.252 164.058 137.252 163.889 137.435 163.79L142.022 161.16C142.122 161.107 142.234 161.08 142.347 161.08C142.46 161.08 142.572 161.107 142.672 161.16L146.991 163.652C147.174 163.759 147.174 163.928 146.991 164.035L142.404 166.657ZM128.529 181.572L124.217 179.087C124.034 178.98 124.026 178.812 124.217 178.705L128.766 176.075C128.869 176.026 128.981 176.001 129.095 176.001C129.208 176.001 129.321 176.026 129.423 176.075L133.689 178.552C133.873 178.659 133.88 178.827 133.689 178.934L129.14 181.564C129.045 181.607 128.941 181.631 128.835 181.632C128.73 181.633 128.626 181.613 128.529 181.572ZM164.559 168.43C164.457 168.483 164.344 168.511 164.23 168.511C164.116 168.511 164.003 168.483 163.901 168.43L159.59 165.938C159.406 165.831 159.406 165.663 159.59 165.564L160.805 164.86C160.907 164.807 161.019 164.78 161.134 164.78C161.248 164.78 161.361 164.807 161.463 164.86L165.797 167.337C165.981 167.444 165.981 167.612 165.797 167.719L164.559 168.43ZM216.039 200.08C215.937 200.133 215.824 200.16 215.71 200.16C215.595 200.16 215.483 200.133 215.381 200.08L211.07 197.588C210.886 197.481 210.886 197.312 211.07 197.213L215.611 194.568C215.713 194.519 215.826 194.494 215.939 194.494C216.053 194.494 216.165 194.519 216.268 194.568L220.587 197.06C220.763 197.167 220.771 197.335 220.587 197.442L216.039 200.08Z" fill="#455A64"></path>
<path d="M192.952 237.126L154.101 214.697C153.444 214.365 152.719 214.192 151.983 214.192C151.247 214.192 150.522 214.365 149.866 214.697L127.573 227.555C126.404 228.235 126.404 229.329 127.573 230.009L166.417 252.431C167.073 252.767 167.8 252.942 168.538 252.942C169.275 252.942 170.003 252.767 170.659 252.431L192.936 239.573C194.083 238.908 194.083 237.799 192.952 237.126Z" fill="#263238"></path>
<path d="M199.526 67.0838C211.666 77.9929 222.155 77.4195 228.714 72.3663C235.265 84.9955 245.754 97.6705 257.894 100.782L264.828 119.512C264.828 119.512 261.112 123.793 261.112 134.037C261.149 138.33 261.727 142.601 262.832 146.75C264.094 151.803 265.722 157.032 265.722 165.77C265.722 171.687 264.958 177.444 261.946 182.68C260.128 185.849 257.51 188.485 254.354 190.325L264.897 184.209C268.221 182.371 270.983 179.662 272.885 176.374C275.882 171.129 276.647 165.38 276.647 159.456C276.647 150.725 275.018 145.489 273.757 140.428C272.658 136.281 272.087 132.012 272.06 127.722C272.06 117.478 275.775 113.197 275.775 113.197L268.849 94.4674C256.709 91.3559 246.22 78.6809 239.669 66.0517C233.11 71.1049 222.621 71.6783 210.481 60.7692L199.526 67.0838Z" fill="#8D37FF"></path>
<path opacity="0.8" d="M235.808 68.2764L239.631 66.0517C238.46 66.9583 237.175 67.7063 235.808 68.2764Z" fill="white"></path>
<path opacity="0.85" d="M210.466 60.7845C220.458 69.7594 229.325 70.9597 235.808 68.2916L228.714 72.3816C222.155 77.4348 211.666 78.0082 199.526 67.0991L210.466 60.7845Z" fill="white"></path>
<path opacity="0.65" d="M239.653 66.0517C246.205 78.6809 256.694 91.3559 268.834 94.4674L257.894 100.782C245.754 97.6705 235.265 84.9955 228.714 72.3663L239.653 66.0517Z" fill="white"></path>
<path opacity="0.55" d="M268.834 94.4673L275.76 113.197L264.828 119.512L257.894 100.782L268.834 94.4673Z" fill="white"></path>
<path opacity="0.4" d="M261.946 182.68C264.942 177.444 265.722 171.687 265.722 165.77C265.722 157.032 264.094 151.803 262.832 146.75C261.727 142.601 261.149 138.33 261.112 134.037C261.112 123.793 264.828 119.512 264.828 119.512L275.76 113.197C275.76 113.197 272.044 117.478 272.044 127.722C272.082 132.013 272.662 136.282 273.772 140.428C275.034 145.489 276.662 150.725 276.662 159.456C276.662 165.38 275.897 171.129 272.885 176.366C270.983 179.654 268.221 182.363 264.897 184.202L254.354 190.318C257.509 188.48 260.127 185.846 261.946 182.68Z" fill="white"></path>
<path opacity="0.05" d="M261.946 182.68C264.942 177.444 265.722 171.687 265.722 165.77C265.722 157.032 264.094 151.803 262.832 146.75C261.727 142.601 261.149 138.33 261.112 134.037C261.112 123.793 264.828 119.512 264.828 119.512L275.76 113.197C275.76 113.197 272.044 117.478 272.044 127.722C272.082 132.013 272.662 136.282 273.772 140.428C275.034 145.489 276.662 150.725 276.662 159.456C276.662 165.38 275.897 171.129 272.885 176.366C270.983 179.654 268.221 182.363 264.897 184.202L254.354 190.318C257.509 188.48 260.127 185.846 261.946 182.68Z" fill="black"></path>
<path d="M228.714 195.508C246.847 195.715 257.236 190.922 261.953 182.68C264.942 177.444 265.722 171.687 265.722 165.763C265.722 157.032 264.101 151.811 262.832 146.75C261.727 142.604 261.149 138.335 261.112 134.044C261.112 123.8 264.828 119.519 264.828 119.519L257.894 100.782C245.754 97.6705 235.265 84.9878 228.714 72.3663C222.155 77.4195 211.666 77.9929 199.526 67.0838L192.592 77.7864C194.975 83.7768 196.237 90.1539 196.315 96.6003C196.379 100.242 195.794 103.866 194.587 107.303C193.326 110.896 191.698 114.252 191.698 122.982C191.718 130.239 192.995 137.438 195.474 144.258C200.199 157.988 210.573 174.768 228.714 195.508Z" fill="#8D37FF"></path>
<path opacity="0.75" d="M228.714 195.508C246.847 195.715 257.236 190.922 261.953 182.68C264.942 177.444 265.722 171.687 265.722 165.763C265.722 157.032 264.101 151.811 262.832 146.75C261.727 142.604 261.149 138.335 261.112 134.044C261.112 123.8 264.828 119.519 264.828 119.519L257.894 100.782C245.754 97.6705 235.265 84.9878 228.714 72.3663C222.155 77.4195 211.666 77.9929 199.526 67.0838L192.592 77.7864C194.975 83.7768 196.237 90.1539 196.315 96.6003C196.379 100.242 195.794 103.866 194.587 107.303C193.326 110.896 191.698 114.252 191.698 122.982C191.718 130.239 192.995 137.438 195.474 144.258C200.199 157.988 210.573 174.768 228.714 195.508Z" fill="white"></path>
<path d="M230.862 190.799C244.906 190.631 253.988 187.114 257.856 180.349C260.042 176.526 261.013 172.031 261.013 165.763C261.014 160.297 260.241 154.859 258.72 149.609C258.574 149.028 258.421 148.462 258.284 147.889C257.075 143.372 256.449 138.72 256.419 134.044C256.419 126.575 258.207 121.69 259.629 118.984L254.278 104.612C241.282 100.094 231.886 87.2583 226.91 78.8414C224.229 79.9811 221.345 80.5637 218.432 80.5538C212.56 80.5538 206.59 78.3674 200.627 74.0481L197.837 78.3751C199.869 84.2504 200.943 90.4144 201.017 96.6308C201.085 100.811 200.412 104.97 199.029 108.916C198.884 109.329 198.731 109.742 198.578 110.154C197.462 113.212 196.407 116.094 196.407 123.028C196.433 129.761 197.622 136.439 199.924 142.767C204.564 156.237 214.969 172.398 230.862 190.799Z" fill="#8D37FF"></path>
<path opacity="0.4" d="M230.862 190.799C244.906 190.631 253.988 187.114 257.856 180.349C260.042 176.526 261.013 172.031 261.013 165.763C261.014 160.297 260.241 154.859 258.72 149.609C258.574 149.028 258.421 148.462 258.284 147.889C257.075 143.372 256.449 138.72 256.419 134.044C256.419 126.575 258.207 121.69 259.629 118.984L254.278 104.612C241.282 100.094 231.886 87.2583 226.91 78.8414C224.229 79.9811 221.345 80.5637 218.432 80.5538C212.56 80.5538 206.59 78.3674 200.627 74.0481L197.837 78.3751C199.869 84.2504 200.943 90.4144 201.017 96.6308C201.085 100.811 200.412 104.97 199.029 108.916C198.884 109.329 198.731 109.742 198.578 110.154C197.462 113.212 196.407 116.094 196.407 123.028C196.433 129.761 197.622 136.439 199.924 142.767C204.564 156.237 214.969 172.398 230.862 190.799Z" fill="white"></path>
<path opacity="0.15" d="M230.862 190.799C244.906 190.631 253.988 187.114 257.856 180.349C260.042 176.526 261.013 172.031 261.013 165.763C261.014 160.297 260.241 154.859 258.72 149.609C258.574 149.028 258.421 148.462 258.284 147.889C257.075 143.372 256.449 138.72 256.419 134.044C256.419 126.575 258.207 121.69 259.629 118.984L254.278 104.612C241.282 100.094 231.886 87.2583 226.91 78.8414C224.229 79.9811 221.345 80.5637 218.432 80.5538C212.56 80.5538 206.59 78.3674 200.627 74.0481L197.837 78.3751C199.869 84.2504 200.943 90.4144 201.017 96.6308C201.085 100.811 200.412 104.97 199.029 108.916C198.884 109.329 198.731 109.742 198.578 110.154C197.462 113.212 196.407 116.094 196.407 123.028C196.433 129.761 197.622 136.439 199.924 142.767C204.564 156.237 214.969 172.398 230.862 190.799Z" fill="black"></path>
<path opacity="0.8" d="M254.637 184.24C249.852 188.46 241.901 190.669 230.862 190.799L237.903 186.786C243.583 186.863 249.237 186.003 254.637 184.24V184.24Z" fill="white"></path>
<path opacity="0.15" d="M201.514 76.2575L197.844 78.3751L200.635 74.0481L202.232 75.149L201.514 76.2575Z" fill="black"></path>
<path d="M202.706 106.798C204.089 102.853 204.762 98.6935 204.694 94.5132C204.62 88.2968 203.546 82.1328 201.514 76.2574L202.232 75.1489C207.66 78.7343 213.088 80.5538 218.439 80.5538C221.352 80.5637 224.237 79.9811 226.917 78.8414C231.894 87.2506 241.289 100.094 254.286 104.612L259.637 118.984C258.215 121.69 256.426 126.575 256.426 134.044C256.456 138.72 257.083 143.372 258.291 147.889C258.429 148.462 258.582 149.028 258.727 149.609C260.249 154.859 261.021 160.297 261.021 165.763C261.021 172.031 260.05 176.526 257.863 180.349C256.712 182.318 255.147 184.013 253.276 185.318C248.583 187.458 242.329 188.58 234.516 188.682C218.63 170.273 208.226 154.12 203.585 140.649C201.283 134.322 200.094 127.644 200.069 120.911C200.069 113.977 201.131 111.095 202.248 108.037C202.408 107.624 202.561 107.211 202.706 106.798Z" fill="#455A64"></path>
<path d="M254.286 104.612L259.637 118.984C258.215 121.69 256.426 126.575 256.426 134.044C256.456 138.72 257.083 143.372 258.291 147.889C258.429 148.462 258.582 149.028 258.727 149.609C260.249 154.859 261.021 160.297 261.021 165.763C261.021 172.031 260.05 176.526 257.863 180.349C256.712 182.318 255.147 184.013 253.276 185.318C248.583 187.458 242.329 188.58 234.516 188.682V135.703L226.871 133.41V78.8414C229.128 82.6663 231.684 86.3064 234.516 89.7276C239.615 95.8664 246.266 101.822 254.286 104.612Z" fill="#37474F"></path>
<path d="M216.161 116.148C216.243 115.998 216.34 115.857 216.452 115.727L216.49 115.682C216.713 115.439 216.971 115.23 217.254 115.062L219.8 113.595C220.26 113.337 220.754 113.146 221.268 113.029C221.575 112.961 221.887 112.913 222.2 112.884V105.346C222.2 101.562 223.63 98.5726 226.122 97.1354C228.614 95.6981 231.474 95.9428 234.402 97.6552C239.845 100.797 244.103 108.465 244.103 115.108V124.007L249.179 126.935C249.33 127.022 249.473 127.121 249.607 127.233L249.745 127.34C249.952 127.506 250.122 127.715 250.242 127.952C250.362 128.19 250.43 128.45 250.44 128.716V159.242C250.438 159.373 250.42 159.504 250.387 159.631C250.227 160.145 249.888 160.585 249.431 160.87L249.148 161.053L247.902 161.772L246.595 162.536C246.085 162.819 245.532 163.017 244.959 163.125C243.395 163.471 241.759 163.26 240.334 162.529L217.224 149.189C216.867 149.03 216.558 148.78 216.329 148.463C216.101 148.146 215.961 147.773 215.924 147.384V116.874C215.942 116.616 216.024 116.367 216.161 116.148ZM239.134 115.108C239.134 110.246 235.831 104.237 231.925 101.982C230.594 101.218 229.402 101.019 228.645 101.462C227.751 101.975 227.223 103.427 227.223 105.346V114.244L233.79 118.067L239.141 121.125L239.134 115.108Z" fill="#263238"></path>
<path d="M213.287 118.22C213.323 117.83 213.463 117.458 213.691 117.141C213.919 116.824 214.229 116.573 214.586 116.416L217.132 114.94C218.101 114.445 219.174 114.187 220.263 114.187C221.351 114.187 222.424 114.445 223.393 114.94L246.503 128.28C246.861 128.44 247.17 128.692 247.398 129.01C247.627 129.329 247.766 129.702 247.803 130.092V160.618C247.769 161.008 247.63 161.383 247.401 161.702C247.173 162.02 246.862 162.272 246.503 162.429L243.958 163.905C242.987 164.395 241.914 164.65 240.827 164.65C239.74 164.65 238.667 164.395 237.696 163.905L214.586 150.557C214.229 150.399 213.92 150.148 213.692 149.831C213.464 149.514 213.324 149.142 213.287 148.753V148.753V118.22Z" fill="#8D37FF"></path>
<path opacity="0.4" d="M243.958 133.41L246.503 131.881C248.239 130.887 248.239 129.266 246.503 128.265L223.393 114.925C222.424 114.43 221.351 114.171 220.263 114.171C219.174 114.171 218.101 114.43 217.132 114.925L214.586 116.4C212.859 117.394 212.859 119.015 214.586 120.009L237.658 133.41C238.634 133.906 239.713 134.165 240.808 134.165C241.903 134.165 242.982 133.906 243.958 133.41V133.41Z" fill="white"></path>
<path opacity="0.1" d="M240.823 134.121V164.646C241.916 164.663 242.995 164.4 243.958 163.882L246.511 162.46C246.87 162.301 247.18 162.049 247.407 161.728C247.635 161.408 247.772 161.032 247.803 160.641V130.092C247.768 130.481 247.63 130.853 247.403 131.17C247.176 131.487 246.868 131.738 246.511 131.896L243.958 133.372C242.995 133.887 241.915 134.145 240.823 134.121V134.121Z" fill="black"></path>
<path d="M224.005 149.219L229.524 152.407L228.668 142.423C229.326 142.071 229.746 141.215 229.746 139.984C229.746 137.783 228.416 135.229 226.765 134.281C225.113 133.333 223.783 134.335 223.783 136.575C223.817 137.876 224.188 139.145 224.861 140.26L224.005 149.219Z" fill="#455A64"></path>
<path d="M224.005 149.219L229.004 146.337L229.524 152.407L224.005 149.219Z" fill="#37474F"></path>
<path d="M226.764 134.281C227.966 135.092 228.862 136.282 229.31 137.66L224.861 140.229C224.188 139.115 223.817 137.845 223.783 136.544C223.783 134.335 225.113 133.326 226.764 134.281Z" fill="#37474F"></path>
<path d="M219.533 118.885V106.653C219.533 102.831 220.962 99.8799 223.454 98.4427C225.946 97.0054 228.806 97.2577 231.734 98.9625C237.177 102.105 241.435 109.772 241.435 116.416V128.685C241.413 128.91 241.33 129.123 241.195 129.304C241.06 129.484 240.879 129.625 240.67 129.71C240.124 129.985 239.52 130.128 238.908 130.128C238.296 130.128 237.693 129.985 237.146 129.71C236.938 129.625 236.756 129.484 236.621 129.304C236.487 129.123 236.404 128.91 236.382 128.685V128.685V116.454C236.382 111.592 233.079 105.583 229.173 103.328C227.842 102.563 226.642 102.372 225.885 102.808C224.999 103.32 224.463 104.773 224.463 106.691V118.923C224.439 119.145 224.356 119.356 224.221 119.533C224.086 119.711 223.906 119.849 223.699 119.932C223.152 120.207 222.549 120.35 221.937 120.35C221.325 120.35 220.721 120.207 220.175 119.932C219.97 119.846 219.791 119.708 219.657 119.53C219.522 119.353 219.437 119.144 219.41 118.923L219.533 118.885Z" fill="#E0E0E0"></path>
<path d="M189.825 172.559L186.461 170.617L185.131 168.996L188.495 170.938L189.825 172.559Z" fill="#8D37FF"></path>
<path opacity="0.4" d="M189.825 172.559L186.461 170.617L185.131 168.996L188.495 170.938L189.825 172.559Z" fill="black"></path>
<path d="M180.674 177.841L177.31 175.9L174.497 173.407L177.861 175.349L180.674 177.841Z" fill="#8D37FF"></path>
<path opacity="0.4" d="M180.674 177.841L177.31 175.9L174.497 173.407L177.861 175.349L180.674 177.841Z" fill="black"></path>
<path d="M152.037 184.553C151.241 185.62 150.759 186.889 150.645 188.215C151.435 187.145 151.916 185.878 152.037 184.553V184.553ZM144.216 184.653C145.347 176.947 149.483 169.363 154.422 166.473C156.792 165.105 159.009 165.059 160.736 166.084L163.901 167.911L164.085 168.018C164.226 168.094 164.361 168.181 164.49 168.278C164.761 168.455 165.016 168.655 165.254 168.874L165.361 168.973C165.461 169.073 165.56 169.187 165.652 169.294C165.744 169.401 165.889 169.57 165.988 169.707C166.217 170.008 166.424 170.325 166.608 170.655C166.699 170.823 166.799 170.999 166.883 171.183L194.549 155.213L197.913 157.147V159.295L197.622 159.456L197.355 159.616V160.067L197.913 160.388V161.634L193.846 170.235L189.825 172.528L188.495 170.907L184.947 173.033L182.914 176.519L180.666 177.811L177.861 175.319L174.413 177.314L173.251 182.092L167.471 185.433C167.178 186.651 166.813 187.85 166.378 189.026L166.248 189.4C164.322 194.446 161.264 198.773 157.839 200.768C157.422 201.007 156.988 201.214 156.539 201.387C156.302 201.481 156.059 201.563 155.813 201.632C155.602 201.691 155.387 201.74 155.171 201.777C154.494 201.903 153.799 201.903 153.122 201.777L152.839 201.708C152.705 201.685 152.575 201.647 152.449 201.594L152.151 201.479C152.043 201.438 151.939 201.39 151.838 201.334L151.555 201.188L151.41 201.104L151.341 201.066L148.168 199.239C145.615 197.756 143.956 194.01 143.956 188.712C143.953 187.346 144.053 185.981 144.254 184.63L144.216 184.653Z" fill="#8D37FF"></path>
<path d="M153.061 191.051C154.384 190.287 155.461 187.994 155.461 185.968C155.461 183.942 154.384 182.91 153.061 183.674C151.738 184.439 150.653 186.732 150.653 188.766C150.653 190.799 151.731 191.816 153.061 191.051ZM147.61 186.595C148.742 178.889 152.885 171.267 157.824 168.415C160.117 167.1 162.219 167.001 163.94 167.911L164.123 168.018C164.264 168.094 164.4 168.181 164.528 168.278C164.799 168.455 165.055 168.655 165.293 168.874L165.4 168.973C165.499 169.073 165.598 169.187 165.69 169.294C165.782 169.401 165.927 169.57 166.027 169.707C166.255 170.008 166.462 170.325 166.646 170.655C166.737 170.823 166.837 170.999 166.921 171.183C167.417 172.223 167.777 173.322 167.991 174.455L197.905 157.147V159.295L197.615 159.456L197.347 159.616V160.067L197.905 160.388V161.634L193.838 170.235L189.817 172.528L188.487 170.907L184.94 173.033L182.906 176.519L180.659 177.811L177.853 175.319L174.405 177.314L173.243 182.092L167.464 185.433C167.17 186.651 166.805 187.85 166.371 189.026L166.241 189.4C164.314 194.446 161.256 198.773 157.831 200.768C157.414 201.007 156.98 201.214 156.532 201.387C156.294 201.481 156.052 201.563 155.805 201.632C155.594 201.691 155.38 201.74 155.163 201.777C154.486 201.903 153.792 201.903 153.115 201.777L152.832 201.708C152.698 201.685 152.567 201.647 152.442 201.594L152.144 201.479C152.036 201.438 151.931 201.39 151.83 201.334L151.547 201.188L151.402 201.104L151.333 201.066C148.887 199.537 147.312 195.829 147.312 190.654C147.315 189.295 147.414 187.939 147.61 186.595V186.595Z" fill="#8D37FF"></path>
<path opacity="0.4" d="M150.653 188.735C150.653 190.784 151.731 191.793 153.053 191.029C154.376 190.264 155.462 187.971 155.462 185.945C155.462 183.919 154.384 182.887 153.053 183.651C152.659 183.882 152.313 184.189 152.037 184.553C151.92 185.879 151.438 187.146 150.645 188.215C150.637 188.389 150.639 188.562 150.653 188.735Z" fill="black"></path>
<path opacity="0.4" d="M143.941 188.735C143.941 194.033 145.6 197.779 148.153 199.262L151.326 201.089C148.879 199.56 147.305 195.852 147.305 190.677C147.308 189.31 147.411 187.946 147.61 186.595C148.742 178.889 152.885 171.267 157.824 168.415C160.117 167.1 162.219 167.001 163.94 167.911L160.775 166.084C159.016 165.059 156.83 165.105 154.46 166.473C149.522 169.34 145.386 176.985 144.254 184.63C144.047 185.988 143.942 187.361 143.941 188.735V188.735Z" fill="white"></path>
<path d="M147.305 190.677C147.305 195.852 148.879 199.545 151.326 201.089L148.153 199.262C145.6 197.779 143.941 194.033 143.941 188.735C143.941 188.536 143.941 188.337 143.941 188.146L147.297 190.088C147.312 190.279 147.305 190.478 147.305 190.677Z" fill="#8D37FF"></path>
<path opacity="0.1" d="M147.305 190.677C147.305 195.852 148.879 199.545 151.326 201.089L148.153 199.262C145.6 197.779 143.941 194.033 143.941 188.735C143.941 188.536 143.941 188.337 143.941 188.146L147.297 190.088C147.312 190.279 147.305 190.478 147.305 190.677Z" fill="black"></path>
<path opacity="0.15" d="M167.831 176.656V177.75L197.913 160.388L197.355 160.067V159.608L167.831 176.656Z" fill="black"></path>
<path opacity="0.15" d="M167.831 177.115V177.75L197.913 160.388L197.355 160.067V160.059L167.831 177.115Z" fill="black"></path>
<path opacity="0.15" d="M154.743 199.292C155.882 199.261 156.992 198.929 157.961 198.329C162.869 195.493 166.86 187.068 166.86 179.546C166.86 175.158 165.53 171.901 163.213 170.54C161.593 169.608 159.681 169.722 157.678 170.877C152.778 173.713 148.788 182.138 148.788 189.66C148.788 194.048 150.118 197.305 152.434 198.666C153.133 199.078 153.931 199.295 154.743 199.292V199.292ZM160.859 170.479C161.573 170.478 162.274 170.665 162.892 171.022C165.002 172.238 166.256 175.425 166.256 179.546C166.256 186.893 162.434 195.095 157.64 197.84C155.821 198.895 154.108 199.01 152.671 198.184C150.561 196.968 149.307 193.781 149.307 189.66C149.307 182.313 153.13 174.103 157.923 171.366C158.818 170.811 159.844 170.505 160.897 170.479H160.859Z" fill="black"></path>
<path opacity="0.5" d="M166.883 171.183C167.379 172.223 167.739 173.322 167.953 174.455L197.905 157.147L194.542 155.213L166.883 171.183Z" fill="white"></path>
<path d="M52.6545 255.726C52.5399 256.774 52.3946 259.709 47.0739 260.443C41.7531 261.177 38.4047 259.411 36.9827 256.85C35.5608 254.289 35.8895 252.202 35.6678 249.832C35.4461 247.462 33.4814 246.201 32.9157 244.978C32.0901 243.181 33.298 240.391 33.298 240.391L52.6545 255.726Z" fill="#263238"></path>
<path d="M91.513 247.424C91.6378 247.853 91.6716 248.302 91.6124 248.745C91.5532 249.187 91.4021 249.612 91.169 249.993C89.9776 250.935 88.6066 251.624 87.1396 252.019C85.6727 252.413 84.1407 252.504 82.6374 252.286C79.3909 251.844 76.2977 250.63 73.6166 248.747C71.5602 247.37 69.1261 246.667 66.6522 246.736C64.0912 246.652 62.2182 246.086 62.0195 245.413C61.6831 244.228 61.6831 243.487 62.2412 243.518L91.513 247.424Z" fill="#263238"></path>
<path d="M34.5669 236.293C35.232 241.148 44.6428 240.758 43.8783 236.882L45.5525 225.101L34.9033 225.43L34.5669 236.293Z" fill="#FFA8A7"></path>
<path d="M52.3029 253.341C51.8289 252.462 50.4605 251.208 49.8566 250.421C46.6663 246.359 44.7414 241.449 44.3218 236.301C44.3218 236.018 44.2682 235.468 43.9777 235.292C43.6872 235.116 43.4044 235.361 43.0986 235.498C42.5722 235.721 42.0158 235.866 41.4473 235.926C39.5667 236.14 37.4797 235.689 37.0134 235.75C36.547 235.812 36.5317 236.935 36.5623 238.159C35.8896 237.738 35.6679 236.897 35.0716 236.408C34.7428 236.14 34.5976 236.133 34.6053 235.697C34.6053 235.414 34.6053 235.154 34.6053 234.871C34.116 234.734 33.7108 236.584 33.3133 237.998C32.8546 239.642 32.2812 241.492 32.9234 243.158C33.3401 244.066 33.8527 244.928 34.4523 245.727C35.4685 247.116 36.1299 248.733 36.3788 250.436C36.4553 251.201 36.3788 251.965 36.5011 252.684C36.6772 253.934 37.2078 255.107 38.0303 256.065C38.8527 257.023 39.9324 257.725 41.1415 258.089C44.3906 259.098 49.2603 258.937 52.1194 256.674C53.1132 255.887 52.7769 254.197 52.3029 253.341Z" fill="#37474F"></path>
<path d="M64.4122 235.483C66.9961 237.486 70.0999 238.663 73.2725 237.218L74.037 217.395L63.3343 219.314L64.4122 235.483Z" fill="#FFA8A7"></path>
<path d="M89.3495 243.999C88.6386 243.77 87.9429 243.518 87.2549 243.235C85.3329 242.452 83.4769 241.516 81.7047 240.437C80.9403 239.963 80.1758 239.466 79.4113 238.908C78.6468 238.35 77.8824 237.746 77.1179 237.134C76.7199 236.785 76.3587 236.395 76.04 235.972C75.3962 235.183 74.8567 234.315 74.4346 233.388C74.3708 233.17 74.2295 232.982 74.037 232.861C73.9076 232.815 73.7684 232.805 73.6338 232.832C73.4993 232.859 73.3745 232.922 73.2726 233.014C73.0886 233.163 72.8916 233.296 72.6839 233.411L72.057 233.671C71.388 233.944 70.6821 234.117 69.9624 234.183C67.2561 234.42 67.172 233.877 67.0573 234.749C67.0315 235.075 67.0315 235.402 67.0573 235.727C65.6278 235.49 64.504 235.032 64.4428 234.489L64.2747 232.761C62.8527 232.631 62.7457 235.177 62.287 238.036C61.9124 240.33 61.3543 242.019 61.9965 243.724C64.1447 245.597 67.9365 245.146 70.0923 245.498C73.1502 246.002 74.5798 248.265 78.8227 249.733C85.703 252.103 89.9917 249.373 91.276 248.204C92.1093 246.728 92.2775 244.932 89.3495 243.999Z" fill="#37474F"></path>
<path d="M37.5713 118.258C37.0286 126.667 36.0424 138.983 35.6984 148.699C35.0562 166.955 35.3085 187.772 35.3085 187.772C34.2873 191.6 33.6295 195.516 33.3438 199.468C32.908 211.134 32.9845 237.325 32.9845 237.325C32.9845 237.325 37.8236 242.195 45.0556 238.373C45.0556 238.373 51.4696 201.678 53.2584 190.149C54.9709 179.179 58.3116 157.277 58.3116 157.277L59.8406 188.406C58.6801 193.298 58.2957 198.341 58.7015 203.352C59.0914 208.703 62.1417 235.085 62.1417 235.085C64.9244 237.692 73.0278 236.27 74.8014 234.199C74.8014 234.199 77.6376 195.21 77.9587 189.568C78.6391 177.39 80.4509 131.973 79.5412 124.924C78.6315 117.876 37.5713 118.258 37.5713 118.258Z" fill="#263238"></path>
<path d="M58.3116 157.246L60.4369 143.195C60.4369 143.195 66.2699 142.094 70.5356 138.929C70.5356 138.929 68.8767 142.683 62.4245 145.359L60.2993 158.446L59.7947 188.376L58.3116 157.246Z" fill="black"></path>
<path d="M46.3935 61.8776C46.0036 63.4601 43.3356 63.2154 42.143 62.9173C41.4357 62.7687 40.8072 62.3663 40.3762 61.786C39.9452 61.2057 39.7416 60.4878 39.8037 59.7676C39.2003 59.6064 38.6562 59.2746 38.2366 58.812C37.9542 58.4391 37.7927 57.9889 37.7736 57.5216C37.7544 57.0542 37.8786 56.5923 38.1295 56.1975C37.6453 55.853 37.2651 55.382 37.0305 54.8359C36.7959 54.2899 36.7159 53.6898 36.7993 53.1014C36.9628 52.2496 37.43 51.4862 38.1142 50.9532C38.7763 50.417 39.6016 50.123 40.4535 50.1199C40.7287 50.1199 41.0039 50.6704 40.6064 50.7162C39.9869 50.8364 39.4035 51.098 38.9016 51.4807C38.3793 51.846 37.9753 52.3563 37.7396 52.9485C37.5927 53.4187 37.593 53.9227 37.7406 54.3927C37.8882 54.8628 38.1759 55.2764 38.5653 55.5783C38.7049 55.4032 38.861 55.2419 39.0316 55.0967C39.5633 54.621 40.2608 54.3739 40.9734 54.4087C41.2367 54.4022 41.4965 54.4705 41.7225 54.6059C41.9485 54.7412 42.1315 54.9379 42.2501 55.1731C42.4335 55.7694 41.8143 56.274 41.3556 56.5339C41.0226 56.7222 40.6533 56.8373 40.2724 56.8715C39.8914 56.9058 39.5075 56.8585 39.1463 56.7327C39.0864 56.7131 39.0277 56.6901 38.9704 56.6639C38.9302 56.7433 38.8944 56.825 38.8634 56.9085C38.4506 58.0017 39.1157 58.6821 40.0101 58.9879C40.5529 57.8641 42.0207 57.0461 43.198 57.6347C43.3474 57.6999 43.4783 57.8011 43.579 57.9293C43.6797 58.0574 43.7471 58.2085 43.7751 58.3691C43.8031 58.5296 43.7909 58.6946 43.7395 58.8493C43.6882 59.004 43.5993 59.1435 43.4809 59.2554C42.9913 59.7182 42.3427 59.9754 41.669 59.9741C41.3611 59.9967 41.052 59.9967 40.744 59.9741C40.676 60.464 40.7903 60.9618 41.0651 61.373C41.3421 61.6865 41.6855 61.9343 42.0704 62.0982C42.4552 62.2622 42.8718 62.3383 43.2897 62.321C44.2392 62.3971 45.1806 62.0979 45.9119 61.4877C46.1336 61.2966 46.4547 61.6406 46.3935 61.8776ZM39.4138 56.0064C39.6626 56.0771 39.9239 56.0919 40.179 56.0496C40.4341 56.0073 40.6767 55.909 40.8893 55.7618C41.2103 55.5477 41.5697 55.2343 40.9963 55.1961C40.6878 55.1996 40.3844 55.2746 40.1098 55.4152C39.8353 55.5558 39.597 55.7582 39.4138 56.0064ZM41.0116 59.179C41.3353 59.1925 41.6594 59.1616 41.9748 59.0873C42.2042 59.0337 43.2056 58.5215 42.6934 58.3228C42.3036 58.1469 41.6155 58.5368 41.3403 58.7815C41.2136 58.8988 41.1031 59.0325 41.0116 59.179V59.179Z" fill="#263238"></path>
<path d="M44.5358 32.3076C44.3684 32.3313 44.2025 32.3644 44.0389 32.4069C44.1558 31.9025 44.0985 31.3733 43.8764 30.9055C43.6543 30.4378 43.2805 30.0589 42.8157 29.8306C42.2217 29.5923 41.5582 29.5947 40.9659 29.8373C40.3737 30.08 39.8992 30.5437 39.6431 31.1303L43.1062 32.7127C41.9812 33.1132 41.0426 33.9131 40.4687 34.9603C39.5208 36.9174 40.7745 41.0761 42.0359 46.1981C42.7469 49.4284 43.6792 52.6059 44.8263 55.7082C45.4073 57.2372 46.4546 57.2372 46.4546 57.2372V52.1228L46.2329 47.88C46.2329 47.88 48.9544 44.157 49.2526 41.1067C49.6425 37.1849 48.8168 35.5795 48.8168 35.5795L44.5358 32.3076Z" fill="#263238"></path>
<path d="M63.3573 27.9118C61.6481 27.9149 59.9782 28.4249 58.559 29.3773C57.1397 30.3297 56.0349 31.6817 55.3843 33.2623C54.7337 34.8428 54.5666 36.5808 54.9041 38.2564C55.2417 39.9319 56.0687 41.4697 57.2805 42.675C58.4923 43.8804 60.0344 44.6992 61.7117 45.0278C63.389 45.3565 65.1261 45.1801 66.7032 44.5212C68.2802 43.8622 69.6264 42.7502 70.5712 41.3259C71.5161 39.9016 72.0172 38.229 72.0112 36.5199C72.0082 35.3864 71.7819 34.2647 71.3454 33.2187C70.9089 32.1727 70.2706 31.2229 69.467 30.4236C68.6634 29.6242 67.7103 28.991 66.662 28.56C65.6136 28.1291 64.4907 27.9088 63.3573 27.9118V27.9118Z" fill="#263238"></path>
<path d="M46.3935 47.2073C45.3691 48.0941 44.5358 45.8006 43.672 44.9138C42.8081 44.027 40.0101 42.7962 38.6188 45.7471C37.2274 48.698 39.9031 52.8338 42.0054 53.8047C45.0633 55.2343 46.4547 52.1382 46.4547 52.1382V64.9432C49.6884 70.7685 56.6834 69.4077 59.9936 70.2257C60.4874 68.7366 60.4874 67.1279 59.9936 65.6388V61.4724C61.3859 61.7398 62.8085 61.8145 64.2211 61.6941C67.0191 61.2507 68.5175 58.9497 69.3508 55.9223C70.6963 51.0602 70.9791 42.888 69.1061 33.4467C65.9718 31.0309 55.3838 31.4284 48.8322 35.5566C49.2909 43.9659 47.4179 46.3205 46.3935 47.2073Z" fill="#FFA8A7"></path>
<path d="M59.9858 61.4724C59.9858 61.4724 53.7477 60.2416 51.5766 59.0872C50.2775 58.4315 49.2104 57.3937 48.5187 56.1134C48.8518 57.39 49.4395 58.5862 50.2464 59.63C51.8442 61.6635 59.9782 63.139 59.9782 63.139L59.9858 61.4724Z" fill="#F28F8F"></path>
<path d="M71.467 45.7612L71.4684 45.7547L72.1488 44.5392L72.531 42.628L70.9868 42.047L70.7727 41.9629H70.6427H70.5281H70.4516H70.337C70.1829 41.9314 70.0272 41.9084 69.8706 41.8941H69.6183H69.4731C69.4327 41.9015 69.3912 41.9015 69.3508 41.8941C69.2439 41.8866 69.1366 41.8866 69.0297 41.8941H68.8003C68.4904 41.9103 68.1816 41.9435 67.8753 41.9934C66.4458 42.2228 64.9627 42.949 64.5804 43.5224C64.1982 44.0958 64.3129 45.3342 64.5193 46.3892C64.5674 46.6251 64.6312 46.8575 64.7104 47.0849C64.7162 47.1022 64.7162 47.121 64.7104 47.1384C64.7073 47.1638 64.7073 47.1894 64.7104 47.2148V47.2607C64.7217 47.2894 64.7344 47.3174 64.7486 47.3448C64.7792 47.406 64.8327 47.4595 64.8327 47.513C64.8551 47.5654 64.8806 47.6165 64.9092 47.6659V47.7117L64.9703 47.8188L65.0315 47.9029C65.3648 48.3767 65.8223 48.7494 66.3537 48.98C66.8851 49.2107 67.4698 49.2903 68.0435 49.2101C68.577 49.1972 69.1003 49.0611 69.5725 48.8126C70.9751 48.1036 71.306 46.5282 71.467 45.7612Z" fill="#37474F"></path>
<path d="M73.3796 42.1541C73.3267 42.6474 73.127 43.1134 72.8062 43.4919C72.6999 43.6364 72.6221 43.7999 72.5769 43.9735C72.4158 45.1943 72.1602 46.4007 71.8124 47.5819C71.5311 48.366 71.011 49.0422 70.3254 49.5153C69.6397 49.9884 68.8229 50.2346 67.99 50.2193C67.5499 50.2406 67.1089 50.2124 66.6751 50.1352C66.6422 50.1404 66.6086 50.1404 66.5757 50.1352C66.1954 50.06 65.8291 49.9259 65.4902 49.7377H65.429L65.3296 49.6765L65.2226 49.5924C65.1823 49.5741 65.146 49.5481 65.1156 49.516C65.07 49.4923 65.0287 49.4613 64.9933 49.4242L64.8862 49.3172L64.6722 49.1108C64.3098 48.7088 64.0131 48.2522 63.793 47.7577C63.2044 46.5116 63.319 44.7456 62.4017 44.5698C62.3635 44.5734 62.3251 44.5734 62.287 44.5698H62.1647C60.9109 44.6157 61.0944 46.5269 60.4217 47.9106C60.0492 48.7866 59.4172 49.5274 58.6107 50.0332C57.8042 50.539 56.8621 50.7853 55.9113 50.7391H55.5672H55.2844C55.0664 50.7272 54.8494 50.7017 54.6346 50.6627L54.4282 50.6168L54.2294 50.5633H54.1071C53.8426 50.4777 53.5867 50.3676 53.3426 50.2346C53.2585 50.1734 53.1744 50.1276 53.0903 50.0741C52.9407 49.96 52.7978 49.8375 52.6622 49.7071C52.3037 49.3444 52.0183 48.9161 51.8213 48.4457C51.4489 47.2886 51.1752 46.1019 51.0033 44.8985C50.9638 44.7162 50.8913 44.5426 50.7892 44.3863C50.4555 44.0364 50.2345 43.5943 50.1547 43.1173C50.134 42.8679 50.1983 42.6189 50.3371 42.4107C50.4759 42.2025 50.6811 42.0474 50.9192 41.9706L51.5767 41.8636C53.7096 41.5654 56.4922 41.3972 58.1665 41.8177C60.2764 42.3452 61.018 43.0026 62.18 42.9644C63.342 42.9262 63.9536 42.1999 65.9336 41.5195C67.4625 40.9691 70.1076 40.9462 72.0952 41.0838C72.3169 41.0838 72.5081 41.0838 72.7145 41.1297C73.0432 41.0685 73.4101 41.5807 73.3796 42.1541ZM59.6572 43.7289C59.4924 43.5311 59.2863 43.3719 59.0532 43.2626C59.0167 43.2392 58.9783 43.2188 58.9386 43.2014H58.8851C58.7836 43.1631 58.6841 43.1198 58.5869 43.0714C58.5028 43.0714 58.4034 43.0103 58.3117 42.9721C58.017 42.8637 57.7157 42.7743 57.4096 42.7045L57.0503 42.628C56.7522 42.5745 56.4387 42.5287 56.1329 42.4981H55.9113C53.9007 42.3758 52.6546 42.8727 52.2112 43.2626C51.7678 43.6524 51.9971 45.556 52.2112 46.4887C52.2112 46.4887 52.2112 46.5422 52.2112 46.5575C52.2044 46.5825 52.2044 46.6089 52.2112 46.6339C52.2327 46.7608 52.2633 46.886 52.3029 47.0085C52.3188 47.0894 52.3418 47.1687 52.3717 47.2455V47.2455C52.4176 47.3754 52.4635 47.5054 52.517 47.643C52.5295 47.6896 52.5502 47.7336 52.5781 47.773C52.5843 47.8035 52.5974 47.8323 52.6164 47.8571C52.6164 47.8571 52.6164 47.9106 52.6164 47.9412L52.6775 48.0558C52.6775 48.1017 52.7234 48.1399 52.754 48.1781C52.7747 48.2258 52.8031 48.2697 52.838 48.3081C52.8616 48.3542 52.8898 48.3977 52.9221 48.4381C53.244 48.8781 53.6745 49.2271 54.1717 49.4509C54.6688 49.6747 55.2155 49.7656 55.7584 49.7147C56.3145 49.7494 56.8715 49.6635 57.3914 49.463C57.9112 49.2624 58.3817 48.9519 58.7704 48.5527C59.2474 48.0042 59.5717 47.3398 59.7107 46.6263C59.9401 45.5331 60.0624 44.2946 59.6572 43.7289ZM71.4684 42.521C71.3269 42.3842 71.1574 42.2798 70.9715 42.2152L70.7574 42.1311H70.6275H70.5128H70.4363H70.3216C70.1676 42.0996 70.0119 42.0766 69.8553 42.0623H69.6031H69.4578C69.4174 42.0698 69.3759 42.0698 69.3355 42.0623C69.2286 42.0548 69.1213 42.0548 69.0144 42.0623H68.7851C68.4751 42.0785 68.1663 42.1117 67.86 42.1617C66.4305 42.3987 64.9397 43.0944 64.5651 43.6907C64.1905 44.287 64.2976 45.5025 64.504 46.5575C64.5521 46.7933 64.6159 47.0258 64.6951 47.2531C64.7009 47.2705 64.7009 47.2893 64.6951 47.3066C64.6921 47.332 64.6921 47.3577 64.6951 47.3831C64.6951 47.3831 64.6951 47.3831 64.6951 47.429C64.7064 47.4576 64.7191 47.4857 64.7333 47.5131C64.7333 47.5742 64.7868 47.6277 64.8174 47.6812C64.8398 47.7337 64.8653 47.7847 64.8939 47.8341V47.88L64.955 47.987L65.0162 48.0711C65.3495 48.5449 65.807 48.9177 66.3384 49.1483C66.8698 49.3789 67.4545 49.4585 68.0282 49.3784C68.5617 49.3654 69.085 49.2294 69.5572 48.9808C70.9638 48.2164 71.2925 46.6263 71.4531 45.9229C71.6671 44.7915 71.9041 42.9109 71.4684 42.521Z" fill="#263238"></path>
<path d="M51.0491 41.9018L41.8754 43.9582C42.7034 44.1714 43.4407 44.646 43.9777 45.3114L51.0568 43.9659L51.0491 41.9018Z" fill="#263238"></path>
<path d="M59.7107 46.5956C59.5768 47.32 59.2522 47.9955 58.7704 48.5527C58.3913 48.9494 57.9321 49.2609 57.4233 49.4665C56.9145 49.6722 56.3679 49.7672 55.8195 49.7453C55.2767 49.7961 54.73 49.7052 54.2328 49.4815C53.7357 49.2577 53.3051 48.9087 52.9833 48.4686C52.951 48.4282 52.9228 48.3847 52.8992 48.3386C52.8643 48.3002 52.8358 48.2563 52.8151 48.2087C52.8151 48.1705 52.7692 48.1322 52.7387 48.0864L52.6775 47.9717C52.6775 47.9717 52.6775 47.9182 52.6775 47.8876C52.6586 47.8628 52.6455 47.8341 52.6393 47.8035C52.6113 47.7642 52.5906 47.7202 52.5781 47.6735C52.5246 47.5359 52.4788 47.406 52.4329 47.276C52.4029 47.1992 52.3799 47.1199 52.3641 47.039C52.3245 46.9165 52.2938 46.7913 52.2724 46.6644C52.2655 46.6394 52.2655 46.613 52.2724 46.588C52.2724 46.588 52.2724 46.5421 52.2724 46.5192C52.0659 45.5865 51.8137 43.7212 52.2724 43.2931C52.731 42.865 53.9618 42.3681 55.9724 42.5286H56.1941C56.4999 42.5286 56.8133 42.6051 57.1115 42.6586L57.4708 42.735C57.7769 42.8048 58.0782 42.8942 58.3729 43.0026C58.4646 43.0026 58.564 43.0637 58.6481 43.102C58.7452 43.1503 58.8447 43.1937 58.9463 43.2319H58.9997C59.0395 43.2493 59.0779 43.2697 59.1144 43.2931C59.3475 43.4024 59.5536 43.5616 59.7184 43.7594C60.0624 44.2945 59.9401 45.533 59.7107 46.5956Z" fill="#37474F"></path>
<path d="M71.2237 26.7727C71.2237 26.6734 71.2237 26.5663 71.1854 26.4593C71.1727 26.2618 71.1008 26.0726 70.979 25.9165C70.5586 25.4808 69.7176 26.5816 69.4501 26.8339C69.1639 27.0832 68.8654 27.3179 68.5556 27.5372C68.2638 27.6825 67.9827 27.8485 67.7147 28.0341C67.9021 26.9952 67.9021 25.9311 67.7147 24.8921C67.5848 24.2041 67.3936 22.5987 66.5374 22.4381C66.0329 22.3311 65.5895 22.7592 65.2149 23.1109C61.7976 26.3064 57.3331 24.831 53.2202 24.9609C49.7724 25.0679 45.6213 26.4899 44.0465 29.823C43.3355 31.352 43.2132 32.965 44.6198 34.02C45.5219 34.708 46.4087 34.6774 46.9133 35.7706C47.0356 36.0382 47.823 39.2949 47.3567 39.2643C48.2011 39.3504 49.0486 39.1341 49.7486 38.654C50.4485 38.1738 50.9554 37.4609 51.1791 36.6421C51.2631 36.2828 51.4543 35.633 51.5307 35.2661C51.5495 35.1585 51.5912 35.0562 51.6528 34.9661C51.7145 34.876 51.7948 34.8002 51.8882 34.7437C51.9816 34.6872 52.0861 34.6513 52.1945 34.6386C52.303 34.6259 52.4129 34.6365 52.5169 34.6698C53.5642 34.8991 54.2446 35.3272 55.2308 35.5948C58.047 36.4047 61.0079 36.5797 63.9 36.107C65.9706 35.714 67.8706 34.6946 69.343 33.1867C70.0904 32.3103 70.6443 31.2859 70.9684 30.1806C71.2925 29.0753 71.3795 27.914 71.2237 26.7727V26.7727Z" fill="#263238"></path>
<path d="M57.7919 40.2123L54.734 40.6786C54.6807 40.2694 54.7878 39.8554 55.0329 39.5233C55.278 39.1913 55.6421 38.967 56.0489 38.8974C56.2499 38.8672 56.455 38.8775 56.652 38.9275C56.8491 38.9775 57.0342 39.0664 57.1965 39.1888C57.3588 39.3113 57.495 39.4648 57.5973 39.6406C57.6995 39.8163 57.7657 40.0107 57.7919 40.2123Z" fill="#263238"></path>
<path d="M58.4952 54.2633L61.0409 54.9284C61.005 55.098 60.9352 55.2587 60.8359 55.4008C60.7366 55.5429 60.6096 55.6636 60.4627 55.7556C60.3157 55.8476 60.1518 55.9091 59.9805 55.9364C59.8093 55.9638 59.6344 55.9563 59.4661 55.9146C59.1225 55.8177 58.8296 55.5919 58.6487 55.2841C58.4678 54.9764 58.4128 54.6107 58.4952 54.2633V54.2633Z" fill="#F28F8F"></path>
<path d="M69.2437 40.3881L66.1858 40.0517C66.198 39.8512 66.2509 39.6552 66.3411 39.4757C66.4314 39.2962 66.5572 39.1369 66.7109 39.0075C66.8647 38.8781 67.0431 38.7813 67.2353 38.723C67.4276 38.6646 67.6297 38.6459 67.8294 38.668C68.2403 38.7198 68.6157 38.9268 68.8787 39.2467C69.1417 39.5666 69.2723 39.975 69.2437 40.3881V40.3881Z" fill="#263238"></path>
<path d="M61.8283 44.5927L62.2412 51.7253L66.2164 50.6856L62.2488 44.5086C62.104 44.5039 61.9601 44.5327 61.8283 44.5927V44.5927Z" fill="#F28F8F"></path>
<path d="M44.7499 49.5465C44.7514 49.9158 44.6433 50.2772 44.4392 50.5849C44.2352 50.8927 43.9444 51.133 43.6037 51.2753C43.263 51.4177 42.8877 51.4557 42.5253 51.3846C42.163 51.3135 41.8299 51.1364 41.5683 50.8759C41.3066 50.6153 41.1282 50.283 41.0556 49.9209C40.983 49.5589 41.0195 49.1834 41.1605 48.8421C41.3014 48.5008 41.5405 48.2091 41.8474 48.0038C42.1543 47.7985 42.5153 47.6889 42.8845 47.6889C43.1291 47.6879 43.3715 47.7352 43.5978 47.8281C43.824 47.921 44.0297 48.0576 44.2031 48.2302C44.3764 48.4029 44.5139 48.608 44.6077 48.8339C44.7015 49.0598 44.7499 49.3019 44.7499 49.5465Z" fill="#263238"></path>
<path d="M44.9486 46.1446C44.7886 45.5807 44.5067 45.0588 44.123 44.6157C43.9283 44.4297 43.6955 44.2882 43.4408 44.2011C43.186 44.114 42.9153 44.0833 42.6475 44.1111C42.6475 44.1111 42.594 44.1723 42.6475 44.1876C42.8539 44.3099 42.9992 44.3787 43.2056 44.5239C43.4113 44.6632 43.6011 44.8247 43.7713 45.0056C43.921 45.1791 44.0423 45.3752 44.1306 45.5866C44.2404 45.8291 44.3125 46.0868 44.3447 46.351C44.3949 46.7671 44.3342 47.1891 44.1688 47.5742C44.0833 47.7877 43.9646 47.9864 43.8172 48.1629C43.6583 48.2923 43.5192 48.4442 43.4044 48.6139C43.2897 48.8509 43.6184 49.2561 43.8707 49.1185C44.3485 48.818 44.7077 48.3615 44.8874 47.8265C45.1115 47.2919 45.1333 46.6941 44.9486 46.1446V46.1446Z" fill="#263238"></path>
<path d="M71.4454 71.5405C74.0293 73.2377 77.5995 75.4394 78.471 77.8322C79.3425 80.225 81.8576 94.1003 82.1328 98.5725C79.8417 99.6517 77.3876 100.344 74.8703 100.621L71.4454 71.5405Z" fill="#455A64"></path>
<path d="M40.9197 64.9279C34.3758 68.5209 27.9236 73.8875 26.5322 75.9516C26.5322 75.9516 30.3546 88.6955 33.726 94.7425C37.0973 100.79 38.9015 118.671 38.9015 118.671C38.9015 118.671 61.9581 126.315 69.1825 126.919C76.4068 127.523 77.3241 124.45 77.3241 124.45C77.3241 124.45 77.477 104.459 75.7952 91.1189C74.1133 77.7787 74.4803 73.8111 71.4224 71.5406C69.4424 70.0804 60.9108 66.3804 60.9108 66.3804V70.2028C56.2475 70.2945 40.9197 64.9279 40.9197 64.9279Z" fill="#37474F"></path>
<path d="M62.7074 72.2515C63.1305 71.389 63.3002 70.424 63.1966 69.4689L61.2701 68.0699V70.4932L62.7074 72.2515Z" fill="#8D37FF"></path>
<path opacity="0.25" d="M62.7074 72.2515C63.1305 71.389 63.3002 70.424 63.1966 69.4689L61.2701 68.0699V70.4932L62.7074 72.2515Z" fill="black"></path>
<path d="M58.9615 70.7761L53.9772 67.9322L50.2312 70.8984L57.7995 74.0404L58.9615 70.7761Z" fill="#8D37FF"></path>
<path opacity="0.25" d="M58.9615 70.7761L53.9772 67.9322L50.2312 70.8984L57.7995 74.0404L58.9615 70.7761Z" fill="black"></path>
<path d="M46.4546 59.5153V60.5244C46.6458 61.48 48.5264 63.697 53.2738 65.8222C58.0212 67.9475 59.9935 70.218 59.9935 70.218C58.7112 70.2523 57.4421 70.4871 56.2323 70.9137C54.0688 71.6781 50.4758 74.4303 49.4514 74.3997C48.427 74.3691 47.0127 71.5405 44.3294 68.7196C42.0359 66.3497 40.9198 64.8972 40.9198 64.8972C40.9198 64.8972 44.6046 59.5382 46.4546 59.5153Z" fill="#455A64"></path>
<path d="M59.9936 70.218C61.7137 70.4091 63.3267 71.6017 63.7472 70.9825C64.1676 70.3632 62.7075 64.6067 60.0089 62.8561L59.9936 70.218Z" fill="#455A64"></path>
<path d="M76.6591 100.384C76.6591 100.384 76.8655 103.954 76.919 105.178C76.9725 106.401 74.9314 127.347 74.9314 127.347L82.1328 130.405C82.1328 130.405 83.0043 122.332 83.2871 117.837C83.5203 113.208 83.313 108.567 82.6679 103.977C82.1022 100.155 81.9034 98.6871 81.9034 98.6871C80.2182 99.4314 78.4608 100 76.6591 100.384V100.384Z" fill="#F28F8F"></path>
<path d="M81.5519 140.642C81.5519 140.642 81.5519 140.963 81.5519 142.171C81.3716 144.192 80.9665 146.187 80.344 148.118C79.893 149.25 78.8151 151.734 78.2494 152.025C77.7148 152.323 77.0957 152.433 76.491 152.338C75.352 152.231 74.1594 152.82 73.0815 152.3C72.6639 152.072 72.2231 151.89 71.7666 151.757C71.1015 151.597 70.337 151.795 69.7407 151.444C69.3585 151.222 69.1215 150.809 68.7469 150.58C68.1965 150.244 67.4702 150.366 66.8815 150.098C66.6499 149.98 66.4445 149.816 66.2777 149.616C66.1108 149.417 65.986 149.185 65.9107 148.936C65.5743 147.927 65.9107 146.788 66.1094 145.779C65.7561 145.282 65.5761 144.683 65.5972 144.074C65.5748 142.768 65.7265 141.465 66.0483 140.198C66.3005 139.434 71.5296 136.46 71.5296 136.46L72.5616 135.78C74.7554 135.291 77.0531 135.66 78.9832 136.812C82.0488 138.761 81.5519 140.642 81.5519 140.642Z" fill="#FFA8A7"></path>
<path d="M80.1375 140.496C81.5212 142.79 80.7109 146.926 80.7032 146.972C81.1365 145.407 81.4206 143.804 81.5518 142.186C81.5518 140.963 81.5518 140.657 81.5518 140.657C81.5518 140.657 82.0487 138.746 79.0214 136.835C77.0912 135.683 74.7936 135.314 72.5998 135.803C72.5998 135.803 78.7538 138.18 80.1375 140.496Z" fill="#F28F8F"></path>
<path d="M66.1476 145.756C66.6352 144.265 67.3889 142.874 68.3722 141.651C68.9532 141.116 69.4425 140.435 68.8615 140.665C68.2805 140.894 67.4701 141.024 67.1491 140.619C66.828 140.214 66.7592 140.917 67.1491 141.467C67.5389 142.018 67.2102 142.438 66.7898 143.34C66.467 144.113 66.251 144.925 66.1476 145.756V145.756Z" fill="#F28F8F"></path>
<path d="M28.5275 76.2039C26.3488 76.9684 26.0583 82.9313 26.5322 88.2827C27.0062 93.634 31.1803 106.286 33.0838 110.69C35.2167 115.636 36.5087 118.487 37.9306 120.039C39.3525 121.591 42.3264 122.868 46.1335 124.84C49.5736 126.621 51.9282 127.523 57.7994 129.343C64.4198 131.399 66.9731 131.522 68.3798 132.508C69.7864 133.494 70.1839 135.634 71.5676 136.437L72.5997 135.757C74.927 136.316 77.1494 137.245 79.1819 138.509C80.0923 139.073 80.8948 139.796 81.5517 140.642V142.171C81.5517 142.171 83.2259 142.874 84.6479 139.877C86.0698 136.881 86.7196 132.385 85.0836 130.421C83.4477 128.456 78.2645 125.765 74.0599 124.45C69.8552 123.135 67.7682 121.759 62.8603 118.793C57.6312 115.636 54 113.533 51.3931 112.111C50.4069 111.538 49.7418 110.842 49.2984 109.054C48.9467 107.616 47.8994 103.366 47.2573 100.17C46.2329 94.8266 43.9318 78.6655 28.5275 76.2039Z" fill="#FFA8A7"></path>
<path d="M26.5324 75.9516C26.5324 75.9516 25.5156 76.1274 25.378 80.3626C25.197 84.37 25.389 88.3854 25.9514 92.3573C26.5094 95.6063 29.7738 105.2 29.7738 105.2C29.7738 105.2 39.1539 108.258 48.7557 104.612C48.7557 104.612 46.5005 90.7748 45.652 87.1053C44.8034 83.4358 32.9157 72.1139 26.5324 75.9516Z" fill="#455A64"></path>
<path d="M59.726 76.2268C60.2611 79.667 60.995 87.8392 60.995 99.3752C60.995 102.204 65.1232 107.945 66.0941 107.823C67.065 107.7 68.8462 102.303 69.0985 99.1688C68.7086 91.5852 64.1218 79.8199 62.1188 75.7987L59.726 76.2268Z" fill="#8D37FF"></path>
<path opacity="0.15" d="M62.2716 76.1274C62.2268 76.0151 62.1757 75.9054 62.1187 75.7987L59.7259 76.2268L59.8712 77.2359C60.7714 77.1402 61.6149 76.7506 62.2716 76.1274V76.1274Z" fill="black"></path>
<path d="M58.9615 70.7761C59.7134 70.5992 60.4826 70.5069 61.255 70.5008C61.8642 70.9753 62.3648 71.5749 62.7228 72.2591C62.7904 73.468 62.5894 74.6768 62.1341 75.7987C61.7905 76.04 61.3984 76.2034 60.9851 76.2773C60.5718 76.3513 60.1473 76.334 59.7413 76.2268C58.8987 75.7026 58.2287 74.9423 57.8148 74.0404C57.7563 72.8443 58.1679 71.6728 58.9615 70.7761V70.7761Z" fill="#8D37FF"></path>
</svg>