<svg width="353" height="329" viewBox="0 0 353 329" fill="none" xmlns="http://www.w3.org/2000/svg">
<path d="M301.27 303.988C232.36 336.828 120.64 336.838 51.73 303.988C-17.18 271.138 -17.17 217.898 51.73 185.058C120.63 152.218 232.36 152.218 301.27 185.058C370.18 217.898 370.17 271.148 301.27 303.988Z" fill="white"/>
<path d="M51.9699 279.718C39.2784 279.718 28.9899 274.816 28.9899 268.768C28.9899 262.721 39.2784 257.818 51.9699 257.818C64.6614 257.818 74.95 262.721 74.95 268.768C74.95 274.816 64.6614 279.718 51.9699 279.718Z" fill="#EBEBEB"/>
<path d="M306.5 270.338L298.37 265.648C293.831 261.944 290.376 257.083 288.37 251.578C285.86 244.658 286.21 239.398 288.01 236.758C290.22 233.508 295.95 234.078 296.18 240.918C296.66 254.398 300.59 263.748 306.5 270.338Z" fill="#8D37FF"/>
<path opacity="0.2" d="M306.5 270.338L298.37 265.648C293.831 261.944 290.376 257.083 288.37 251.578C285.86 244.658 286.21 239.398 288.01 236.758C290.22 233.508 295.95 234.078 296.18 240.918C296.66 254.398 300.59 263.748 306.5 270.338Z" fill="black"/>
<path d="M306.5 270.838C306.606 270.837 306.709 270.802 306.793 270.739C306.878 270.675 306.941 270.586 306.972 270.485C307.003 270.384 307.001 270.276 306.967 270.175C306.932 270.075 306.867 269.989 306.78 269.928C287.98 256.928 291.62 238.798 291.66 238.618C291.674 238.552 291.674 238.485 291.662 238.419C291.65 238.353 291.624 238.29 291.588 238.234C291.551 238.178 291.504 238.129 291.448 238.091C291.393 238.053 291.331 238.027 291.265 238.013C291.199 237.999 291.132 237.999 291.066 238.011C291 238.023 290.937 238.049 290.881 238.085C290.824 238.122 290.776 238.169 290.738 238.225C290.7 238.28 290.674 238.342 290.66 238.408C290.66 238.598 286.82 257.348 306.18 270.748C306.274 270.812 306.386 270.844 306.5 270.838Z" fill="white"/>
<path d="M322.79 279.748C322.79 279.748 325.62 277.448 324.94 274.328C324.26 271.208 322.43 268.968 325.56 264.948C328.69 260.928 329.56 255.568 325.82 252.668C322.97 250.418 318.52 253.598 316.92 247.668C315.74 243.328 316.14 233.718 310.61 230.518C305.08 227.318 301.61 232.138 302.48 238.658C303.24 244.488 304.32 250.098 303.48 251.658C301.86 254.658 299.09 254.248 299.22 259.728C299.33 264.828 304.16 269.048 304.16 269.048L322.79 279.748Z" fill="#8D37FF"/>
<path d="M313.5 274.858C313.622 274.857 313.74 274.812 313.832 274.731C313.923 274.65 313.983 274.539 314 274.418C315.43 262.568 312 242.108 309.2 236.028C309.176 235.961 309.139 235.899 309.089 235.847C309.04 235.796 308.98 235.755 308.914 235.729C308.847 235.702 308.776 235.69 308.705 235.694C308.633 235.697 308.563 235.716 308.5 235.748C308.44 235.775 308.386 235.814 308.342 235.862C308.297 235.91 308.263 235.966 308.241 236.027C308.218 236.089 308.208 236.154 308.212 236.22C308.215 236.285 308.231 236.349 308.26 236.408C311.03 242.408 314.34 262.928 312.97 274.258C312.956 274.389 312.994 274.521 313.077 274.624C313.159 274.727 313.279 274.793 313.41 274.808L313.5 274.858Z" fill="white"/>
<path d="M313.77 265.628C313.846 265.632 313.923 265.614 313.99 265.578C317.46 263.888 319.66 257.858 319.75 257.578C319.774 257.516 319.786 257.449 319.785 257.383C319.783 257.316 319.768 257.25 319.74 257.189C319.713 257.128 319.674 257.073 319.624 257.028C319.575 256.982 319.518 256.947 319.455 256.925C319.392 256.902 319.325 256.892 319.258 256.895C319.192 256.899 319.126 256.916 319.066 256.945C319.006 256.974 318.952 257.015 318.908 257.066C318.864 257.116 318.831 257.175 318.81 257.238C318.81 257.298 316.66 263.138 313.55 264.648C313.448 264.697 313.366 264.78 313.317 264.882C313.268 264.985 313.255 265.1 313.281 265.211C313.306 265.321 313.369 265.42 313.458 265.49C313.546 265.56 313.657 265.599 313.77 265.598V265.628Z" fill="white"/>
<path d="M313.83 269.628C313.93 269.628 314.028 269.598 314.11 269.54C314.192 269.483 314.255 269.402 314.29 269.308C314.34 269.186 314.339 269.049 314.289 268.928C314.238 268.806 314.142 268.709 314.02 268.658C308.18 266.318 304.54 259.368 304.5 259.288C304.439 259.17 304.334 259.081 304.207 259.041C304.08 259.001 303.943 259.012 303.825 259.073C303.707 259.134 303.618 259.24 303.578 259.366C303.537 259.493 303.549 259.63 303.61 259.748C303.77 260.048 307.46 267.108 313.61 269.588C313.678 269.621 313.754 269.634 313.83 269.628Z" fill="white"/>
<path d="M109.7 215.828C109.7 215.828 114.07 208.748 114.5 201.058C114.93 193.368 113.24 190.168 110.92 189.248C108.6 188.328 108.42 191.158 107.23 192.828C106.04 194.498 103.61 193.548 102.71 188.338C101.81 183.128 98.53 174.338 91.71 172.628C84.21 170.768 88.23 179.568 90.12 182.998C92.01 186.428 93.47 191.108 92.23 192.378C90.99 193.648 89.06 191.298 87.23 193.478C85 196.108 91.93 205.578 95.91 207.868L109.7 215.828Z" fill="#8D37FF"/>
<path d="M103.71 212.858C103.776 212.856 103.84 212.84 103.9 212.813C103.96 212.785 104.013 212.746 104.058 212.698C104.102 212.649 104.137 212.593 104.16 212.531C104.182 212.469 104.193 212.404 104.19 212.338C103.513 199.968 99.6551 187.981 92.99 177.538C92.9522 177.484 92.9038 177.438 92.8477 177.402C92.7916 177.367 92.729 177.344 92.6635 177.333C92.5981 177.323 92.5313 177.326 92.4671 177.343C92.4029 177.359 92.3427 177.388 92.29 177.428C92.1852 177.506 92.115 177.622 92.0945 177.751C92.0739 177.88 92.1046 178.012 92.18 178.118C98.726 188.409 102.514 200.21 103.18 212.388C103.184 212.454 103.201 212.518 103.229 212.577C103.258 212.637 103.298 212.69 103.347 212.733C103.397 212.777 103.454 212.81 103.516 212.832C103.578 212.853 103.644 212.862 103.71 212.858Z" fill="white"/>
<path d="M103.14 206.948C103.224 206.947 103.306 206.927 103.38 206.888C106.18 205.338 107.73 200.738 107.79 200.548C107.812 200.486 107.822 200.42 107.818 200.354C107.814 200.288 107.797 200.223 107.769 200.163C107.74 200.104 107.699 200.051 107.65 200.007C107.6 199.963 107.543 199.929 107.48 199.908C107.354 199.867 107.217 199.878 107.099 199.938C106.981 199.998 106.891 200.102 106.85 200.228C106.85 200.228 105.35 204.658 102.85 206.008C102.737 206.075 102.654 206.183 102.618 206.31C102.583 206.437 102.598 206.572 102.66 206.688C102.705 206.774 102.775 206.845 102.86 206.891C102.946 206.937 103.043 206.957 103.14 206.948Z" fill="white"/>
<path d="M102.65 203.918C102.761 203.917 102.868 203.879 102.955 203.81C103.042 203.741 103.103 203.646 103.13 203.538C103.146 203.475 103.15 203.409 103.141 203.345C103.131 203.28 103.109 203.218 103.076 203.163C103.042 203.107 102.998 203.058 102.946 203.02C102.893 202.981 102.833 202.953 102.77 202.938C95.5499 201.108 93.0499 197.328 93.0299 197.288C92.9945 197.232 92.9484 197.184 92.8942 197.146C92.8401 197.108 92.7791 197.081 92.7145 197.067C92.65 197.052 92.5832 197.051 92.5181 197.062C92.453 197.074 92.3907 197.098 92.3349 197.133C92.2791 197.169 92.2308 197.215 92.1928 197.269C92.1548 197.323 92.1279 197.384 92.1135 197.449C92.0991 197.513 92.0976 197.58 92.109 197.645C92.1204 197.71 92.1445 197.772 92.1799 197.828C92.2899 197.998 94.8899 201.968 102.52 203.908L102.65 203.918Z" fill="white"/>
<path d="M218.5 200.288C218.5 200.288 228.09 197.948 228.59 179.988C229.12 160.608 226.24 137.988 237.59 136.158C248.94 134.328 255.24 148.158 255.1 164.308C254.97 178.448 249.27 209.148 218.54 215.168L218.5 200.288Z" fill="#8D37FF"/>
<path opacity="0.2" d="M218.5 200.288C218.5 200.288 228.09 197.948 228.59 179.988C229.12 160.608 226.24 137.988 237.59 136.158C248.94 134.328 255.24 148.158 255.1 164.308C254.97 178.448 249.27 209.148 218.54 215.168L218.5 200.288Z" fill="black"/>
<path d="M218.5 213.328H218.59C225.5 212.068 231.13 208.258 235.32 202.018C247.74 183.488 243.83 148.888 242.54 142.848C242.511 142.719 242.433 142.607 242.323 142.534C242.213 142.462 242.08 142.434 241.95 142.458C241.82 142.489 241.708 142.569 241.635 142.68C241.563 142.792 241.536 142.927 241.56 143.058C242.83 149.058 246.72 183.218 234.49 201.458C232.71 204.287 230.361 206.715 227.593 208.587C224.825 210.46 221.698 211.738 218.41 212.338C218.345 212.35 218.282 212.375 218.227 212.411C218.171 212.447 218.124 212.494 218.086 212.549C218.049 212.604 218.023 212.666 218.01 212.731C217.997 212.796 217.997 212.863 218.01 212.928C218.031 213.042 218.092 213.145 218.182 213.218C218.271 213.291 218.384 213.33 218.5 213.328Z" fill="white"/>
<path d="M218.5 259.418C228.41 260.758 244.5 260.738 253.79 253.418C263.08 246.098 261.14 239.798 257.57 237.168C254 234.538 250.9 231.538 257.04 225.698C263.18 219.858 273.04 210.478 276.24 196.408C279.44 182.338 277.86 173.538 271.58 170.608C265.49 167.768 263.88 172.288 260.15 181.608C256.42 190.928 248.03 182.938 240.85 185.848C233.67 188.758 233.96 194.518 233.51 199.468C233.06 204.418 230.69 205.788 226.62 205.788C222.55 205.788 218.5 208.128 218.5 212.788V259.418Z" fill="#8D37FF"/>
<path d="M218.5 243.078C218.543 243.088 218.587 243.088 218.63 243.078C219.06 242.958 229.31 239.978 244.24 226.268C260.14 211.668 267.64 189.768 267.72 189.548C267.758 189.422 267.746 189.286 267.687 189.169C267.627 189.051 267.524 188.962 267.4 188.918C267.275 188.877 267.139 188.886 267.021 188.944C266.904 189.002 266.813 189.104 266.77 189.228C266.7 189.448 259.27 211.108 243.56 225.528C228.84 239.058 218.47 242.088 218.36 242.118C218.297 242.137 218.238 242.167 218.187 242.208C218.136 242.249 218.093 242.3 218.062 242.358C218.03 242.415 218.01 242.479 218.003 242.544C217.996 242.609 218.002 242.675 218.02 242.738C218.052 242.839 218.117 242.927 218.203 242.988C218.29 243.049 218.394 243.081 218.5 243.078Z" fill="white"/>
<path d="M240.07 229.748C240.17 229.75 240.269 229.72 240.351 229.662C240.434 229.605 240.496 229.523 240.53 229.428C243.74 221.188 244.47 203.558 244.53 202.808C244.533 202.676 244.484 202.548 244.395 202.451C244.305 202.354 244.182 202.296 244.05 202.288C243.919 202.29 243.794 202.34 243.698 202.429C243.602 202.517 243.542 202.638 243.53 202.768C243.53 202.948 242.78 220.978 239.63 229.068C239.606 229.13 239.594 229.196 239.596 229.262C239.597 229.328 239.612 229.393 239.639 229.454C239.666 229.514 239.705 229.569 239.753 229.614C239.801 229.659 239.858 229.695 239.92 229.718C239.968 229.735 240.019 229.746 240.07 229.748Z" fill="white"/>
<path d="M240.15 241.598C241.072 241.605 241.993 241.559 242.91 241.458C242.976 241.45 243.039 241.429 243.097 241.397C243.154 241.365 243.205 241.321 243.246 241.269C243.287 241.217 243.317 241.158 243.335 241.094C243.353 241.03 243.358 240.964 243.35 240.898C243.342 240.832 243.321 240.769 243.289 240.711C243.257 240.654 243.213 240.603 243.161 240.562C243.109 240.521 243.05 240.491 242.986 240.473C242.922 240.455 242.856 240.45 242.79 240.458C242.7 240.458 233.39 241.518 229.12 237.168C229.075 237.115 229.021 237.073 228.959 237.042C228.897 237.012 228.83 236.994 228.761 236.991C228.692 236.988 228.623 236.999 228.559 237.024C228.495 237.049 228.436 237.086 228.387 237.135C228.338 237.183 228.299 237.241 228.274 237.305C228.248 237.369 228.236 237.438 228.238 237.506C228.24 237.575 228.257 237.643 228.286 237.705C228.316 237.767 228.358 237.823 228.41 237.868C231.5 241.058 236.89 241.598 240.15 241.598Z" fill="white"/>
<path d="M247.35 52.2382L248.43 46.0082L253.99 49.6682C254.498 48.6683 255.218 47.7912 256.1 47.0982L253.44 39.8982L258.44 38.7882L262.1 45.7882C263.424 46.0116 264.708 46.4294 265.91 47.0282L267.5 41.7482L273.44 46.4182L273.05 52.6182C274.26 53.9732 275.357 55.4247 276.33 56.9582L281.23 56.7082L284.67 64.4182L280.46 66.2182C280.9 67.8129 281.178 69.4478 281.29 71.0982L286.64 76.0182L285.57 82.2582L280 78.5982C279.495 79.5972 278.774 80.4716 277.89 81.1582L280.5 88.3682L275.5 89.4682L270.26 84.3682C269.05 84.1782 269.35 81.8982 268.03 81.2482L266.44 86.5082L260.51 81.8482L260.66 79.4082C259.46 78.0682 254.92 75.1182 253.94 73.5782L252.71 71.5782L249.27 63.8682L250.87 60.9682L252.65 57.1882L247.35 52.2382ZM265.5 72.7482C270.06 76.3282 271.5 77.1182 272.27 72.3282C273.04 67.5382 270.43 60.2582 265.87 56.6682C261.31 53.0782 259.57 52.8282 258.75 57.6082C257.93 62.3882 260.93 69.2082 265.5 72.7482Z" fill="#E0E0E0"/>
<path d="M258.4 38.7882L251.91 42.5282L255.57 49.5082L262.06 45.7682L258.4 38.7882Z" fill="#F5F5F5"/>
<path d="M241.94 49.7482L247.5 53.4082L253.99 49.6682L248.43 46.0082L241.94 49.7482Z" fill="#F5F5F5"/>
<path d="M242.83 67.5782L247.04 65.7881L253.53 62.0482L249.32 63.8382L242.83 67.5782Z" fill="#E0E0E0"/>
<path d="M280.51 88.3682L274.02 92.0982L271.36 84.8982L277.85 81.1582L280.51 88.3682Z" fill="#E0E0E0"/>
<path d="M260.01 90.2482L266.49 86.5082L268.08 81.2482L261.59 84.9882L260.01 90.2482Z" fill="#E0E0E0"/>
<path d="M240.87 55.9782L241.94 49.7482L247.5 53.4082C248.012 52.4078 248.735 51.5308 249.62 50.8382L246.96 43.6382L251.91 42.5282L255.58 49.5282C256.904 49.7516 258.188 50.1694 259.39 50.7682L260.97 45.5082L266.91 50.1782L266.52 56.3782C267.731 57.7428 268.828 59.2043 269.8 60.7482L274.71 60.4982L278.15 68.2082L273.94 70.0082C274.376 71.6072 274.654 73.245 274.77 74.8982L280.11 79.7482L279.04 85.9882L273.48 82.3282C272.968 83.3257 272.245 84.1994 271.36 84.8882L274.02 92.0882L269.02 93.1982L265.36 86.1982C264.031 85.9773 262.743 85.5558 261.54 84.9482L259.96 90.2082L254.02 85.5482L254.41 79.3482C253.2 77.9932 252.103 76.5417 251.13 75.0082L246.22 75.2482L242.78 67.5382L247.05 65.7482C246.607 64.1504 246.326 62.5122 246.21 60.8582L240.87 55.9782ZM259 76.5282C263.55 80.1082 267.91 79.1382 268.74 74.3582C269.57 69.5782 266.54 62.7882 261.98 59.2082C257.42 55.6282 253.07 56.6082 252.24 61.3882C251.41 66.1682 254.44 72.9482 259 76.5282Z" fill="#EBEBEB"/>
<path d="M260.97 45.4882L267.46 41.7482L273.4 46.4182L266.91 50.1582L260.97 45.4882Z" fill="#F5F5F5"/>
<path d="M273.4 46.4182L273.01 52.6181L266.52 56.3582L266.91 50.1582L273.4 46.4182Z" fill="#E0E0E0"/>
<path d="M269.8 60.6982L276.29 56.9582L281.19 56.7182L274.71 60.4582L269.8 60.6982Z" fill="#F5F5F5"/>
<path d="M281.19 56.7182L284.63 64.4182L278.15 68.1582L274.71 60.4582L281.19 56.7182Z" fill="#E0E0E0"/>
<path d="M274.77 74.8382L281.25 71.0982L286.6 76.0182L280.12 79.7582L274.77 74.8382Z" fill="#F5F5F5"/>
<path d="M279.04 85.9982L285.53 82.2582L286.6 76.0182L280.12 79.7582L279.04 85.9982Z" fill="#E0E0E0"/>
<path d="M251.91 42.5282L258.4 38.7882L253.44 39.8982L246.96 43.6382L251.91 42.5282Z" fill="#F5F5F5"/>
<path d="M276.41 23.9582V14.6482L283.82 17.9882C284.213 16.4086 284.89 14.9141 285.82 13.5782L281.15 4.16817L286.85 0.878174L292.67 9.62817C294.292 9.48648 295.926 9.64582 297.49 10.0982L298.31 2.00818L306.37 6.66817L307.18 15.6682C308.934 17.2225 310.547 18.9292 312 20.7682L317.82 18.7682L323.52 28.6482L318.86 32.6482C319.721 34.8257 320.39 37.0742 320.86 39.3682L328.27 44.5782V53.8982L320.86 50.5582C320.468 52.1377 319.79 53.6323 318.86 54.9682L323.5 64.3882L317.8 67.6782L311.98 58.9282C310.358 59.0694 308.724 58.9101 307.16 58.4582L306.35 66.5482L298.29 61.8882L297.47 52.8882C294.954 51.9703 292.726 50.4041 291.01 48.3482L286.83 49.8182L281.13 39.9482L284.63 36.9482C283.87 34.4465 283.589 31.8241 283.8 29.2182L276.41 23.9582ZM302.34 47.2182C308.52 50.7882 312.34 48.2182 312.34 41.1082C312.34 33.9982 307.23 25.2082 301.04 21.6382C294.85 18.0682 291.11 20.6382 291.11 27.8082C291.11 34.9782 296.15 43.6382 302.34 47.2182Z" fill="#E0E0E0"/>
<path d="M280.37 4.60818L286.85 0.878174L292.67 9.62817L286.19 13.3682L280.37 4.60818Z" fill="#F5F5F5"/>
<path d="M269.92 18.3882L276.41 14.6482L283.82 17.9882L277.33 21.7282L269.92 18.3882Z" fill="#F5F5F5"/>
<path d="M299.89 70.2882L306.37 66.5482L307.18 58.4582L300.7 62.1982L299.89 70.2882Z" fill="#E0E0E0"/>
<path d="M323.53 64.3882L317.04 68.1282L312.37 58.7182L318.86 54.9781L323.53 64.3882Z" fill="#E0E0E0"/>
<path d="M269.92 27.7482V18.4382L277.33 21.7482C277.718 20.1672 278.397 18.6719 279.33 17.3382L274.66 7.92818L280.36 4.62817L286.18 13.3882C287.802 13.2416 289.437 13.401 291 13.8582L291.82 5.74818L299.88 10.4082L300.7 19.4082C302.452 20.9651 304.064 22.6715 305.52 24.5082L311.34 22.5082L317.04 32.3882L312.37 36.3882C313.236 38.5641 313.905 40.813 314.37 43.1082L321.78 48.3182V57.6382L314.37 54.2982C313.982 55.8792 313.304 57.3745 312.37 58.7082L317.04 68.1182L311.34 71.4082L305.52 62.6582C303.898 62.7999 302.264 62.6405 300.7 62.1882L299.88 70.2782L291.82 65.6182L291.01 56.6182C289.256 55.0639 287.643 53.3572 286.19 51.5182L280.37 53.5182L274.67 43.6482L279.34 39.6482C278.475 37.4722 277.805 35.2232 277.34 32.9282L269.92 27.7482ZM295.85 51.0082C302.04 54.5782 307.06 51.6782 307.06 44.5382C307.06 37.3982 302.06 28.7082 295.85 25.1282C289.64 21.5482 284.65 24.4582 284.65 31.5982C284.65 38.7382 289.67 47.3782 295.85 50.9582V51.0082Z" fill="#EBEBEB"/>
<path d="M312 20.7882L305.52 24.5282L311.34 22.4982L317.82 18.7482L312 20.7882Z" fill="#F0F0F0"/>
<path d="M317.821 18.7584L323.522 28.6417L317.034 32.3845L311.333 22.5011L317.821 18.7584Z" fill="#F5F5F5"/>
<path d="M323.53 28.6282L317.04 32.3682L312.37 36.3882L318.86 32.6582L323.53 28.6282Z" fill="#E0E0E0"/>
<path d="M320.86 39.3782L314.37 43.1182L321.78 48.3282L328.27 44.5882L320.86 39.3782Z" fill="#F5F5F5"/>
<path d="M328.27 44.5882L321.78 48.3282V57.6482L328.27 53.9082V44.5882Z" fill="#E0E0E0"/>
<path d="M291.82 5.74818L298.31 2.00818L306.37 6.66817L299.89 10.4082L291.82 5.74818Z" fill="#F5F5F5"/>
<path d="M208.62 272.798L114.62 218.518C114.413 218.445 114.234 218.31 114.107 218.131C113.98 217.952 113.912 217.738 113.912 217.518C113.912 217.299 113.98 217.085 114.107 216.905C114.234 216.726 114.413 216.591 114.62 216.518L123.31 211.518C123.848 211.247 124.442 211.106 125.045 211.106C125.648 211.106 126.242 211.247 126.78 211.518L220.81 265.748C221.017 265.821 221.196 265.956 221.323 266.135C221.45 266.315 221.518 266.529 221.518 266.748C221.518 266.968 221.45 267.182 221.323 267.361C221.196 267.54 221.017 267.675 220.81 267.748L212.09 272.748C211.556 273.027 210.963 273.176 210.361 273.185C209.758 273.194 209.162 273.061 208.62 272.798Z" fill="#E0E0E0"/>
<path d="M117.2 8.94819L201.96 57.8882C203.22 58.7105 204.269 59.818 205.021 61.121C205.773 62.424 206.208 63.8859 206.29 65.3882V266.458C206.29 269.218 204.35 270.338 201.96 268.958L117.2 220.018C115.938 219.198 114.889 218.091 114.136 216.787C113.384 215.484 112.95 214.021 112.87 212.518V11.4482C112.87 8.68819 114.8 7.56819 117.2 8.94819Z" fill="#455A64"/>
<path d="M201.96 57.8882L117.2 8.9482C115.06 7.7082 113.29 8.4782 112.93 10.6282C113.13 9.27644 113.614 7.98234 114.35 6.831C115.086 5.67966 116.057 4.69718 117.2 3.9482L120.72 1.9482C122.062 1.2674 123.545 0.912598 125.05 0.912598C126.555 0.912598 128.038 1.2674 129.38 1.9482L214.15 50.8482C215.427 51.6488 216.48 52.7601 217.21 54.0782L205.02 61.0782C204.29 59.7705 203.236 58.6721 201.96 57.8882Z" fill="#37474F"/>
<path d="M218.5 259.418C218.418 260.921 217.983 262.382 217.231 263.685C216.479 264.988 215.43 266.096 214.17 266.918L210.64 268.918C209.418 269.529 208.081 269.876 206.716 269.934C205.351 269.993 203.99 269.762 202.72 269.258C204.72 270.038 206.31 268.888 206.31 266.418V65.3882C206.26 63.8795 205.823 62.409 205.04 61.1182L217.23 54.1182C218.002 55.3992 218.438 56.8539 218.5 58.3482V259.418Z" fill="#263238"/>
<path d="M199.63 84.6782L119.5 38.4282C118.06 37.6082 116.9 38.2782 116.9 39.9282V188.748C116.948 189.65 117.209 190.528 117.66 191.31C118.112 192.092 118.743 192.756 119.5 193.248L199.6 239.498C201.04 240.328 202.2 239.658 202.2 237.998V89.1782C202.154 88.2791 201.898 87.4034 201.452 86.6217C201.005 85.84 200.381 85.1742 199.63 84.6782Z" fill="white"/>
<path d="M159.58 41.0382C160.022 41.3285 160.39 41.7187 160.654 42.1772C160.918 42.6358 161.071 43.1499 161.1 43.6782C161.1 44.6782 160.42 45.0482 159.58 44.5582C159.136 44.2696 158.767 43.8799 158.503 43.421C158.238 42.962 158.087 42.447 158.06 41.9182C158.06 40.9482 158.74 40.5582 159.58 41.0382Z" fill="#37474F"/>
<path d="M159.58 223.488C161.328 224.632 162.782 226.171 163.825 227.981C164.867 229.792 165.468 231.822 165.58 233.908C165.58 237.738 162.89 239.298 159.58 237.378C157.832 236.234 156.379 234.695 155.336 232.884C154.294 231.074 153.692 229.044 153.58 226.958C153.56 223.128 156.26 221.568 159.58 223.488Z" fill="#37474F"/>
<path d="M173.97 56.5182C174.849 57.1016 175.578 57.8834 176.099 58.8006C176.62 59.7177 176.919 60.7446 176.97 61.7982C176.97 63.7382 175.61 64.5282 173.97 63.5582C173.082 62.9803 172.343 62.2009 171.813 61.2834C171.283 60.3659 170.977 59.3362 170.92 58.2782C170.92 56.3382 172.28 55.5482 173.97 56.5182Z" fill="#37474F"/>
<path d="M166.5 55.8582C166.5 57.1582 165.5 57.6482 164.33 56.9582L144.33 45.3882C143.71 45.0013 143.191 44.4736 142.814 43.848C142.437 43.2225 142.213 42.5167 142.16 41.7882C142.16 40.4982 143.16 40.0082 144.33 40.6982L164.33 52.2682C164.948 52.6542 165.467 53.1803 165.844 53.804C166.221 54.4277 166.446 55.1315 166.5 55.8582Z" fill="#37474F"/>
<path d="M211.74 91.1182C211.03 91.5804 210.44 92.2034 210.016 92.9366C209.592 93.6698 209.347 94.4925 209.3 95.3382C209.3 96.8982 210.39 97.5282 211.74 96.7482C212.447 96.2842 213.036 95.6606 213.458 94.9276C213.88 94.1946 214.124 93.3728 214.17 92.5282C214.17 90.9782 213.08 90.3482 211.74 91.1182Z" fill="#37474F"/>
<path d="M211.74 109.898C211.03 110.36 210.44 110.983 210.016 111.717C209.592 112.45 209.347 113.273 209.3 114.118C209.3 115.668 210.39 116.298 211.74 115.528C212.447 115.064 213.036 114.441 213.458 113.708C213.88 112.975 214.124 112.153 214.17 111.308C214.17 109.748 213.08 109.118 211.74 109.898Z" fill="#37474F"/>
<path d="M212.5 91.4982C211.79 91.9604 211.2 92.5834 210.776 93.3166C210.352 94.0498 210.107 94.8725 210.06 95.7182C210.06 97.2682 211.15 97.8982 212.5 97.1282C213.21 96.6659 213.8 96.043 214.224 95.3098C214.648 94.5766 214.893 93.7538 214.94 92.9082C214.93 91.3482 213.84 90.7482 212.5 91.4982Z" fill="#455A64"/>
<path d="M212.5 110.268C211.789 110.731 211.197 111.356 210.773 112.091C210.349 112.826 210.105 113.651 210.06 114.498C210.06 116.048 211.15 116.678 212.5 115.898C213.211 115.438 213.803 114.815 214.227 114.082C214.652 113.348 214.896 112.524 214.94 111.678C214.93 110.128 213.84 109.498 212.5 110.268Z" fill="#455A64"/>
<path d="M100.68 44.6382C100.68 42.9782 101.84 42.3082 103.28 43.1382L112.87 48.6682L183.38 89.3882C184.137 89.8803 184.768 90.5444 185.22 91.3265C185.671 92.1085 185.932 92.9863 185.98 93.8882V242.668C185.98 244.328 184.82 244.998 183.38 244.168L112.84 203.438L103.28 197.918C102.523 197.426 101.892 196.762 101.44 195.98C100.989 195.198 100.728 194.32 100.68 193.418V44.6382Z" fill="white"/>
<path d="M99.68 44.6382C99.617 44.1367 99.7034 43.6278 99.9282 43.1751C100.153 42.7224 100.506 42.3461 100.944 42.0932C101.381 41.8402 101.884 41.7219 102.388 41.7531C102.893 41.7842 103.377 41.9634 103.78 42.2682L112.93 47.5582L183.88 88.5582C184.793 89.1348 185.553 89.9249 186.093 90.8604C186.633 91.796 186.937 92.8488 186.98 93.9282V242.668C187.02 243.167 186.924 243.668 186.702 244.117C186.48 244.566 186.141 244.947 185.72 245.218C185.362 245.426 184.954 245.533 184.54 245.528C183.954 245.51 183.382 245.341 182.88 245.038L111.88 204.038L102.75 198.768C101.842 198.186 101.086 197.395 100.547 196.46C100.008 195.526 99.7 194.476 99.65 193.398L99.68 44.6382ZM112.91 202.328L113.73 202.808L183.84 243.288C183.958 243.379 184.094 243.442 184.24 243.473C184.385 243.504 184.535 243.503 184.68 243.468C184.81 243.388 184.94 243.108 184.94 242.648V93.8882C184.888 93.1621 184.672 92.4573 184.309 91.8267C183.945 91.1962 183.443 90.6565 182.84 90.2482L112.8 49.7482L102.8 43.9582C102.682 43.8677 102.546 43.8045 102.4 43.7734C102.255 43.7423 102.105 43.7439 101.96 43.7782C101.83 43.8582 101.7 44.1382 101.7 44.5982V193.418C101.752 194.144 101.968 194.849 102.331 195.48C102.695 196.11 103.197 196.65 103.8 197.058L112.93 202.328H112.91Z" fill="#8D37FF"/>
<path d="M143.33 79.2082C134.33 74.0282 127.08 78.2082 127.08 88.5982C127.08 98.9882 134.36 111.598 143.33 116.738C152.3 121.878 159.58 117.738 159.58 107.358C159.58 96.9782 152.3 84.3982 143.33 79.2082Z" fill="#8D37FF"/>
<path d="M143.33 87.3682C140.42 85.6882 138.06 87.0482 138.06 90.3682C138.159 92.1971 138.688 93.977 139.603 95.5634C140.519 97.1497 141.796 98.4978 143.33 99.4982C146.24 101.178 148.6 99.8182 148.6 96.4982C148.501 94.6692 147.972 92.8893 147.057 91.303C146.141 89.7167 144.864 88.3686 143.33 87.3682Z" fill="#8D37FF"/>
<path d="M133.06 105.288C133.06 99.7682 136.93 97.5282 141.72 100.288L144.72 102.018C149.5 104.778 153.38 111.498 153.38 117.018V118.508C150.61 119.418 147.13 118.928 143.38 116.738C139.226 114.176 135.713 110.697 133.11 106.568L133.06 105.288Z" fill="#8D37FF"/>
<path opacity="0.7" d="M143.33 87.3682C140.42 85.6882 138.06 87.0482 138.06 90.3682C138.159 92.1971 138.688 93.977 139.603 95.5634C140.519 97.1497 141.796 98.4978 143.33 99.4982C146.24 101.178 148.6 99.8182 148.6 96.4982C148.501 94.6692 147.972 92.8893 147.057 91.303C146.141 89.7167 144.864 88.3686 143.33 87.3682Z" fill="white"/>
<path opacity="0.7" d="M133.06 105.288C133.06 99.7682 136.93 97.5282 141.72 100.288L144.72 102.018C149.5 104.778 153.38 111.498 153.38 117.018V118.508C150.61 119.418 147.13 118.928 143.38 116.738C139.226 114.176 135.713 110.697 133.11 106.568L133.06 105.288Z" fill="white"/>
<path d="M174.77 139.588L153.86 127.518C152.86 126.968 152.13 127.408 152.13 128.518V129.208C152.162 129.809 152.335 130.394 152.635 130.916C152.936 131.437 153.356 131.88 153.86 132.208L174.77 144.278C175.72 144.828 176.5 144.378 176.5 143.278V142.588C176.468 141.987 176.294 141.403 175.993 140.882C175.693 140.36 175.274 139.917 174.77 139.588Z" fill="#8D37FF"/>
<path opacity="0.1" d="M174.77 139.588L153.86 127.518C152.86 126.968 152.13 127.408 152.13 128.518V129.208C152.162 129.809 152.335 130.394 152.635 130.916C152.936 131.437 153.356 131.88 153.86 132.208L174.77 144.278C175.72 144.828 176.5 144.378 176.5 143.278V142.588C176.468 141.987 176.294 141.403 175.993 140.882C175.693 140.36 175.274 139.917 174.77 139.588Z" fill="black"/>
<path d="M175.63 154.158L112.37 117.638C111.9 117.358 111.51 117.578 111.51 118.138V125.518C111.528 125.818 111.614 126.109 111.764 126.369C111.913 126.63 112.12 126.852 112.37 127.018L175.63 163.538C176.11 163.818 176.5 163.588 176.5 163.038V155.658C176.483 155.357 176.395 155.065 176.244 154.804C176.093 154.544 175.883 154.322 175.63 154.158Z" fill="#8D37FF"/>
<path opacity="0.2" d="M175.63 154.158L112.37 117.638C111.9 117.358 111.51 117.578 111.51 118.138V125.518C111.528 125.818 111.614 126.109 111.764 126.369C111.913 126.63 112.12 126.852 112.37 127.018L175.63 163.538C176.11 163.818 176.5 163.588 176.5 163.038V155.658C176.483 155.357 176.395 155.065 176.244 154.804C176.093 154.544 175.883 154.322 175.63 154.158Z" fill="white"/>
<path d="M174.77 172.418L153.86 160.348C152.86 159.798 152.13 160.248 152.13 161.348V162.038C152.161 162.639 152.334 163.225 152.634 163.746C152.935 164.268 153.355 164.71 153.86 165.038L174.77 177.108C175.72 177.668 176.5 177.218 176.5 176.108V175.418C176.466 174.818 176.292 174.234 175.991 173.713C175.691 173.192 175.273 172.748 174.77 172.418Z" fill="#8D37FF"/>
<path opacity="0.1" d="M174.77 172.418L153.86 160.348C152.86 159.798 152.13 160.248 152.13 161.348V162.038C152.161 162.639 152.334 163.225 152.634 163.746C152.935 164.268 153.355 164.71 153.86 165.038L174.77 177.108C175.72 177.668 176.5 177.218 176.5 176.108V175.418C176.466 174.818 176.292 174.234 175.991 173.713C175.691 173.192 175.273 172.748 174.77 172.418Z" fill="black"/>
<path d="M175.63 186.988L112.37 150.468C111.9 150.188 111.51 150.418 111.51 150.968V158.348C111.528 158.648 111.614 158.939 111.764 159.199C111.913 159.46 112.12 159.682 112.37 159.848L175.63 196.368C176.11 196.648 176.5 196.428 176.5 195.868V188.488C176.483 188.187 176.395 187.895 176.244 187.634C176.093 187.374 175.883 187.152 175.63 186.988Z" fill="#8D37FF"/>
<path opacity="0.2" d="M175.63 186.988L112.37 150.468C111.9 150.188 111.51 150.418 111.51 150.968V158.348C111.528 158.648 111.614 158.939 111.764 159.199C111.913 159.46 112.12 159.682 112.37 159.848L175.63 196.368C176.11 196.648 176.5 196.428 176.5 195.868V188.488C176.483 188.187 176.395 187.895 176.244 187.634C176.093 187.374 175.883 187.152 175.63 186.988Z" fill="white"/>
<path d="M150.4 191.178L125.4 176.768C124.4 176.208 123.66 176.658 123.66 177.768V185.488C123.693 186.09 123.868 186.676 124.17 187.197C124.472 187.718 124.894 188.161 125.4 188.488L150.4 202.908C151.4 203.458 152.13 203.008 152.13 201.908V194.178C152.095 193.578 151.921 192.994 151.62 192.473C151.32 191.952 150.902 191.509 150.4 191.178Z" fill="#8D37FF"/>
<path opacity="0.1" d="M150.4 191.178L125.4 176.768C124.4 176.208 123.66 176.658 123.66 177.768V185.488C123.693 186.09 123.868 186.676 124.17 187.197C124.472 187.718 124.894 188.161 125.4 188.488L150.4 202.908C151.4 203.458 152.13 203.008 152.13 201.908V194.178C152.095 193.578 151.921 192.994 151.62 192.473C151.32 191.952 150.902 191.509 150.4 191.178Z" fill="black"/>
<path d="M91.2001 158.598C91.2001 158.598 103.48 141.658 104.2 139.598C104.77 138.078 104.2 135.818 104.02 134.768C103.84 133.718 103.68 131.378 103.5 130.768C103.2 129.628 104.67 129.858 105.5 130.898C106.33 131.938 106.61 134.018 107.04 134.358C107.47 134.698 110.74 129.928 112.45 127.728C114.16 125.528 115.23 124.188 116.28 125.008C117.03 125.598 116.47 126.878 115.23 128.758C114.506 129.771 113.838 130.822 113.23 131.908C113.04 132.318 114.06 132.348 114.61 133.198C115.04 133.858 114.61 134.928 115.21 135.438C115.579 135.719 115.832 136.126 115.921 136.582C116.009 137.037 115.927 137.509 115.69 137.908C114.577 139.656 113.141 141.177 111.46 142.388C109.62 143.658 108.88 144.108 107.79 145.838C106.7 147.568 96.9201 165.238 96.2601 166.298C95.6001 167.358 94.33 169.518 92.4 169.578C90.47 169.638 74.67 156.038 73.86 155.358C71.26 153.188 70.43 152.878 69.99 154.828C69.8381 155.521 69.7246 156.223 69.65 156.928C69.34 159.408 67.65 168.268 67.65 168.268C67.65 168.268 59.65 172.138 53.08 170.268C46.51 168.398 44.2901 165.608 44.2901 165.608L47.58 160.248C46.69 158.038 42.5801 149.078 41.2501 142.808L61.8501 139.478C62.2701 139.388 62.9501 139.218 63.8501 138.988C64.9801 138.688 67.85 137.698 70.02 139.598C77.1 145.768 91.18 158.598 91.18 158.598" fill="#FFA8A7"/>
<path d="M50.36 262.538L54.05 267.668C52.3731 268.451 50.5406 268.844 48.6901 268.818C45.3801 268.938 44.4701 267.818 44.3501 267.598C43.7901 266.398 44.6601 264.238 44.9001 262.378L50.36 262.538Z" fill="#37474F"/>
<path d="M53.84 265.208C53.84 265.208 58.32 264.918 61.41 264.538C64.5 264.158 66.9501 265.658 66.2301 266.928C65.5101 268.198 63.8001 269.258 61.1401 270.148C58.8701 270.918 56.14 271.468 53.78 272.148C51.42 272.828 49.7801 273.718 48.41 273.238C46.88 272.708 46.2201 272.098 46.3501 270.978C46.684 269.385 47.0978 267.81 47.59 266.258L53.84 265.208Z" fill="#37474F"/>
<path d="M44.35 257.388C44.35 257.388 44.91 262.048 44.95 263.048C44.99 264.048 49.5 264.368 50.36 262.538L50.5 256.838L44.35 257.388Z" fill="#F28F8F"/>
<path d="M48.8901 260.248L47.2801 267.328C47.2801 267.328 47.1301 268.188 50.8101 268.738C54.4901 269.288 60.2701 266.808 61.2601 266.308C62.2501 265.808 62.3601 264.798 58.7401 264.998C55.1201 265.198 53.8401 265.208 53.8401 265.208L55.0201 262.078L48.8901 260.248Z" fill="#FFA8A7"/>
<path d="M41.3101 142.748L38.7601 142.038C38.7601 142.038 33.4301 158.908 32.8401 160.538C32.2501 162.168 31.5801 163.888 32.7301 165.898C34.1001 168.288 41.3101 177.898 41.3101 177.898L45.8901 173.418L40.6901 163.898L45.2901 154.598L41.3101 142.748Z" fill="#F28F8F"/>
<path d="M67.5001 120.838C68.0979 119.716 68.4013 118.46 68.3821 117.189C68.3628 115.918 68.0215 114.672 67.3901 113.568C64.8501 108.858 59.1901 106.568 52.4501 107.438C49.3301 107.848 45.6501 110.438 43.6401 114.308C41.4201 118.598 41.2101 127.238 40.6401 130.508L67.5001 120.838Z" fill="#37474F"/>
<path d="M67.6801 122.688C67.6801 122.688 69.2801 125.738 69.0001 126.018C68.5854 126.26 68.1321 126.43 67.6601 126.518L67.6801 122.688Z" fill="#FFA8A7"/>
<path d="M62.8201 113.048C64.5601 114.178 67.5601 116.258 67.6901 123.108C67.8301 130.108 66.8301 132.418 65.7901 133.228C65.0901 133.778 60.9801 133.498 59.2201 133.088C57.4601 132.678 52.3901 130.168 50.5601 126.358C48.4101 121.878 48.8501 115.358 52.0401 113.358C53.6637 112.398 55.5046 111.866 57.3901 111.812C59.2756 111.758 61.144 112.183 62.8201 113.048Z" fill="#FFA8A7"/>
<path d="M44.3501 165.568C41.2701 170.368 38.3501 174.568 37.7101 179.988C36.3901 191.378 40.7101 204.398 41.6401 212.828C39.8912 215.226 38.883 218.084 38.7401 221.048C38.7401 224.538 44.3501 257.388 44.3501 257.388C44.3501 257.388 48.4301 258.628 50.5001 256.838L54.3501 196.408L52.3501 189.048L44.3501 165.568Z" fill="#8D37FF"/>
<path opacity="0.2" d="M44.3501 165.568C41.2701 170.368 38.3501 174.568 37.7101 179.988C36.3901 191.378 40.7101 204.398 41.6401 212.828C39.8912 215.226 38.883 218.084 38.7401 221.048C38.7401 224.538 44.3501 257.388 44.3501 257.388C44.3501 257.388 48.4301 258.628 50.5001 256.838L54.3501 196.408L52.3501 189.048L44.3501 165.568Z" fill="black"/>
<path d="M54.3501 196.408L52.3501 189.048C48.5207 188.04 44.8273 186.573 41.3501 184.678C41.3501 184.678 43.4301 188.468 49.4101 190.548L52.5001 199.998L52.7601 221.648L54.3501 196.408Z" fill="#8D37FF"/>
<path opacity="0.3" d="M54.3501 196.408L52.3501 189.048C48.5207 188.04 44.8273 186.573 41.3501 184.678C41.3501 184.678 43.4301 188.468 49.4101 190.548L52.5001 199.998L52.7601 221.648L54.3501 196.408Z" fill="black"/>
<path d="M44.35 165.568C42.7 168.268 38.76 172.868 39.6 177.298C40.6 182.658 43.5 186.428 52.32 189.048L60.6 219.048C60.6 219.048 56.29 223.048 54.97 226.918C53.65 230.788 48.89 260.268 48.89 260.268C48.89 260.268 50.37 262.678 55.02 262.098C55.02 262.098 71.23 225.098 72.37 222.688C73.7537 220.248 74.2384 217.399 73.74 214.638C73.23 210.758 67.74 168.288 67.74 168.288L44.35 165.568Z" fill="#8D37FF"/>
<path opacity="0.2" d="M44.35 165.568C42.7 168.268 38.76 172.868 39.6 177.298C40.6 182.658 43.5 186.428 52.32 189.048L60.6 219.048C60.6 219.048 56.29 223.048 54.97 226.918C53.65 230.788 48.89 260.268 48.89 260.268C48.89 260.268 50.37 262.678 55.02 262.098C55.02 262.098 71.23 225.098 72.37 222.688C73.7537 220.248 74.2384 217.399 73.74 214.638C73.23 210.758 67.74 168.288 67.74 168.288L44.35 165.568Z" fill="black"/>
<path d="M41.3101 142.748L61.9101 139.418C62.3301 139.328 63.0101 139.158 63.9101 138.928C63.9101 138.928 64.7901 151.848 70.0801 154.808C69.9501 155.428 69.8401 156.118 69.7401 156.908C69.4301 159.388 67.7401 168.248 67.7401 168.248C67.7401 168.248 59.7401 172.118 53.1701 170.248C46.6001 168.378 44.3801 165.588 44.3801 165.588L47.6701 160.228C46.7501 157.998 42.6101 149.038 41.3101 142.748Z" fill="#8D37FF"/>
<path opacity="0.7" d="M41.3101 142.748L61.9101 139.418C62.3301 139.328 63.0101 139.158 63.9101 138.928C63.9101 138.928 64.7901 151.848 70.0801 154.808C69.9501 155.428 69.8401 156.118 69.7401 156.908C69.4301 159.388 67.7401 168.248 67.7401 168.248C67.7401 168.248 59.7401 172.118 53.1701 170.248C46.6001 168.378 44.3801 165.588 44.3801 165.588L47.6701 160.228C46.7501 157.998 42.6101 149.038 41.3101 142.748Z" fill="white"/>
<path d="M46.7401 158.098C49.4758 159.741 52.3422 161.156 55.3101 162.328C52.6163 162.275 49.9791 161.546 47.6401 160.208L46.7401 158.098Z" fill="#8D37FF"/>
<path d="M63.3301 113.388C63.3301 113.388 64.3301 119.888 61.9701 123.708C61.9701 123.708 61.0901 121.118 58.9001 121.608C56.7101 122.098 56.5901 124.988 58.1301 126.608C58.5216 127.063 59.0332 127.397 59.6063 127.574C60.1793 127.751 60.7907 127.763 61.3701 127.608C61.3701 127.608 61.7201 132.308 61.9101 136.248C62.1001 140.188 63.1401 148.778 58.7101 152.248C54.2801 155.718 43.1601 156.938 37.9501 149.658C35.0501 145.608 38.9001 138.448 40.6901 130.418C42.3401 123.038 43.2701 112.098 51.1001 110.338C58.9301 108.578 63.3301 113.388 63.3301 113.388Z" fill="#37474F"/>
<path d="M34.6 24.5782L36.25 25.5782C36.1115 24.9912 36.0344 24.3913 36.02 23.7882C36.02 20.4382 38.37 19.0882 41.27 20.7882C42.1526 21.3206 42.9401 21.9965 43.6 22.7882C43.6 18.2882 46.76 16.4582 50.66 18.7082C52.7152 20.0485 54.4254 21.8543 55.6521 23.9793C56.8787 26.1042 57.5872 28.4883 57.72 30.9382C57.72 31.1682 57.72 31.3882 57.72 31.6082C58.7247 31.4818 59.7415 31.7157 60.59 32.2682C62.1181 33.264 63.3899 34.606 64.3021 36.1854C65.2143 37.7648 65.7412 39.537 65.84 41.3582C65.8405 41.7816 65.797 42.2039 65.71 42.6182L66.59 43.1282C68.98 44.5082 70.92 47.1982 70.92 49.1282C70.92 51.0582 68.98 51.5182 66.59 50.1282L34.59 31.6782C32.2 30.2982 30.26 27.6082 30.26 25.6782C30.26 23.7482 32.21 23.1882 34.6 24.5782Z" fill="#EBEBEB"/>
</svg>
