<svg width="501" height="150" viewBox="0 0 501 150" fill="none" xmlns="http://www.w3.org/2000/svg">
<path fill-rule="evenodd" clip-rule="evenodd" d="M270.635 88H497.145V93.8125H501V150H276.418V146.125H270.635V88ZM271.599 88.9688H496.181V145.156H271.599V88.9688Z" fill="#09072F"/>
<path d="M271.599 88.9688H496.181V145.156H271.599V88.9688Z" fill="#8D37FF"/>
<mask id="path-2-outside-1_16_231" maskUnits="userSpaceOnUse" x="299.515" y="98.625" width="174" height="43" fill="black">
<rect fill="white" x="299.515" y="98.625" width="174" height="43"/>
<path d="M324.295 123.723L327.627 127.728C324.811 130.836 321.08 132.39 316.434 132.39C314.14 132.39 312.006 131.989 310.031 131.186C308.072 130.384 306.387 129.275 304.979 127.86C303.585 126.43 302.489 124.7 301.691 122.672C300.907 120.629 300.515 118.412 300.515 116.019C300.515 112.911 301.205 110.109 302.584 107.614C303.963 105.104 305.879 103.149 308.333 101.748C310.786 100.333 313.545 99.625 316.608 99.625C321.181 99.625 324.869 101.055 327.671 103.915L324.186 108.314C323.243 107.249 322.103 106.439 320.768 105.885C319.446 105.316 318.045 105.031 316.565 105.031C315.229 105.031 313.966 105.265 312.775 105.732C311.585 106.198 310.518 106.877 309.574 107.767C308.63 108.643 307.883 109.788 307.331 111.203C306.794 112.619 306.525 114.209 306.525 115.975C306.525 117.74 306.801 119.338 307.353 120.768C307.905 122.183 308.645 123.343 309.574 124.248C310.518 125.138 311.585 125.824 312.775 126.306C313.98 126.772 315.258 127.006 316.608 127.006C318.074 127.006 319.49 126.729 320.855 126.174C322.219 125.605 323.366 124.788 324.295 123.723Z"/>
<path d="M330.85 125.321C330.168 123.73 329.827 121.957 329.827 120.002C329.827 118.047 330.175 116.267 330.872 114.662C331.569 113.042 332.513 111.714 333.703 110.678C334.894 109.627 336.258 108.825 337.797 108.27C339.351 107.701 340.991 107.417 342.719 107.417C344.417 107.417 346.043 107.694 347.597 108.249C349.15 108.788 350.537 109.569 351.756 110.59C352.99 111.597 353.97 112.903 354.696 114.508C355.422 116.113 355.785 117.901 355.785 119.871C355.785 121.826 355.429 123.606 354.718 125.211C354.021 126.816 353.063 128.137 351.843 129.173C350.638 130.209 349.245 131.004 347.662 131.558C346.094 132.113 344.417 132.39 342.632 132.39C340.904 132.39 339.271 132.12 337.732 131.58C336.193 131.04 334.835 130.26 333.659 129.238C332.484 128.217 331.547 126.911 330.85 125.321ZM335.794 119.827C335.794 122.307 336.44 124.212 337.732 125.539C339.024 126.867 340.686 127.531 342.719 127.531C344.809 127.531 346.508 126.867 347.815 125.539C349.136 124.212 349.796 122.337 349.796 119.914C349.796 117.492 349.128 115.603 347.793 114.246C346.457 112.889 344.795 112.21 342.806 112.21C340.817 112.21 339.147 112.867 337.797 114.18C336.461 115.493 335.794 117.376 335.794 119.827Z"/>
<path d="M377.192 120.724V108.095H382.854V131.799H377.192V127.356C375.028 130.61 372.147 132.237 368.546 132.237C362.899 132.237 360.075 128.837 360.075 122.038V108.095H365.737V121.665C365.737 125.488 367.167 127.4 370.027 127.4C371.58 127.4 372.945 126.853 374.121 125.758C375.297 124.664 376.321 122.986 377.192 120.724Z"/>
<path d="M403.324 107.504C409.059 107.504 411.926 110.912 411.926 117.726V131.799H406.264V118.12C406.264 114.268 404.819 112.341 401.93 112.341C400.304 112.341 398.889 112.889 397.684 113.983C396.493 115.077 395.441 116.77 394.526 119.061V131.799H388.821V108.095H394.526V112.56C396.747 109.19 399.68 107.504 403.324 107.504Z"/>
<path d="M433.594 126.327L434.487 130.771C432.367 131.792 429.986 132.303 427.344 132.303C424.774 132.303 422.764 131.602 421.312 130.201C419.86 128.786 419.134 126.656 419.134 123.81V112.473H414.996V108.095H419.134V101.595H424.796V108.095H433.507V112.473H424.796V122.431C424.796 125.744 426.117 127.4 428.76 127.4C430.473 127.4 432.084 127.042 433.594 126.327Z"/>
<path d="M450.575 125.518L457.043 108.095H463.337L449.465 141.211H443.432L447.592 131.931L437.77 108.095H444.369L450.575 125.518Z"/>
<path d="M466.538 131.449C465.826 130.778 465.471 129.924 465.471 128.888C465.471 127.852 465.819 127.006 466.516 126.349C467.213 125.678 468.069 125.342 469.086 125.342C470.117 125.342 470.973 125.671 471.655 126.327C472.352 126.984 472.701 127.838 472.701 128.888C472.701 129.91 472.352 130.756 471.655 131.427C470.973 132.098 470.117 132.434 469.086 132.434C468.113 132.434 467.264 132.106 466.538 131.449Z"/>
</mask>
<path d="M324.295 123.723L327.627 127.728C324.811 130.836 321.08 132.39 316.434 132.39C314.14 132.39 312.006 131.989 310.031 131.186C308.072 130.384 306.387 129.275 304.979 127.86C303.585 126.43 302.489 124.7 301.691 122.672C300.907 120.629 300.515 118.412 300.515 116.019C300.515 112.911 301.205 110.109 302.584 107.614C303.963 105.104 305.879 103.149 308.333 101.748C310.786 100.333 313.545 99.625 316.608 99.625C321.181 99.625 324.869 101.055 327.671 103.915L324.186 108.314C323.243 107.249 322.103 106.439 320.768 105.885C319.446 105.316 318.045 105.031 316.565 105.031C315.229 105.031 313.966 105.265 312.775 105.732C311.585 106.198 310.518 106.877 309.574 107.767C308.63 108.643 307.883 109.788 307.331 111.203C306.794 112.619 306.525 114.209 306.525 115.975C306.525 117.74 306.801 119.338 307.353 120.768C307.905 122.183 308.645 123.343 309.574 124.248C310.518 125.138 311.585 125.824 312.775 126.306C313.98 126.772 315.258 127.006 316.608 127.006C318.074 127.006 319.49 126.729 320.855 126.174C322.219 125.605 323.366 124.788 324.295 123.723Z" fill="white"/>
<path d="M330.85 125.321C330.168 123.73 329.827 121.957 329.827 120.002C329.827 118.047 330.175 116.267 330.872 114.662C331.569 113.042 332.513 111.714 333.703 110.678C334.894 109.627 336.258 108.825 337.797 108.27C339.351 107.701 340.991 107.417 342.719 107.417C344.417 107.417 346.043 107.694 347.597 108.249C349.15 108.788 350.537 109.569 351.756 110.59C352.99 111.597 353.97 112.903 354.696 114.508C355.422 116.113 355.785 117.901 355.785 119.871C355.785 121.826 355.429 123.606 354.718 125.211C354.021 126.816 353.063 128.137 351.843 129.173C350.638 130.209 349.245 131.004 347.662 131.558C346.094 132.113 344.417 132.39 342.632 132.39C340.904 132.39 339.271 132.12 337.732 131.58C336.193 131.04 334.835 130.26 333.659 129.238C332.484 128.217 331.547 126.911 330.85 125.321ZM335.794 119.827C335.794 122.307 336.44 124.212 337.732 125.539C339.024 126.867 340.686 127.531 342.719 127.531C344.809 127.531 346.508 126.867 347.815 125.539C349.136 124.212 349.796 122.337 349.796 119.914C349.796 117.492 349.128 115.603 347.793 114.246C346.457 112.889 344.795 112.21 342.806 112.21C340.817 112.21 339.147 112.867 337.797 114.18C336.461 115.493 335.794 117.376 335.794 119.827Z" fill="white"/>
<path d="M377.192 120.724V108.095H382.854V131.799H377.192V127.356C375.028 130.61 372.147 132.237 368.546 132.237C362.899 132.237 360.075 128.837 360.075 122.038V108.095H365.737V121.665C365.737 125.488 367.167 127.4 370.027 127.4C371.58 127.4 372.945 126.853 374.121 125.758C375.297 124.664 376.321 122.986 377.192 120.724Z" fill="white"/>
<path d="M403.324 107.504C409.059 107.504 411.926 110.912 411.926 117.726V131.799H406.264V118.12C406.264 114.268 404.819 112.341 401.93 112.341C400.304 112.341 398.889 112.889 397.684 113.983C396.493 115.077 395.441 116.77 394.526 119.061V131.799H388.821V108.095H394.526V112.56C396.747 109.19 399.68 107.504 403.324 107.504Z" fill="white"/>
<path d="M433.594 126.327L434.487 130.771C432.367 131.792 429.986 132.303 427.344 132.303C424.774 132.303 422.764 131.602 421.312 130.201C419.86 128.786 419.134 126.656 419.134 123.81V112.473H414.996V108.095H419.134V101.595H424.796V108.095H433.507V112.473H424.796V122.431C424.796 125.744 426.117 127.4 428.76 127.4C430.473 127.4 432.084 127.042 433.594 126.327Z" fill="white"/>
<path d="M450.575 125.518L457.043 108.095H463.337L449.465 141.211H443.432L447.592 131.931L437.77 108.095H444.369L450.575 125.518Z" fill="white"/>
<path d="M466.538 131.449C465.826 130.778 465.471 129.924 465.471 128.888C465.471 127.852 465.819 127.006 466.516 126.349C467.213 125.678 468.069 125.342 469.086 125.342C470.117 125.342 470.973 125.671 471.655 126.327C472.352 126.984 472.701 127.838 472.701 128.888C472.701 129.91 472.352 130.756 471.655 131.427C470.973 132.098 470.117 132.434 469.086 132.434C468.113 132.434 467.264 132.106 466.538 131.449Z" fill="white"/>
<path d="M324.295 123.723L327.627 127.728C324.811 130.836 321.08 132.39 316.434 132.39C314.14 132.39 312.006 131.989 310.031 131.186C308.072 130.384 306.387 129.275 304.979 127.86C303.585 126.43 302.489 124.7 301.691 122.672C300.907 120.629 300.515 118.412 300.515 116.019C300.515 112.911 301.205 110.109 302.584 107.614C303.963 105.104 305.879 103.149 308.333 101.748C310.786 100.333 313.545 99.625 316.608 99.625C321.181 99.625 324.869 101.055 327.671 103.915L324.186 108.314C323.243 107.249 322.103 106.439 320.768 105.885C319.446 105.316 318.045 105.031 316.565 105.031C315.229 105.031 313.966 105.265 312.775 105.732C311.585 106.198 310.518 106.877 309.574 107.767C308.63 108.643 307.883 109.788 307.331 111.203C306.794 112.619 306.525 114.209 306.525 115.975C306.525 117.74 306.801 119.338 307.353 120.768C307.905 122.183 308.645 123.343 309.574 124.248C310.518 125.138 311.585 125.824 312.775 126.306C313.98 126.772 315.258 127.006 316.608 127.006C318.074 127.006 319.49 126.729 320.855 126.174C322.219 125.605 323.366 124.788 324.295 123.723Z" stroke="white" stroke-width="0.3" mask="url(#path-2-outside-1_16_231)"/>
<path d="M330.85 125.321C330.168 123.73 329.827 121.957 329.827 120.002C329.827 118.047 330.175 116.267 330.872 114.662C331.569 113.042 332.513 111.714 333.703 110.678C334.894 109.627 336.258 108.825 337.797 108.27C339.351 107.701 340.991 107.417 342.719 107.417C344.417 107.417 346.043 107.694 347.597 108.249C349.15 108.788 350.537 109.569 351.756 110.59C352.99 111.597 353.97 112.903 354.696 114.508C355.422 116.113 355.785 117.901 355.785 119.871C355.785 121.826 355.429 123.606 354.718 125.211C354.021 126.816 353.063 128.137 351.843 129.173C350.638 130.209 349.245 131.004 347.662 131.558C346.094 132.113 344.417 132.39 342.632 132.39C340.904 132.39 339.271 132.12 337.732 131.58C336.193 131.04 334.835 130.26 333.659 129.238C332.484 128.217 331.547 126.911 330.85 125.321ZM335.794 119.827C335.794 122.307 336.44 124.212 337.732 125.539C339.024 126.867 340.686 127.531 342.719 127.531C344.809 127.531 346.508 126.867 347.815 125.539C349.136 124.212 349.796 122.337 349.796 119.914C349.796 117.492 349.128 115.603 347.793 114.246C346.457 112.889 344.795 112.21 342.806 112.21C340.817 112.21 339.147 112.867 337.797 114.18C336.461 115.493 335.794 117.376 335.794 119.827Z" stroke="white" stroke-width="0.3" mask="url(#path-2-outside-1_16_231)"/>
<path d="M377.192 120.724V108.095H382.854V131.799H377.192V127.356C375.028 130.61 372.147 132.237 368.546 132.237C362.899 132.237 360.075 128.837 360.075 122.038V108.095H365.737V121.665C365.737 125.488 367.167 127.4 370.027 127.4C371.58 127.4 372.945 126.853 374.121 125.758C375.297 124.664 376.321 122.986 377.192 120.724Z" stroke="white" stroke-width="0.3" mask="url(#path-2-outside-1_16_231)"/>
<path d="M403.324 107.504C409.059 107.504 411.926 110.912 411.926 117.726V131.799H406.264V118.12C406.264 114.268 404.819 112.341 401.93 112.341C400.304 112.341 398.889 112.889 397.684 113.983C396.493 115.077 395.441 116.77 394.526 119.061V131.799H388.821V108.095H394.526V112.56C396.747 109.19 399.68 107.504 403.324 107.504Z" stroke="white" stroke-width="0.3" mask="url(#path-2-outside-1_16_231)"/>
<path d="M433.594 126.327L434.487 130.771C432.367 131.792 429.986 132.303 427.344 132.303C424.774 132.303 422.764 131.602 421.312 130.201C419.86 128.786 419.134 126.656 419.134 123.81V112.473H414.996V108.095H419.134V101.595H424.796V108.095H433.507V112.473H424.796V122.431C424.796 125.744 426.117 127.4 428.76 127.4C430.473 127.4 432.084 127.042 433.594 126.327Z" stroke="white" stroke-width="0.3" mask="url(#path-2-outside-1_16_231)"/>
<path d="M450.575 125.518L457.043 108.095H463.337L449.465 141.211H443.432L447.592 131.931L437.77 108.095H444.369L450.575 125.518Z" stroke="white" stroke-width="0.3" mask="url(#path-2-outside-1_16_231)"/>
<path d="M466.538 131.449C465.826 130.778 465.471 129.924 465.471 128.888C465.471 127.852 465.819 127.006 466.516 126.349C467.213 125.678 468.069 125.342 469.086 125.342C470.117 125.342 470.973 125.671 471.655 126.327C472.352 126.984 472.701 127.838 472.701 128.888C472.701 129.91 472.352 130.756 471.655 131.427C470.973 132.098 470.117 132.434 469.086 132.434C468.113 132.434 467.264 132.106 466.538 131.449Z" stroke="white" stroke-width="0.3" mask="url(#path-2-outside-1_16_231)"/>
<mask id="path-3-outside-2_16_231" maskUnits="userSpaceOnUse" x="0" y="0" width="420" height="80" fill="black">
<rect fill="white" width="420" height="80"/>
<path d="M25.2789 78.8958C21.1359 78.8958 16.9929 78.3574 12.8499 77.2806C8.70691 76.169 5.09027 74.7101 2 72.9038L4.39411 60.503C7.41647 62.3788 10.7275 63.8898 14.3271 65.0361C17.9608 66.1476 21.5265 66.7034 25.0242 66.7034C29.5408 66.7034 33.0725 65.8176 35.6195 64.0461C38.1664 62.2398 39.4399 59.8604 39.4399 56.9078C39.4399 54.9626 38.7607 53.3126 37.4023 51.9579C36.044 50.5685 34.2781 49.4743 32.1047 48.6754C29.9653 47.8417 27.5881 47.0601 24.9733 46.3307C22.3924 45.5665 19.7945 44.6633 17.1797 43.6212C14.5648 42.5444 12.1707 41.2592 9.99736 39.7655C7.85794 38.2719 6.10905 36.2051 4.75068 33.5651C3.39232 30.8904 2.71314 27.7468 2.71314 24.1343C2.71314 17.2565 5.14121 11.6814 9.99736 7.40882C14.8535 3.13627 21.2208 1 29.0993 1C33.2763 1 37.4872 1.57315 41.7321 2.71944C45.977 3.831 49.1521 5.23781 51.2576 6.93988L48.0994 18.7154C41.6812 15.0681 35.5006 13.2445 29.5578 13.2445C25.2789 13.2445 22.0019 14.1476 19.7266 15.9539C17.4853 17.7602 16.3647 20.018 16.3647 22.7275C16.3647 24.3948 16.7722 25.8884 17.5872 27.2084C18.4362 28.4937 19.5568 29.5705 20.9492 30.4389C22.3754 31.2725 24.0055 32.0541 25.8393 32.7836C27.673 33.4783 29.6087 34.1556 31.6463 34.8156C33.6838 35.4756 35.7044 36.1703 37.7079 36.8998C39.7455 37.6293 41.6812 38.5498 43.5149 39.6613C45.3487 40.7381 46.9618 41.9886 48.3541 43.4128C49.7804 44.8023 50.901 46.5738 51.7161 48.7275C52.565 50.8464 52.9895 53.2432 52.9895 55.9178C52.9895 60.503 51.733 64.5671 49.2201 68.1102C46.7071 71.6533 43.3621 74.3454 39.1852 76.1864C35.0082 77.9927 30.3728 78.8958 25.2789 78.8958Z"/>
<path d="M101.381 64.4629L103.47 75.0401C98.5116 77.4716 92.9423 78.6874 86.7618 78.6874C80.751 78.6874 76.0477 77.02 72.6518 73.6854C69.2559 70.316 67.558 65.2445 67.558 58.4709V31.481H57.8796V21.0601H67.558V5.58517H80.802V21.0601H101.177V31.481H80.802V55.1884C80.802 63.0735 83.8923 67.016 90.0728 67.016C94.08 67.016 97.8494 66.165 101.381 64.4629Z"/>
<path d="M150.282 51.1243V21.0601H163.526V77.489H150.282V66.9118C145.222 74.658 138.481 78.5311 130.06 78.5311C116.85 78.5311 110.244 70.4375 110.244 54.2505V21.0601H123.489V53.3647C123.489 62.4656 126.833 67.016 133.523 67.016C137.157 67.016 140.349 65.7134 143.1 63.1082C145.851 60.503 148.245 56.5084 150.282 51.1243Z"/>
<path d="M220.985 29.5531V2.45892H234.229V77.489H221.189V67.2245C216.367 74.9359 209.761 78.7916 201.374 78.7916C197.774 78.7916 194.361 78.149 191.135 76.8637C187.909 75.5785 185.039 73.7375 182.526 71.3407C180.047 68.9439 178.061 65.8524 176.567 62.0661C175.106 58.2452 174.376 53.99 174.376 49.3006C174.376 44.6112 175.089 40.356 176.516 36.5351C177.976 32.7141 179.928 29.5878 182.374 27.1563C184.853 24.69 187.705 22.8143 190.931 21.5291C194.191 20.2091 197.672 19.5491 201.374 19.5491C209.728 19.5491 216.265 22.8838 220.985 29.5531ZM203.462 67.2245C207.775 67.2245 211.476 65.5919 214.567 62.3267C217.691 59.0267 219.898 54.65 221.189 49.1964V48.6754C219.83 43.2565 217.555 38.9666 214.363 35.8056C211.171 32.6446 207.503 31.0641 203.36 31.0641C198.946 31.0641 195.329 32.6273 192.51 35.7535C189.726 38.8798 188.333 43.326 188.333 49.0922C188.333 54.7194 189.743 59.1483 192.561 62.3788C195.414 65.6092 199.047 67.2245 203.462 67.2245Z"/>
<path d="M300.347 53.5732H258.934C260.327 63.1951 266.303 68.006 276.865 68.006C283.758 68.006 290.058 66.4429 295.763 63.3166L298.055 73.1122C291.535 77.0374 283.775 79 274.776 79C265.268 79 257.932 76.4122 252.771 71.2365C247.643 66.0261 245.079 58.8183 245.079 49.6132C245.079 40.5818 247.728 33.322 253.025 27.8337C258.357 22.3106 265.166 19.5491 273.452 19.5491C277.323 19.5491 280.889 20.157 284.149 21.3727C287.409 22.5885 290.278 24.3774 292.757 26.7395C295.236 29.1015 297.172 32.2104 298.564 36.0661C299.957 39.8871 300.653 44.2639 300.653 49.1964C300.653 50.8985 300.551 52.3574 300.347 53.5732ZM258.934 45.0281H272.917H286.899C285.983 35.2325 281.432 30.3347 273.248 30.3347C269.173 30.3347 265.913 31.5852 263.468 34.0862C261.023 36.5524 259.512 40.1997 258.934 45.0281Z"/>
<path d="M345.275 19.6533C358.689 19.6533 365.396 27.7642 365.396 43.986V77.489H352.152V44.9238C352.152 35.7535 348.773 31.1683 342.015 31.1683C338.212 31.1683 334.901 32.4709 332.082 35.0762C329.297 37.6814 326.835 41.7108 324.696 47.1643V77.489H311.35V21.0601H324.696V31.6894C329.892 23.6653 336.751 19.6533 345.275 19.6533Z"/>
<path d="M416.08 64.4629L418.168 75.0401C413.21 77.4716 407.641 78.6874 401.46 78.6874C395.45 78.6874 390.746 77.02 387.35 73.6854C383.954 70.316 382.257 65.2445 382.257 58.4709V31.481H372.578V21.0601H382.257V5.58517H395.501V21.0601H415.876V31.481H395.501V55.1884C395.501 63.0735 398.591 67.016 404.771 67.016C408.779 67.016 412.548 66.165 416.08 64.4629Z"/>
</mask>
<path d="M25.2789 78.8958C21.1359 78.8958 16.9929 78.3574 12.8499 77.2806C8.70691 76.169 5.09027 74.7101 2 72.9038L4.39411 60.503C7.41647 62.3788 10.7275 63.8898 14.3271 65.0361C17.9608 66.1476 21.5265 66.7034 25.0242 66.7034C29.5408 66.7034 33.0725 65.8176 35.6195 64.0461C38.1664 62.2398 39.4399 59.8604 39.4399 56.9078C39.4399 54.9626 38.7607 53.3126 37.4023 51.9579C36.044 50.5685 34.2781 49.4743 32.1047 48.6754C29.9653 47.8417 27.5881 47.0601 24.9733 46.3307C22.3924 45.5665 19.7945 44.6633 17.1797 43.6212C14.5648 42.5444 12.1707 41.2592 9.99736 39.7655C7.85794 38.2719 6.10905 36.2051 4.75068 33.5651C3.39232 30.8904 2.71314 27.7468 2.71314 24.1343C2.71314 17.2565 5.14121 11.6814 9.99736 7.40882C14.8535 3.13627 21.2208 1 29.0993 1C33.2763 1 37.4872 1.57315 41.7321 2.71944C45.977 3.831 49.1521 5.23781 51.2576 6.93988L48.0994 18.7154C41.6812 15.0681 35.5006 13.2445 29.5578 13.2445C25.2789 13.2445 22.0019 14.1476 19.7266 15.9539C17.4853 17.7602 16.3647 20.018 16.3647 22.7275C16.3647 24.3948 16.7722 25.8884 17.5872 27.2084C18.4362 28.4937 19.5568 29.5705 20.9492 30.4389C22.3754 31.2725 24.0055 32.0541 25.8393 32.7836C27.673 33.4783 29.6087 34.1556 31.6463 34.8156C33.6838 35.4756 35.7044 36.1703 37.7079 36.8998C39.7455 37.6293 41.6812 38.5498 43.5149 39.6613C45.3487 40.7381 46.9618 41.9886 48.3541 43.4128C49.7804 44.8023 50.901 46.5738 51.7161 48.7275C52.565 50.8464 52.9895 53.2432 52.9895 55.9178C52.9895 60.503 51.733 64.5671 49.2201 68.1102C46.7071 71.6533 43.3621 74.3454 39.1852 76.1864C35.0082 77.9927 30.3728 78.8958 25.2789 78.8958Z" fill="#09072F"/>
<path d="M101.381 64.4629L103.47 75.0401C98.5116 77.4716 92.9423 78.6874 86.7618 78.6874C80.751 78.6874 76.0477 77.02 72.6518 73.6854C69.2559 70.316 67.558 65.2445 67.558 58.4709V31.481H57.8796V21.0601H67.558V5.58517H80.802V21.0601H101.177V31.481H80.802V55.1884C80.802 63.0735 83.8923 67.016 90.0728 67.016C94.08 67.016 97.8494 66.165 101.381 64.4629Z" fill="#09072F"/>
<path d="M150.282 51.1243V21.0601H163.526V77.489H150.282V66.9118C145.222 74.658 138.481 78.5311 130.06 78.5311C116.85 78.5311 110.244 70.4375 110.244 54.2505V21.0601H123.489V53.3647C123.489 62.4656 126.833 67.016 133.523 67.016C137.157 67.016 140.349 65.7134 143.1 63.1082C145.851 60.503 148.245 56.5084 150.282 51.1243Z" fill="#09072F"/>
<path d="M220.985 29.5531V2.45892H234.229V77.489H221.189V67.2245C216.367 74.9359 209.761 78.7916 201.374 78.7916C197.774 78.7916 194.361 78.149 191.135 76.8637C187.909 75.5785 185.039 73.7375 182.526 71.3407C180.047 68.9439 178.061 65.8524 176.567 62.0661C175.106 58.2452 174.376 53.99 174.376 49.3006C174.376 44.6112 175.089 40.356 176.516 36.5351C177.976 32.7141 179.928 29.5878 182.374 27.1563C184.853 24.69 187.705 22.8143 190.931 21.5291C194.191 20.2091 197.672 19.5491 201.374 19.5491C209.728 19.5491 216.265 22.8838 220.985 29.5531ZM203.462 67.2245C207.775 67.2245 211.476 65.5919 214.567 62.3267C217.691 59.0267 219.898 54.65 221.189 49.1964V48.6754C219.83 43.2565 217.555 38.9666 214.363 35.8056C211.171 32.6446 207.503 31.0641 203.36 31.0641C198.946 31.0641 195.329 32.6273 192.51 35.7535C189.726 38.8798 188.333 43.326 188.333 49.0922C188.333 54.7194 189.743 59.1483 192.561 62.3788C195.414 65.6092 199.047 67.2245 203.462 67.2245Z" fill="#09072F"/>
<path d="M300.347 53.5732H258.934C260.327 63.1951 266.303 68.006 276.865 68.006C283.758 68.006 290.058 66.4429 295.763 63.3166L298.055 73.1122C291.535 77.0374 283.775 79 274.776 79C265.268 79 257.932 76.4122 252.771 71.2365C247.643 66.0261 245.079 58.8183 245.079 49.6132C245.079 40.5818 247.728 33.322 253.025 27.8337C258.357 22.3106 265.166 19.5491 273.452 19.5491C277.323 19.5491 280.889 20.157 284.149 21.3727C287.409 22.5885 290.278 24.3774 292.757 26.7395C295.236 29.1015 297.172 32.2104 298.564 36.0661C299.957 39.8871 300.653 44.2639 300.653 49.1964C300.653 50.8985 300.551 52.3574 300.347 53.5732ZM258.934 45.0281H272.917H286.899C285.983 35.2325 281.432 30.3347 273.248 30.3347C269.173 30.3347 265.913 31.5852 263.468 34.0862C261.023 36.5524 259.512 40.1997 258.934 45.0281Z" fill="#09072F"/>
<path d="M345.275 19.6533C358.689 19.6533 365.396 27.7642 365.396 43.986V77.489H352.152V44.9238C352.152 35.7535 348.773 31.1683 342.015 31.1683C338.212 31.1683 334.901 32.4709 332.082 35.0762C329.297 37.6814 326.835 41.7108 324.696 47.1643V77.489H311.35V21.0601H324.696V31.6894C329.892 23.6653 336.751 19.6533 345.275 19.6533Z" fill="#09072F"/>
<path d="M416.08 64.4629L418.168 75.0401C413.21 77.4716 407.641 78.6874 401.46 78.6874C395.45 78.6874 390.746 77.02 387.35 73.6854C383.954 70.316 382.257 65.2445 382.257 58.4709V31.481H372.578V21.0601H382.257V5.58517H395.501V21.0601H415.876V31.481H395.501V55.1884C395.501 63.0735 398.591 67.016 404.771 67.016C408.779 67.016 412.548 66.165 416.08 64.4629Z" fill="#09072F"/>
<path d="M25.2789 78.8958C21.1359 78.8958 16.9929 78.3574 12.8499 77.2806C8.70691 76.169 5.09027 74.7101 2 72.9038L4.39411 60.503C7.41647 62.3788 10.7275 63.8898 14.3271 65.0361C17.9608 66.1476 21.5265 66.7034 25.0242 66.7034C29.5408 66.7034 33.0725 65.8176 35.6195 64.0461C38.1664 62.2398 39.4399 59.8604 39.4399 56.9078C39.4399 54.9626 38.7607 53.3126 37.4023 51.9579C36.044 50.5685 34.2781 49.4743 32.1047 48.6754C29.9653 47.8417 27.5881 47.0601 24.9733 46.3307C22.3924 45.5665 19.7945 44.6633 17.1797 43.6212C14.5648 42.5444 12.1707 41.2592 9.99736 39.7655C7.85794 38.2719 6.10905 36.2051 4.75068 33.5651C3.39232 30.8904 2.71314 27.7468 2.71314 24.1343C2.71314 17.2565 5.14121 11.6814 9.99736 7.40882C14.8535 3.13627 21.2208 1 29.0993 1C33.2763 1 37.4872 1.57315 41.7321 2.71944C45.977 3.831 49.1521 5.23781 51.2576 6.93988L48.0994 18.7154C41.6812 15.0681 35.5006 13.2445 29.5578 13.2445C25.2789 13.2445 22.0019 14.1476 19.7266 15.9539C17.4853 17.7602 16.3647 20.018 16.3647 22.7275C16.3647 24.3948 16.7722 25.8884 17.5872 27.2084C18.4362 28.4937 19.5568 29.5705 20.9492 30.4389C22.3754 31.2725 24.0055 32.0541 25.8393 32.7836C27.673 33.4783 29.6087 34.1556 31.6463 34.8156C33.6838 35.4756 35.7044 36.1703 37.7079 36.8998C39.7455 37.6293 41.6812 38.5498 43.5149 39.6613C45.3487 40.7381 46.9618 41.9886 48.3541 43.4128C49.7804 44.8023 50.901 46.5738 51.7161 48.7275C52.565 50.8464 52.9895 53.2432 52.9895 55.9178C52.9895 60.503 51.733 64.5671 49.2201 68.1102C46.7071 71.6533 43.3621 74.3454 39.1852 76.1864C35.0082 77.9927 30.3728 78.8958 25.2789 78.8958Z" stroke="#09072F" stroke-width="2" mask="url(#path-3-outside-2_16_231)"/>
<path d="M101.381 64.4629L103.47 75.0401C98.5116 77.4716 92.9423 78.6874 86.7618 78.6874C80.751 78.6874 76.0477 77.02 72.6518 73.6854C69.2559 70.316 67.558 65.2445 67.558 58.4709V31.481H57.8796V21.0601H67.558V5.58517H80.802V21.0601H101.177V31.481H80.802V55.1884C80.802 63.0735 83.8923 67.016 90.0728 67.016C94.08 67.016 97.8494 66.165 101.381 64.4629Z" stroke="#09072F" stroke-width="2" mask="url(#path-3-outside-2_16_231)"/>
<path d="M150.282 51.1243V21.0601H163.526V77.489H150.282V66.9118C145.222 74.658 138.481 78.5311 130.06 78.5311C116.85 78.5311 110.244 70.4375 110.244 54.2505V21.0601H123.489V53.3647C123.489 62.4656 126.833 67.016 133.523 67.016C137.157 67.016 140.349 65.7134 143.1 63.1082C145.851 60.503 148.245 56.5084 150.282 51.1243Z" stroke="#09072F" stroke-width="2" mask="url(#path-3-outside-2_16_231)"/>
<path d="M220.985 29.5531V2.45892H234.229V77.489H221.189V67.2245C216.367 74.9359 209.761 78.7916 201.374 78.7916C197.774 78.7916 194.361 78.149 191.135 76.8637C187.909 75.5785 185.039 73.7375 182.526 71.3407C180.047 68.9439 178.061 65.8524 176.567 62.0661C175.106 58.2452 174.376 53.99 174.376 49.3006C174.376 44.6112 175.089 40.356 176.516 36.5351C177.976 32.7141 179.928 29.5878 182.374 27.1563C184.853 24.69 187.705 22.8143 190.931 21.5291C194.191 20.2091 197.672 19.5491 201.374 19.5491C209.728 19.5491 216.265 22.8838 220.985 29.5531ZM203.462 67.2245C207.775 67.2245 211.476 65.5919 214.567 62.3267C217.691 59.0267 219.898 54.65 221.189 49.1964V48.6754C219.83 43.2565 217.555 38.9666 214.363 35.8056C211.171 32.6446 207.503 31.0641 203.36 31.0641C198.946 31.0641 195.329 32.6273 192.51 35.7535C189.726 38.8798 188.333 43.326 188.333 49.0922C188.333 54.7194 189.743 59.1483 192.561 62.3788C195.414 65.6092 199.047 67.2245 203.462 67.2245Z" stroke="#09072F" stroke-width="2" mask="url(#path-3-outside-2_16_231)"/>
<path d="M300.347 53.5732H258.934C260.327 63.1951 266.303 68.006 276.865 68.006C283.758 68.006 290.058 66.4429 295.763 63.3166L298.055 73.1122C291.535 77.0374 283.775 79 274.776 79C265.268 79 257.932 76.4122 252.771 71.2365C247.643 66.0261 245.079 58.8183 245.079 49.6132C245.079 40.5818 247.728 33.322 253.025 27.8337C258.357 22.3106 265.166 19.5491 273.452 19.5491C277.323 19.5491 280.889 20.157 284.149 21.3727C287.409 22.5885 290.278 24.3774 292.757 26.7395C295.236 29.1015 297.172 32.2104 298.564 36.0661C299.957 39.8871 300.653 44.2639 300.653 49.1964C300.653 50.8985 300.551 52.3574 300.347 53.5732ZM258.934 45.0281H272.917H286.899C285.983 35.2325 281.432 30.3347 273.248 30.3347C269.173 30.3347 265.913 31.5852 263.468 34.0862C261.023 36.5524 259.512 40.1997 258.934 45.0281Z" stroke="#09072F" stroke-width="2" mask="url(#path-3-outside-2_16_231)"/>
<path d="M345.275 19.6533C358.689 19.6533 365.396 27.7642 365.396 43.986V77.489H352.152V44.9238C352.152 35.7535 348.773 31.1683 342.015 31.1683C338.212 31.1683 334.901 32.4709 332.082 35.0762C329.297 37.6814 326.835 41.7108 324.696 47.1643V77.489H311.35V21.0601H324.696V31.6894C329.892 23.6653 336.751 19.6533 345.275 19.6533Z" stroke="#09072F" stroke-width="2" mask="url(#path-3-outside-2_16_231)"/>
<path d="M416.08 64.4629L418.168 75.0401C413.21 77.4716 407.641 78.6874 401.46 78.6874C395.45 78.6874 390.746 77.02 387.35 73.6854C383.954 70.316 382.257 65.2445 382.257 58.4709V31.481H372.578V21.0601H382.257V5.58517H395.501V21.0601H415.876V31.481H395.501V55.1884C395.501 63.0735 398.591 67.016 404.771 67.016C408.779 67.016 412.548 66.165 416.08 64.4629Z" stroke="#09072F" stroke-width="2" mask="url(#path-3-outside-2_16_231)"/>
</svg>
