<svg width="45" height="45" viewBox="0 0 45 45" fill="none" xmlns="http://www.w3.org/2000/svg">
<g clip-path="url(#clip0_1031_88)">
<path d="M44.9175 32.4281L36.5212 13.7138C37.1563 12.6926 37.4952 11.515 37.5 10.3125C37.5 7.01625 35.0475 4.305 31.875 3.84563V0.9375C31.875 0.68886 31.7762 0.450403 31.6004 0.274587C31.4246 0.0987721 31.1861 0 30.9375 0C30.6889 0 30.4504 0.0987721 30.2746 0.274587C30.0988 0.450403 30 0.68886 30 0.9375V3.84563C26.8275 4.305 24.375 7.01625 24.375 10.3125C24.375 11.595 24.7594 12.7837 25.3969 13.7944L22.4831 20.2294C22.383 20.4506 22.3725 20.702 22.454 20.9307C22.5355 21.1594 22.7026 21.3476 22.92 21.4556L26.7 23.3306C26.9128 23.4367 27.158 23.4577 27.3858 23.3894C27.6136 23.3212 27.8068 23.1687 27.9262 22.9631L30.9375 17.7975L43.2525 38.91C43.3563 39.0881 43.5158 39.227 43.7065 39.3052C43.8971 39.3835 44.1082 39.3968 44.3072 39.343C44.5061 39.2892 44.6818 39.1713 44.8071 39.0077C44.9323 38.844 45.0001 38.6436 45 38.4375V32.8125C45 32.6812 44.9719 32.55 44.9175 32.4281ZM30.9375 12.1875C30.4547 12.1659 29.9989 11.9589 29.6649 11.6097C29.3309 11.2604 29.1445 10.7958 29.1445 10.3125C29.1445 9.82924 29.3309 9.36461 29.6649 9.01534C29.9989 8.66608 30.4547 8.4591 30.9375 8.4375C31.4203 8.4591 31.8761 8.66608 32.2101 9.01534C32.5441 9.36461 32.7305 9.82924 32.7305 10.3125C32.7305 10.7958 32.5441 11.2604 32.2101 11.6097C31.8761 11.9589 31.4203 12.1659 30.9375 12.1875Z" fill="#8D37FF"/>
<path d="M34.6875 35.625H31.8431C31.3594 28.3069 25.2506 22.5 17.8125 22.5C10.3744 22.5 4.26375 28.3069 3.78187 35.625H0.9375C0.68886 35.625 0.450403 35.7238 0.274587 35.8996C0.0987721 36.0754 0 36.3139 0 36.5625L0 44.0625C0 44.3111 0.0987721 44.5496 0.274587 44.7254C0.450403 44.9012 0.68886 45 0.9375 45H3.75V42.1875C3.75 41.9389 3.84877 41.7004 4.02459 41.5246C4.2004 41.3488 4.43886 41.25 4.6875 41.25C4.93614 41.25 5.1746 41.3488 5.35041 41.5246C5.52623 41.7004 5.625 41.9389 5.625 42.1875V45H7.5V40.3125C7.5 40.0639 7.59877 39.8254 7.77459 39.6496C7.9504 39.4738 8.18886 39.375 8.4375 39.375C8.68614 39.375 8.9246 39.4738 9.10041 39.6496C9.27623 39.8254 9.375 40.0639 9.375 40.3125V45H11.25V42.1875C11.25 41.9389 11.3488 41.7004 11.5246 41.5246C11.7004 41.3488 11.9389 41.25 12.1875 41.25C12.4361 41.25 12.6746 41.3488 12.8504 41.5246C13.0262 41.7004 13.125 41.9389 13.125 42.1875V45H15V42.1875C15 41.9389 15.0988 41.7004 15.2746 41.5246C15.4504 41.3488 15.6889 41.25 15.9375 41.25C16.1861 41.25 16.4246 41.3488 16.6004 41.5246C16.7762 41.7004 16.875 41.9389 16.875 42.1875V45H18.75V40.3125C18.75 40.0639 18.8488 39.8254 19.0246 39.6496C19.2004 39.4738 19.4389 39.375 19.6875 39.375C19.9361 39.375 20.1746 39.4738 20.3504 39.6496C20.5262 39.8254 20.625 40.0639 20.625 40.3125V45H22.5V42.1875C22.5 41.9389 22.5988 41.7004 22.7746 41.5246C22.9504 41.3488 23.1889 41.25 23.4375 41.25C23.6861 41.25 23.9246 41.3488 24.1004 41.5246C24.2762 41.7004 24.375 41.9389 24.375 42.1875V45H26.25V42.1875C26.25 41.9389 26.3488 41.7004 26.5246 41.5246C26.7004 41.3488 26.9389 41.25 27.1875 41.25C27.4361 41.25 27.6746 41.3488 27.8504 41.5246C28.0262 41.7004 28.125 41.9389 28.125 42.1875V45H30V40.3125C30 40.0639 30.0988 39.8254 30.2746 39.6496C30.4504 39.4738 30.6889 39.375 30.9375 39.375C31.1861 39.375 31.4246 39.4738 31.6004 39.6496C31.7762 39.8254 31.875 40.0639 31.875 40.3125V45H34.6875C34.9361 45 35.1746 44.9012 35.3504 44.7254C35.5262 44.5496 35.625 44.3111 35.625 44.0625V36.5625C35.625 36.3139 35.5262 36.0754 35.3504 35.8996C35.1746 35.7238 34.9361 35.625 34.6875 35.625ZM23.4375 37.5H12.1875C11.9389 37.5 11.7004 37.4012 11.5246 37.2254C11.3488 37.0496 11.25 36.8111 11.25 36.5625C11.25 32.9438 14.1938 30 17.8125 30C21.4312 30 24.375 32.9438 24.375 36.5625C24.375 36.8111 24.2762 37.0496 24.1004 37.2254C23.9246 37.4012 23.6861 37.5 23.4375 37.5Z" fill="#8D37FF"/>
</g>
<defs>
<clipPath id="clip0_1031_88">
<rect width="45" height="45" fill="white"/>
</clipPath>
</defs>
</svg>
