<svg width="353" height="329" viewBox="0 0 353 329" fill="none" xmlns="http://www.w3.org/2000/svg">
<path d="M176.5 328.12C273.433 328.12 352.013 282.751 352.013 226.786C352.013 170.821 273.433 125.452 176.5 125.452C79.5668 125.452 0.986938 170.821 0.986938 226.786C0.986938 282.751 79.5668 328.12 176.5 328.12Z" fill="white"/>
<path d="M140.181 303.573C173.608 303.573 200.705 287.929 200.705 268.632C200.705 249.335 173.608 233.692 140.181 233.692C106.755 233.692 79.6582 249.335 79.6582 268.632C79.6582 287.929 106.755 303.573 140.181 303.573Z" fill="#E0E0E0"/>
<path d="M312.297 224.916L305.198 220.818C305.198 220.818 303.462 205.621 304.616 193.85C306.241 177.311 316.924 157.405 329.663 162.083C342.403 166.762 323.822 183.599 319.688 197.627C315.553 211.655 312.297 224.916 312.297 224.916Z" fill="#8D37FF"/>
<path opacity="0.15" d="M312.297 224.916L305.198 220.818C305.198 220.818 303.462 205.621 304.616 193.85C306.241 177.311 316.924 157.405 329.663 162.083C342.403 166.762 323.822 183.599 319.688 197.627C315.553 211.655 312.297 224.916 312.297 224.916Z" fill="black"/>
<path d="M308.565 223.195C308.678 223.189 308.785 223.139 308.861 223.055C308.938 222.972 308.979 222.861 308.975 222.748C307.731 185.997 326.028 167.507 326.206 167.328C326.287 167.247 326.333 167.137 326.333 167.022C326.333 166.908 326.287 166.798 326.206 166.717C326.167 166.677 326.12 166.646 326.068 166.624C326.016 166.602 325.961 166.591 325.905 166.591C325.849 166.591 325.793 166.602 325.741 166.624C325.689 166.646 325.642 166.677 325.603 166.717C325.409 166.896 306.851 185.655 308.11 222.778C308.112 222.835 308.126 222.892 308.15 222.944C308.174 222.996 308.208 223.043 308.25 223.082C308.292 223.121 308.342 223.151 308.396 223.17C308.45 223.19 308.508 223.198 308.565 223.195Z" fill="white"/>
<path d="M316.76 227.471L311.709 224.558C311.709 224.558 310.845 214.129 315.963 201.464C320.433 190.438 331.459 181.282 337.016 183.204C342.574 185.126 342.432 189.067 339.721 193.202C337.009 197.336 320.537 207.178 316.76 227.471Z" fill="#8D37FF"/>
<path d="M314.093 226.369C314.207 226.367 314.316 226.321 314.396 226.24C314.477 226.159 314.523 226.051 314.525 225.937C314.421 202.693 336.241 186.988 336.465 186.832C336.512 186.8 336.551 186.759 336.581 186.711C336.612 186.664 336.632 186.61 336.641 186.555C336.65 186.499 336.648 186.442 336.634 186.387C336.62 186.332 336.596 186.281 336.562 186.236C336.496 186.144 336.397 186.082 336.285 186.062C336.174 186.043 336.059 186.067 335.966 186.132C335.742 186.288 313.564 202.261 313.661 225.937C313.661 226.051 313.706 226.161 313.787 226.242C313.868 226.323 313.978 226.369 314.093 226.369Z" fill="white"/>
<path d="M49.5978 215.79L56.1537 211.365C56.1537 211.365 59.0368 194.23 56.3549 179.114C52.5852 157.911 37.9312 150.864 32.7162 153.099C27.5012 155.334 26.3838 161.644 36.1208 173.742C41.8945 180.857 49.3966 196.047 49.5978 215.79Z" fill="#8D37FF"/>
<g opacity="0.15">
<path d="M49.5978 215.79L56.1537 211.365C56.1537 211.365 59.0368 194.23 56.3549 179.114C52.5852 157.911 37.9312 150.864 32.7162 153.099C27.5012 155.334 26.3838 161.644 36.1208 173.742C41.8945 180.857 49.3966 196.047 49.5978 215.79Z" fill="black"/>
</g>
<path d="M51.8476 207.297H51.7806C51.7136 207.293 51.6483 207.274 51.5889 207.243C51.5295 207.212 51.4773 207.169 51.4358 207.116C51.3943 207.063 51.3644 207.002 51.3481 206.937C51.3318 206.872 51.3293 206.804 51.341 206.738C53.7101 186.78 45.2842 165.115 36.1133 156.496C36.0251 156.407 35.9756 156.286 35.9756 156.161C35.9756 156.035 36.0251 155.915 36.1133 155.825C36.157 155.781 36.2092 155.745 36.2668 155.721C36.3243 155.697 36.3862 155.684 36.4486 155.684C36.511 155.684 36.5729 155.697 36.6304 155.721C36.688 155.745 36.7401 155.781 36.7838 155.825C46.1261 164.601 54.7084 186.623 52.3095 206.872C52.2954 206.986 52.2413 207.092 52.1566 207.17C52.072 207.247 51.9625 207.292 51.8476 207.297Z" fill="white"/>
<path d="M32.4331 227.367C31.3901 227.993 28.3505 225.735 27.5087 225.192C26.0659 224.25 24.8907 222.951 24.0966 221.422C23.2058 219.688 22.8752 217.72 23.1505 215.79C23.3031 214.782 23.5246 213.787 23.8135 212.81C24.0743 211.834 24.335 210.858 24.5585 209.875C24.8889 208.918 25.0158 207.903 24.931 206.895C24.6405 204.905 22.845 203.542 21.206 202.372C19.4032 201.069 17.4811 199.348 17.4811 196.949C17.573 195.064 18.2944 193.265 19.5298 191.838C20.6473 190.348 21.9883 189.052 22.994 187.495C23.7805 186.416 24.1819 185.104 24.1339 183.77C24.0044 182.947 23.7104 182.159 23.2697 181.453C22.3906 179.903 21.2507 178.473 20.6324 176.827C20.0141 175.18 20.0588 173.064 21.3774 171.835C22.4278 170.829 24.0296 170.666 25.4823 170.733C26.8512 170.869 28.1736 171.304 29.3563 172.007C33.2079 174.055 35.4727 178.525 39.5478 180.082C41.1197 180.678 42.8332 180.783 44.4647 181.185C46.0963 181.587 47.78 182.384 48.5622 183.867C50.1043 186.81 47.4149 190.52 48.5175 193.641C49.5009 196.413 52.2425 197.426 53.7921 199.907C54.421 201.008 54.682 202.282 54.5371 203.542C54.4497 205.67 53.9724 207.763 53.129 209.718C52.159 211.746 51.0643 213.711 49.8511 215.604C49.8511 215.604 32.5895 227.27 32.4331 227.367Z" fill="#8D37FF"/>
<path d="M42.5054 221.191C42.4428 221.19 42.381 221.177 42.3235 221.152C42.266 221.127 42.214 221.091 42.1704 221.046C42.1269 221.001 42.0926 220.948 42.0695 220.89C42.0464 220.832 42.0351 220.769 42.0361 220.707C42.4533 201.844 33.1706 181.222 26.5998 175.262C26.5064 175.178 26.4501 175.06 26.4431 174.935C26.4361 174.809 26.4791 174.686 26.5626 174.592C26.6063 174.547 26.6584 174.512 26.716 174.487C26.7735 174.463 26.8354 174.451 26.8978 174.451C26.9602 174.451 27.0221 174.463 27.0796 174.487C27.1372 174.512 27.1893 174.547 27.233 174.592C33.938 180.626 43.4069 201.605 42.9822 220.729C42.9812 220.791 42.9681 220.852 42.9437 220.908C42.9192 220.965 42.8838 221.016 42.8395 221.059C42.7952 221.102 42.7429 221.135 42.6856 221.158C42.6283 221.181 42.5671 221.192 42.5054 221.191Z" fill="white"/>
<path d="M39.0263 198.208C38.9823 198.219 38.9362 198.219 38.8922 198.208C32.7981 196.45 25.2439 196.271 25.1694 196.264C25.1071 196.263 25.0457 196.249 24.9886 196.224C24.9315 196.199 24.88 196.163 24.837 196.118C24.794 196.073 24.7604 196.02 24.7382 195.962C24.716 195.904 24.7055 195.842 24.7075 195.779C24.7063 195.717 24.7182 195.654 24.7425 195.596C24.7667 195.538 24.8027 195.486 24.8482 195.442C24.8937 195.399 24.9478 195.365 25.0069 195.344C25.066 195.322 25.129 195.313 25.1918 195.318C25.2663 195.318 32.9397 195.504 39.1529 197.292C39.273 197.328 39.374 197.41 39.4339 197.52C39.4939 197.63 39.508 197.76 39.4733 197.88C39.4443 197.976 39.385 198.06 39.3044 198.119C39.2238 198.178 39.1262 198.209 39.0263 198.208Z" fill="white"/>
<path d="M214.614 202.82L211.79 201.188C211.32 200.883 210.928 200.47 210.647 199.985C210.366 199.499 210.204 198.954 210.174 198.394V81.0429C210.204 80.4837 210.366 79.9396 210.646 79.4544C210.925 78.9691 211.315 78.5563 211.783 78.2492L290.268 32.9386C290.768 32.6853 291.32 32.5533 291.881 32.5533C292.441 32.5533 292.994 32.6853 293.494 32.9386L296.317 34.5702C296.788 34.8756 297.179 35.2879 297.46 35.7734C297.741 36.2588 297.904 36.8038 297.934 37.3639V154.715C297.903 155.274 297.742 155.819 297.462 156.304C297.183 156.789 296.793 157.202 296.325 157.509L217.84 202.827C217.34 203.081 216.787 203.213 216.226 203.211C215.665 203.21 215.113 203.076 214.614 202.82Z" fill="#455A64"/>
<path d="M297.934 37.1032C297.822 36.2688 297.144 35.9633 296.332 36.4327L217.84 81.7506C217.365 82.0484 216.973 82.4609 216.7 82.9501L210.643 79.456C210.914 78.9632 211.306 78.5478 211.783 78.2492L290.268 32.9386C290.768 32.6853 291.32 32.5533 291.881 32.5533C292.441 32.5533 292.994 32.6853 293.494 32.9386L296.317 34.5702C296.753 34.8509 297.124 35.2226 297.403 35.6598C297.682 36.097 297.863 36.5894 297.934 37.1032Z" fill="#455A64"/>
<path d="M217.564 202.954C217.087 203.147 216.574 203.235 216.06 203.214C215.546 203.192 215.043 203.06 214.584 202.827L211.753 201.188C211.285 200.881 210.895 200.468 210.616 199.983C210.336 199.498 210.175 198.953 210.144 198.394V81.0429C210.163 80.4827 210.325 79.9366 210.613 79.4561L216.67 82.9501C216.376 83.4312 216.211 83.9806 216.193 84.5444V201.896C216.223 202.82 216.804 203.244 217.564 202.954Z" fill="#263238"/>
<path d="M216.223 84.5592V201.896C216.223 202.924 216.968 203.341 217.84 202.827L296.325 157.509C296.793 157.202 297.183 156.789 297.462 156.304C297.742 155.818 297.903 155.274 297.934 154.715V37.3638C297.934 36.3358 297.189 35.9186 296.325 36.4326L217.84 81.7506C217.367 82.0575 216.974 82.4721 216.693 82.9603C216.412 83.4486 216.251 83.9965 216.223 84.5592Z" fill="#37474F"/>
<path d="M197.896 129.259C196.883 128.655 192.182 125.981 191.936 125.839C191.745 125.725 191.581 125.569 191.458 125.383C191.335 125.197 191.255 124.986 191.224 124.765C191.193 124.544 191.212 124.319 191.28 124.107C191.348 123.894 191.463 123.7 191.616 123.537L210.174 103.631L216.223 107.103L197.673 127.024C197.527 127.179 197.416 127.364 197.348 127.565C197.279 127.767 197.255 127.98 197.276 128.192C197.297 128.404 197.364 128.609 197.471 128.793C197.578 128.977 197.723 129.136 197.896 129.259Z" fill="#455A64"/>
<path d="M216.223 107.125L197.673 127.024C197.467 127.244 197.332 127.521 197.287 127.819C197.242 128.117 197.288 128.422 197.42 128.693C197.551 128.964 197.762 129.189 198.024 129.338C198.286 129.487 198.587 129.553 198.887 129.527L216.223 128.097V107.125Z" fill="#37474F"/>
<path d="M257.079 71.2983C266.227 66.0163 273.64 70.3 273.64 80.864C273.64 91.428 266.227 104.264 257.079 109.546C247.93 114.828 240.517 110.545 240.517 99.988C240.517 89.4315 247.93 76.5803 257.079 71.2983Z" fill="#8D37FF"/>
<path d="M256.959 79.6125C259.939 77.8991 262.331 79.2848 262.331 82.7117C262.229 84.5746 261.69 86.3873 260.757 88.0027C259.823 89.6181 258.522 90.9908 256.959 92.0092C253.979 93.7227 251.58 92.337 251.58 88.9101C251.683 87.0465 252.223 85.2334 253.158 83.6179C254.092 82.0025 255.395 80.6302 256.959 79.6125Z" fill="white"/>
<path d="M267.553 97.8796C267.553 92.2549 263.597 89.9678 258.725 92.7839L255.678 94.5421C250.806 97.3581 246.85 104.227 246.85 109.837V111.379C247.77 111.673 248.73 111.821 249.696 111.818C252.309 111.73 254.854 110.959 257.079 109.583C261.313 106.975 264.896 103.433 267.553 99.2281V97.8796Z" fill="white"/>
<path d="M246.589 161.837L267.568 149.724C268.462 149.21 269.185 149.627 269.185 150.655V157.412C269.154 157.972 268.992 158.517 268.711 159.003C268.43 159.488 268.039 159.9 267.568 160.206L246.589 172.32C245.695 172.834 244.972 172.416 244.972 171.388V164.631C245.003 164.071 245.165 163.526 245.446 163.041C245.727 162.555 246.119 162.143 246.589 161.837Z" fill="#8D37FF"/>
<path d="M236.316 146.744L277.819 122.77C278.884 122.152 279.756 122.651 279.756 123.887V126.398C279.72 127.07 279.525 127.724 279.189 128.306C278.852 128.889 278.383 129.383 277.819 129.751L236.293 153.724C235.228 154.343 234.364 153.844 234.364 152.607V150.119C234.398 149.442 234.592 148.782 234.932 148.195C235.271 147.609 235.746 147.111 236.316 146.744Z" fill="#FAFAFA"/>
<path d="M241.173 129.393C241.739 129.065 242.179 129.013 242.492 129.244C242.804 129.475 242.961 129.989 242.961 130.779C242.977 131.499 242.815 132.213 242.492 132.857C242.199 133.439 241.74 133.922 241.173 134.243L240.055 134.891V137.297C240.053 137.38 240.033 137.462 239.996 137.536C239.97 137.603 239.923 137.66 239.862 137.7L239.296 138.027C239.276 138.042 239.253 138.05 239.228 138.05C239.204 138.05 239.181 138.042 239.161 138.027C239.121 137.977 239.103 137.913 239.109 137.849V130.883C239.109 130.8 239.126 130.719 239.161 130.644C239.19 130.578 239.236 130.521 239.296 130.481L241.173 129.393ZM240.055 133.542L241.136 132.917C241.397 132.769 241.617 132.56 241.776 132.306C241.946 132.007 242.028 131.666 242.015 131.322C242.015 130.92 241.933 130.689 241.776 130.622C241.666 130.595 241.551 130.594 241.44 130.619C241.329 130.643 241.225 130.693 241.136 130.764L240.055 131.389V133.542Z" fill="#FAFAFA"/>
<path d="M246.082 126.555C246.157 126.51 246.217 126.51 246.254 126.555C246.301 126.621 246.335 126.698 246.351 126.778L248.072 132.604C248.072 132.604 248.072 132.649 248.072 132.671C248.07 132.754 248.05 132.836 248.012 132.909C247.986 132.977 247.939 133.034 247.878 133.073L247.371 133.364C247.282 133.416 247.215 133.423 247.178 133.364C247.141 133.326 247.116 133.28 247.103 133.23L246.798 132.209L244.563 133.49L244.265 134.861C244.243 134.935 244.216 135.008 244.183 135.077C244.146 135.168 244.077 135.242 243.989 135.286L243.482 135.576C243.464 135.592 243.44 135.601 243.415 135.601C243.391 135.601 243.367 135.592 243.348 135.576C243.309 135.528 243.291 135.467 243.296 135.405C243.292 135.378 243.292 135.35 243.296 135.323L245.01 127.516C245.03 127.401 245.063 127.288 245.106 127.18C245.143 127.102 245.203 127.037 245.278 126.994L246.082 126.555ZM246.47 131.069L245.725 128.439L244.98 131.956L246.47 131.069Z" fill="#FAFAFA"/>
<path d="M250.679 123.791C250.928 123.633 251.212 123.539 251.506 123.515C251.714 123.496 251.922 123.543 252.102 123.649C252.265 123.755 252.393 123.909 252.467 124.089C252.548 124.272 252.594 124.469 252.601 124.67C252.606 124.753 252.588 124.835 252.549 124.908C252.523 124.976 252.476 125.033 252.415 125.072L251.923 125.355C251.841 125.4 251.782 125.407 251.744 125.355C251.698 125.325 251.66 125.284 251.633 125.236C251.603 125.169 251.56 125.109 251.506 125.059C251.452 125.009 251.389 124.97 251.32 124.945C251.093 124.913 250.862 124.972 250.679 125.109C250.558 125.187 250.444 125.274 250.336 125.37C250.226 125.472 250.128 125.587 250.046 125.713C249.966 125.834 249.901 125.964 249.852 126.1C249.808 126.23 249.785 126.366 249.785 126.502C249.776 126.628 249.799 126.753 249.852 126.867C249.875 126.907 249.907 126.941 249.946 126.966C249.985 126.991 250.03 127.005 250.076 127.009C250.214 127.033 250.355 127.033 250.493 127.009L251.141 126.867C251.382 126.796 251.634 126.766 251.886 126.778C252.066 126.778 252.241 126.835 252.385 126.942C252.521 127.057 252.62 127.21 252.668 127.382C252.741 127.623 252.774 127.875 252.765 128.127C252.764 128.459 252.717 128.79 252.623 129.11C252.532 129.438 252.4 129.754 252.229 130.049C252.048 130.351 251.833 130.631 251.588 130.883C251.337 131.143 251.051 131.366 250.739 131.546C250.509 131.686 250.257 131.784 249.994 131.837C249.779 131.878 249.558 131.86 249.353 131.784C249.167 131.698 249.013 131.554 248.913 131.375C248.792 131.145 248.725 130.89 248.72 130.63C248.719 130.545 248.737 130.461 248.772 130.384C248.805 130.32 248.854 130.267 248.913 130.227L249.405 129.944C249.48 129.9 249.539 129.885 249.584 129.907C249.629 129.929 249.658 129.967 249.688 130.034C249.719 130.11 249.759 130.183 249.807 130.25C249.854 130.315 249.919 130.364 249.994 130.391C250.092 130.414 250.194 130.414 250.292 130.391C250.45 130.354 250.601 130.291 250.739 130.205C250.883 130.123 251.02 130.028 251.148 129.922C251.399 129.724 251.598 129.468 251.729 129.177C251.789 129.028 251.819 128.868 251.819 128.708C251.826 128.649 251.821 128.59 251.804 128.534C251.788 128.477 251.76 128.425 251.722 128.38C251.682 128.344 251.634 128.318 251.583 128.303C251.531 128.287 251.477 128.283 251.424 128.29C251.255 128.297 251.087 128.325 250.925 128.372C250.731 128.417 250.508 128.469 250.247 128.514C250.047 128.564 249.841 128.579 249.636 128.559C249.475 128.548 249.322 128.482 249.204 128.372C249.075 128.246 248.985 128.086 248.943 127.91C248.883 127.652 248.856 127.386 248.861 127.121C248.861 126.793 248.908 126.466 249.003 126.152C249.092 125.829 249.222 125.518 249.39 125.228C249.551 124.94 249.746 124.673 249.971 124.431C250.176 124.185 250.414 123.97 250.679 123.791Z" fill="#FAFAFA"/>
<path d="M255.574 120.974C255.821 120.812 256.105 120.715 256.4 120.691C256.608 120.674 256.816 120.721 256.996 120.825C257.156 120.934 257.28 121.087 257.354 121.265C257.435 121.448 257.481 121.646 257.488 121.846C257.497 121.929 257.479 122.013 257.436 122.085C257.41 122.152 257.363 122.209 257.302 122.248L256.81 122.532C256.736 122.576 256.676 122.591 256.631 122.532C256.584 122.502 256.547 122.457 256.527 122.405C256.459 122.274 256.345 122.173 256.207 122.122C256.096 122.105 255.982 122.112 255.874 122.14C255.765 122.168 255.663 122.217 255.574 122.286C255.449 122.362 255.332 122.449 255.223 122.546C255.115 122.648 255.02 122.764 254.94 122.889C254.858 123.009 254.793 123.139 254.747 123.277C254.7 123.406 254.675 123.542 254.672 123.679C254.663 123.804 254.686 123.93 254.739 124.044C254.762 124.084 254.794 124.118 254.833 124.142C254.872 124.167 254.917 124.182 254.963 124.185C255.101 124.209 255.242 124.209 255.38 124.185L256.028 124.044C256.27 123.976 256.522 123.946 256.773 123.954C256.953 123.953 257.128 124.01 257.272 124.118C257.408 124.235 257.509 124.387 257.563 124.558C257.628 124.801 257.659 125.052 257.652 125.303C257.652 125.636 257.604 125.967 257.511 126.286C257.42 126.615 257.287 126.93 257.116 127.225C256.936 127.53 256.721 127.813 256.475 128.067C256.223 128.32 255.941 128.541 255.633 128.722C255.403 128.862 255.151 128.96 254.888 129.013C254.676 129.054 254.457 129.036 254.255 128.961C254.065 128.877 253.908 128.733 253.808 128.551C253.685 128.322 253.621 128.066 253.622 127.806C253.613 127.723 253.631 127.639 253.674 127.568C253.7 127.5 253.747 127.443 253.808 127.404L254.3 127.121C254.374 127.076 254.441 127.061 254.478 127.083C254.504 127.095 254.527 127.113 254.545 127.135C254.563 127.157 254.576 127.182 254.583 127.21C254.616 127.285 254.656 127.358 254.702 127.426C254.751 127.492 254.818 127.541 254.896 127.568C254.994 127.59 255.096 127.59 255.194 127.568C255.352 127.53 255.503 127.467 255.641 127.381C255.782 127.297 255.916 127.203 256.043 127.098C256.174 126.996 256.289 126.876 256.386 126.741C256.482 126.612 256.562 126.472 256.624 126.324C256.684 126.174 256.714 126.015 256.713 125.854C256.72 125.796 256.715 125.737 256.699 125.68C256.682 125.624 256.654 125.572 256.617 125.526C256.576 125.491 256.529 125.465 256.477 125.449C256.426 125.434 256.372 125.43 256.319 125.437C256.152 125.447 255.987 125.475 255.827 125.519C255.633 125.564 255.402 125.616 255.149 125.661C254.947 125.71 254.738 125.726 254.531 125.705C254.369 125.697 254.216 125.631 254.098 125.519C253.972 125.392 253.884 125.232 253.845 125.057C253.779 124.802 253.749 124.538 253.756 124.275C253.758 123.945 253.806 123.616 253.897 123.299C253.989 122.977 254.12 122.667 254.285 122.375C254.446 122.085 254.644 121.817 254.873 121.578C255.074 121.342 255.31 121.138 255.574 120.974Z" fill="#FAFAFA"/>
<path d="M261.005 121.906L260.401 125.474C260.383 125.582 260.353 125.687 260.312 125.787C260.283 125.868 260.228 125.936 260.155 125.981L259.589 126.309C259.515 126.353 259.463 126.353 259.425 126.309C259.375 126.247 259.347 126.172 259.343 126.093L258.449 119.797C258.449 119.797 258.449 119.738 258.449 119.716C258.452 119.633 258.472 119.551 258.509 119.477C258.537 119.411 258.584 119.354 258.643 119.313L259.157 119.015C259.2 118.998 259.248 118.998 259.291 119.015C259.336 119.015 259.366 119.075 259.381 119.194L259.969 123.433L260.483 120.252C260.497 120.173 260.519 120.095 260.55 120.021C260.58 119.927 260.644 119.847 260.729 119.797L261.303 119.462C261.385 119.418 261.444 119.425 261.481 119.462C261.514 119.51 261.536 119.563 261.549 119.619L262.07 122.204L262.659 117.287C262.666 117.19 262.694 117.096 262.741 117.011C262.775 116.956 262.821 116.907 262.875 116.87L263.389 116.572C263.408 116.557 263.432 116.549 263.456 116.549C263.48 116.549 263.503 116.557 263.523 116.572C263.544 116.596 263.56 116.624 263.57 116.655C263.581 116.686 263.585 116.718 263.582 116.75C263.585 116.78 263.585 116.81 263.582 116.84L262.688 124.163C262.673 124.27 262.646 124.375 262.606 124.476C262.572 124.556 262.515 124.623 262.442 124.67L261.869 124.998C261.802 125.035 261.75 125.035 261.712 124.998C261.675 124.929 261.645 124.857 261.623 124.781L261.005 121.906Z" fill="#FAFAFA"/>
<path d="M264.491 118.747C264.508 118.334 264.557 117.923 264.64 117.518C264.725 117.122 264.855 116.737 265.028 116.37C265.192 116.014 265.402 115.681 265.653 115.38C265.908 115.081 266.213 114.829 266.555 114.635C266.817 114.457 267.124 114.356 267.441 114.344C267.678 114.347 267.905 114.44 268.075 114.605C268.255 114.808 268.385 115.05 268.454 115.313C268.551 115.655 268.603 116.008 268.611 116.363C268.611 116.497 268.611 116.646 268.611 116.81C268.611 116.974 268.611 117.145 268.611 117.324C268.611 117.503 268.611 117.674 268.611 117.838C268.611 118.002 268.611 118.158 268.611 118.3C268.595 118.711 268.545 119.119 268.462 119.522C268.376 119.917 268.249 120.301 268.082 120.669C267.913 121.024 267.7 121.357 267.449 121.66C267.194 121.956 266.892 122.208 266.555 122.405C266.286 122.582 265.975 122.682 265.653 122.695C265.537 122.698 265.422 122.677 265.314 122.633C265.207 122.59 265.109 122.525 265.028 122.442C264.833 122.234 264.699 121.976 264.64 121.697C264.551 121.354 264.501 121.001 264.491 120.647C264.491 120.513 264.491 120.364 264.491 120.2C264.491 120.036 264.491 119.865 264.491 119.686C264.491 119.507 264.491 119.343 264.491 119.172C264.491 119 264.484 118.881 264.491 118.747ZM267.665 116.966C267.681 116.784 267.661 116.601 267.605 116.426C267.548 116.252 267.457 116.091 267.337 115.953C267.143 115.782 266.875 115.789 266.555 115.953C266.207 116.158 265.931 116.465 265.765 116.832C265.554 117.267 265.442 117.743 265.437 118.226C265.437 118.501 265.437 118.807 265.437 119.142C265.437 119.477 265.437 119.775 265.437 120.043C265.421 120.226 265.441 120.409 265.498 120.583C265.554 120.758 265.645 120.918 265.765 121.057C265.959 121.22 266.227 121.206 266.555 121.019C266.897 120.813 267.169 120.51 267.337 120.148C267.548 119.716 267.66 119.243 267.665 118.762C267.665 118.479 267.665 118.173 267.665 117.838C267.665 117.503 267.672 117.235 267.665 116.966Z" fill="#FAFAFA"/>
<path d="M271.859 111.662C272.448 111.327 272.887 111.275 273.193 111.521C273.374 111.72 273.508 111.957 273.587 112.215C273.665 112.472 273.686 112.744 273.647 113.011C273.653 113.517 273.575 114.02 273.416 114.501C273.265 114.948 273.03 115.363 272.723 115.722L273.692 117.831C273.695 117.865 273.695 117.9 273.692 117.935C273.692 118.002 273.677 118.068 273.647 118.129C273.627 118.183 273.59 118.229 273.543 118.263L272.947 118.605C272.85 118.658 272.783 118.665 272.738 118.605C272.699 118.566 272.666 118.521 272.641 118.471L271.725 116.482L270.794 117.019V119.537C270.794 119.619 270.777 119.701 270.742 119.775C270.711 119.84 270.665 119.896 270.608 119.939L270.041 120.267C270.023 120.283 269.999 120.291 269.974 120.291C269.95 120.291 269.926 120.283 269.907 120.267C269.886 120.244 269.87 120.217 269.859 120.187C269.849 120.158 269.845 120.127 269.848 120.095V113.13C269.85 113.047 269.87 112.966 269.907 112.891C269.934 112.824 269.981 112.767 270.041 112.727L271.859 111.662ZM270.809 115.67L271.859 115.104C272.116 114.961 272.335 114.759 272.5 114.515C272.672 114.228 272.755 113.896 272.738 113.562C272.738 113.16 272.656 112.936 272.5 112.891C272.273 112.861 272.043 112.919 271.859 113.055L270.846 113.636L270.809 115.67Z" fill="#FAFAFA"/>
<path d="M276.851 108.794C277.121 108.617 277.431 108.51 277.752 108.481C277.985 108.472 278.212 108.555 278.385 108.712C278.583 108.919 278.719 109.177 278.78 109.457C278.88 109.826 278.935 110.207 278.944 110.589C278.944 111.111 278.944 111.647 278.944 112.191C278.929 112.635 278.874 113.076 278.78 113.51C278.695 113.913 278.565 114.305 278.393 114.679C278.226 115.023 278.016 115.344 277.767 115.633C277.518 115.929 277.221 116.181 276.888 116.378L275.122 117.339C275.103 117.355 275.08 117.363 275.055 117.363C275.031 117.363 275.007 117.355 274.988 117.339C274.966 117.316 274.95 117.289 274.939 117.26C274.929 117.23 274.925 117.199 274.929 117.168V110.202C274.931 110.119 274.951 110.038 274.988 109.963C275.014 109.896 275.061 109.839 275.122 109.8L276.851 108.794ZM277.998 111.111C277.995 110.909 277.965 110.709 277.909 110.515C277.874 110.368 277.799 110.234 277.692 110.127C277.646 110.081 277.59 110.044 277.528 110.02C277.467 109.995 277.401 109.984 277.335 109.986C277.148 109.998 276.968 110.06 276.813 110.165L275.875 110.701V115.558L276.851 115C277.039 114.89 277.208 114.749 277.35 114.582C277.489 114.419 277.606 114.239 277.7 114.046C277.793 113.841 277.863 113.626 277.909 113.405C277.96 113.175 277.99 112.941 277.998 112.705C278.02 112.161 278.02 111.632 277.998 111.111Z" fill="#FAFAFA"/>
<path d="M174.548 0.665549C175.834 0.951686 177.073 1.4182 178.228 2.05124C179.335 2.64595 180.326 3.43305 181.156 4.37562C181.95 5.28232 182.54 6.34953 182.885 7.50459C183.236 8.741 183.262 10.0473 182.959 11.2966C182.759 12.2871 182.367 13.2287 181.804 14.068C181.291 14.7857 180.679 15.4277 179.987 15.9752C179.307 16.503 178.581 16.9692 177.819 17.3683L175.673 18.5081C175.027 18.8452 174.413 19.2418 173.84 19.6927C173.322 20.0902 172.925 20.6242 172.693 21.2348C172.58 21.5138 172.391 21.7561 172.149 21.9351C172.035 22.0241 171.901 22.0858 171.759 22.1155C171.617 22.1452 171.47 22.1421 171.33 22.1065L168.171 21.4062C168.019 21.3743 167.875 21.3124 167.747 21.2241C167.619 21.1359 167.51 21.023 167.426 20.8921C167.337 20.7704 167.278 20.6295 167.253 20.4807C167.228 20.3318 167.239 20.1793 167.284 20.0354C167.539 19.0571 167.987 18.14 168.603 17.3385C169.165 16.6296 169.816 15.996 170.54 15.4537C171.245 14.9373 171.993 14.4813 172.775 14.0903C173.52 13.7104 174.265 13.3453 174.913 12.9803C175.516 12.6562 176.083 12.2691 176.604 11.8256C177.062 11.4426 177.379 10.9185 177.506 10.3356C177.624 9.82941 177.618 9.30208 177.489 8.79868C177.359 8.29529 177.109 7.83081 176.761 7.44499C175.89 6.49386 174.725 5.86178 173.453 5.64956C171.099 5.12806 169.112 5.92024 167.493 8.02609C167.337 8.25595 167.14 8.45539 166.912 8.61463C166.655 8.7421 166.358 8.7635 166.085 8.67423L162.725 7.92924C162.485 7.88293 162.274 7.74365 162.137 7.54184C162.063 7.43401 162.014 7.31167 161.992 7.18313C161.97 7.05458 161.976 6.92284 162.01 6.79684C162.295 5.76164 162.827 4.81083 163.559 4.02547C164.385 3.11468 165.367 2.35792 166.457 1.79049C167.65 1.16648 168.936 0.738832 170.264 0.524001C171.688 0.292449 173.143 0.340527 174.548 0.665549ZM170.98 24.6394C171.275 24.7088 171.532 24.8911 171.695 25.1473C171.858 25.4034 171.914 25.7132 171.851 26.0102L171.047 29.6607C171.019 29.8135 170.96 29.9589 170.873 30.0873C170.786 30.2157 170.672 30.3242 170.54 30.4057C170.415 30.4917 170.274 30.5507 170.125 30.5789C169.976 30.6071 169.823 30.6039 169.676 30.5696L166.07 29.7426C165.917 29.7168 165.771 29.6582 165.642 29.5707C165.514 29.4833 165.406 29.3691 165.325 29.236C165.242 29.1102 165.185 28.9687 165.158 28.8201C165.131 28.6715 165.135 28.519 165.169 28.3719L165.981 24.7214C166.05 24.4255 166.232 24.1682 166.488 24.0041C166.744 23.84 167.054 23.782 167.351 23.8423L170.98 24.6394Z" fill="#8D37FF"/>
<path d="M178.526 35.6132C179.423 35.4693 180.336 35.4517 181.238 35.561C182.1 35.6634 182.937 35.9156 183.712 36.306C184.449 36.6888 185.099 37.2217 185.619 37.8705C186.086 38.5055 186.415 39.2313 186.584 40.0012C186.754 40.7712 186.76 41.5681 186.602 42.3405C186.46 42.9343 186.232 43.5041 185.924 44.0316C185.628 44.5447 185.284 45.0286 184.896 45.4769C184.516 45.9239 184.151 46.3485 183.816 46.7583C183.488 47.14 183.196 47.5516 182.944 47.9875C182.708 48.3696 182.589 48.8125 182.602 49.2615C182.595 49.4713 182.536 49.6762 182.43 49.8575C182.376 49.941 182.305 50.0121 182.222 50.0661C182.138 50.12 182.044 50.1556 181.946 50.1704L179.711 50.528C179.607 50.5469 179.499 50.5448 179.396 50.5218C179.292 50.4988 179.194 50.4553 179.108 50.3939C179.02 50.3385 178.946 50.2631 178.893 50.1737C178.84 50.0843 178.809 49.9836 178.802 49.8798C178.708 49.1866 178.759 48.4814 178.951 47.8087C179.126 47.2132 179.377 46.6424 179.696 46.1101C180.009 45.5993 180.368 45.1181 180.769 44.6723C181.164 44.2253 181.514 43.8081 181.857 43.4058C182.162 43.0465 182.427 42.6542 182.646 42.2362C182.84 41.8763 182.911 41.4629 182.847 41.0591C182.791 40.7037 182.65 40.367 182.436 40.0778C182.222 39.7886 181.942 39.5553 181.618 39.3977C180.817 39.0109 179.911 38.9008 179.04 39.0849C178.253 39.2001 177.52 39.5562 176.942 40.1044C176.365 40.6525 175.971 41.366 175.815 42.1468C175.771 42.3346 175.695 42.5135 175.591 42.6757C175.458 42.8171 175.278 42.9047 175.085 42.9216L172.73 43.3015C172.565 43.3332 172.394 43.2984 172.254 43.2047C172.182 43.1554 172.121 43.0913 172.077 43.0168C172.032 42.9423 172.003 42.859 171.993 42.7726C171.923 42.0333 172.038 41.2882 172.328 40.6046C172.623 39.8092 173.057 39.0726 173.609 38.4293C174.215 37.7248 174.93 37.1213 175.725 36.6413C176.584 36.1207 177.535 35.7715 178.526 35.6132ZM182.371 51.8913C182.473 51.875 182.578 51.8791 182.679 51.9034C182.78 51.9277 182.875 51.9717 182.959 52.0328C183.047 52.0906 183.122 52.1662 183.178 52.2548C183.235 52.3434 183.272 52.4429 183.287 52.5469L183.704 55.1022C183.736 55.3095 183.686 55.5212 183.563 55.6913C183.44 55.8615 183.255 55.9764 183.049 56.0111L180.553 56.4209C180.346 56.4529 180.134 56.402 179.964 56.2793C179.878 56.2208 179.805 56.1449 179.749 56.0563C179.694 55.9678 179.658 55.8686 179.644 55.7653L179.227 53.2099C179.208 53.1074 179.211 53.002 179.235 52.9006C179.259 52.7992 179.305 52.7041 179.368 52.6214C179.427 52.535 179.503 52.4618 179.591 52.4066C179.68 52.3514 179.779 52.3155 179.882 52.301L182.371 51.8913Z" fill="#8D37FF"/>
<g opacity="0.2">
<path d="M178.526 35.6132C179.423 35.4693 180.336 35.4517 181.238 35.561C182.1 35.6634 182.937 35.9156 183.712 36.306C184.449 36.6888 185.099 37.2217 185.619 37.8705C186.086 38.5055 186.415 39.2313 186.584 40.0012C186.754 40.7712 186.76 41.5681 186.602 42.3405C186.46 42.9343 186.232 43.5041 185.924 44.0316C185.628 44.5447 185.284 45.0286 184.896 45.4769C184.516 45.9239 184.151 46.3485 183.816 46.7583C183.488 47.14 183.196 47.5516 182.944 47.9875C182.708 48.3696 182.589 48.8125 182.602 49.2615C182.595 49.4713 182.536 49.6762 182.43 49.8575C182.376 49.941 182.305 50.0121 182.222 50.0661C182.138 50.12 182.044 50.1556 181.946 50.1704L179.711 50.528C179.607 50.5469 179.499 50.5448 179.396 50.5218C179.292 50.4988 179.194 50.4553 179.108 50.3939C179.02 50.3385 178.946 50.2631 178.893 50.1737C178.84 50.0843 178.809 49.9836 178.802 49.8798C178.708 49.1866 178.759 48.4814 178.951 47.8087C179.126 47.2132 179.377 46.6424 179.696 46.1101C180.009 45.5993 180.368 45.1181 180.769 44.6723C181.164 44.2253 181.514 43.8081 181.857 43.4058C182.162 43.0465 182.427 42.6542 182.646 42.2362C182.84 41.8763 182.911 41.4629 182.847 41.0591C182.791 40.7037 182.65 40.367 182.436 40.0778C182.222 39.7886 181.942 39.5553 181.618 39.3977C180.817 39.0109 179.911 38.9008 179.04 39.0849C178.253 39.2001 177.52 39.5562 176.942 40.1044C176.365 40.6525 175.971 41.366 175.815 42.1468C175.771 42.3346 175.695 42.5135 175.591 42.6757C175.458 42.8171 175.278 42.9047 175.085 42.9216L172.73 43.3015C172.565 43.3332 172.394 43.2984 172.254 43.2047C172.182 43.1554 172.121 43.0913 172.077 43.0168C172.032 42.9423 172.003 42.859 171.993 42.7726C171.923 42.0333 172.038 41.2882 172.328 40.6046C172.623 39.8092 173.057 39.0726 173.609 38.4293C174.215 37.7248 174.93 37.1213 175.725 36.6413C176.584 36.1207 177.535 35.7715 178.526 35.6132ZM182.371 51.8913C182.473 51.875 182.578 51.8791 182.679 51.9034C182.78 51.9277 182.875 51.9717 182.959 52.0328C183.047 52.0906 183.122 52.1662 183.178 52.2548C183.235 52.3434 183.272 52.4429 183.287 52.5469L183.704 55.1022C183.736 55.3095 183.686 55.5212 183.563 55.6913C183.44 55.8615 183.255 55.9764 183.049 56.0111L180.553 56.4209C180.346 56.4529 180.134 56.402 179.964 56.2793C179.878 56.2208 179.805 56.1449 179.749 56.0563C179.694 55.9678 179.658 55.8686 179.644 55.7653L179.227 53.2099C179.208 53.1074 179.211 53.002 179.235 52.9006C179.259 52.7992 179.305 52.7041 179.368 52.6214C179.427 52.535 179.503 52.4618 179.591 52.4066C179.68 52.3514 179.779 52.3155 179.882 52.301L182.371 51.8913Z" fill="black"/>
</g>
<path d="M199.595 39.6287C199.696 39.6993 199.782 39.7899 199.848 39.895C199.913 40 199.956 40.1173 199.975 40.2396C199.998 40.3608 199.997 40.4856 199.97 40.6062C199.943 40.7267 199.891 40.8403 199.818 40.9399L198.045 43.4356C197.975 43.5372 197.884 43.6233 197.779 43.6886C197.674 43.754 197.557 43.7972 197.434 43.8156C197.313 43.8393 197.188 43.8376 197.068 43.8107C196.947 43.7838 196.834 43.7322 196.734 43.6591L194.29 41.9233C194.189 41.8536 194.103 41.7631 194.039 41.6578C193.974 41.5525 193.933 41.4348 193.918 41.3124C193.894 41.1912 193.896 41.0664 193.923 40.9459C193.95 40.8254 194.001 40.7117 194.074 40.6121L195.87 38.1164C196.015 37.9141 196.234 37.7772 196.48 37.7354C196.725 37.6935 196.977 37.7501 197.181 37.8929L199.595 39.6287ZM209.906 22.7248C210.797 23.3492 211.59 24.1024 212.26 24.9598C212.913 25.7573 213.418 26.6657 213.75 27.6418C214.059 28.5771 214.163 29.5681 214.055 30.5473C213.929 31.5914 213.534 32.5849 212.908 33.4304C212.443 34.114 211.845 34.6968 211.15 35.1439C210.538 35.5275 209.872 35.8187 209.175 36.0081C208.496 36.1855 207.804 36.3052 207.104 36.3657L205.123 36.5445C204.528 36.5919 203.94 36.6942 203.365 36.8499C202.834 36.9704 202.348 37.2391 201.964 37.6247C201.791 37.8009 201.571 37.9248 201.331 37.9823C201.216 38.0151 201.096 38.02 200.979 37.9967C200.862 37.9734 200.753 37.9225 200.66 37.8482L198.5 36.3135C198.293 36.166 198.152 35.9445 198.105 35.6952C198.077 35.5743 198.078 35.4486 198.108 35.3283C198.138 35.2079 198.195 35.0962 198.276 35.0023C198.781 34.3474 199.412 33.8003 200.131 33.3931C200.779 33.0393 201.47 32.7714 202.187 32.596C202.88 32.4281 203.585 32.3209 204.296 32.2756C204.996 32.2309 205.652 32.1788 206.263 32.1192C206.822 32.0698 207.374 31.9599 207.909 31.7914C208.377 31.6355 208.781 31.329 209.056 30.9198C209.305 30.5742 209.467 30.1736 209.528 29.7521C209.589 29.3305 209.547 28.9005 209.406 28.4985C209.054 27.5056 208.38 26.6587 207.492 26.0922C205.883 24.9449 204.127 24.9077 202.225 25.9804C202.033 26.1023 201.821 26.1881 201.599 26.2337C201.483 26.2418 201.367 26.2269 201.257 26.1898C201.147 26.1527 201.045 26.0942 200.958 26.0177L198.664 24.3862C198.581 24.331 198.509 24.2597 198.454 24.1765C198.399 24.0933 198.362 24 198.343 23.9019C198.325 23.8005 198.329 23.6966 198.353 23.5965C198.378 23.4965 198.422 23.4026 198.485 23.3208C199.026 22.6272 199.73 22.0771 200.534 21.7191C201.447 21.3054 202.425 21.0533 203.424 20.9741C204.524 20.8822 205.631 20.9703 206.702 21.2348C207.858 21.5135 208.947 22.02 209.906 22.7248Z" fill="#8D37FF"/>
<g opacity="0.6">
<path d="M199.595 39.6287C199.696 39.6993 199.782 39.7899 199.848 39.895C199.913 40 199.956 40.1173 199.975 40.2396C199.998 40.3608 199.997 40.4856 199.97 40.6062C199.943 40.7267 199.891 40.8403 199.818 40.9399L198.045 43.4356C197.975 43.5372 197.884 43.6233 197.779 43.6886C197.674 43.754 197.557 43.7972 197.434 43.8156C197.313 43.8393 197.188 43.8376 197.068 43.8107C196.947 43.7838 196.834 43.7322 196.734 43.6591L194.29 41.9233C194.189 41.8536 194.103 41.7631 194.039 41.6578C193.974 41.5525 193.933 41.4348 193.918 41.3124C193.894 41.1912 193.896 41.0664 193.923 40.9459C193.95 40.8254 194.001 40.7117 194.074 40.6121L195.87 38.1164C196.015 37.9141 196.234 37.7772 196.48 37.7354C196.725 37.6935 196.977 37.7501 197.181 37.8929L199.595 39.6287ZM209.906 22.7248C210.797 23.3492 211.59 24.1024 212.26 24.9598C212.913 25.7573 213.418 26.6657 213.75 27.6418C214.059 28.5771 214.163 29.5681 214.055 30.5473C213.929 31.5914 213.534 32.5849 212.908 33.4304C212.443 34.114 211.845 34.6968 211.15 35.1439C210.538 35.5275 209.872 35.8187 209.175 36.0081C208.496 36.1855 207.804 36.3052 207.104 36.3657L205.123 36.5445C204.528 36.5919 203.94 36.6942 203.365 36.8499C202.834 36.9704 202.348 37.2391 201.964 37.6247C201.791 37.8009 201.571 37.9248 201.331 37.9823C201.216 38.0151 201.096 38.02 200.979 37.9967C200.862 37.9734 200.753 37.9225 200.66 37.8482L198.5 36.3135C198.293 36.166 198.152 35.9445 198.105 35.6952C198.077 35.5743 198.078 35.4486 198.108 35.3283C198.138 35.2079 198.195 35.0962 198.276 35.0023C198.781 34.3474 199.412 33.8003 200.131 33.3931C200.779 33.0393 201.47 32.7714 202.187 32.596C202.88 32.4281 203.585 32.3209 204.296 32.2756C204.996 32.2309 205.652 32.1788 206.263 32.1192C206.822 32.0698 207.374 31.9599 207.909 31.7914C208.377 31.6355 208.781 31.329 209.056 30.9198C209.305 30.5742 209.467 30.1736 209.528 29.7521C209.589 29.3305 209.547 28.9005 209.406 28.4985C209.054 27.5056 208.38 26.6587 207.492 26.0922C205.883 24.9449 204.127 24.9077 202.225 25.9804C202.033 26.1023 201.821 26.1881 201.599 26.2337C201.483 26.2418 201.367 26.2269 201.257 26.1898C201.147 26.1527 201.045 26.0942 200.958 26.0177L198.664 24.3862C198.581 24.331 198.509 24.2597 198.454 24.1765C198.399 24.0933 198.362 24 198.343 23.9019C198.325 23.8005 198.329 23.6966 198.353 23.5965C198.378 23.4965 198.422 23.4026 198.485 23.3208C199.026 22.6272 199.73 22.0771 200.534 21.7191C201.447 21.3054 202.425 21.0533 203.424 20.9741C204.524 20.8822 205.631 20.9703 206.702 21.2348C207.858 21.5135 208.947 22.02 209.906 22.7248Z" fill="white"/>
</g>
<path d="M144.115 105.575H117.646V41.4464C117.646 35.8765 119.858 30.5347 123.797 26.5962C127.735 22.6577 133.077 20.4451 138.647 20.4451H141.09C146.66 20.4451 152.002 22.6577 155.941 26.5962C159.879 30.5347 162.092 35.8765 162.092 41.4464V87.636C162.082 92.3973 160.184 96.9602 156.813 100.323C153.443 103.687 148.876 105.576 144.115 105.575Z" fill="#263238"/>
<path d="M115.068 259.96C114.6 262.618 114.35 265.309 114.323 268.006C114.226 272.894 113.332 274.629 113.213 278.637C113.071 283.219 113.868 284.933 115.723 287.51C117.578 290.088 122.428 292.42 124.529 288.069C126.63 283.718 126.325 280.865 125.662 276.373C124.984 271.724 124.917 269.154 124.499 265.615C124.157 262.493 123.754 260.117 123.754 260.117L115.068 259.96Z" fill="#263238"/>
<path d="M128.94 227.501L112.848 227.211C113.086 237.953 114.792 249.881 115.083 259.99C115.142 261.89 115.038 274.734 115.753 278.615C116.834 284.486 123.792 283.689 124.164 280.18C124.537 276.671 123.717 261.674 123.74 260.124C123.673 253.658 126.72 242.744 128.291 231.137C128.359 230.578 128.865 228.06 128.94 227.501Z" fill="#FFA8A7"/>
<path d="M149.613 251.602C149.613 251.602 148.98 251.259 148.868 251.937C148.712 252.742 148.473 254.403 148.123 255.729C147.661 257.569 147.274 260.601 147.55 262.106C147.825 263.611 151.327 265.533 153.599 266.233C156.399 267.098 158.953 268.617 161.049 270.666C163.284 272.782 168.149 274.778 171.479 274.756C175.39 274.756 178.117 273.452 179.405 271.359C180.694 269.266 178.228 269.012 173.758 266.144L170.294 263.909C163.209 259.283 160.609 256.809 158.62 252.183L149.613 251.602Z" fill="#263238"/>
<path d="M158.68 248.733C158.561 245.411 160.855 217.168 160.855 217.168L145.575 224.134C148.846 243.668 149.546 248.279 149.598 251.475C149.531 251.743 149.504 252.019 149.516 252.295C149.516 256.087 153.815 258.135 157.153 260.668C159.99 262.891 163.013 264.865 166.189 266.569C168.618 267.783 173.55 267.895 174.161 266.338C170.093 263.231 164.178 258.582 160.945 255.036C159.365 253.367 158.799 252.064 158.68 248.733Z" fill="#FFA8A7"/>
<path d="M119.441 122.673C113.57 135.554 113.57 145.522 114.546 161.964C115.41 177.05 116.848 190.348 116.848 190.348C116.625 193.023 112.907 198.245 112.423 210.076C111.976 221.132 113.168 235.19 113.168 235.19C113.168 235.19 121.519 239.816 127.695 235.145C127.695 235.145 133.655 206.694 135.399 192.852C136.889 180.775 139.571 165.346 139.571 165.346L145.21 192.77C143.993 196.661 143.111 200.648 142.573 204.69C141.783 212.832 146.343 228.82 146.343 228.82C146.343 228.82 154.97 231.39 160.237 226.719C160.237 226.719 162.204 200.726 162.941 190.922C163.924 177.788 161.853 142.237 160.237 123.411L119.441 122.673Z" fill="#455A64"/>
<path d="M139.586 165.324L141.903 144.658C141.903 144.658 152.288 143.272 156.996 138.847C155.648 140.955 153.853 142.741 151.738 144.078C149.622 145.414 147.239 146.268 144.756 146.58L141.403 165.808L145.21 192.77L139.586 165.324Z" fill="#263238"/>
<path d="M181.64 117.592C182.069 113.821 182.259 110.026 182.207 106.231C181.976 102.953 181.387 102.417 176.805 96.6132C170.622 88.7684 165.34 81.7133 159.752 74.703C155.759 69.6966 151.558 68.9293 147.475 69.1528C144.614 69.3092 150.202 83.0692 153.01 91.212L169.05 108.481C169.547 109.163 169.775 110.003 169.691 110.843L168.722 125.534L173.527 131.971C173.527 131.971 180.806 125.698 181.64 117.592Z" fill="#FFA8A7"/>
<path d="M132.009 69.5997C128.902 69.8158 123.255 70.3447 123.255 70.3447C120 72.1625 119.173 73.66 118.569 77.9809C118.309 79.8285 119.813 84.738 121.102 91.7186L123.546 104.659L123.278 111.081C122.011 115 119.143 119.864 116.61 127.039C129.051 133.982 139.481 134.243 148.943 132.999C156.154 132.067 159.976 130.324 161.25 128.596C160.982 121.511 160.505 117.13 160.356 109.725C160.304 106.618 160.49 103.475 160.617 99.8986C165.452 95.9204 165.511 89.3048 162.852 84.9988C156.72 75.068 150.753 68.8175 146.805 69.1379L132.009 69.5997Z" fill="#8D37FF"/>
<path opacity="0.6" d="M132.009 69.5997C128.902 69.8158 123.255 70.3447 123.255 70.3447C120 72.1625 119.173 73.66 118.569 77.9809C118.309 79.8285 119.813 84.738 121.102 91.7186L123.546 104.659L123.278 111.081C122.011 115 119.143 119.864 116.61 127.039C129.051 133.982 139.481 134.243 148.943 132.999C156.154 132.067 159.976 130.324 161.25 128.596C160.982 121.511 160.505 117.13 160.356 109.725C160.304 106.618 160.49 103.475 160.617 99.8986C165.452 95.9204 165.511 89.3048 162.852 84.9988C156.72 75.068 150.753 68.8175 146.805 69.1379L132.009 69.5997Z" fill="white"/>
<path opacity="0.1" d="M150.984 99.9955C150.984 99.9955 145.307 104.406 138.818 102.104C136.996 101.53 135.353 100.495 134.048 99.0998C132.743 97.7046 131.82 95.9962 131.368 94.1399C131.368 94.1399 130.683 101.553 138.855 104.078C146.775 106.514 150.984 99.9955 150.984 99.9955Z" fill="black"/>
<path d="M158.687 49.254C158.441 60.0117 154.962 62.6639 153.204 63.4089C151.446 64.1539 148.079 63.7069 144.801 63.163V69.6594C144.801 69.6594 148.585 73.6227 148.302 76.5804C148.019 79.538 142.342 79.8733 138.111 76.9752C135.776 75.3714 133.664 73.465 131.83 71.3058C131.478 70.8893 131.285 70.3612 131.286 69.8158V54.618C131.286 54.618 129.491 56.5177 126.317 54.3423C125.632 53.9053 125.046 53.3306 124.595 52.6547C124.145 51.9788 123.84 51.2165 123.7 50.4164C123.559 49.6162 123.587 48.7956 123.781 48.0068C123.976 47.218 124.332 46.4782 124.827 45.8345C126.213 44.203 129.729 44.0912 131.413 46.5795C132.367 48.4345 132.493 50.3045 133.559 49.5595C136.39 47.5182 134.87 42.8545 138.289 40.6195C139.411 40.0339 140.577 39.5357 141.776 39.1295C147.877 37.0212 153.167 35.2481 154.441 31.0762C156.84 32.447 158.985 36.5668 158.687 49.254Z" fill="#FFA8A7"/>
<path d="M146.655 58.8644C147.437 58.8644 148.071 58.2307 148.071 57.4489C148.071 56.6672 147.437 56.0334 146.655 56.0334C145.874 56.0334 145.24 56.6672 145.24 57.4489C145.24 58.2307 145.874 58.8644 146.655 58.8644Z" fill="#B16668"/>
<path d="M145.717 47.6225C145.716 47.9139 145.631 48.1988 145.47 48.442C145.309 48.6852 145.081 48.8758 144.813 48.9905C144.545 49.1051 144.249 49.1387 143.962 49.0869C143.676 49.0352 143.41 48.9006 143.199 48.6996C142.988 48.4986 142.841 48.2401 142.775 47.9561C142.709 47.6722 142.729 47.3752 142.83 47.102C142.931 46.8288 143.111 46.5913 143.346 46.419C143.581 46.2467 143.861 46.1471 144.152 46.1325C144.354 46.1224 144.556 46.1534 144.745 46.2238C144.935 46.2941 145.108 46.4023 145.254 46.5416C145.401 46.681 145.517 46.8487 145.597 47.0345C145.676 47.2203 145.717 47.4204 145.717 47.6225Z" fill="#263238"/>
<path d="M157.003 47.7714C157.019 47.9537 156.997 48.1372 156.941 48.3112C156.885 48.4852 156.794 48.6462 156.675 48.7849C156.556 48.9236 156.41 49.0372 156.246 49.119C156.083 49.2008 155.905 49.2492 155.722 49.2614C155.538 49.2784 155.352 49.2561 155.177 49.1958C155.003 49.1356 154.843 49.0388 154.708 48.912C154.573 48.7852 154.467 48.6312 154.397 48.4602C154.326 48.2893 154.293 48.1053 154.299 47.9204C154.28 47.7368 154.298 47.5512 154.353 47.375C154.408 47.1987 154.499 47.0356 154.619 46.8956C154.74 46.7556 154.887 46.6416 155.053 46.5606C155.219 46.4797 155.4 46.4335 155.584 46.4248C155.769 46.4162 155.953 46.4453 156.126 46.5104C156.298 46.5755 156.456 46.6752 156.589 46.8033C156.722 46.9315 156.827 47.0855 156.898 47.2558C156.97 47.4261 157.005 47.6092 157.003 47.7938V47.7714Z" fill="#263238"/>
<path d="M143.802 51.4517C142.517 51.4517 141.285 50.9418 140.375 50.0339C139.466 49.1259 138.954 47.8943 138.952 46.6093C138.952 43.3164 142.349 43.3164 143.802 43.3164C145.255 43.3164 148.645 43.3164 148.645 46.6093C148.643 47.893 148.132 49.1235 147.224 50.0312C146.316 50.9389 145.086 51.4498 143.802 51.4517ZM143.802 44.0763C140.822 44.0763 139.72 44.8213 139.72 46.6093C139.72 47.696 140.151 48.7382 140.92 49.5066C141.688 50.275 142.73 50.7067 143.817 50.7067C144.904 50.7067 145.946 50.275 146.714 49.5066C147.483 48.7382 147.915 47.696 147.915 46.6093C147.885 44.784 146.737 44.0763 143.802 44.0763Z" fill="#455A64"/>
<path d="M156.102 51.4517C154.817 51.4517 153.585 50.9418 152.675 50.0339C151.766 49.1259 151.254 47.8943 151.252 46.6093C151.252 43.3164 154.649 43.3164 156.102 43.3164C157.555 43.3164 160.945 43.3164 160.945 46.6093C160.943 47.893 160.432 49.1235 159.524 50.0312C158.616 50.9389 157.386 51.4498 156.102 51.4517ZM156.102 44.0763C153.167 44.0763 152.02 44.8213 152.02 46.6093C152.02 47.696 152.451 48.7382 153.22 49.5066C153.988 50.275 155.03 50.7067 156.117 50.7067C157.204 50.7067 158.246 50.275 159.014 49.5066C159.783 48.7382 160.214 47.696 160.214 46.6093C160.185 44.784 159.037 44.0763 156.102 44.0763Z" fill="#455A64"/>
<path d="M149.397 45.0448L149.635 54.0965L154.396 52.6214L149.397 45.0448Z" fill="#F28F8F"/>
<path d="M144.793 63.1853C141.336 62.7309 134.222 60.6896 133.112 57.8735C133.558 59.2967 134.429 60.5496 135.607 61.4644C137.731 63.2896 144.793 65.3384 144.793 65.3384V63.1853Z" fill="#F28F8F"/>
<path d="M144.964 40.6494L141.806 42.5789C141.557 42.1453 141.484 41.6324 141.604 41.1468C141.723 40.6613 142.025 40.2403 142.446 39.9715C142.655 39.845 142.887 39.7621 143.128 39.7278C143.369 39.6935 143.615 39.7085 143.85 39.7718C144.086 39.8352 144.306 39.9456 144.497 40.0965C144.689 40.2473 144.848 40.4354 144.964 40.6494Z" fill="#263238"/>
<path d="M157.816 42.7949L154.299 41.5657C154.367 41.3326 154.482 41.116 154.637 40.929C154.792 40.742 154.983 40.5887 155.2 40.4785C155.416 40.3682 155.653 40.3034 155.895 40.2879C156.137 40.2725 156.38 40.3067 156.609 40.3886C157.08 40.558 157.469 40.9024 157.693 41.3504C157.918 41.7983 157.962 42.3156 157.816 42.7949Z" fill="#263238"/>
<path d="M148.265 46.9967C148.214 46.9967 148.164 46.9866 148.118 46.967C148.071 46.9475 148.029 46.9188 147.993 46.8828C147.958 46.8467 147.93 46.8039 147.912 46.7569C147.893 46.71 147.884 46.6598 147.885 46.6093C147.885 45.9909 149.107 45.5886 150.209 45.5886C151.312 45.5886 152.02 45.9909 152.02 46.6093C151.996 46.6902 151.948 46.7614 151.88 46.8121C151.813 46.8628 151.731 46.8903 151.647 46.8903C151.563 46.8903 151.481 46.8628 151.414 46.8121C151.347 46.7614 151.298 46.6902 151.275 46.6093C151.275 46.5348 150.895 46.3485 150.232 46.3485C149.698 46.3372 149.167 46.4282 148.667 46.6167C148.667 46.6685 148.657 46.7198 148.636 46.7675C148.616 46.8151 148.586 46.858 148.548 46.8936C148.51 46.9292 148.466 46.9567 148.417 46.9744C148.368 46.9921 148.317 46.9997 148.265 46.9967Z" fill="#455A64"/>
<path d="M139.347 46.6689H139.302L130.787 45.9239C130.389 45.5295 129.915 45.2203 129.394 45.015L139.392 45.9388C139.492 45.9519 139.583 46.0036 139.646 46.0829C139.709 46.1623 139.738 46.2629 139.727 46.3635C139.71 46.4508 139.662 46.5293 139.593 46.5851C139.523 46.641 139.436 46.6706 139.347 46.6689Z" fill="#455A64"/>
<path d="M104.385 55.5492C107.171 51.8243 109.071 49.0156 111.611 45.8643C113.056 44.054 113.98 42.7577 115.336 40.9027C116.29 39.6213 116.826 38.541 117.914 38.1462C119.089 37.6647 120.148 36.9383 121.02 36.0155C121.557 35.4222 122.054 34.7951 122.51 34.1381C124.107 31.9889 126.004 30.0796 128.142 28.4687C130.377 26.785 132.873 25.4888 135.175 23.887C136.546 22.926 138.014 21.3317 136.345 19.8417C135.833 19.4107 135.221 19.116 134.564 18.985C130.504 18.1059 126.973 19.499 123.002 20.5122C121.277 20.9427 119.59 21.5133 117.958 22.2182C117.156 22.5357 116.403 22.9673 115.723 23.4996C114.773 24.4575 113.995 25.5713 113.421 26.7925C111.686 29.8917 107.961 32.663 105.353 35.1141C102.306 37.9823 99.5794 40.6121 96.1003 43.7709C92.9713 46.6242 89.9094 49.2466 87.0411 52.3607C84.6646 54.9309 85.5512 56.9424 85.8641 57.6427C87.801 61.6209 89.969 63.0513 92.569 65.5173C97.039 69.7861 112.498 82.071 117.616 86.1312C118.715 86.9949 119.579 88.1225 120.126 89.4092L121.11 91.6814C126.95 92.7542 130.847 83.9856 126.012 73.4291C125.211 71.722 123.988 70.2476 122.458 69.1454C116.349 64.6978 104.385 55.5492 104.385 55.5492Z" fill="#FFA8A7"/>
<path d="M104.385 55.5492C102.526 57.8362 100.048 59.5404 97.2476 60.4587C97.2476 60.4587 100.973 61.4123 106.076 56.8306L104.385 55.5492Z" fill="#F28F8F"/>
<path d="M180.121 109.822L179.167 109.003C179.025 108.909 178.862 108.85 178.692 108.83C178.523 108.811 178.351 108.832 178.191 108.891L167.843 111.707C167.322 111.881 166.844 112.165 166.443 112.54C166.042 112.916 165.727 113.374 165.519 113.882L158.069 135.36C157.979 135.535 157.944 135.733 157.968 135.929C157.992 136.124 158.074 136.307 158.203 136.456L159.186 137.305C159.329 137.403 159.494 137.466 159.667 137.487C159.84 137.507 160.015 137.486 160.177 137.424L170.54 134.608C171.061 134.434 171.539 134.15 171.94 133.774C172.341 133.399 172.657 132.941 172.864 132.433C174.354 128.208 178.824 115.178 180.314 110.954C180.493 110.425 180.404 110.023 180.121 109.822Z" fill="#455A64"/>
<path d="M159.045 136.187L166.495 114.709C166.702 114.201 167.017 113.744 167.418 113.369C167.82 112.995 168.298 112.712 168.819 112.541L179.16 109.725C180.121 109.464 180.65 110.016 180.307 110.954C178.817 115.178 174.347 128.208 172.857 132.432C172.649 132.941 172.334 133.399 171.933 133.774C171.531 134.15 171.054 134.434 170.533 134.608L160.192 137.454C159.239 137.677 158.724 137.126 159.045 136.187Z" fill="#8D37FF"/>
<path d="M167.694 113.137C167.156 113.545 166.739 114.091 166.487 114.717L159.037 136.187C158.952 136.358 158.916 136.549 158.935 136.739C158.953 136.928 159.025 137.109 159.142 137.26L158.218 136.47C158.085 136.324 158.001 136.141 157.976 135.945C157.95 135.749 157.985 135.55 158.076 135.375L165.526 113.897C165.762 113.313 166.144 112.8 166.636 112.407L167.694 113.137Z" fill="#37474F"/>
<path d="M177.282 119.611C176.537 121.794 173.952 123.254 169.676 124.267C165.4 125.281 163.038 129.818 163.716 131.196C164.394 132.574 171.307 133.863 174.071 133.468C176.835 133.073 179.607 129.08 180.448 127.843C181.29 126.607 182.259 117.98 181.372 116.795C180.486 115.611 178.616 115.797 178.616 115.797L177.282 119.611Z" fill="#F28F8F"/>
</svg>
